<?xml version="1.0" encoding="UTF-8"?>
<svg width="16px" height="16px" viewBox="0 0 16 16" version="1.1" xmlns="http://www.w3.org/2000/svg" xmlns:xlink="http://www.w3.org/1999/xlink">
  <title>切片</title>
  <g id="页面-1" stroke="none" stroke-width="1" fill="none" fill-rule="evenodd">
    <g id="兑换-更多" transform="translate(-1858.000000, -87.000000)" fill-rule="nonzero">
      <g id="编组-2" transform="translate(1694.000000, 68.000000)">
        <g id="符号-文档" transform="translate(164.000000, 19.000000)">
          <rect id="矩形" fill="#000000" opacity="0" x="0" y="0" width="16" height="16"></rect>
          <path d="M3.8225,1 C2.81589286,1 2,1.83946429 2,2.875 L2,14.125 C2,15.1605357 2.81589286,16 3.8225,16 L12.935,16 C13.9410714,16 14.8571429,15.1605357 14.8571429,14.125 L14.8571429,4.3 L11.7408929,1 L3.8225,1 Z M11.1071429,2.07142857 L13.7857143,4.75 L11.5448214,4.75 C11.3030982,4.75 11.1071429,4.55404463 11.1071429,4.31232143 L11.1071429,2.07142857 L11.1071429,2.07142857 Z M12.8926786,14.9285714 L3.96446429,14.9285714 C3.47160714,14.9285714 3.07142857,14.5171429 3.07142857,14.0103571 L3.07142857,2.98964286 C3.07142857,2.48285714 3.47107143,2.07142857 3.96446429,2.07142857 L10.2141071,2.07142857 L10.2141071,4.82660714 C10.2141071,5.33392857 10.6142857,5.74482143 11.1071429,5.74482143 L13.7857143,5.74482143 L13.7857143,14.0103571 C13.7857143,14.5171429 13.3860714,14.9285714 12.8926786,14.9285714 Z M9.08642857,6.89285714 L4.55642857,6.89285714 C4.31321429,6.86446429 4.13321429,6.63410714 4.145,6.36785714 C4.12142857,6.09410714 4.30517857,5.85035714 4.55642857,5.82142857 L9.08642857,5.82142857 C9.33821429,5.85035714 9.52142857,6.09410714 9.49785714,6.36785714 C9.51017857,6.63410714 9.32964286,6.86446429 9.08642857,6.89285714 L9.08642857,6.89285714 Z M12.3060714,9.57142857 L4.55107143,9.57142857 C4.31321429,9.52 4.14285714,9.29607143 4.14285714,9.03571429 C4.14285714,8.77535714 4.31321429,8.55142857 4.55053571,8.5 L12.3071429,8.5 C12.5444643,8.55142857 12.7148214,8.77535714 12.7148214,9.03571429 C12.7148214,9.29607143 12.5444643,9.52 12.3071429,9.57142857 L12.3060714,9.57142857 Z M12.3060714,12.25 L4.55107143,12.25 C4.31321429,12.1985714 4.14285714,11.9746429 4.14285714,11.7142857 C4.14285714,11.4539286 4.31321429,11.23 4.55053571,11.1785714 L12.3071429,11.1785714 C12.5444643,11.23 12.7148214,11.4539286 12.7148214,11.7142857 C12.7148214,11.9746429 12.5444643,12.1985714 12.3071429,12.25 L12.3060714,12.25 Z" id="形状" stroke="#ffffff" stroke-width="0.1" fill="#ffffff"></path>
        </g>
      </g>
    </g>
  </g>
</svg>