<?xml version="1.0" encoding="UTF-8"?>
<svg width="16px" height="16px" viewBox="0 0 16 16" version="1.1" xmlns="http://www.w3.org/2000/svg" xmlns:xlink="http://www.w3.org/1999/xlink">
  <title>切片</title>
  <defs>
    <filter id="filter-1">
      <feColorMatrix in="SourceGraphic" type="matrix" values="0 0 0 0 0.337255 0 0 0 0 0.352941 0 0 0 0 0.411765 0 0 0 1.000000 0"></feColorMatrix>
    </filter>
  </defs>
  <g id="页面-1" stroke="none" stroke-width="1" fill="none" fill-rule="evenodd">
    <g id="兑换-更多" transform="translate(-1858.000000, -277.000000)">
      <g id="编组-2" transform="translate(1694.000000, 68.000000)">
        <g id="邮箱" transform="translate(164.000000, 209.000000)" filter=")">
          <g>
            <rect id="矩形" fill="#000000" stroke="#ffffff" fill-rule="nonzero" opacity="0" x="0" y="0" width="16" height="16"></rect>
            <path d="M12.909091,3.1909091 C13.5668119,3.1909091 14.1000001,3.72409727 14.1000001,4.38181821 L14.1000001,11.5272728 C14.1000001,12.1849937 13.5668119,12.7181819 12.909091,12.7181819 L3.38181821,12.7181819 C3.06596947,12.7181819 2.76305708,12.5927115 2.5397183,12.3693727 C2.31637952,12.1460339 2.1909091,11.8431215 2.1909091,11.5272728 L2.1909091,4.38181821 C2.1909091,3.72409727 2.72409727,3.1909091 3.38181821,3.1909091 L12.909091,3.1909091 M12.909091,2 L3.38181821,2 C2.06637633,2 1,3.06637633 1,4.38181821 L1,11.5272728 C1,12.8427147 2.06637634,13.909091 3.38181821,13.909091 L12.909091,13.909091 C14.2245329,13.909091 15.2909092,12.8427147 15.2909092,11.5272728 L15.2909092,4.38181821 C15.2909092,3.06637633 14.2245329,2 12.909091,2 Z M12.909091,3.1909091 C13.0445584,3.19150788 13.1788873,3.21568708 13.3060607,3.26236365 L9.01084854,7.23206066 L8.99100006,7.23206066 C8.52604129,7.69644118 7.7728073,7.69644118 7.30784853,7.23206066 L7.28800005,7.23206066 L2.98484849,3.26236365 C3.1120219,3.21568708 3.2463508,3.19150788 3.38181821,3.1909091 L12.909091,3.1909091 M12.909091,2 L3.38181821,2 C2.48667962,2.00120085 1.66779572,2.50418572 1.262,3.30206063 L6.46230307,8.105394 C7.39222062,9.03415504 8.89868859,9.03415504 9.82860614,8.105394 L15.0289092,3.30206063 C14.6231135,2.50418572 13.8042296,2.00120085 12.909091,2 L12.909091,2 Z" id="形状" fill="#ffffff" fill-rule="nonzero"></path>
          </g>
        </g>
      </g>
    </g>
  </g>
</svg>