<?xml version="1.0" encoding="UTF-8"?>
<svg width="44px" height="44px" viewBox="0 0 44 44" version="1.1" xmlns="http://www.w3.org/2000/svg" xmlns:xlink="http://www.w3.org/1999/xlink">
    <title>切片</title>
    <g id="页面-1" stroke="none" stroke-width="1" fill="none" fill-rule="evenodd">
        <g id="首页" transform="translate(-676.000000, -198.000000)">
            <g id="nav" transform="translate(0.000000, 176.000000)">
                <g id="编组" transform="translate(676.000000, 22.000000)">
                    <rect id="矩形" x="0" y="0" width="44" height="44"></rect>
                    <path d="M6.3375,11.4454545 L37.6625,11.4454545 C38.6538636,11.4454545 39.4547727,10.6636364 39.4547727,9.69999999 C39.4547727,8.73681816 38.6543182,7.95454544 37.6625,7.95454544 L6.3375,7.95454544 C5.34795454,7.95454544 4.54522728,8.73636363 4.54522728,9.69999999 C4.54522728,10.6636364 5.34795454,11.4454545 6.3375,11.4454545 Z M37.6620455,20.1727273 L6.3375,20.1727273 C5.34568183,20.1727273 4.54522728,20.9545454 4.54522728,21.9181818 C4.54522728,22.8818182 5.34568183,23.6636364 6.3375,23.6636364 L37.6625,23.6636364 C38.6538636,23.6636364 39.4547727,22.8818182 39.4547727,21.9181818 C39.4543182,20.9545454 38.6488636,20.1727273 37.6620455,20.1727273 L37.6620455,20.1727273 Z M37.6620455,32.535 L6.3375,32.535 C5.34840911,32.535 4.54522728,33.3168182 4.54522728,34.2804545 C4.54522728,35.2440909 5.34795454,36.0259091 6.3375,36.0259091 L37.6625,36.0259091 C38.6538636,36.0259091 39.4547727,35.2440909 39.4547727,34.2804545 C39.4543182,33.3172727 38.6538636,32.535 37.6620455,32.535 Z" id="形状" fill="#FFFFFF" fill-rule="nonzero"></path>
                </g>
            </g>
        </g>
    </g>
</svg>