<?xml version="1.0" encoding="UTF-8"?>
<svg width="16px" height="16px" viewBox="0 0 16 16" version="1.1" xmlns="http://www.w3.org/2000/svg" xmlns:xlink="http://www.w3.org/1999/xlink">
  <title>切片</title>
  <g id="页面-1" stroke="none" stroke-width="1" fill="none" fill-rule="evenodd">
    <g id="兑换-更多" transform="translate(-1858.000000, -125.000000)" fill-rule="nonzero">
      <g id="编组-2" transform="translate(1694.000000, 68.000000)">
        <g id="数据" transform="translate(164.000000, 57.000000)">
          <rect id="矩形" fill="#000000" opacity="0" x="0" y="0" width="16" height="16"></rect>
          <g id="编组-2" transform="translate(1.000000, 1.000000)" stroke="#ffffff" stroke-width="1.3">
            <path d="M13.0666667,8.91609713 C12.7234343,9.72491791 12.2340103,10.4526977 11.609518,11.07719 C10.9850257,11.7016823 10.2572459,12.1911062 9.44842515,12.5327496 C8.60782358,12.8871053 7.71796181,13.0666667 6.79949734,13.0666667 C5.88103288,13.0666667 4.99117111,12.8871053 4.15215858,12.5327496 C3.34174875,12.1895172 2.61555799,11.7000932 1.99106571,11.075601 C1.36657343,10.4495196 0.87556042,9.72332887 0.533917062,8.91291905 C0.179561393,8.07390652 0,7.18404475 0,6.26558028 C0,5.34711581 0.179561393,4.45725404 0.533917062,3.61824152 C0.877149459,2.80783169 1.36657343,2.08164093 1.99106571,1.45714865 C2.61555799,0.83265637 3.34333779,0.341643358 4.15215858,0" id="路径" stroke-linecap="round"></path>
            <path d="M13.0957935,6.55520833 L12.6763179,6.55371021 L6.56395833,6.55371021 L6.56395833,0.021875 L6.98493212,0.0233731273 C7.81040028,0.0248712547 8.61040028,0.188167135 9.36395833,0.507268258 C10.0920482,0.815882491 10.7452317,1.25633193 11.3070295,1.81663155 C11.8688272,2.37693118 12.3092767,3.0301147 12.6163928,3.75670646 C12.9354939,4.50876639 13.0972917,5.30876639 13.0972917,6.1312383 L13.0972917,6.55520833 L13.0957935,6.55520833 Z" id="路径" stroke-linejoin="round"></path>
          </g>
        </g>
      </g>
    </g>
  </g>
</svg>