<?xml version="1.0" encoding="UTF-8"?>
<svg width="16px" height="16px" viewBox="0 0 16 16" version="1.1" xmlns="http://www.w3.org/2000/svg" xmlns:xlink="http://www.w3.org/1999/xlink">
  <title>切片</title>
  <g id="页面-1" stroke="none" stroke-width="1" fill="none" fill-rule="evenodd">
    <g id="兑换-更多" transform="translate(-1858.000000, -201.000000)" fill-rule="nonzero">
      <g id="编组-2" transform="translate(1694.000000, 68.000000)">
        <g id="telegram" transform="translate(164.000000, 133.000000)">
          <rect id="矩形" fill="#000000" opacity="0" x="0" y="0" width="16" height="16"></rect>
          <path d="M14.889226,2.43711172 C14.6293097,2.16789207 14.2744016,2.0110124 13.9003503,2 C13.708239,2.00036937 13.5181629,2.03935936 13.3414205,2.11465226 L1.44624931,7.26683787 C1.15843657,7.38408372 0.979006886,7.67348643 1.00197182,7.98341445 L1.00197182,8.44918922 C0.986162694,8.7722657 1.18875575,9.06587883 1.49640966,9.16576581 L4.58485474,10.1976361 L5.51640428,13.3434073 C5.64396316,13.7926161 6.00679895,14.1362106 6.46228536,14.239128 C6.54794979,14.2496971 6.63458851,14.2496971 6.72025293,14.239128 C7.0380772,14.2380249 7.3433378,14.1148946 7.57297908,13.8951712 L8.71233584,12.8203064 L10.9193917,14.5615875 C11.3516971,14.8991253 11.9387312,14.9603327 12.4313683,14.7192343 L12.6678386,14.5974163 C13.0776941,14.3866945 13.3663237,13.9974417 13.448907,13.5440487 L15.3335034,3.79860721 C15.4233667,3.29896927 15.2564926,2.78758092 14.889226,2.43711172 L14.889226,2.43711172 Z M12.3955395,13.3720703 C12.371874,13.4974187 12.2928773,13.6053808 12.1805665,13.6658667 L11.9440962,13.7876848 C11.8974879,13.811395 11.8459074,13.823676 11.7936151,13.8235152 C11.7173097,13.8220884 11.6438632,13.7942293 11.5858079,13.7446902 L8.89147997,11.5949604 C8.75856543,11.4771632 8.55861974,11.4771632 8.4257052,11.5949604 L6.83490519,13.0926055 C6.80566475,13.1140577 6.77079909,13.1265097 6.73458448,13.1284343 L6.73458448,10.598919 C6.73477057,10.4985464 6.77623122,10.4026687 6.84923672,10.3337856 C9.13511602,8.18405588 10.5037773,6.98020723 11.3206746,6.29229371 C11.3731819,6.24424886 11.4041686,6.17711118 11.4066638,6.10598381 C11.4124804,6.03619659 11.3860882,5.967577 11.3350061,5.9196739 C11.263121,5.82938824 11.1389028,5.79981247 11.034044,5.84801624 L5.61672501,9.26608653 C5.51926072,9.31250689 5.40606137,9.31250689 5.30859708,9.26608653 L2.07683669,8.16255859 L13.7355377,3.10352794 C13.7779441,3.09347038 13.822115,3.09347038 13.8645214,3.10352794 C13.9693984,3.10627181 14.0682595,3.15310076 14.1368205,3.23251172 C14.2360035,3.33791093 14.2786398,3.48447326 14.2514728,3.62662883 L12.3955395,13.3720703 Z" id="形状" fill="#ffffff"></path>
        </g>
      </g>
    </g>
  </g>
</svg>