<?xml version="1.0" encoding="UTF-8"?>
<svg width="16px" height="16px" viewBox="0 0 16 16" version="1.1" xmlns="http://www.w3.org/2000/svg" xmlns:xlink="http://www.w3.org/1999/xlink">
  <title>切片</title>
  <g id="页面-1" stroke="none" stroke-width="1" fill="none" fill-rule="evenodd">
    <g id="兑换-更多" transform="translate(-1858.000000, -163.000000)" fill-rule="nonzero">
      <g id="编组-2" transform="translate(1694.000000, 68.000000)">
        <g id="Twitter" transform="translate(164.000000, 95.000000)">
          <rect id="矩形" fill="#000000" opacity="0" x="0" y="0" width="16" height="16"></rect>
          <path d="M13.5,5.2 C13.5333281,5.26667188 13.5333281,5.4 13.5333281,5.56667187 C13.5333281,6.86667187 13.2333281,8.13332813 12.6,9.33332812 C11.9333281,10.6 11.0333281,11.6333281 9.86667188,12.4 C8.6,13.2333281 7.1,13.6666719 5.46667188,13.6666719 C3.86667188,13.6666719 2.43332813,13.2333281 1.1,12.4 C1.3,12.4333281 1.53332813,12.4333281 1.76667188,12.4333281 C3.1,12.4333281 4.26667188,12.0333281 5.3,11.2 C4.66667188,11.2 4.1,11 3.63332813,10.6333281 C3.16665625,10.2666562 2.83332813,9.8 2.63332813,9.23332812 C2.8,9.26667187 3,9.26667187 3.13332813,9.26667187 C3.4,9.26667187 3.63332813,9.23332812 3.9,9.2 C3.26667188,9.06667187 2.7,8.73332812 2.26667188,8.2 C1.83334375,7.66667187 1.63332813,7.06667187 1.63332813,6.4 L1.63332813,6.33332812 C2.03332813,6.56667187 2.46667188,6.7 2.9,6.7 C2.53332813,6.43332812 2.2,6.1 1.96667188,5.66667187 C1.73332813,5.26667187 1.6,4.8 1.6,4.3 C1.6,3.8 1.73332813,3.33332812 2,2.86667187 C2.7,3.76667187 3.56667188,4.46667187 4.6,4.96667187 C5.63332813,5.46667187 6.7,5.76667187 7.86667188,5.83332812 C7.83332813,5.63332812 7.8,5.4 7.8,5.2 C7.8,4.7 7.93332813,4.23332812 8.16667188,3.76667187 C8.40001563,3.30001562 8.76667188,2.96667187 9.2,2.73332812 C9.66667188,2.53332812 10.1333281,2.4 10.6666719,2.4 C11.0666719,2.4 11.4666719,2.46667187 11.8333281,2.63332812 C12.2,2.8 12.5,3 12.7666719,3.3 C13.4333281,3.16667188 14.0333281,2.93332813 14.5666719,2.63332813 C14.3666719,3.3 13.9333281,3.83332812 13.3333281,4.2 C13.8666719,4.13332812 14.4,3.96667187 14.9666719,3.73332812 C14.5333281,4.3 14.0666719,4.8 13.5,5.2 Z" id="路径" stroke="#ffffff" stroke-width="1.3" stroke-linejoin="round"></path>
        </g>
      </g>
    </g>
  </g>
</svg>