<?xml version="1.0" encoding="UTF-8"?>
<svg width="16px" height="16px" viewBox="0 0 16 16" version="1.1" xmlns="http://www.w3.org/2000/svg" xmlns:xlink="http://www.w3.org/1999/xlink">
  <title>切片</title>
  <g id="页面-1" stroke="none" stroke-width="1" fill="none" fill-rule="evenodd">
    <g id="兑换-更多" transform="translate(-1858.000000, -87.000000)" fill="#ffffff" fill-rule="nonzero" stroke="#ffffff" stroke-width="0.1">
      <g id="编组-2" transform="translate(1694.000000, 68.000000)">
        <g id="icon/16-wen" transform="translate(164.000000, 19.000000)">
          <g id="bottom-guide" transform="translate(0.500000, 0.468750)">
            <path d="M12.8846154,0.53125 L9.65384614,0.53125 C8.77076924,0.53125 7.99538462,0.962019227 7.5,1.62971154 C7.00461538,0.962019227 6.22923077,0.53125 5.34615385,0.53125 L2.11538461,0.53125 C1.22153846,0.53125 0.5,1.25278846 0.5,2.14663461 L0.5,10.7620192 C0.5,11.6558654 1.22153846,12.3774039 2.11538461,12.3774039 L5.34615385,12.3774039 C6.24,12.3774039 6.96153848,13.0989423 6.96153848,13.9927885 C6.96153848,14.2943269 7.19846152,14.53125 7.5,14.53125 C7.80153848,14.53125 8.03846152,14.2943269 8.03846152,13.9927885 C8.03846152,13.0989423 8.76,12.3774039 9.65384614,12.3774039 L12.8846154,12.3774039 C13.7784615,12.3774039 14.5,11.6558654 14.5,10.7620192 L14.5,2.14663461 C14.5,1.25278846 13.7784615,0.53125 12.8846154,0.53125 Z M6.96153848,11.8389423 C6.50923076,11.5050961 5.94923077,11.3004808 5.34615385,11.3004808 L2.11538461,11.3004808 C1.81384615,11.3004808 1.57692308,11.0635577 1.57692308,10.7620192 L1.57692308,2.14663461 C1.57692308,1.84509615 1.81384615,1.60817308 2.11538461,1.60817308 L5.34615385,1.60817308 C6.24,1.60817308 6.96153848,2.32971154 6.96153848,3.22355769 L6.96153848,11.8389423 Z M13.4230769,10.7620192 C13.4230769,11.0635577 13.1861539,11.3004808 12.8846154,11.3004808 L9.65384614,11.3004808 C9.05076924,11.3004808 8.49076924,11.5050961 8.03846152,11.8389423 L8.03846152,3.22355769 C8.03846152,2.32971154 8.76,1.60817308 9.65384614,1.60817308 L12.8846154,1.60817308 C13.1861539,1.60817308 13.4230769,1.84509615 13.4230769,2.14663461 L13.4230769,10.7620192 Z" id="形状"></path>
          </g>
        </g>
      </g>
    </g>
  </g>
</svg>