<?xml version="1.0" encoding="UTF-8"?>
<svg width="129px" height="36px" viewBox="0 0 129 36" version="1.1" xmlns="http://www.w3.org/2000/svg" xmlns:xlink="http://www.w3.org/1999/xlink">
    <title>切片</title>
    <g id="页面-1" stroke="none" stroke-width="1" fill="none" fill-rule="evenodd">
        <g id="首页" transform="translate(-1100.000000, -2231.000000)">
            <g id="组3" transform="translate(530.000000, 1837.000000)">
                <g id="合作伙伴" transform="translate(0.000000, 336.000000)">
                    <g id="logo/defibox" transform="translate(570.000000, 58.000000)">
                        <g id="logo-light.ee6a3e13" transform="translate(0.000000, 3.000000)">
                            <path d="M26.6049766,13.4210997 C26.6049766,6.00885027 20.6585633,0 13.3232743,0 L0.825226604,0 C0.392392489,0 0.0415096123,0.354564223 0.0415096123,0.791939548 L0.0415096123,26.0502406 C0.0415096123,26.487599 0.392392489,26.8421995 0.825226604,26.8421995 L6.09991329,26.8421995 C6.53273064,26.8421995 6.8836015,26.487599 6.8836015,26.0502406 L6.8836015,7.67644548 C6.8836015,7.2390871 7.23447235,6.88453497 7.6673376,6.88453497 L16.5908848,6.88453497 C17.0922384,6.88453497 17.146598,7.38442153 16.7206773,7.65156973 L10.5759832,11.5061505 C10.3457093,11.6506138 10.2056196,11.9050821 10.2056196,12.1790058 L10.2056196,28.2813636 C10.2056196,28.8544255 10.7893028,29.2377251 11.3075629,29.0050836 L18.0736806,25.9671923 C18.0736806,8.9094409 18.0737285,7.22839149 18.0737285,25.958239 C23.0627902,24.0267381 26.6049766,19.141943 26.6049766,13.4210997 Z M13.3232264,16.1547711 L13.3232264,17.2783423 C13.3232264,17.7496749 13.8404328,18.0332295 14.2314388,17.776293 L17.3096289,15.7536133 C17.6431621,15.5344743 17.8443645,15.1597409 17.8443645,14.7577603 L17.8443645,13.7447266 C17.8443645,13.2802178 17.3404247,12.9954533 16.9487961,13.2386937 L13.8832021,15.1427537 C13.5352527,15.3588921 13.3232264,15.7420465 13.3232264,16.1547711 Z" id="形状" fill="#13C09D"></path>
                            <path d="M84.6946497,6.43706174 L84.6946497,22.566328 C84.6946497,22.7895322 84.8737729,22.9704864 85.0945639,22.9705348 C85.8129727,22.9707768 86.5313815,22.9715511 87.2497903,22.9724707 L87.2531428,22.9724707 C88.015614,22.9734386 88.7776063,22.9744549 89.5405564,22.9744549 C91.1200979,22.9744549 92.3399561,22.9704864 93.4965942,22.9625494 C94.8658814,22.9526281 96.0608347,22.6837861 97.1485056,22.1411655 C98.4933668,21.4695684 99.3535416,20.3208312 99.571459,18.9052361 C99.7874606,17.505515 99.3238474,16.013502 98.3913528,15.1058273 C98.1260205,14.8476808 97.8190205,14.6232182 97.5215992,14.4059183 L97.5086679,14.3965294 L97.4756211,14.372428 C97.3477443,14.2788294 97.216515,14.1827625 97.0905539,14.0850501 L97.0790594,14.0761452 L97.0747489,14.0612391 C97.0680438,14.0344759 97.0651702,14.021554 97.1887365,13.9511373 C97.6121187,13.712059 97.9818598,13.4025639 98.2893388,13.0305407 C98.9469223,12.234952 99.2433856,11.0197181 99.0637834,9.86009165 C98.8832234,8.69446404 98.2380923,7.70345068 97.2466881,7.06955446 C96.2140952,6.40889502 94.9937581,6.06566766 93.6192026,6.05076157 C91.993683,6.03290329 90.3600214,6.03091904 89.1181321,6.03091904 C88.5132319,6.03091904 87.9097685,6.03091904 87.3048683,6.03193536 C86.8699915,6.03193536 86.4346358,6.03217734 85.999759,6.03241933 C85.6980273,6.03256451 85.3962956,6.0327581 85.0945639,6.03285489 C84.8737729,6.03290329 84.6946497,6.21385748 84.6946497,6.43706174 Z M89.4557842,9.6381457 C89.2349932,9.63862966 89.0563489,9.81948706 89.0563489,10.0424493 L89.0563489,12.0849232 C89.0563489,12.308079 89.2354722,12.4889848 89.4562631,12.4890816 L91.1454817,12.4899043 C91.7676237,12.4899043 92.5894834,12.488888 93.4170903,12.4829353 C93.577056,12.4819673 93.7595318,12.4383138 93.9774492,12.3500387 C94.4942246,12.1407242 94.7590779,11.7190947 94.7657831,11.096136 C94.773925,10.4423973 94.5167347,10.0088622 94.0013961,9.80748475 C93.7442058,9.70633624 93.4396004,9.64879291 93.1431371,9.64579233 C92.6191776,9.63785532 92.0425348,9.63490314 91.3308312,9.63490314 C90.8657812,9.63490314 90.4007312,9.63596786 89.9356813,9.63708098 C89.7757156,9.63746815 89.6157499,9.63780692 89.4557842,9.6381457 Z M93.3543493,19.2583847 C92.7398703,19.2613369 92.0846815,19.2623532 91.2316907,19.2623532 L89.4562631,19.2615305 C89.2354722,19.2614337 89.0563489,19.0805279 89.0563489,18.857372 L89.0563489,16.3621014 C89.0563489,16.1388971 89.2354722,15.9579429 89.4562631,15.9578945 C89.6080869,15.9578461 89.7594317,15.9577977 89.9112554,15.9577493 C91.025268,15.9573138 92.1392805,15.9569266 93.2532931,15.9629278 C93.5248516,15.9638957 93.7810841,15.9907073 94.0138485,16.0422979 C94.8237347,16.2198643 95.2734586,16.818044 95.2480749,17.6830815 C95.2265226,18.423111 94.7068736,19.0440854 93.986549,19.1939207 C93.7844367,19.2355416 93.5713087,19.2573684 93.3543493,19.2583847 Z" id="形状" fill="#FFFFFF"></path>
                            <path d="M100.892752,17.0364086 C100.888063,16.2221873 101.055692,15.4166774 101.384244,14.6764543 C101.711359,13.952444 102.178804,13.3053355 102.757363,12.775056 C103.370405,12.2197072 104.079235,11.7883499 104.846495,11.5033435 C105.694218,11.1849919 106.590313,11.0276067 107.492155,11.0386895 C108.386814,11.0280907 109.276683,11.1812653 110.119616,11.4910992 C110.890708,11.7710724 111.603369,12.198316 112.220722,12.7505674 C112.809338,13.2825408 113.279657,13.9394737 113.600067,14.6764543 C113.931972,15.4456669 114.099601,16.2798275 114.09098,17.1220219 C114.098643,17.9653778 113.926704,18.8002159 113.588094,19.5675894 C113.260499,20.3001659 112.791618,20.9556469 112.209228,21.4934279 C111.589959,22.0412753 110.87155,22.4569037 110.096148,22.7162117 C109.236931,23.0181569 108.334609,23.1690569 107.42702,23.1625234 C106.538587,23.1695893 105.655424,23.0185924 104.816801,22.7162117 C104.051456,22.4445626 103.346937,22.0161575 102.745389,21.4567434 C102.165394,20.9067182 101.701781,20.2385089 101.384244,19.4942204 C101.059044,18.7183291 100.891894,17.8817971 100.892752,17.0364086 Z M104.98874,17.0792394 C104.982993,17.4404703 105.051481,17.7988457 105.189895,18.1307967 C105.319208,18.4391786 105.501684,18.7208458 105.728222,18.9622955 C105.951887,19.1988087 106.219614,19.3860061 106.515598,19.5125627 C106.824993,19.6457496 107.156898,19.7143273 107.492155,19.7143273 C107.827413,19.7143273 108.159318,19.6457496 108.468712,19.5125627 C108.766613,19.3866836 109.036255,19.1994863 109.261836,18.9622955 C109.484542,18.7190067 109.664624,18.4376783 109.794416,18.1307967 C109.932351,17.8073151 110.003234,17.4573122 110.001356,17.1036796 C110.002755,16.7559998 109.931872,16.4120949 109.794416,16.0949048 C109.664624,15.7880231 109.484542,15.5066948 109.261836,15.263406 C109.036255,15.0262152 108.766613,14.8389695 108.468712,14.7131388 C108.159318,14.5799519 107.827413,14.5113741 107.492155,14.5113741 C107.156898,14.5113741 106.824993,14.5799519 106.515598,14.7131388 C106.219614,14.8396954 105.951887,15.0268927 105.728222,15.263406 C105.503121,15.5014196 105.321124,15.7788278 105.189895,16.0826605 C105.053876,16.3959789 104.985388,16.7359153 104.98874,17.0792394 Z" id="形状" fill="#FFFFFF" fill-rule="nonzero"></path>
                            <path d="M115.259591,22.9600812 C115.101062,22.9600812 115.005275,22.7824663 115.091963,22.6480211 L118.729985,16.9812367 L115.384594,11.3582026 C115.304612,11.2235154 115.400399,11.0519985 115.556055,11.0519985 L119.864113,11.0519985 C119.939306,11.0519985 120.007795,11.094539 120.042278,11.1621004 L121.629004,14.2988655 L123.288528,11.1569703 C123.323012,11.0911512 123.391021,11.0500143 123.464778,11.0500143 L127.632507,11.0500143 C127.787204,11.0500143 127.883471,11.2199341 127.804925,11.3546697 L124.526107,16.9812367 L128.135393,22.6396001 C128.221123,22.7740938 128.125335,22.9511762 127.967285,22.9511762 L123.599838,22.9511762 C123.527519,22.9511762 123.460467,22.9114912 123.425026,22.8475111 L121.597394,19.5346798 L119.722826,22.8580615 C119.687384,22.9211705 119.621291,22.9600812 119.54945,22.9600812 L115.259591,22.9600812 Z" id="路径" fill="#FFFFFF" fill-rule="nonzero"></path>
                            <path d="M41.2689453,6.00120364 C42.8938902,6.01823918 44.3831517,6.39747347 45.6971693,7.12787214 C47.4686217,8.11244877 48.663575,9.60833351 49.2497965,11.571534 C49.8719385,13.6547576 49.8460758,15.7229783 49.175561,17.7191368 C48.3331069,20.2256354 46.554662,21.8926015 43.8880243,22.6741068 C42.9641985,22.9442556 41.9591446,23.0763294 40.8154378,23.0763294 L40.809499,23.0763294 L34.0998003,23.0763294 C33.8789135,23.0763294 33.6998382,22.8953752 33.6998382,22.6721709 L33.6998382,6.39786064 C33.6998382,6.17272053 33.8804461,5.99021765 34.1032486,5.99012086 C34.6369785,5.98983048 35.1707083,5.98900774 35.7044382,5.9882334 C37.5593218,5.9854748 39.4141575,5.98271621 41.2689453,6.00120364 Z M41.6016644,19.1179867 C40.850113,19.1930012 39.3271821,19.2000186 39.3271821,19.2000186 C39.1882419,19.2006478 39.0493016,19.1995831 38.9103614,19.1985184 C38.8284149,19.1979376 38.7464684,19.1973084 38.664474,19.1970181 C38.4401868,19.1962437 38.2557952,19.0136441 38.2557952,18.7870037 L38.2557952,10.2796886 C38.2557952,10.0564843 38.4348226,9.87548171 38.6557094,9.87490095 C38.7498209,9.87465897 38.8439325,9.87436859 38.938044,9.87407821 C39.6537229,9.87185198 40.3695933,9.86962574 41.0847932,9.88951667 C43.1235895,9.94657604 44.5890955,11.1792811 45.0050063,13.1884582 C45.308989,14.6603383 45.1674146,15.9370841 44.5722848,17.0917741 C43.9573747,18.2845037 42.9305291,18.9859129 41.6016644,19.1179867 Z" id="形状" fill="#FFFFFF"></path>
                            <path d="M65.4513517,22.9584841 C65.2305607,22.9584357 65.0514374,22.7774815 65.0514374,22.5543257 L65.0514374,6.45172585 C65.0514374,6.22852159 65.2305607,6.0475674 65.4513517,6.0475674 L76.9056615,6.0475674 C76.8821935,8.15958688 75.1738174,9.87078726 73.0789373,9.87078726 L69.5467607,9.87078726 L69.5467607,13.368638 L76.4204961,13.368638 C76.3970281,15.4459089 74.7173883,17.1293297 72.6555551,17.1293297 L69.5309557,17.1293297 L69.5309557,22.5551484 C69.5309557,22.7783527 69.3518325,22.9592585 69.1310415,22.9592585 L65.4513517,22.9584841 Z" id="路径" fill="#FFFFFF" fill-rule="nonzero"></path>
                            <path d="M57.8376553,23.2364247 C57.5900437,23.2364247 57.3347691,23.2274714 57.0790156,23.2096131 C55.8213212,23.1233223 54.767655,22.8346377 53.8595863,22.3297179 C52.2264036,21.4200589 51.2747515,19.967731 51.0314503,18.0134838 C50.8734004,16.7427392 51.0098981,15.5622055 51.435675,14.5047438 C52.0669169,12.9403298 53.1627298,11.8580408 54.6924616,11.2866727 C55.6632713,10.9236028 56.6331232,10.7400836 57.5747176,10.7400836 C58.7371031,10.7400836 59.8784152,11.0198149 60.966565,11.5713888 C62.6098054,12.4036619 63.5590629,13.8410838 63.7899116,15.842953 C63.8641472,16.4947075 63.8349319,17.2040054 63.6984342,18.0124675 C63.6926869,18.0501683 63.6826292,18.0869011 63.6711347,18.1315226 C63.6629927,18.1612864 63.6366511,18.1821453 63.6059989,18.1821453 L55.5119265,18.1821453 C55.4621168,18.1821453 55.4147019,18.2069242 55.3854866,18.2485936 C55.3567502,18.2902629 55.3490872,18.3428214 55.3658501,18.3904434 C55.5033056,18.7872456 55.7494804,19.1026935 56.1197004,19.3546936 C56.6518018,19.7177635 57.2849594,19.8943136 58.0555726,19.8943136 C58.2006912,19.8943136 58.3558675,19.8883608 58.516791,19.8754874 C59.4722747,19.8030864 60.3410704,19.5124175 61.1016259,19.0114662 C61.1116836,19.0055135 61.1222203,19.001545 61.1332359,19.001545 C61.1528724,19.001545 61.171551,19.0104499 61.1844824,19.0253076 L63.1840535,21.2980032 C63.196027,21.3118929 63.2027321,21.3297512 63.2008164,21.3486258 C63.1998585,21.3664841 63.1907587,21.383326 63.1773484,21.3952316 C62.7415137,21.7682227 62.2683218,22.0807184 61.730952,22.3505284 C60.5479722,22.9467238 59.2739939,23.2364247 57.8376553,23.2364247 Z M57.634585,14.0434776 C57.4990453,14.0434776 57.3568003,14.0514146 57.2006661,14.0672886 C56.1589734,14.1724057 55.4501434,14.8589088 55.3519608,15.8608113 C55.3481293,15.9044649 55.3615396,15.9481185 55.3912338,15.9808344 C55.4204491,16.0135988 55.4630747,16.032425 55.5061793,16.032425 L59.588178,16.032425 C59.6303247,16.032425 59.6695977,16.0155831 59.698813,15.9848029 C59.7285072,15.9540712 59.7443122,15.9143862 59.7433954,15.8717489 C59.7237178,15.1406243 59.3032092,14.5136488 58.6475414,14.2339175 C58.3462887,14.1059574 58.0153417,14.0434776 57.634585,14.0434776 Z" id="形状" fill="#FFFFFF" fill-rule="nonzero"></path>
                            <path d="M81.9838538,11.8400857 L78.5172919,11.8400857 C78.2965009,11.8400857 78.1173777,12.0210399 78.1173777,12.2442442 L78.1173777,22.546437 C78.1173777,22.7696413 78.2965009,22.9505955 78.5172919,22.9505955 L81.9838538,22.9505955 C82.2046448,22.9505955 82.383768,22.7696413 82.383768,22.546437 L82.383768,12.2442442 C82.383768,12.0210399 82.2046448,11.8400857 81.9838538,11.8400857 Z" id="路径" fill="#FFFFFF" fill-rule="nonzero"></path>
                            <path d="M80.2438677,10.2298402 C79.3688458,10.1991085 78.8041765,9.906649 78.41432,9.28441631 C78.0670891,8.72930945 77.996685,7.94969163 78.2351967,7.29769515 C78.4741874,6.64473075 78.9876102,6.20229074 79.6806352,6.05143912 C79.8808318,6.00764036 80.0748022,5.98620075 80.2582359,5.98620075 C80.824342,5.98620075 81.31286,6.19488608 81.7103795,6.60562644 C82.2477493,7.16170123 82.4192095,7.89660077 82.2051237,8.73211645 C82.0145059,9.47538856 81.5288616,9.95412588 80.7587273,10.1543902 C80.619356,10.1907359 80.4747164,10.2046741 80.3588131,10.2168216 C80.3161875,10.2214677 80.2764356,10.2251942 80.2438677,10.2298402 Z" id="路径" fill="#FFFFFF" fill-rule="nonzero"></path>
                        </g>
                    </g>
                </g>
            </g>
        </g>
    </g>
</svg>