<?xml version="1.0" encoding="UTF-8"?>
<svg width="153px" height="36px" viewBox="0 0 153 36" version="1.1" xmlns="http://www.w3.org/2000/svg" xmlns:xlink="http://www.w3.org/1999/xlink">
    <title>切片</title>
    <defs>
        <polygon id="path-1" points="0 0.0859195289 26.8106596 0.0859195289 26.8106596 26.2908066 0 26.2908066"></polygon>
        <path d="M2.13280874,0.457937559 C1.47450684,0.740101105 0.957016078,1.21051385 0.604396608,1.77512129 L0.604396608,1.77512129 C0.251514186,2.33972872 0.039968799,2.99839067 0.0635030589,3.70414996 L0.0635030589,3.70414996 L0.0635030589,10.5732133 C0.0635030589,11.6317822 0.933613294,12.4785532 1.99173466,12.4785532 L1.99173466,12.4785532 L2.18000874,12.4785532 L2.13280874,3.70414996 C2.13280874,3.39829757 2.20341152,3.13954253 2.3444856,2.90433615 L2.3444856,2.90433615 C2.48555969,2.66912978 2.69710507,2.50442925 2.97938471,2.36341756 L2.97938471,2.36341756 C3.26153288,2.2456742 3.54381252,2.19857686 3.80242643,2.2456742 L3.80242643,2.2456742 C4.06117181,2.29277155 4.31978572,2.41023456 4.53146258,2.62203244 L4.53146258,2.62203244 L7.96470353,5.70368448 C7.98810631,5.72709298 8.12931187,5.84483634 8.24685169,5.96243953 L8.24685169,5.96243953 C8.59947116,6.26829191 8.78774524,6.43299244 8.78774524,6.92695386 L8.78774524,6.92695386 C8.78774524,7.35026927 8.6231369,7.72676767 8.34098873,8.00893122 L8.34098873,8.00893122 C8.05870909,8.29137511 7.68242389,8.45593546 7.25920164,8.45593546 L7.25920164,8.45593546 C6.83597939,8.45593546 6.45969418,8.29137511 6.17754601,8.00893122 L6.17754601,8.00893122 C5.89539785,7.72676767 5.7307895,7.35026927 5.7307895,6.92695386 L5.7307895,6.92695386 C5.7307895,6.4093036 5.94233489,6.22119457 6.3186201,5.89193368 L6.3186201,5.89193368 C6.36555714,5.84483634 6.64783678,5.58608129 6.76537661,5.49202678 L6.76537661,5.49202678 L5.18989596,4.08050819 L4.90761631,4.33926324 C4.06117181,5.09211987 3.61428383,5.49202678 3.61428383,6.95036236 L3.61428383,6.95036236 C3.61428383,7.96197405 4.01410329,8.85598254 4.67253667,9.51450432 L4.67253667,9.51450432 C5.33097004,10.1731663 6.24801732,10.5732133 7.23566738,10.5732133 L7.23566738,10.5732133 C8.24685169,10.5732133 9.14036471,10.1731663 9.79892956,9.51450432 L9.79892956,9.51450432 C10.4572315,8.85598254 10.8570509,7.9382852 10.8570509,6.95036236 L10.8570509,6.95036236 C10.8570509,5.51557545 10.3867602,5.09211987 9.56371844,4.40990925 L9.56371844,4.40990925 C9.51664992,4.36281191 9.4695814,4.31571457 9.30497306,4.17456271 L9.30497306,4.17456271 L5.94233489,1.04595349 C5.4249756,0.575540746 4.79007649,0.269688357 4.13164312,0.175493671 L4.13164312,0.175493671 C3.95388714,0.150122781 3.7742905,0.136666397 3.593905,0.136666397 L3.593905,0.136666397 C3.10652231,0.136666397 2.61348614,0.234505521 2.13280874,0.457937559 L2.13280874,0.457937559 Z" id="path-3"></path>
        <path d="M2.88575897,0.172129575 C2.18493179,0.26604392 1.50943247,0.572036479 0.958821037,1.04272957 L0.958821037,1.04272957 L0.508173802,1.44263647 L0.0576612904,1.84268355 L1.734554,3.25462264 L1.95981026,3.0192761 L2.41032277,2.61922902 C2.63557903,2.40743115 2.91081738,2.28982796 3.18619046,2.24273062 L3.18619046,2.24273062 C3.46142882,2.19577345 3.76172558,2.24273062 4.06202235,2.36033381 L4.06202235,2.36033381 C4.33726071,2.47807717 4.56251696,2.6661862 4.73779112,2.90153274 L4.73779112,2.90153274 C4.88787214,3.13673911 4.98797106,3.39563433 4.96304737,3.70162689 L4.96304737,3.70162689 L4.91293055,12.4785532 L5.1131284,12.4785532 C6.23940968,12.4785532 7.14029998,11.6315019 7.16535839,10.5726527 L7.16535839,10.5726527 L7.21534049,3.70162689 C7.21534049,2.99572743 7.01527737,2.31337664 6.63980537,1.77203753 L6.63980537,1.77203753 C6.26446809,1.20728993 5.68893297,0.76014551 5.0131642,0.454293121 L5.0131642,0.454293121 C4.48761117,0.242635419 3.94791227,0.136806568 3.4154884,0.136666397 L3.4154884,0.136666397 C3.23778923,0.136666397 3.06103313,0.148440733 2.88575897,0.172129575 L2.88575897,0.172129575 Z" id="path-5"></path>
        <polygon id="path-7" points="0.0197495467 0.098371978 0.0197495467 15.5735225 9.42442805 15.5735225 9.42442805 12.6442081 3.232667 12.6442081 3.232667 9.05189166 8.48980162 9.05189166 8.48980162 6.28843217 3.232667 6.28843217 3.232667 3.02768634 9.42442805 3.02768634 9.42442805 0.098371978"></polygon>
        <path d="M1.58863026,0.00980697083 L0.117558107,0.00980697083 L0.117558107,15.5738727 L5.34783001,15.5738727 C7.25469167,15.5738727 8.99798265,14.7546548 10.2510936,13.4985565 L10.2510936,13.4985565 C11.558728,12.2425925 12.3212599,10.4950709 12.3212599,8.58365198 L12.3212599,8.58365198 L12.3212599,7.0000277 C12.3212599,5.08860878 11.5042045,3.34108719 10.2510936,2.08512321 L10.2510936,2.08512321 C8.99798265,0.77434767 7.25469167,0.00980697083 5.34783001,0.00980697083 L5.34783001,0.00980697083 L1.58863026,0.00980697083 Z M3.44096836,3.01342689 L5.34783001,3.01342689 C6.43750324,3.01342689 7.47265291,3.50485017 8.12627067,4.26939086 L8.12627067,4.26939086 C8.83467795,4.97925434 9.27046745,5.96236958 9.27046745,7.05457058 L9.27046745,7.05457058 L9.27046745,8.6383292 C9.27046745,9.7305302 8.83467795,10.7135111 8.12627067,11.4233746 L8.12627067,11.4233746 C7.41812935,12.1332381 6.43750324,12.5702528 5.34783001,12.5702528 L5.34783001,12.5702528 L3.44096836,12.5702528 L3.44096836,3.01342689 Z" id="path-9"></path>
        <path d="M0.111916086,1.58254954 L0.111916086,15.4653243 L3.41275485,15.4653243 L3.41275485,6.46306246 L7.11188322,11.5066667 C7.62414618,12.2116938 8.64839781,12.3742477 9.38833321,11.886183 L9.38833321,11.886183 C9.55908753,11.7777689 9.67278659,11.6692206 9.7866228,11.5066667 L9.7866228,11.5066667 L10.412722,10.6388169 L8.42086253,7.92739099 L3.12816432,0.768973987 C2.84357378,0.28090926 2.33144797,0.00980697084 1.76240405,0.00980697084 L1.76240405,0.00980697084 C0.85185148,0.00980697084 0.111916086,0.714699792 0.111916086,1.58254954 L0.111916086,1.58254954 Z M13.7135608,0.768973987 L8.99004361,7.16822397 L10.9817659,9.87964989 L13.4289702,6.57161085 L13.4289702,15.5738727 L16.6727537,15.5738727 L16.6727537,1.63668939 C16.6727537,1.14849032 16.4452184,0.66055994 15.9900107,0.389323308 L15.9900107,0.389323308 C15.7033629,0.200304021 15.3737865,0.108817074 15.0480504,0.108817074 L15.0480504,0.108817074 C14.5330443,0.108817074 14.0272275,0.337198586 13.7135608,0.768973987 L13.7135608,0.768973987 Z M0.111916086,15.4653243 L0.111916086,15.5195985 L0.111916086,15.4653243 Z" id="path-11"></path>
        <path d="M3.7994715,0.151439286 L0.0110489406,0.151439286 L5.66442355,7.58350776 L0.185922297,14.7443048 L4.03259051,14.7443048 L7.58775765,10.0789578 L9.04471734,8.12605068 C9.3362184,7.80049744 9.3362184,7.3122363 9.04471734,6.98682048 L9.04471734,6.98682048 L5.19818554,1.94163854 L3.7994715,0.0971575091 L3.7994715,0.151439286 Z M11.3760438,0.151439286 L8.11237772,4.38280684 L10.0355754,6.87825693 L12.8330035,3.18929487 L15.16433,0.151439286 L11.3760438,0.151439286 Z M8.11237772,10.7842087 L11.1429248,14.7443048 L14.9894566,14.7443048 L12.7165122,11.760731 L10.0355754,8.28862116 L8.11237772,10.7842087 Z" id="path-13"></path>
        <polygon id="path-15" points="0.097776304 0.0645962958 0.097776304 2.92690481 2.17115775 2.92690481 2.17115775 0.118591449 2.17115775 0.0645962958"></polygon>
        <path d="M6.72600091,0.0962661558 C5.57239018,0.0962661558 4.61084005,0.170882639 3.90578643,0.39500441 L3.90578643,0.39500441 C3.20073281,0.618853859 2.55969939,0.992072435 2.04698351,1.51452398 L2.04698351,1.51452398 C0.765055236,2.85830148 0.124160386,4.79901084 0.124160386,7.41167703 L0.124160386,7.41167703 C0.124160386,9.576372 0.701035037,11.3679846 1.79062557,12.7862424 L1.79062557,12.7862424 C2.36750022,13.5328157 3.00853364,14.0552672 3.77760746,14.3538693 L3.77760746,14.3538693 C4.48266108,14.6523353 5.50809284,14.8017044 6.79002111,14.8017044 L6.79002111,14.8017044 L11.5331973,14.8017044 L11.5331973,11.6665867 L7.81559144,11.6665867 C7.04651762,11.6665867 6.53366317,11.6665867 6.08510606,11.5172175 L6.08510606,11.5172175 C5.63627181,11.3679846 5.25187347,11.2186154 4.93135676,10.9200133 L4.93135676,10.9200133 C4.09812417,10.1735762 3.64942849,9.05392046 3.64942849,7.48629351 L3.64942849,7.48629351 C3.64942849,6.06803569 3.90578643,5.02299645 4.41850231,4.35117578 L4.41850231,4.35117578 C4.99537696,3.60460247 5.95678852,3.23138389 7.30273699,3.23138389 L7.30273699,3.23138389 L11.4690385,3.23138389 L11.4690385,0.0962661558 L6.72600091,0.0962661558 Z" id="path-17"></path>
        <path d="M1.58552699,2.33094812 C0.527396346,3.62843072 0.0293996502,5.28633272 0.0293996502,7.30479028 L0.0293996502,7.30479028 C0.0293996502,9.68366724 0.527396346,11.4857642 1.71005826,12.7832468 L1.71005826,12.7832468 C2.83045454,14.1530312 4.44884751,14.8017044 6.50284316,14.8017044 L6.50284316,14.8017044 C8.43256431,14.8017044 10.0510857,14.2250606 11.1714819,12.9996074 L11.1714819,12.9996074 C12.4164095,11.6299592 13.0388091,9.89989164 13.0388091,7.66520968 L13.0388091,7.66520968 C13.0388091,5.50269329 12.5408124,3.77262571 11.5449474,2.40297754 L11.5449474,2.40297754 C10.4244227,0.889134367 8.74389248,0.0962661558 6.50284316,0.0962661558 L6.50284316,0.0962661558 C4.32431624,0.0962661558 2.70605165,0.889134367 1.58552699,2.33094812 L1.58552699,2.33094812 Z M3.9509792,10.1882816 C3.63965102,9.53947225 3.4529825,8.60227288 3.4529825,7.44898527 L3.4529825,7.44898527 C3.4529825,4.49346451 4.44884751,3.05178692 6.50284316,3.05178692 L6.50284316,3.05178692 C8.55709558,3.12395249 9.55308897,4.56549393 9.49095171,7.44898527 L9.49095171,7.44898527 C9.49095171,10.3323405 8.49495832,11.7741542 6.50284316,11.7741542 L6.50284316,11.7741542 C5.38257526,11.7741542 4.51111314,11.2695398 3.9509792,10.1882816 L3.9509792,10.1882816 Z" id="path-19"></path>
        <path d="M0.0309396319,0.0962661558 L0.0309396319,14.8017044 L3.63574452,14.8017044 L3.63574452,3.23138389 L7.50752195,3.23138389 L7.50752195,14.8017044 L11.1121917,14.8017044 L11.1121917,3.23138389 L13.048148,3.23138389 C13.8493358,3.23138389 14.3831458,3.4553695 14.78401,3.82858808 L14.78401,3.82858808 C14.9841043,4.05257369 15.1175905,4.27642313 15.1843337,4.57516139 L15.1843337,4.57516139 C15.2512119,4.87362732 15.2512119,5.39621502 15.2512119,6.06803569 L15.2512119,6.06803569 L15.2512119,14.8017044 L18.8558817,14.8017044 L18.8558817,5.39621502 C18.8558817,3.75410775 18.4554229,2.41033026 17.6543701,1.43990749 L17.6543701,1.43990749 C17.1870331,0.91731979 16.653088,0.618853859 16.0522647,0.39500441 L16.0522647,0.39500441 C15.4514413,0.170882639 14.5167672,0.0962661558 13.3152556,0.0962661558 L13.3152556,0.0962661558 L0.0309396319,0.0962661558 Z" id="path-21"></path>
    </defs>
    <g id="页面-1" stroke="none" stroke-width="1" fill="none" fill-rule="evenodd">
        <g id="首页" transform="translate(-530.000000, -2232.000000)">
            <g id="组3" transform="translate(530.000000, 1837.000000)">
                <g id="合作伙伴" transform="translate(0.000000, 336.000000)">
                    <g id="logo/mdex" transform="translate(0.000000, 59.000000)">
                        <g transform="translate(0.000000, 4.000000)" id="编组">
                            <g transform="translate(0.630289, 0.135687)">
                                <g transform="translate(0.000000, 0.017344)">
                                    <mask id="mask-2" fill="white">
                                        <use xlink:href="#path-1"></use>
                                    </mask>
                                    <g id="Clip-2"></g>
                                    <path d="M13.4053031,1.17005052 C10.0949734,1.17005052 6.99065639,2.42035584 4.66441749,4.69044736 C2.3447081,6.97680126 1.06598962,9.99550395 1.06598962,13.1883495 C1.06598962,16.4042335 2.34390856,19.4223941 4.66428423,21.6863872 C7.01370957,23.9558012 10.1186928,25.2066486 13.4053031,25.2066486 C16.7156329,25.2066486 19.8199499,23.9564788 22.1461888,21.6863872 C24.4658982,19.3998978 25.7446167,16.3811951 25.7446167,13.1883495 C25.7446167,9.97246559 24.4666977,6.95457602 22.1461888,4.69044736 C19.7967635,2.42089792 16.6919135,1.17005052 13.4053031,1.17005052 M13.4053031,26.2908066 C9.84418677,26.2908066 6.47855602,24.9339828 3.9281816,22.4706401 C1.39433084,19.9982176 -5.33021461e-05,16.702377 -5.33021461e-05,13.1883495 C-5.33021461e-05,9.69939327 1.39366456,6.40436579 3.92445045,3.90998906 C6.45217146,1.44339388 9.81846849,0.0858924249 13.4053031,0.0858924249 C16.9662863,0.0858924249 20.331917,1.44271628 22.8824247,3.90605898 C25.4162754,6.37861703 26.8106596,9.67432212 26.8106596,13.1883495 C26.8106596,16.6771703 25.4169417,19.9723333 22.8861558,22.46671 C20.3584348,24.9334407 16.9921378,26.2908066 13.4053031,26.2908066" id="Fill-1" fill="#FFFFFF" mask="url(#mask-2)"></path>
                                </g>
                                <g transform="translate(6.547520, 6.696063)">
                                    <mask id="mask-4" fill="white">
                                        <use xlink:href="#path-3"></use>
                                    </mask>
                                    <g id="Clip-4"></g>
                                    <polygon id="Fill-3" fill="#FFFFFF" mask="url(#mask-4)" points="-0.595719171 13.1795467 11.5144325 13.1795467 11.5144325 -0.564046751 -0.595719171 -0.564046751"></polygon>
                                </g>
                                <g transform="translate(14.550045, 6.696063)">
                                    <mask id="mask-6" fill="white">
                                        <use xlink:href="#path-5"></use>
                                    </mask>
                                    <g id="Clip-6"></g>
                                    <polygon id="Fill-5" fill="#4CA9DC" mask="url(#mask-6)" points="-0.615951915 13.1795467 7.88895369 13.1795467 7.88895369 -0.564046751 -0.615951915 -0.564046751"></polygon>
                                </g>
                                <g transform="translate(67.657710, 5.953984)">
                                    <mask id="mask-8" fill="white">
                                        <use xlink:href="#path-7"></use>
                                    </mask>
                                    <g id="Clip-8"></g>
                                    <polygon id="Fill-7" fill="#FFFFFF" mask="url(#mask-8)" points="-0.675517946 16.2692224 10.1198346 16.2692224 10.1198346 -0.597328008 -0.675517946 -0.597328008"></polygon>
                                </g>
                                <g transform="translate(53.835167, 5.211904)">
                                    <mask id="mask-10" fill="white">
                                        <use xlink:href="#path-9"></use>
                                    </mask>
                                    <g id="Clip-10"></g>
                                    <polygon id="Fill-9" fill="#FFFFFF" mask="url(#mask-10)" points="-0.547363315 16.245583 12.9863143 16.245583 12.9863143 -0.66190336 -0.547363315 -0.66190336"></polygon>
                                </g>
                                <g transform="translate(34.920109, 5.211904)">
                                    <mask id="mask-12" fill="white">
                                        <use xlink:href="#path-11"></use>
                                    </mask>
                                    <g id="Clip-12"></g>
                                    <polygon id="Fill-11" fill="#FFFFFF" mask="url(#mask-12)" points="-0.573844243 16.245583 17.3585141 16.245583 17.3585141 -0.66190336 -0.573844243 -0.66190336"></polygon>
                                </g>
                                <g transform="translate(80.025249, 5.953984)">
                                    <mask id="mask-14" fill="white">
                                        <use xlink:href="#path-13"></use>
                                    </mask>
                                    <g id="Clip-14"></g>
                                    <polygon id="Fill-13" fill="#4BA7DA" mask="url(#mask-14)" points="-0.670848023 15.4314159 15.8464997 15.4314159 15.8464997 -0.589953588 -0.670848023 -0.589953588"></polygon>
                                </g>
                                <g transform="translate(98.940308, 17.827263)">
                                    <mask id="mask-16" fill="white">
                                        <use xlink:href="#path-15"></use>
                                    </mask>
                                    <g id="Clip-16"></g>
                                    <polygon id="Fill-15" fill="#FFFFFF" mask="url(#mask-16)" points="-0.447850392 3.63364765 2.71678445 3.63364765 2.71678445 -0.642146547 -0.447850392 -0.642146547"></polygon>
                                </g>
                                <g transform="translate(104.032823, 5.953984)">
                                    <mask id="mask-18" fill="white">
                                        <use xlink:href="#path-17"></use>
                                    </mask>
                                    <g id="Clip-18"></g>
                                    <polygon id="Fill-17" fill="#FFFFFF" mask="url(#mask-18)" points="-0.568698911 15.4825117 12.2260566 15.4825117 12.2260566 -0.58454117 -0.568698911 -0.58454117"></polygon>
                                </g>
                                <g transform="translate(117.127864, 5.953984)">
                                    <mask id="mask-20" fill="white">
                                        <use xlink:href="#path-19"></use>
                                    </mask>
                                    <g id="Clip-20"></g>
                                    <polygon id="Fill-19" fill="#FFFFFF" mask="url(#mask-20)" points="-0.61251411 15.4825117 13.6807228 15.4825117 13.6807228 -0.58454117 -0.61251411 -0.58454117"></polygon>
                                </g>
                                <g transform="translate(132.405412, 5.953984)">
                                    <mask id="mask-22" fill="white">
                                        <use xlink:href="#path-21"></use>
                                    </mask>
                                    <g id="Clip-22"></g>
                                    <polygon id="Fill-21" fill="#FFFFFF" mask="url(#mask-22)" points="-0.644598183 15.4825117 19.5314195 15.4825117 19.5314195 -0.58454117 -0.644598183 -0.58454117"></polygon>
                                </g>
                            </g>
                        </g>
                    </g>
                </g>
            </g>
        </g>
    </g>
</svg>