<?xml version="1.0" encoding="UTF-8"?>
<svg width="92px" height="36px" viewBox="0 0 92 36" version="1.1" xmlns="http://www.w3.org/2000/svg" xmlns:xlink="http://www.w3.org/1999/xlink">
    <title>切片</title>
    <defs>
        <filter id="filter-1">
            <feColorMatrix in="SourceGraphic" type="matrix" values="0 0 0 0 1.000000 0 0 0 0 1.000000 0 0 0 0 1.000000 0 0 0 1.000000 0"></feColorMatrix>
        </filter>
        <polygon id="path-2" points="0.130684964 0.11195489 17.7853908 0.11195489 17.7853908 17.8485962 0.130684964 17.8485962"></polygon>
        <polygon id="path-4" points="0 0.11195489 17.7019869 0.11195489 17.7019869 28.7674412 0 28.7674412"></polygon>
        <polygon id="path-6" points="0 28.8387368 90.2087842 28.8387368 90.2087842 0.183232226 0 0.183232226"></polygon>
    </defs>
    <g id="页面-1" stroke="none" stroke-width="1" fill="none" fill-rule="evenodd">
        <g id="首页" transform="translate(-1538.000000, -2231.000000)">
            <g id="组3" transform="translate(530.000000, 1837.000000)">
                <g id="合作伙伴" transform="translate(0.000000, 336.000000)">
                    <g id="编组" transform="translate(1008.000000, 58.000000)" filter="url(#filter-1)">
                        <g transform="translate(0.000000, 3.000000)">
                            <g transform="translate(10.774752, 0.071277)">
                                <mask id="mask-3" fill="white">
                                    <use xlink:href="#path-2"></use>
                                </mask>
                                <g id="Clip-2"></g>
                                <path d="M3.50537395,0.111899921 L3.50537395,0.111899921 L0.130684964,0.111899921 L0.130684964,8.87296558 L4.32973383,8.87296558 C6.94398097,8.87296558 9.07099015,11.0070713 9.07099015,13.6302239 L9.07099015,17.8485962 L17.7853908,17.8485962 L17.7853908,14.7050641 L17.7821036,14.7050641 C17.7837472,14.6167462 17.7853908,14.5284282 17.7853908,14.4397438 C17.7853908,6.52667693 11.3921275,0.111899921 3.50537395,0.111899921" id="Fill-1" fill="#191B2E" mask="url(#mask-3)"></path>
                            </g>
                            <path d="M15.1044315,11.0952427 L10.9053826,11.0952427 L10.9053826,15.313615 C10.9053826,16.7507053 12.0706995,17.9199102 13.5030111,17.9199102 L17.7020599,17.9199102 L17.7020599,13.7015379 C17.7020599,12.2644475 16.5367431,11.0952427 15.1044315,11.0952427" id="Fill-3" fill="#191B2E"></path>
                            <g transform="translate(0.000000, 0.071277)">
                                <mask id="mask-5" fill="white">
                                    <use xlink:href="#path-4"></use>
                                </mask>
                                <g id="Clip-6"></g>
                                <path d="M8.76168171,15.2423376 L8.76168171,0.111936567 L-1.82622923e-05,0.111936567 L-1.82622923e-05,14.1744602 L0.00326895032,14.1744602 C0.00180796694,14.2627782 -1.82622923e-05,14.3509129 -1.82622923e-05,14.4397805 C-1.82622923e-05,22.3526642 6.39342764,28.7674412 14.2801812,28.7674412 L17.7019869,28.7674412 L17.7019869,19.9994127 L13.5031207,19.9994127 C10.8885083,19.9994127 8.76168171,17.8654902 8.76168171,15.2423376" id="Fill-5" fill="#191B2E" mask="url(#mask-5)"></path>
                            </g>
                            <mask id="mask-7" fill="white">
                                <use xlink:href="#path-6"></use>
                            </mask>
                            <g id="Clip-8"></g>
                            <polygon id="Fill-7" fill="#191B2E" mask="url(#mask-7)" points="19.845633 28.8387368 28.5602163 28.8387368 28.5602163 20.0707084 19.845633 20.0707084"></polygon>
                            <path d="M48.2602988,11.8536775 L40.9909934,11.8536775 L40.9909934,5.63752423 L48.259751,5.63752423 C49.968371,5.63752423 51.3586793,7.03192147 51.3586793,8.74587571 C51.3586793,10.4592803 49.9687363,11.853311 48.2602988,11.8536775 M48.2602988,20.5168972 L40.9909934,20.5168972 L40.9909934,14.3009271 L48.2602988,14.3009271 C49.9687363,14.3009271 51.3586793,15.6951411 51.3586793,17.4089121 C51.3586793,19.1228664 49.9687363,20.5168972 48.2602988,20.5168972 M51.7138809,13.0773023 C53.0391755,12.0132728 53.7965127,10.4407738 53.7965127,8.74587571 C53.7965127,5.68259935 51.3130236,3.19045785 48.259751,3.19045785 L38.5524295,3.19045785 L38.5524295,22.96433 L48.2602988,22.96433 C51.3137541,22.96433 53.7970606,20.4721885 53.7970606,17.4089121 C53.7970606,15.7143805 53.0391755,14.1416983 51.7138809,13.0773023" id="Fill-9" fill="#191B2E" mask="url(#mask-7)"></path>
                            <polygon id="Fill-10" fill="#191B2E" mask="url(#mask-7)" points="64.089999 15.9288905 64.0613272 15.9737824 68.5394239 23.0342697 68.5642606 23.073115 71.3346503 23.073115 65.4457916 13.7872722"></polygon>
                            <polygon id="Fill-11" fill="#191B2E" mask="url(#mask-7)" points="87.753419 5.64172024 90.1919829 5.64172024 90.1919829 3.19043952 87.753419 3.19043952"></polygon>
                            <polygon id="Fill-12" fill="#191B2E" mask="url(#mask-7)" points="87.7534007 11.8831046 77.3857148 11.8831046 77.3857148 3.19056778 74.9471509 3.19056778 74.9471509 23.0730966 77.3857148 23.0730966 77.3857148 14.3798269 87.7534007 14.3798269 87.7534007 23.0730966 90.1919646 23.0730966 90.1919646 6.33464955 87.7534007 6.33464955"></polygon>
                            <polygon id="Fill-13" fill="#191B2E" mask="url(#mask-7)" points="65.0291556 13.1313008 65.031895 13.12672 58.7485707 3.22943134 58.7239166 3.19058611 55.9535269 3.19058611 62.2587659 13.1316673 55.9535269 23.073115 58.7239166 23.073115 63.6446913 15.3150625 63.652544 15.3271558 65.0357301 13.142478"></polygon>
                            <polygon id="Fill-14" fill="#191B2E" mask="url(#mask-7)" points="64.0860726 10.2510185 64.0574008 10.2959104 65.4418652 12.4818709 71.334559 3.19053114 68.5641693 3.19053114"></polygon>
                            <path d="M39.8575077,28.4958727 C40.2006562,28.4958727 40.4305784,28.2890035 40.4305784,27.9941829 C40.4305784,27.686536 40.1822112,27.4959744 39.852029,27.4959744 L39.1200763,27.4959744 L39.1200763,28.4958727 L39.8575077,28.4958727 Z M39.852029,27.2597881 C40.1055096,27.2597881 40.3118735,27.0765559 40.3118735,26.8238786 C40.3118735,26.5950216 40.1422168,26.4229665 39.8390628,26.4229665 L39.1200763,26.4229665 L39.1200763,27.2597881 L39.852029,27.2597881 Z M38.8463246,26.1829323 L39.8575077,26.1829323 C40.3010988,26.1829323 40.5856253,26.4484358 40.5856253,26.8092201 C40.5856253,27.0728912 40.4342309,27.2946022 40.1292506,27.3951967 L40.1292506,27.3365624 C40.4890178,27.4245139 40.7043302,27.6643649 40.7043302,28.0070091 C40.7043302,28.4189152 40.3958801,28.737556 39.9122946,28.737556 L38.8463246,28.737556 L38.8463246,26.1829323 Z" id="Fill-15" fill="#191B2E" mask="url(#mask-7)"></path>
                            <polygon id="Fill-16" fill="#191B2E" mask="url(#mask-7)" points="42.6583772 26.182914 44.3558573 26.182914 44.3558573 26.4229482 42.932129 26.4229482 42.932129 27.2982486 44.2718507 27.2982486 44.2718507 27.5380995 42.932129 27.5380995 42.932129 28.4976867 44.4197753 28.4976867 44.4197753 28.7375377 42.6583772 28.7375377"></polygon>
                            <polygon id="Fill-17" fill="#191B2E" mask="url(#mask-7)" points="47.0654153 26.4228749 46.2257151 26.4228749 46.2257151 26.1828407 48.1805109 26.1828407 48.1805109 26.4228749 47.3391671 26.4228749 47.3391671 28.7376476 47.0654153 28.7376476"></polygon>
                            <polygon id="Fill-18" fill="#191B2E" mask="url(#mask-7)" points="50.8500197 26.4228749 50.0103195 26.4228749 50.0103195 26.1828407 51.9651153 26.1828407 51.9651153 26.4228749 51.1237715 26.4228749 51.1237715 28.7376476 50.8500197 28.7376476"></polygon>
                            <polygon id="Fill-19" fill="#191B2E" mask="url(#mask-7)" points="53.8772138 26.182914 55.5746939 26.182914 55.5746939 26.4229482 54.1509656 26.4229482 54.1509656 27.2982486 55.4906873 27.2982486 55.4906873 27.5380995 54.1509656 27.5380995 54.1509656 28.4976867 55.6386119 28.4976867 55.6386119 28.7375377 53.8772138 28.7375377"></polygon>
                            <path d="M58.6566201,27.398898 C58.9561216,27.398898 59.154998,27.1810349 59.154998,26.9082021 C59.154998,26.6296891 58.9488167,26.4228199 58.6566201,26.4228199 L57.8919779,26.4228199 L57.8919779,27.398898 L58.6566201,27.398898 Z M57.6180435,26.182969 L58.663925,26.182969 C59.1075161,26.182969 59.4287498,26.4924482 59.4287498,26.9008728 C59.4287498,27.1920288 59.2698678,27.4355445 59.0052472,27.5381545 L59.0052472,27.5015081 C59.2863039,27.5839626 59.3958776,27.7871671 59.3958776,28.0453413 L59.3958776,28.4555983 C59.3958776,28.563522 59.4212622,28.6533058 59.4725793,28.7375927 L59.1803826,28.7375927 C59.1402056,28.6736446 59.1221259,28.5801962 59.1221259,28.4592629 L59.1221259,28.043509 C59.1221259,27.809155 58.9723751,27.6389322 58.6566201,27.6389322 L57.8919779,27.6389322 L57.8919779,28.7375927 L57.6180435,28.7375927 L57.6180435,26.182969 Z" id="Fill-20" fill="#191B2E" mask="url(#mask-7)"></path>
                            <polygon id="Fill-21" fill="#191B2E" mask="url(#mask-7)" points="64.5477981 27.4429104 63.7172291 26.1830056 64.0439415 26.1830056 64.7539794 27.263526 64.6754516 27.263526 65.3836633 26.1830056 65.7122019 26.1830056 64.8799892 27.4429104 65.7379517 28.7376293 65.405578 28.7376293 64.6754516 27.6222947 64.7539794 27.6222947 64.0240356 28.7376293 63.6918445 28.7376293"></polygon>
                            <polygon id="Fill-22" fill="#191B2E" mask="url(#mask-7)" points="70.0263215 26.182914 70.3000732 26.182914 70.3000732 27.2964162 71.6854507 27.2964162 71.6854507 26.182914 71.9592025 26.182914 71.9592025 28.7375377 71.6854507 28.7375377 71.6854507 27.5362672 70.3000732 27.5362672 70.3000732 28.7375377 70.0263215 28.7375377"></polygon>
                            <polygon id="Fill-23" fill="#191B2E" mask="url(#mask-7)" points="74.0448293 28.7375927 74.3185811 28.7375927 74.3185811 26.182969 74.0448293 26.182969"></polygon>
                            <path d="M76.3027243,27.453831 C76.3027243,26.739775 76.7079646,26.1352919 77.4691369,26.1352919 C77.9874208,26.1352919 78.3924784,26.4172863 78.5111833,26.9063331 L78.2264742,26.9063331 C78.1079519,26.5418842 77.8066241,26.3788076 77.4707805,26.3788076 C76.8794475,26.3788076 76.5801286,26.8751837 76.5801286,27.4501664 C76.5801286,28.0819511 76.9324082,28.5416808 77.4307861,28.5416808 C77.9125454,28.5416808 78.2757824,28.1240945 78.2794349,27.6407279 L77.4817379,27.6407279 L77.4817379,27.4043583 L78.5349243,27.4043583 L78.5349243,28.737556 L78.3488316,28.737556 L78.2995234,28.1735672 L78.3214381,28.1735672 C78.1680349,28.554507 77.8230602,28.7851964 77.410515,28.7851964 C76.7881361,28.7851964 76.3027243,28.2450278 76.3027243,27.453831" id="Fill-24" fill="#191B2E" mask="url(#mask-7)"></path>
                            <polygon id="Fill-25" fill="#191B2E" mask="url(#mask-7)" points="80.5950753 26.182914 80.868827 26.182914 80.868827 27.2964162 82.2542045 27.2964162 82.2542045 26.182914 82.5279563 26.182914 82.5279563 28.7375377 82.2542045 28.7375377 82.2542045 27.5362672 80.868827 27.5362672 80.868827 28.7375377 80.5950753 28.7375377"></polygon>
                            <polygon id="Fill-26" fill="#191B2E" mask="url(#mask-7)" points="84.6134918 26.182914 86.3109718 26.182914 86.3109718 26.4229482 84.8872435 26.4229482 84.8872435 27.2982486 86.2269653 27.2982486 86.2269653 27.5380995 84.8872435 27.5380995 84.8872435 28.4976867 86.3748899 28.4976867 86.3748899 28.7375377 84.6134918 28.7375377"></polygon>
                            <path d="M89.392898,27.398898 C89.6923996,27.398898 89.891276,27.1810349 89.891276,26.9082021 C89.891276,26.6296891 89.6850947,26.4228199 89.392898,26.4228199 L88.6282559,26.4228199 L88.6282559,27.398898 L89.392898,27.398898 Z M88.3543215,26.182969 L89.4002029,26.182969 C89.843794,26.182969 90.1650278,26.4924482 90.1650278,26.9008728 C90.1650278,27.1920288 90.0061458,27.4355445 89.7415252,27.5381545 L89.7415252,27.5015081 C90.0225819,27.5839626 90.1321556,27.7871671 90.1321556,28.0453413 L90.1321556,28.4555983 C90.1321556,28.563522 90.1575402,28.6533058 90.2088573,28.7375927 L89.9166606,28.7375927 C89.8764835,28.6736446 89.8584039,28.5801962 89.8584039,28.4592629 L89.8584039,28.043509 C89.8584039,27.809155 89.7086531,27.6389322 89.392898,27.6389322 L88.6282559,27.6389322 L88.6282559,28.7375927 L88.3543215,28.7375927 L88.3543215,26.182969 Z" id="Fill-27" fill="#191B2E" mask="url(#mask-7)"></path>
                        </g>
                    </g>
                </g>
            </g>
        </g>
    </g>
</svg>