<?xml version="1.0" encoding="UTF-8"?>
<svg width="20px" height="20px" viewBox="0 0 20 20" version="1.1" xmlns="http://www.w3.org/2000/svg" xmlns:xlink="http://www.w3.org/1999/xlink">
    <title>切片</title>
    <g id="页面-1" stroke="none" stroke-width="1" fill="none" fill-rule="evenodd">
        <g id="首页" transform="translate(-48.000000, -330.000000)">
            <g id="侧边/选项" transform="translate(24.000000, 316.000000)">
                <g id="侧边/选项-icon" transform="translate(24.000000, 14.000000)">
                    <g id="数据" fill-rule="nonzero">
                        <rect id="矩形" fill="#000000" opacity="0" x="0" y="0" width="20" height="20"></rect>
                        <g id="编组-2" transform="translate(2.000000, 2.000000)" stroke="#787D90" stroke-width="1.8">
                            <path d="M16.3333333,11.1451214 C15.9042928,12.1561474 15.2925129,13.0658721 14.5118975,13.8464875 C13.7312822,14.6271028 12.8215574,15.2388828 11.8105314,15.665937 C10.7597795,16.1088816 9.64745227,16.3333333 8.49937168,16.3333333 C7.35129109,16.3333333 6.23896388,16.1088816 5.19019822,15.665937 C4.17718594,15.2368965 3.26944748,14.6251165 2.48883214,13.8445012 C1.70821679,13.0618996 1.09445052,12.1541611 0.667396327,11.1411488 C0.224451741,10.0923832 0,8.98005594 0,7.83197535 C0,6.68389477 0.224451741,5.57156755 0.667396327,4.5228019 C1.09643682,3.50978961 1.70821679,2.60205116 2.48883214,1.82143581 C3.26944748,1.04082046 4.17917224,0.427054198 5.19019822,0" id="路径" stroke-linecap="round"></path>
                            <path d="M16.3697419,8.19401042 L15.8453974,8.19213776 L8.20494792,8.19213776 L8.20494792,0.02734375 L8.73116515,0.0292164092 C9.76300035,0.0310890684 10.7630004,0.235208919 11.7049479,0.634085323 C12.6150603,1.01985311 13.4315397,1.57041491 14.1337869,2.27078944 C14.8360341,2.97116397 15.3865959,3.78764338 15.770491,4.69588308 C16.1693674,5.63595798 16.3716146,6.63595798 16.3716146,7.66404787 L16.3716146,8.19401042 L16.3697419,8.19401042 Z" id="路径" stroke-linejoin="round"></path>
                        </g>
                    </g>
                </g>
            </g>
        </g>
    </g>
</svg>