<?xml version="1.0" encoding="UTF-8"?>
<svg width="20px" height="20px" viewBox="0 0 20 20" version="1.1" xmlns="http://www.w3.org/2000/svg" xmlns:xlink="http://www.w3.org/1999/xlink">
  <title>切片</title>
  <g id="页面-1" stroke="none" stroke-width="1" fill="none" fill-rule="evenodd">
    <g id="首页-侧边栏折叠" transform="translate(-17.000000, -34.000000)" fill-rule="nonzero">
      <g id="侧边/选项-icon-shouqi" transform="translate(27.000000, 44.000000) scale(-1, 1) translate(-27.000000, -44.000000) translate(17.000000, 34.000000)">
        <g id="展开" transform="translate(1.000000, 1.000000)">
          <rect id="矩形" fill="#000000" opacity="0" x="0" y="0" width="18" height="18"></rect>
          <path d="M12.565,12.997 C12.385,12.997 12.196,12.925 12.052,12.79 C11.773,12.511 11.773,12.052 12.052,11.773 L15.094,8.731 L12.052,5.689 C11.773,5.41 11.773,4.951 12.052,4.672 C12.331,4.393 12.79,4.393 13.069,4.672 L16.624,8.227 C16.903,8.506 16.903,8.965 16.624,9.244 L13.069,12.799 C12.925,12.925 12.745,12.997 12.565,12.997 L12.565,12.997 Z M16.12,2.44 L1.72,2.44 C1.324,2.44 1,2.116 1,1.72 C1,1.324 1.324,1 1.72,1 L16.12,1 C16.516,1 16.84,1.324 16.84,1.72 C16.84,2.116 16.516,2.44 16.12,2.44 Z M16.12,16.984 L1.72,16.984 C1.324,16.984 1,16.66 1,16.264 C1,15.868 1.324,15.544 1.72,15.544 L16.12,15.544 C16.516,15.544 16.84,15.868 16.84,16.264 C16.84,16.66 16.516,16.984 16.12,16.984 Z M8.02,12.133 L1.72,12.133 C1.324,12.133 1,11.809 1,11.413 C1,11.017 1.324,10.693 1.72,10.693 L8.02,10.693 C8.416,10.693 8.74,11.017 8.74,11.413 C8.74,11.809 8.416,12.133 8.02,12.133 Z M8.02,7.291 L1.72,7.291 C1.324,7.291 1,6.967 1,6.571 C1,6.175 1.324,5.851 1.72,5.851 L8.02,5.851 C8.416,5.851 8.74,6.175 8.74,6.571 C8.74,6.967 8.416,7.291 8.02,7.291 Z" id="形状" stroke="#ffffff" stroke-width="0.5" fill="#ffffff"></path>
        </g>
      </g>
    </g>
  </g>
</svg>