<?xml version="1.0" encoding="UTF-8"?>
<svg width="20px" height="20px" viewBox="0 0 20 20" version="1.1" xmlns="http://www.w3.org/2000/svg" xmlns:xlink="http://www.w3.org/1999/xlink">
    <title>切片</title>
    <g id="页面-1" stroke="none" stroke-width="1" fill="none" fill-rule="evenodd">
        <g id="聚合流动性挖矿" transform="translate(-32.000000, -87.000000)" fill-rule="nonzero">
            <g id="侧边/选项" transform="translate(0.000000, 69.000000)">
                <g id="侧边/选项/icon" transform="translate(32.000000, 18.000000)">
                    <g id="首页" transform="translate(0.909091, 0.909091)">
                        <rect id="矩形" fill="#000000" opacity="0" x="0" y="0" width="18.1818182" height="18.1818182"></rect>
                        <path d="M17.9518834,7.36877881 L10.269055,1.30208792 C9.60763801,0.778091906 8.57152097,0.778091906 7.91012292,1.30208792 L0.230552447,7.36877881 C-0.0333779165,7.57709816 -0.0757310308,7.95788171 0.129537618,8.21825252 C0.334806267,8.47862333 0.709506315,8.52420383 0.973417737,8.31913888 L1.2112657,8.12387496 L1.2112657,15.4566215 C1.2112657,16.4948693 2.30928345,17.2727273 3.27044912,17.2727273 L15.3909406,17.2727273 C16.3423325,17.2727273 16.9679122,16.5436852 16.9679122,15.4566215 L16.9679122,8.14991015 L17.1894705,8.31913888 C17.3002592,8.40702656 17.4370923,8.44931482 17.5706864,8.44931482 C17.7498727,8.44931482 17.9290779,8.37122817 18.0496403,8.21825252 C18.2581669,7.95788171 18.2158138,7.57707924 17.9519024,7.36877881 L17.9518834,7.36877881 Z M8.48357575,16.0619964 L8.48357575,12.7031733 C8.48357575,12.5371989 8.7866013,12.4525656 9.08960791,12.4525656 C9.39261451,12.4525656 9.69564006,12.5371989 9.69564006,12.7031733 L9.69564006,16.058742 L8.48357575,16.0619964 L8.48357575,16.0619964 Z M15.7591437,15.4566215 C15.7591437,15.8569504 15.6483551,16.0619964 15.3942175,16.0619964 L10.9206982,16.0619964 C10.9206982,16.0522332 10.9076665,16.0457244 10.9076665,16.0359612 L10.9076665,12.7031733 C10.9076665,12.0001664 10.3407484,11.2418348 9.08958896,11.2418348 C7.83842948,11.2418348 7.27151145,12.0001853 7.27151145,12.7031733 L7.27151145,16.0359612 C7.27151145,16.0457244 7.28780111,16.0522332 7.28780111,16.0619964 L3.27372599,16.0619964 C2.89251008,16.0619964 2.42658794,15.7332643 2.42658794,15.4566215 L2.42658794,7.16373278 L8.65302609,2.25244799 C8.87782339,2.07669154 9.28184483,2.07669154 9.50340314,2.25244799 L15.7558858,7.19302236 L15.7558858,15.4566215 L15.7591437,15.4566215 Z" stroke="#FFFFFF" stroke-width="0.5" fill="#FFFFFF"></path>
                    </g>
                </g>
            </g>
        </g>
    </g>
</svg>