<?xml version="1.0" encoding="UTF-8"?>
<svg width="20px" height="20px" viewBox="0 0 20 20" version="1.1" xmlns="http://www.w3.org/2000/svg" xmlns:xlink="http://www.w3.org/1999/xlink">
    <title>切片</title>
    <defs>
        <filter id="filter-1">
            <feColorMatrix in="SourceGraphic" type="matrix" values="0 0 0 0 0.470885 0 0 0 0 0.489254 0 0 0 0 0.566404 0 0 0 1.000000 0"></feColorMatrix>
        </filter>
    </defs>
    <g id="页面-1" stroke="none" stroke-width="1" fill="none" fill-rule="evenodd">
        <g id="首页" transform="translate(-32.000000, -1112.000000)">
            <g id="语言" transform="translate(0.000000, 1094.000000)">
                <g id="编组-13" transform="translate(32.000000, 17.000000)">
                    <g id="侧边/选项-icon" transform="translate(0.000000, 1.000000)">
                        <g filter="" id="语言">
                            <g transform="translate(2.000000, 2.000000)">
                                <rect id="矩形" fill="#000000" fill-rule="nonzero" opacity="0" x="0" y="0" width="17" height="17"></rect>
                                <path d="M8.5,0 C13.1944792,0 17,3.80552084 17,8.5 C17,13.1944792 13.1944792,17 8.5,17 C3.80552084,17 0,13.1944792 0,8.5 C0,3.80552084 3.80552084,0 8.5,0 Z M11.3181042,9.20833334 L5.68189584,9.20833334 C5.8384375,12.8240208 7.1729375,15.5833333 8.5,15.5833333 C9.82670834,15.5833333 11.1615625,12.8240208 11.3181042,9.20833334 Z M4.2638125,9.20833334 L1.45172916,9.2086875 C1.7116875,11.8245625 3.3946875,14.0218125 5.71589584,15.01525 C4.881125,13.5918542 4.35341668,11.5231667 4.2638125,9.2086875 L4.2638125,9.20833334 Z M15.5482708,9.2086875 L12.7361875,9.2086875 C12.6465833,11.5235208 12.118875,13.5918542 11.2841042,15.0148958 C13.6053125,14.0221667 15.2883125,11.8245625 15.5482708,9.2086875 L15.5482708,9.2086875 Z M5.71625,1.98510416 L5.637625,2.01910416 C3.3564375,3.02777084 1.7085,5.2051875 1.45208334,7.79166666 L4.26416666,7.79166666 C4.35377082,5.47683332 4.88147916,3.40814582 5.71625,1.98510416 Z M8.5,1.41666666 L8.446875,1.41808334 C7.137875,1.49033334 5.83666666,4.2245 5.68189584,7.79166666 L11.3181042,7.79166666 C11.1615625,4.17633334 9.8270625,1.41666666 8.5,1.41666666 Z M11.2841042,1.98475 L11.3361667,2.0750625 C12.1408333,3.4945625 12.6483542,5.525 12.7358333,7.79166666 L15.5479167,7.79166666 C15.2883125,5.1754375 13.6049583,2.9781875 11.28375,1.98475 L11.2841042,1.98475 Z" id="形状" stroke="#565A69" stroke-width="0.3" fill="#565A69" fill-rule="nonzero"></path>
                            </g>
                        </g>
                    </g>
                </g>
            </g>
        </g>
    </g>
</svg>