<?xml version="1.0" encoding="UTF-8"?>
<svg width="102px" height="40px" viewBox="0 0 102 40" version="1.1" xmlns="http://www.w3.org/2000/svg" xmlns:xlink="http://www.w3.org/1999/xlink">
    <title>切片</title>
    <defs>
        <polygon id="path-1" points="0.409792723 0.308578378 29.1420799 0.308578378 29.1420799 19.4594595 0.409792723 19.4594595"></polygon>
        <polygon id="path-3" points="0 0.294275676 10.1081306 0.294275676 10.1081306 11.2981135 0 11.2981135"></polygon>
        <polygon id="path-5" points="0.222137133 0.148378378 26.262552 0.148378378 26.262552 17.1758432 0.222137133 17.1758432"></polygon>
        <polygon id="path-7" points="0 39.7435622 99.2226395 39.7435622 99.2226395 0.486535135 0 0.486535135"></polygon>
    </defs>
    <g id="页面-1" stroke="none" stroke-width="1" fill="none" fill-rule="evenodd">
        <g id="首页" transform="translate(-32.000000, -24.000000)">
            <g id="编组备份" transform="translate(32.000000, 24.000000)">
                <g id="编组" transform="translate(2.427145, 20.284103)">
                    <mask id="mask-2" fill="white">
                        <use xlink:href="#path-1"></use>
                    </mask>
                    <g id="Clip-2"></g>
                    <path d="M12.6645975,16.6905243 C12.9898348,17.0957676 13.893218,17.9262 15.8295939,17.9262 C17.0179239,17.9262 17.8198525,17.1833351 18.2043122,16.7206865 L17.3130647,15.2918757 L18.581005,14.435173 C18.5834321,14.4395514 18.9848818,14.9834432 19.6125414,15.4859838 C20.1392318,15.9072811 20.9460146,16.3908486 21.7960006,16.2989027 C22.7474413,16.1967405 24.8925516,15.6942 25.4367175,13.2627405 L24.0338279,12.8647946 L24.3017847,11.3630108 C24.3197455,11.3639838 26.3396152,11.4958216 27.0847486,10.3180378 C27.5881384,9.52263243 27.7536696,8.22565946 27.4794023,7.2342 C27.3730934,6.85182162 27.1590192,6.35657838 26.7357252,6.09922703 L24.9503177,5.77133514 L25.0760438,4.25106486 C25.4119606,4.24376757 26.2085494,4.11338919 26.5114571,3.75971351 C26.5420391,3.7242 26.573592,3.68041622 26.597378,3.62155135 L24.2556689,2.48803784 L6.16373355,1.85852432 L3.38610934,3.79084865 C3.43562309,4.25787568 3.70503613,5.23376757 4.9739473,6.34344324 L4.02881722,7.54652432 L2.70893602,6.60906486 C2.37981522,7.01965946 1.95894835,7.70268649 1.94050206,8.53117297 C1.91283261,9.79263243 2.3409809,10.4975514 3.49241827,10.9957135 L4.72589313,9.69533514 L5.92490253,10.6362 C5.91470852,10.6527405 4.80647432,12.4357135 5.24530206,13.9754432 C5.50063766,14.8705784 6.80789771,16.3173892 8.27437844,16.5470108 C9.51756187,16.7416054 10.6714264,16.0522541 11.7039337,14.4993892 L14.2626294,10.653227 L12.6645975,16.6905243 Z M15.8295939,19.4596054 C12.6985775,19.4596054 11.4612192,17.6980378 11.2039419,17.2636054 C10.0321165,18.1066865 8.9000963,18.1966865 8.03894542,18.0619297 C5.83995247,17.7179838 4.14968901,15.7122 3.77445247,14.3967405 C3.60940664,13.8178216 3.58562062,13.2335514 3.64193038,12.6852811 L3.44970053,12.6196054 C1.32983249,11.8966865 0.364799824,10.5865784 0.411400999,8.49711892 C0.457516745,6.42371351 2.05409242,5.06787568 2.12156704,5.01144324 L2.12787761,5.00560541 C2.08613073,4.89663243 2.0487527,4.78668649 2.01574354,4.67625405 C1.78031052,3.89301081 1.85312485,3.35787568 1.87011486,3.25863243 L1.92399747,2.94192973 L5.70888666,0.308578378 L24.63042,0.967281081 L28.092499,2.64274054 L28.1463816,3.05333514 C28.2318171,3.71009189 28.0667713,4.30165946 27.6677487,4.76382162 C27.6468753,4.78814595 27.6255164,4.81198378 27.6036721,4.83484865 C28.2424965,5.25030811 28.7060811,5.93187568 28.9531645,6.82360541 C29.345391,8.23976757 29.1143269,9.97409189 28.3764749,11.139227 C28.0410435,11.6694973 27.5881384,12.0421459 27.1041657,12.3029027 L27.0575646,12.7840378 C26.781841,15.6260919 24.8755616,17.5102541 21.9586193,17.8235514 C21.1086333,17.9145243 20.3241802,17.6878216 19.6542883,17.3385243 C19.2591492,17.9077135 17.983442,19.4596054 15.8295939,19.4596054 L15.8295939,19.4596054 Z" id="Fill-1" fill="#231815" mask="url(#mask-2)"></path>
                </g>
                <path d="M17.6113608,30.7405946 C24.8466786,30.5464865 27.2082902,24.5247568 27.2082902,24.5247568 L29.1310741,24.8672432 C29.5728145,24.5952973 29.9082458,24.1545405 29.8150435,23.436973 L26.8704317,22.0115676 L8.36345464,21.3674595 L5.05088778,23.6719459 C5.05088778,23.6719459 4.9722483,24.1360541 5.20962303,24.8472973 L7.40084912,24.5247568 C7.40084912,24.5247568 10.3755575,30.9347027 17.6113608,30.7405946" id="Fill-3" fill="#4BB994"></path>
                <path d="M29.1103949,24.878773 C29.1176763,24.8748811 29.1244723,24.8709892 29.1312683,24.8670973 L27.5473138,24.5849351 C27.5274112,24.5859081 27.5152755,24.5859081 27.5152755,24.5859081 L29.1103949,24.878773 Z" id="Fill-5" fill="#63DFD2"></path>
                <path d="M29.4214092,25.6512649 L27.5151299,25.3014811 C27.5151299,25.3014811 28.4306488,25.2864 29.1102492,24.8787243 L27.5151299,24.5863459 C27.5151299,24.5863459 27.527751,24.5858595 27.5476536,24.5848865 L27.2078534,24.5245622 C27.2078534,24.5245622 24.8467272,30.5467784 17.6114093,30.7404 C10.375606,30.9349946 7.40089766,24.5245622 7.40089766,24.5245622 L5.50384149,24.8038054 L5.20967157,24.8475892 C5.27520448,25.0431568 5.3645234,25.2581838 5.48588062,25.4868324 C5.76063338,26.0039676 6.19946112,26.5940757 6.89847874,27.2051027 L5.03831517,25.8842919 C5.03831517,25.8842919 3.755812,26.9560216 3.61552304,28.5852649 C3.72328826,30.0291568 4.48346993,30.903373 6.12324878,31.4628324 L7.70817416,29.7922378 C7.70817416,29.7922378 7.34847134,30.3555892 7.08342716,31.1655892 L7.70817416,30.507373 C7.70817416,30.507373 6.94216734,31.7089946 6.8222664,33.1241838 C6.84119813,33.3343459 6.8776053,33.5454811 6.93731306,33.7546703 C7.48002257,35.6587784 11.5110242,39.3881838 14.7677668,34.4931568 L14.4648591,35.6359135 C14.5667992,35.5011568 14.667283,35.3591027 14.7677668,35.2087784 L14.3973845,36.607427 C14.7468933,37.095373 15.8342541,38.2614811 18.2565443,38.2614811 C19.8526346,38.2614811 20.8822293,37.2121297 21.3162027,36.6560757 L20.3890335,35.169373 C20.3890335,35.169373 20.8259195,35.7731027 21.5351312,36.3466703 C21.5458106,36.3291568 21.5516357,36.3189405 21.5516357,36.3189405 L20.3890335,34.4542378 C20.3890335,34.4542378 22.1331796,36.8628324 24.3045031,36.6298054 C26.2894219,36.4167243 28.111722,35.2929405 28.616568,32.9636432 L26.6690273,32.4114811 C26.6690273,32.4114811 27.5398867,32.4795892 28.4597745,32.2037514 L26.6690273,31.6958595 C26.6690273,31.6958595 29.1500544,31.8899676 30.1582903,30.2972108 C30.5228474,29.7207243 30.7393487,28.9656973 30.7912896,28.1989946 C30.7141064,27.0980757 30.2767349,26.0798595 29.4214092,25.6512649" id="Fill-7" fill="#63DFD2"></path>
                <path d="M14.7679609,34.4930595 C11.5112184,39.388573 7.47973132,35.6586811 6.9370218,33.754573 C6.87731404,33.5453838 6.8413923,33.3342486 6.82246058,33.1240865 C6.78508255,33.5619243 6.80886857,34.0206811 6.9370218,34.4701946 C7.4627413,36.3154378 11.2665622,39.8755459 14.4650533,35.6358162 L14.7679609,34.4930595 Z" id="Fill-9" fill="#A0EBEE"></path>
                <path d="M18.2565443,38.261627 C15.8342541,38.261627 14.7468933,37.0955189 14.3973845,36.607573 L14.2638916,37.1120595 C14.2638916,37.1120595 15.1939733,38.9767622 18.2565443,38.9767622 C20.4278678,38.9767622 21.5516357,37.0347081 21.5516357,37.0347081 L21.3162027,36.6562216 C20.8822293,37.2122757 19.8526346,38.261627 18.2565443,38.261627" id="Fill-11" fill="#A0EBEE"></path>
                <path d="M24.3044545,36.6297081 C22.133131,36.8627351 20.388985,34.4541405 20.388985,34.4541405 L21.5515872,36.3188432 C21.5515872,36.3188432 21.545762,36.3290595 21.5350826,36.346573 C22.2423525,36.9191676 23.2200063,37.4616 24.3044545,37.3453297 C26.4752926,37.1123027 28.4524445,35.7910054 28.7237993,32.9937081 L28.6165195,32.9635459 C28.1116734,35.2928432 26.2893733,36.416627 24.3044545,36.6297081" id="Fill-13" fill="#A0EBEE"></path>
                <path d="M7.70793145,29.7920919 L6.12300606,31.4626865 C4.48322722,30.903227 3.72304555,30.0290108 3.61528033,28.5851189 C3.60945518,28.655173 3.60508632,28.7262 3.60314461,28.7982 C3.56431029,30.5466324 4.30070595,31.5565784 6.12300606,32.1783081 L7.08366987,31.1654432 C7.34871405,30.3559297 7.70793145,29.7920919 7.70793145,29.7920919" id="Fill-15" fill="#A0EBEE"></path>
                <path d="M30.7913866,28.1991405 C30.7394457,28.9658432 30.522459,29.7203838 30.1579019,30.2968703 C29.1501515,31.8901135 26.6691244,31.6955189 26.6691244,31.6955189 L28.4593862,32.2034108 C29.0919,32.0141676 29.7472291,31.6619514 30.1579019,31.0124919 C30.6365348,30.2564919 30.8612884,29.1940054 30.7913866,28.1991405" id="Fill-17" fill="#A0EBEE"></path>
                <g id="编组" transform="translate(0.000000, 12.986805)">
                    <mask id="mask-4" fill="white">
                        <use xlink:href="#path-3"></use>
                    </mask>
                    <g id="Clip-20"></g>
                    <path d="M8.52282095,8.19578919 C6.95585644,10.0994108 3.80930626,11.1794108 1.92098781,10.4623297 C1.01809005,10.1188703 0.578291457,9.42562703 0.613727767,8.40157297 C0.786055029,3.47492432 5.76267219,1.23222162 6.47625268,0.935951351 L8.18253529,1.35627568 C8.57961613,1.97557297 10.6985133,5.55270811 8.52282095,8.19578919 M9.81843071,3.48805946 C9.39222412,2.01838378 8.6529159,0.954924324 8.62136302,0.910654054 L8.55534469,0.816762162 L6.43547665,0.294275676 L6.34761402,0.327356757 C6.28450826,0.350708108 4.79327066,0.915032432 3.25882988,2.18281622 C1.21080532,3.8753027 0.0846102585,6.01827568 0.0020873443,8.38016757 C-0.0425721152,9.65865405 0.562272303,10.6014649 1.70448652,11.0354108 C2.17486713,11.2144378 2.70689722,11.2981135 3.26853846,11.2981135 C5.26170955,11.2981135 7.63497148,10.2385459 8.99514328,8.58595135 C10.1087172,7.23351892 10.393664,5.47049189 9.81843071,3.48805946" id="Fill-19" fill="#231815" mask="url(#mask-4)"></path>
                </g>
                <path d="M6.47634976,13.9226108 C5.76276927,14.2188811 0.785666686,16.4620703 0.613824853,21.3887189 C0.578388543,22.4122865 1.01818713,23.1055297 1.9210849,23.4489892 C3.80940335,24.1665568 6.95595353,23.0860703 8.52291804,21.1824486 C10.6986104,18.5393676 8.57971322,14.9627189 8.18263237,14.3429351 L6.47634976,13.9226108 Z" id="Fill-21" fill="#FFD254"></path>
                <path d="M8.14501163,15.5540432 C7.43191657,15.9412865 2.45190141,18.7565838 2.05336428,21.9659351 C1.97084136,22.6333946 2.3693785,22.9564216 3.23829624,22.9272324 C5.05428578,22.8659351 8.18724395,21.3033405 9.81100364,19.6483135 C12.0658209,17.3506378 10.1571145,15.6401514 9.79644078,15.3526378 L8.14501163,15.5540432 Z" id="Fill-23" fill="#FFA154"></path>
                <path d="M7.34007342,16.8386595 C6.79202418,17.1466054 2.9702424,19.3795784 2.83869116,21.822227 C2.81102172,22.3301189 3.14888024,22.5675243 3.84255814,22.5281189 C5.29204886,22.4463892 7.70851396,21.1990378 8.91140679,19.9117946 C10.5827385,18.1249297 8.95509539,16.8644432 8.64976061,16.6533081 L7.34007342,16.8386595 Z" id="Fill-25" fill="#231815"></path>
                <path d="M27.3028518,14.3430324 L29.008649,13.9227081 C29.7222295,14.2189784 34.6988466,16.4616811 34.8711739,21.3883297 C34.9066102,22.4123838 34.4668116,23.105627 33.5634284,23.4490865 C31.6755954,24.1661676 28.5285598,23.0861676 26.9620807,21.1825459 C24.7859029,18.5394649 26.9052855,14.9623297 27.3028518,14.3430324 M26.4897584,21.5727081 C27.8499302,23.2253027 30.2231921,24.2853568 32.2163632,24.2853568 C32.7784899,24.2853568 33.3100345,24.2011946 33.7809006,24.0221676 C34.9226294,23.5882216 35.5269883,22.6454108 35.4828143,21.3669243 C35.4002914,19.0050324 34.2740963,16.8620595 32.2260718,15.169573 C30.6911456,13.9017892 29.2003934,13.3374649 29.1377731,13.3141135 L29.049425,13.2810324 L26.9290715,13.8035189 L26.8635386,13.8974108 C26.8319858,13.9416811 26.0926775,15.0051405 25.666471,16.4748162 C25.0917231,18.4572486 25.3761845,20.2202757 26.4897584,21.5727081" id="Fill-27" fill="#231815"></path>
                <path d="M29.0085033,13.9226108 C29.7225693,14.2188811 34.6991864,16.4620703 34.8710283,21.3887189 C34.9064646,22.4122865 34.466666,23.1055297 33.5637682,23.4489892 C31.6754498,24.1665568 28.5288996,23.0860703 26.9619351,21.1824486 C24.7862427,18.5393676 26.9051399,14.9627189 27.3027062,14.3429351 L29.0085033,13.9226108 Z" id="Fill-29" fill="#FFD254"></path>
                <path d="M27.3398415,15.5540432 C28.0529365,15.9412865 33.0329517,18.7565838 33.4314888,21.9659351 C33.5144972,22.6333946 33.1154746,22.9564216 32.2465569,22.9272324 C30.4305673,22.8659351 27.2980946,21.3033405 25.6738495,19.6483135 C23.4195176,17.3506378 25.3282241,15.6401514 25.6888978,15.3526378 L27.3398415,15.5540432 Z" id="Fill-31" fill="#FFA154"></path>
                <path d="M28.1447797,16.8386595 C28.6928289,17.1466054 32.5146107,19.3795784 32.646162,21.822227 C32.6738314,22.3301189 32.3364583,22.5675243 31.642295,22.5281189 C30.1928043,22.4463892 27.7763392,21.1990378 26.5734463,19.9117946 C24.9026,18.1249297 26.5297577,16.8644432 26.8350925,16.6533081 L28.1447797,16.8386595 Z" id="Fill-33" fill="#231815"></path>
                <path d="M22.6685106,27.3622378 C19.626813,29.4268865 15.5958114,29.4268865 12.5541139,27.3622378 C8.63621714,24.7026162 7.7823477,19.7584541 7.71244593,16.303427 C7.64545675,19.7370486 8.25515545,25.4060757 12.5541139,28.3249946 C15.5958114,30.3896432 19.626813,30.3896432 22.6685106,28.3249946 C26.9679544,25.4060757 27.5776531,19.7370486 27.5101785,16.303427 C27.4402767,19.7584541 26.5864073,24.7026162 22.6685106,27.3622378" id="Fill-35" fill="#FFD6A8"></path>
                <path d="M12.5541624,27.3622378 C15.5958599,29.4268865 19.6268616,29.4268865 22.6685591,27.3622378 C26.5864558,24.7026162 27.4403253,19.7584541 27.510227,16.303427 C27.4767324,14.6041297 27.2777066,13.4521297 27.2777066,13.4521297 L26.8515,11.9761297 L8.3712215,11.9761297 L7.94501492,13.4521297 C7.94501492,13.4521297 7.74598907,14.6041297 7.71249448,16.303427 C7.78239624,19.7584541 8.63626569,24.7026162 12.5541624,27.3622378" id="Fill-37" fill="#FFECC8"></path>
                <path d="M8.24408767,13.5201892 C8.20768051,13.7425135 7.81642481,16.263973 8.14554561,19.233973 C8.45767639,22.059 9.50717369,25.8857027 12.7255673,28.071 C15.6478494,30.0544054 19.5749692,30.0544054 22.4967658,28.071 C25.7156449,25.8857027 26.7646568,22.059 27.0777584,19.233973 C27.4063938,16.263973 27.0151381,13.7425135 26.9792163,13.5201892 L26.6209698,12.2825676 L8.60136335,12.2825676 L8.24408767,13.5201892 Z M17.6114093,30.1706757 C15.7784297,30.1706757 13.946421,29.6404054 12.3823691,28.5784054 C9.67804467,26.7428919 8.00234408,23.5296486 7.53536147,19.286027 C7.18536723,16.1063514 7.62468039,13.509 7.64361212,13.3995405 L7.65089355,13.3669459 L8.14117675,11.6691081 L27.0816418,11.6691081 L27.5792065,13.3995405 C27.5981382,13.509 28.0369659,16.1063514 27.6874571,19.286027 C27.2209599,23.5296486 25.5447739,26.7428919 22.8399641,28.5788919 C21.276883,29.6399189 19.443418,30.1706757 17.6114093,30.1706757 L17.6114093,30.1706757 Z" id="Fill-39" fill="#231815"></path>
                <path d="M18.7367306,16.0768703 C18.757604,16.0924378 18.78139,16.1094649 18.8071178,16.1279514 L18.9546882,15.6137351 C18.918281,15.7231946 18.8508064,15.889573 18.7367306,16.0768703" id="Fill-41" fill="#ED4C77"></path>
                <path d="M13.4164783,15.9946541 C13.4514292,15.979573 13.4873509,15.9640054 13.5227872,15.9474649 C13.3422077,15.6730865 13.2397822,15.4269243 13.1892976,15.2853568 L13.4164783,15.9946541 Z" id="Fill-43" fill="#ED4C77"></path>
                <path d="M25.7318582,15.4765946 C25.7920514,15.426973 25.8507883,15.3734595 25.9066126,15.3150811 C25.5245801,15.2844324 25.2736133,15.2182703 25.2736133,15.2182703 L25.7318582,15.4765946 Z" id="Fill-45" fill="#ED4C77"></path>
                <path d="M22.1380339,16.2523946 C22.1652179,16.236827 22.191431,16.2222324 22.2191005,16.2056919 L22.0749281,16.0923405 L22.1380339,16.2523946 Z" id="Fill-47" fill="#ED4C77"></path>
                <path d="M27.9774038,8.10851351 L27.1050881,8.31235135 L28.064781,8.39991892 C29.1608795,8.91364865 29.6914533,9.92456757 29.7948496,11.0133243 C29.9196049,9.639 29.4322342,8.22672973 28.064781,7.58554054 L27.9817727,7.57824324 C28.0099275,7.89105405 27.9774038,8.10851351 27.9774038,8.10851351" id="Fill-49" fill="#ED4C77"></path>
                <path d="M13.1893947,14.4713189 L13.1495895,14.3458054 C13.1495895,14.3458054 13.1612398,14.3925081 13.1893947,14.4713189" id="Fill-51" fill="#ED4C77"></path>
                <path d="M13.1893947,15.2853568 L13.1495895,15.1598432 C13.1495895,15.1598432 13.1612398,15.2070324 13.1893947,15.2853568" id="Fill-53" fill="#ED4C77"></path>
                <g id="编组" transform="translate(4.368860, 0.338157)">
                    <mask id="mask-6" fill="white">
                        <use xlink:href="#path-5"></use>
                    </mask>
                    <g id="Clip-56"></g>
                    <path d="M26.1385991,9.15951892 C25.8949138,8.10773514 25.2988071,7.25784324 24.4410542,6.72368108 C24.4483357,6.23719459 24.357075,5.35276216 23.7201923,4.58897838 C23.1187459,3.86849189 22.2109938,3.46373514 21.0192659,3.38297838 L21.0105281,3.26816757 L20.9619852,3.15043784 C20.9192675,3.04584324 19.8877311,0.581302703 17.51544,0.54432973 C15.8407103,0.518059459 14.9494628,0.980708108 14.5858765,1.23951892 C13.7470554,0.477194595 12.5111534,-0.0574540541 10.8087542,0.224708108 C9.34178806,0.467951351 8.37141568,1.2618973 7.75928982,2.15070811 C7.65492261,2.14049189 5.56660745,1.9458973 4.1316796,3.37227568 C3.4515937,4.04800541 3.04431885,4.94849189 2.91325304,6.0606 L2.69626632,6.17735676 C2.61568512,6.22065405 0.713289236,7.2666 0.300674665,9.6426 C0.0472807756,11.1054649 0.415235887,12.5858432 1.28609535,13.6030865 C1.8360863,14.2452486 2.83898242,14.9988162 4.52876045,15.0289784 C4.80933835,15.4760595 5.41563906,16.2447081 6.44377749,16.6105459 C7.39230557,16.9486541 8.43597772,16.8533027 9.54712449,16.3278973 C10.1267266,16.7127081 10.878656,16.9817351 11.8330092,16.9817351 C12.7208587,16.9817351 13.415022,16.7652486 13.9470521,16.4485459 C14.4480147,16.8148703 15.2441181,17.1758432 16.1897337,17.1758432 C16.890693,17.1758432 17.6746607,16.9768703 18.4809581,16.4349243 L18.5071713,16.4169243 C18.7765843,16.4723838 19.2785178,16.5497351 19.8576345,16.5137351 C21.0581002,16.4393027 21.9833277,15.9207081 22.5323478,15.0148703 L22.5687549,14.9545459 C23.4182555,14.845573 24.3983365,14.4904378 25.145897,13.5583297 C26.0939396,12.3756811 26.4837391,10.6491405 26.1385991,9.15951892" id="Fill-55" fill="#231815" mask="url(#mask-6)"></path>
                </g>
                <path d="M12.0445591,3.30256216 C12.0445591,3.30256216 7.80336677,2.85888649 8.06452752,7.64056216 C8.30190226,3.72531892 12.0445591,4.11645405 12.0445591,4.11645405 L12.0445591,3.30256216 Z" id="Fill-57" fill="#FF8C93"></path>
                <path d="M25.0990046,4.52636757 L24.713574,5.5440973 L24.5757122,3.79761081 C24.5757122,3.79761081 23.7325222,1.72907027 21.8718732,1.69988108 C20.0112242,1.67069189 19.3423031,2.31188108 19.3423031,2.31188108 L19.4228843,3.06252973 C19.6481234,2.9015027 20.3733541,2.49042162 21.8718732,2.51425946 C23.7325222,2.54296216 24.5757122,4.61198919 24.5757122,4.61198919 L24.713574,6.35847568 L25.0990046,5.34025946 C27.1931449,5.39620541 27.786339,6.50539459 27.9416762,7.30274595 L27.977598,8.10836757 C27.977598,8.10836757 28.5513749,4.63242162 25.0990046,4.52636757" id="Fill-59" fill="#FF8C93"></path>
                <path d="M15.3102821,1.36965405 C12.3205255,1.86538378 12.0443164,4.96332973 12.0443164,4.96332973 L12.0443164,5.77770811 C12.0443164,5.77770811 12.3205255,2.67976216 15.3102821,2.18403243 C18.643237,1.63138378 19.5165236,4.75754595 19.5165236,4.75754595 L19.3941955,3.61138378 C19.0592496,2.82278919 17.9660637,0.929383784 15.3102821,1.36965405" id="Fill-61" fill="#FF8C93"></path>
                <path d="M7.4505085,7.236 C7.4505085,7.236 5.82237994,8.11021622 5.47384199,10.1208649 C5.40733823,10.5017838 5.39083364,10.8997297 5.42675538,11.2942703 C5.43792025,11.1731351 5.45296854,11.0534595 5.47384199,10.9352432 C5.82237994,8.92459459 7.4505085,8.05037838 7.4505085,8.05037838 L8.0903038,8.80783784 C8.06117806,8.50232432 8.04952777,8.21724324 8.05292577,7.94967568 L7.4505085,7.236 Z" id="Fill-63" fill="#FF8C93"></path>
                <path d="M25.2734192,14.4040865 C25.2734192,14.4040865 27.5699833,15.0160865 28.8786997,13.3839243 C29.3879146,12.7490595 29.7150937,11.8889514 29.794704,11.0132757 C29.6917931,9.92451892 29.1612193,8.9136 28.0646354,8.39987027 L27.1049424,8.31278919 L27.9772582,8.10846486 C27.9772582,8.10846486 28.3374464,5.13505946 25.0991502,5.34035676 L24.7137196,6.35857297 L24.5758578,4.61208649 C24.5758578,4.61208649 23.7321824,2.54305946 21.8715334,2.51435676 C20.3730143,2.49051892 19.6477836,2.9016 19.4225445,3.06262703 L19.5167178,3.94365405 C19.5167178,3.94365405 19.4793397,3.81278919 19.3943897,3.61138378 L19.5167178,4.75754595 C19.5167178,4.75754595 18.6434312,1.63138378 15.3104763,2.18403243 C12.3202342,2.67976216 12.0445106,5.77770811 12.0445106,5.77770811 L12.0445106,4.96332973 L12.0445106,4.11684324 C12.0445106,4.11684324 8.30185371,3.72522162 8.06447898,7.64095135 C8.07078955,7.75576216 8.07855642,7.87251892 8.09069214,7.99365405 L8.05282868,7.94938378 C8.04991611,8.21695135 8.06108098,8.50251892 8.09069214,8.80803243 L7.45041141,8.05008649 C7.45041141,8.05008649 5.82276828,8.9243027 5.4737449,10.9349514 C5.45287146,11.0531676 5.43782316,11.1733297 5.4266583,11.2939784 C5.58102469,12.9791676 6.70479261,14.5967351 9.1076657,14.5495459 L9.31154584,13.034627 L9.45668908,14.6954919 C9.45668908,14.6954919 10.6158933,17.210627 13.4163327,15.9948973 L13.189152,15.2856 C13.1614825,15.2067892 13.1493468,15.1600865 13.1493468,15.1600865 L13.189152,15.2856 C13.2396366,15.4271676 13.3420621,15.6728432 13.5226416,15.9472216 C13.5624468,15.9287351 13.6027374,15.9102486 13.6435134,15.8903027 L13.189152,14.4712216 C13.1614825,14.3928973 13.1493468,14.3457081 13.1493468,14.3457081 L13.189152,14.4712216 C13.3522561,14.9304649 14.0668074,16.5018162 16.2022092,16.5018162 C18.2181954,16.5018162 18.8133313,15.2213838 18.9545911,14.7996 L18.99294,14.6663027 C18.99294,14.6663027 18.982746,14.7168973 18.9545911,14.7996 L18.6152763,15.9773838 C18.6152763,15.9773838 18.6575086,16.0167892 18.7366335,16.076627 C18.8511947,15.8893297 18.9181839,15.7229514 18.9545911,15.6139784 L18.99294,15.4801946 C18.99294,15.4801946 18.982746,15.5307892 18.9545911,15.6139784 L18.8070207,16.1277081 C19.2749742,16.4599784 20.5579628,17.1576 22.1380339,16.2522486 L22.0749281,16.0921946 L22.2191005,16.2055459 C22.277352,16.1705189 22.3356034,16.1340324 22.3948257,16.0941405 L22.0749281,15.2783027 L22.8894778,15.9190054 C22.8894778,15.9190054 24.6219736,16.3957622 25.7316641,15.4767892 L25.2734192,15.2179784 C25.2734192,15.2179784 25.5248713,15.284627 25.9069039,15.3152757 C26.0146691,15.2033838 26.1146675,15.0754378 26.2039864,14.9285189 L25.2734192,14.4040865 Z" id="Fill-65" fill="#ED4C77"></path>
                <path d="M18.9547853,15.6138811 C18.9829401,15.5311784 18.9931341,15.4805838 18.9931341,15.4805838 L18.9547853,15.6138811 Z" id="Fill-67" fill="#ED4C77"></path>
                <path d="M18.9547853,14.7998432 C18.9829401,14.7166541 18.9931341,14.6665459 18.9931341,14.6665459 L18.9547853,14.7998432 Z" id="Fill-69" fill="#ED4C77"></path>
                <path d="M13.7672492,19.6286108 C13.7361818,19.872827 13.5852134,20.054773 13.4298761,20.034827 C13.2745389,20.0148811 13.1740551,19.800827 13.205608,19.5566108 C13.2366754,19.3119081 13.3876438,19.1299622 13.5429811,19.1499081 C13.6978329,19.1698541 13.7983167,19.3843946 13.7672492,19.6286108 M13.3924981,18.6094216 C12.7978477,18.5058 12.2046536,19.0608811 12.0677626,19.8494757 C11.9308717,20.6380703 12.3007685,21.3614757 12.8954189,21.4650973 C13.4895839,21.5692054 14.0822926,21.0141243 14.219669,20.2255297 C14.3570454,19.4364486 13.9861777,18.7135297 13.3924981,18.6094216" id="Fill-71" fill="#231815"></path>
                <path d="M22.7221019,19.6286108 C22.6910345,19.872827 22.5400661,20.054773 22.3847288,20.034827 C22.2293916,20.0148811 22.1289078,19.800827 22.1604607,19.5566108 C22.1915281,19.3119081 22.3429819,19.1299622 22.4978338,19.1499081 C22.6526856,19.1698541 22.7531694,19.3843946 22.7221019,19.6286108 M22.3473508,18.6094216 C21.7531858,18.5058 21.1599917,19.0608811 21.0226153,19.8494757 C20.8857244,20.6380703 21.2561066,21.3614757 21.8502716,21.4650973 C22.444922,21.5692054 23.0371453,21.0141243 23.1750071,20.2255297 C23.311898,19.4364486 22.9410304,18.7135297 22.3473508,18.6094216" id="Fill-73" fill="#231815"></path>
                <path d="M19.7312773,25.4160973 C19.0176968,27.0536108 16.4861851,27.1319351 15.6463931,25.5644757 C15.4133872,25.1295568 14.7527185,25.5163135 14.9862098,25.9512324 C16.0764831,27.9862054 19.4477869,27.9701514 20.3914606,25.8028541 C20.5866031,25.3552865 19.927876,24.9646378 19.7312773,25.4160973" id="Fill-75" fill="#231815"></path>
                <mask id="mask-8" fill="white">
                    <use xlink:href="#path-7"></use>
                </mask>
                <g id="Clip-78"></g>
                <polygon id="Fill-77" fill="#231815" mask="url(#mask-8)" points="17.2987445 29.8727514 18.0128105 29.8727514 18.0128105 27.0837243 17.2987445 27.0837243"></polygon>
                <path d="M48.7840033,23.5060054 C48.5310948,23.5060054 48.3257584,23.3007081 48.3257584,23.0472486 L48.3257584,22.9572486 C48.3257584,22.7037892 48.5310948,22.4984919 48.7840033,22.4984919 L49.9898087,22.4984919 C50.9713459,22.4984919 51.7664785,21.701627 51.7664785,20.7184378 C51.7664785,19.7352486 50.9713459,18.9378973 49.9898087,18.9378973 L47.2985908,18.9378973 C45.4724073,18.9378973 43.9913637,20.4221676 43.9913637,22.2528162 L43.9913637,22.6332486 C43.9913637,24.4259514 45.4413398,25.879573 47.2306308,25.879573 L47.3092702,25.879573 C47.6238282,25.879573 47.8791638,26.1349784 47.8791638,26.4502216 C47.8791638,26.7659514 47.6238282,27.0213568 47.3092702,27.0213568 L45.269498,27.0213568 C44.2573787,27.0213568 43.4370038,27.8435189 43.4370038,28.8573568 C43.4370038,29.8711946 44.2573787,30.6933568 45.269498,30.6933568 L48.7840033,30.6933568 C50.7640678,30.6933568 52.3698666,29.0845459 52.3698666,27.0996811 C52.3698666,25.1148162 50.7640678,23.5060054 48.7840033,23.5060054" id="Fill-79" fill="#231815" mask="url(#mask-8)"></path>
                <path d="M60.1257099,18.9793946 L59.8747431,18.9793946 C58.9310693,18.9793946 58.045647,19.4376649 57.4990541,20.2087459 L57.4990541,16.7746378 C57.4990541,15.5593946 56.5160605,14.5747459 55.3034591,14.5747459 C54.0913431,14.5747459 53.108835,15.5593946 53.108835,16.7746378 L53.108835,28.4936108 C53.108835,29.7083676 54.0913431,30.6936032 55.3034591,30.6936032 C56.5160605,30.6936032 57.4990541,29.7083676 57.4990541,28.4936108 L57.4990541,23.5844757 C57.4990541,23.157827 57.844194,22.8119351 58.2699152,22.8119351 C58.6956363,22.8119351 59.0407763,23.157827 59.0407763,23.5844757 L59.0407763,28.4439892 C59.0407763,29.5906378 59.896102,30.5840432 61.0363745,30.6847459 C62.3382948,30.8000432 63.4309953,29.7745297 63.4309953,28.4936108 L63.4309953,22.2918811 C63.4309953,20.4622054 61.9509226,18.9793946 60.1257099,18.9793946" id="Fill-80" fill="#231815" mask="url(#mask-8)"></path>
                <path d="M70.5041314,23.0045351 L68.082812,24.9431838 C67.7828169,25.1835081 67.3401057,24.9490216 67.3702023,24.5651838 C67.3760275,24.4902649 67.3847652,24.4148595 67.3973864,24.3394541 C67.5774805,23.2414541 68.4692134,22.3730757 69.5691953,22.2232378 C69.816764,22.1891838 70.0580222,22.1911297 70.2895718,22.2242108 C70.6716043,22.2791838 70.8060681,22.7632378 70.5041314,23.0045351 M69.9269564,18.8484809 C66.642059,18.8494541 64.019772,21.4794 64.019772,24.7709676 C64.019772,28.0421027 66.6653596,30.6934541 69.9288981,30.6934541 C71.1677127,30.6934541 72.3172083,30.3110757 73.2671927,29.6577243 C74.1380522,29.0588595 74.2535842,27.8154 73.4987423,27.0744811 C72.9264216,26.5125892 72.039543,26.4396162 71.3793597,26.8939946 C70.9662597,27.1776162 70.4672388,27.3435081 69.9288981,27.3435081 C69.8740446,27.3435081 69.8196766,27.3420486 69.765794,27.3386432 C69.4648281,27.3191838 69.3449271,26.9372919 69.5764767,26.7441568 L74.3094086,22.7807514 C74.8360989,22.3399946 74.9234761,21.5338865 74.4865901,21.0031297 C73.4031128,19.6871838 71.7628485,18.8479946 69.9269564,18.8484809" id="Fill-81" fill="#231815" mask="url(#mask-8)"></path>
                <path d="M81.9866124,23.0045351 L79.5648075,24.9431838 C79.2648125,25.1835081 78.8225867,24.9490216 78.8521979,24.5651838 C78.8580231,24.4902649 78.8667608,24.4148595 78.8798674,24.3394541 C79.0594761,23.2414541 79.9516944,22.3730757 81.0516763,22.2232378 C81.2987596,22.1891838 81.5400178,22.1911297 81.7715674,22.2242108 C82.1540853,22.2791838 82.2880637,22.7632378 81.9866124,23.0045351 M81.4094374,18.8484809 C78.12454,18.8494541 75.5017676,21.4794 75.5017676,24.7709676 C75.5017676,28.0421027 78.1478406,30.6934541 81.4108937,30.6934541 C82.6501937,30.6934541 83.7996893,30.3110757 84.7491883,29.6577243 C85.6200477,29.0588595 85.7355798,27.8154 84.9812233,27.0744811 C84.4089026,26.5125892 83.5215386,26.4396162 82.8613553,26.8939946 C82.4487407,27.1776162 81.9497198,27.3435081 81.4108937,27.3435081 C81.3565256,27.3435081 81.3021576,27.3420486 81.248275,27.3386432 C80.9468236,27.3191838 80.8269227,26.9372919 81.0584723,26.7441568 L85.7918896,22.7807514 C86.3185799,22.3399946 86.4059571,21.5338865 85.9690711,21.0031297 C84.8851084,19.6871838 83.2453295,18.8479946 81.4094374,18.8484809" id="Fill-82" fill="#231815" mask="url(#mask-8)"></path>
                <path d="M94.0189872,26.5527243 C92.9389079,27.1530486 91.6583465,26.9064 91.1568984,26.0020216 C90.6564212,25.0971568 91.1258309,23.8770486 92.2054248,23.2767243 C93.2850187,22.6764 94.566551,22.9230486 95.0670282,23.827427 C95.5679909,24.7322919 95.0990665,25.9524 94.0189872,26.5527243 M94.1951979,18.8487243 C93.3024942,18.8487243 92.6301751,19.1659135 92.0782425,19.6018054 C91.6913556,19.9073189 91.1350541,19.9087784 90.750109,19.6003459 C90.3899207,19.3123459 89.9336175,19.1396432 89.4370238,19.1396432 C88.2705381,19.1396432 87.325408,20.0868324 87.325408,21.2558595 L87.325408,31.9138054 C87.325408,33.0823459 88.2705381,34.0300216 89.4370238,34.0300216 C90.6025386,34.0300216 91.5476687,33.0823459 91.5476687,31.9138054 L91.5476687,30.9379135 C91.5476687,30.6197514 91.8520326,30.3833189 92.1559111,30.4742919 C92.6335731,30.6168324 93.1379338,30.6936973 93.6583135,30.6936973 C96.731564,30.6936973 99.2227851,28.0418595 99.2227851,24.7712108 C99.2227851,21.5000757 97.2684483,18.8487243 94.1951979,18.8487243" id="Fill-83" fill="#231815" mask="url(#mask-8)"></path>
            </g>
        </g>
    </g>
</svg>