<?xml version="1.0" encoding="UTF-8"?>
<svg width="20px" height="20px" viewBox="0 0 20 20" version="1.1" xmlns="http://www.w3.org/2000/svg" xmlns:xlink="http://www.w3.org/1999/xlink">
  <title>切片</title>
  <defs>
    <circle id="path-1" cx="10" cy="10" r="10"></circle>
    <path d="M0.235071853,2.06903186 C1.0554926,3.97502286 3.10754335,4.39155953 3.10754335,4.39155953 L3.10754335,4.39155953 C3.87213731,4.52430077 3.59644397,3.41353631 3.59644397,3.41353631 L3.59644397,3.41353631 C3.75049484,3.61220422 3.88046138,3.66780903 3.96758669,3.67679903 L3.96758669,3.67679903 C4.02907385,3.68323632 4.08956212,3.65626632 4.12896274,3.6087636 L4.12896274,3.6087636 C4.97202497,2.59200569 3.29089496,0.785570622 3.29089496,0.785570622 L3.29089496,0.785570622 L1.33518149,0.0521641978 C-0.567146917,0.325082841 0.235071853,2.06903186 0.235071853,2.06903186" id="path-3"></path>
    <path d="M0.902107659,1.19100853 C0.733961362,1.32963211 0.589455435,1.49478174 0.47425025,1.68002013 L0.47425025,1.68002013 C-0.617313337,3.73806422 0.596558645,3.26903039 0.596558645,3.26903039 L0.596558645,3.26903039 C0.144172964,4.09411261 0.841064449,4.12441224 0.841064449,4.12441224 L0.841064449,4.12441224 C3.77191545,3.92086089 4.50809657,2.16869878 4.50809657,2.16869878 L4.50809657,2.16869878 C5.21664176,0.599777287 3.59122755,0.0907879017 3.59122755,0.0907879017 L3.59122755,0.0907879017 C3.59122755,0.0907879017 1.16448248,0.982573709 0.902107659,1.19100853" id="path-5"></path>
    <polygon id="path-7" points="0.0242286051 0.0161807837 7.99111115 0.0161807837 7.99111115 5.92800603 0.0242286051 5.92800603"></polygon>
  </defs>
  <g id="页面-1" stroke="none" stroke-width="1" fill="none" fill-rule="evenodd">
    <g id="我的" transform="translate(-32.000000, -1608.000000)">
      <g id="侧边栏/币价" transform="translate(0.000000, 1590.000000)">
        <g id="币价" transform="translate(32.000000, 17.000000)">
          <g id="icon/44/CON" transform="translate(0.000000, 1.000000)">
            <mask id="mask-2" fill="white">
              <use xlink:href="#path-1"></use>
            </mask>
            <use id="椭圆形" fill="#FCCAA5" xlink:href="#path-1"></use>
            <g id="编组">
              <g transform="translate(-2.272727, 0.909091)">
                <g id="编组" stroke-width="1" fill="none" transform="translate(7.654215, 8.446919)">
                  <path d="M4.78943223,0.179033473 C6.88754286,0.179033473 8.58842867,1.87991929 8.58842867,3.97802991 C8.58842867,6.07625153 6.88754286,7.77702635 4.78943223,7.77702635 C2.6913216,7.77702635 0.990435789,6.07625153 0.990435789,3.97802991 C0.990435789,1.87991929 2.6913216,0.179033473 4.78943223,0.179033473" id="Fill-3" fill="#313A56"></path>
                  <path d="M3.62780214,5.56783928 C3.62780214,5.56783928 5.30782227,7.37305349 4.46675782,8.39003337 C4.42680226,8.43820201 4.36542609,8.46572695 4.30316202,8.4589567 C4.21603671,8.44952275 4.08673609,8.39347399 3.93335115,8.19591596 C3.93335115,8.19591596 4.20904449,9.30668041 3.44445053,9.17382819 C3.44445053,9.17382819 1.39239978,8.75729152 0.571868046,6.85130052 C0.571868046,6.85130052 -0.230239736,5.10746249 1.67208867,4.83443286 L3.62780214,5.56783928 Z" id="Fill-5" fill="#394260"></path>
                  <path d="M3.62780214,5.56783928 C3.62780214,5.56783928 5.27718968,7.32000139 4.45377227,8.3385351 C4.40460473,8.39935633 4.35166362,8.41422868 4.2754151,8.39647065 C4.19028757,8.37671485 4.0219193,8.30645967 3.88773522,8.1335409 C3.88773522,8.1335409 4.20660276,9.27515992 3.44445053,9.17382819 C3.44445053,9.17382819 1.39239978,8.75729152 0.571868046,6.85130052 C0.571868046,6.85130052 -0.230239736,5.10746249 1.67208867,4.83443286 L3.62780214,5.56783928 Z" id="Fill-7" fill="#394260"></path>
                  <path d="M8.70061499,4.65110345 C8.70061499,4.65110345 10.3260292,5.16009283 9.61748401,6.72912531 C9.61748401,6.72912531 8.88130289,8.48128742 5.95045189,8.68483878 C5.95045189,8.68483878 5.34556917,8.60226396 5.79806584,7.77707075 C5.79806584,7.77707075 4.4920741,8.29849075 5.58374868,6.24022469 C5.69884288,6.05509728 5.8433488,5.89005864 6.0114951,5.75132407 C6.27386992,5.54288926 8.70061499,4.65110345 8.70061499,4.65110345" id="Fill-9" fill="#394260"></path>
                  <path d="M3.62780214,5.56783928 L1.67208867,4.83443286 C1.30582941,4.88693002 1.04012496,4.99425508 0.849226196,5.13287866 C0.417817181,5.73998113 0.81637385,6.60679472 0.81637385,6.60679472 C1.63690558,8.51278572 3.68895634,8.92932239 3.68895634,8.92932239 C3.7872914,8.94641448 3.71426152,8.80324041 3.7809651,8.78415053 C3.88784621,8.47771362 3.89217473,8.03098831 3.89050992,8.07804707 C4.00260745,8.222553 4.17241856,8.2953609 4.25177473,8.32566053 C4.26575918,8.08059979 4.17785695,7.95141016 4.17785695,7.95141016 C4.35332844,8.177603 4.40183004,8.10879065 4.48706856,8.10645991 C5.03268387,7.07094509 3.62780214,5.56783928 3.62780214,5.56783928" id="Fill-11" fill="#3F4867"></path>
                </g>
                <g id="编组" stroke-width="1" fill="none" transform="translate(7.991111, 13.229221)">
                  <mask id="mask-4" fill="white">
                    <use xlink:href="#path-3"></use>
                  </mask>
                  <g id="Clip-14"></g>
                  <path d="M3.93314722,0.848289745 C5.50317859,0.848289745 6.77576304,2.12009728 6.77576304,3.68901877 C6.77576304,5.25794026 5.50317859,6.5297478 3.93314722,6.5297478 C2.36311585,6.5297478 1.0905314,5.25794026 1.0905314,3.68901877 C1.0905314,2.12009728 2.36311585,0.848289745 3.93314722,0.848289745" id="Fill-13" fill="#FFE1C1" mask="url(#mask-4)"></path>
                </g>
                <path d="M16.3548301,13.0980227 C16.3548301,13.0980227 13.928085,13.9898085 13.6657102,14.1982433 C13.4975639,14.3369779 13.3530579,14.5020165 13.2379638,14.687144 C12.8512828,15.4162219 12.7540576,15.8279861 12.7894626,16.0559547 C12.9578309,16.116332 13.1768096,16.0317594 13.1768096,16.0317594 C13.1168762,16.1409712 13.1015599,16.1628358 13.0776976,16.2459656 C13.2276419,16.2636126 13.4522809,16.22399 13.4522809,16.22399 C13.3149892,16.4742672 13.280472,16.6472969 13.3032245,16.772713 C13.4051112,16.826431 13.4212044,16.8873632 13.4212044,16.8873632 C16.3521664,16.6837009 17.0883475,14.9315388 17.0883475,14.9315388 C17.3568266,14.3368669 17.290012,13.8945811 17.1035528,13.5743817 C16.7825765,13.2320958 16.3548301,13.0980227 16.3548301,13.0980227" id="Fill-15" fill="#3F4867"></path>
                <g id="编组" stroke-width="1" fill="none" transform="translate(12.763580, 13.007246)">
                  <mask id="mask-6" fill="white">
                    <use xlink:href="#path-5"></use>
                  </mask>
                  <g id="Clip-18"></g>
                  <path d="M0.0772474078,1.864637 C1.64750075,1.864637 2.92041816,3.13666651 2.92041816,4.70592096 C2.92041816,6.27506443 1.64750075,7.54720493 0.0772474078,7.54720493 C-1.49300593,7.54720493 -2.76592335,6.27506443 -2.76592335,4.70592096 C-2.76592335,3.13666651 -1.49300593,1.864637 0.0772474078,1.864637" id="Fill-17" fill="#FFDFBC" mask="url(#mask-6)"></path>
                </g>
                <g id="编组" stroke-width="1" fill="none" transform="translate(0.000000, 0.021690)">
                  <path d="M9.61628119,6.32826081 C9.61628119,6.32826081 9.21572674,6.52126834 9.08797995,6.29585242 C8.96034415,6.07065847 9.24158687,5.1191613 7.98087809,4.3927471 C7.98087809,4.3927471 7.15990241,3.90040586 7.12893685,3.7166103 C7.09819327,3.53281475 6.95279945,2.94968561 6.78831574,3.21849771 C6.78831574,3.21849771 4.8970861,0.258456952 3.76911856,0.101298433 C2.64115103,-0.0559710744 1.71973152,0.149911026 0.0653495312,1.44091943 C0.0653495312,1.44091943 -0.239755532,2.11505844 0.468567682,1.78364931 C1.17677991,1.45235116 0.967901141,0.310732138 3.52483474,0.294305965 C3.52483474,0.294305965 4.5977524,0.457235842 4.95957215,2.17676758 L5.06545437,2.91328166 C5.06545437,2.91328166 4.76279104,2.79563474 5.13337882,3.46810894 C5.50407759,4.14058315 5.25590919,5.89884958 6.37843833,6.71749452 C7.50085649,7.53602847 7.77899155,7.25245501 7.65779303,8.5373591 C7.5367055,9.82226318 9.61628119,6.32826081 9.61628119,6.32826081" id="Fill-19" fill="#394260"></path>
                  <g transform="translate(14.872346, 2.330741)">
                    <mask id="mask-8" fill="white">
                      <use xlink:href="#path-7"></use>
                    </mask>
                    <g id="Clip-22"></g>
                    <path d="M7.75052322,1.94521404 C7.75052322,1.94521404 8.24941272,1.90303873 7.81045655,0.869854647 C7.37138939,-0.163329433 7.21822642,0.0256825434 7.10057951,0.0363373582 C6.98293259,0.0471031608 6.38604099,0.675626251 6.23609666,0.65531551 C6.08604135,0.635115757 5.29214666,1.28850008 4.93454443,1.30148564 C4.57694221,1.3143602 3.70069467,2.0867233 3.70069467,2.0867233 C3.70069467,2.0867233 3.57450171,1.63211786 3.06440245,2.30348219 C3.06440245,2.30348219 1.40214034,2.18627922 0.637324411,3.57617762 L0.540654163,3.64976244 L0.0242286051,3.62279244 C0.0524194694,3.74676565 0.132774532,3.85264787 0.244761075,3.91291417 C0.431109348,4.0096954 0.976391697,4.3163543 0.633550831,4.87595405 C0.290820952,5.4356648 1.35696837,5.92800603 1.35696837,5.92800603 L1.63543639,5.79271208 L1.68182923,5.45231294 C1.68182923,5.45231294 3.2742801,5.69315615 4.08382406,4.04598837 C4.08382406,4.04598837 5.37183579,2.47706688 4.93654221,2.55875379 C4.93654221,2.55875379 5.70846135,1.54643539 6.25740629,1.13522613 C6.25740629,1.13522613 6.72444235,0.740110078 6.85496383,0.566636373 C6.98537432,0.393162669 7.44386432,0.134006495 7.64608383,0.80437193 C7.84830334,1.47473737 7.50179988,1.6614186 7.75052322,1.94521404" id="Fill-21" fill="#3F4867" mask="url(#mask-8)"></path>
                  </g>
                  <path d="M11.6548691,4.25113795 C11.6548691,4.25113795 14.6977067,3.56157165 16.3258956,6.31362154 C17.9541955,9.06578242 18.9860477,10.6894208 16.9932644,12.683314 C15.000592,14.6772073 10.002263,14.5368079 8.62157653,13.3506828 C7.24077911,12.1645577 5.53800651,9.72527107 8.25753702,5.70707401 C8.25753702,5.70707401 9.01680357,4.53226968 11.6548691,4.25113795" id="Fill-23" fill="#394260"></path>
                  <path d="M11.6548691,4.25113795 C11.3678551,4.28165955 11.1030385,4.32283597 10.8590877,4.37200351 C9.82534863,4.80607622 9.47984406,5.34025981 9.47984406,5.34025981 C6.76031356,9.35856785 8.46319715,11.7978545 9.84388357,12.9839796 C10.766191,13.7763205 13.3025919,14.1017363 15.4792818,13.636476 C16.0695141,13.3991844 16.5923769,13.0845344 16.9932644,12.683314 C18.9860477,10.6894208 17.9541955,9.06578242 16.3258956,6.31362154 C14.6977067,3.56157165 11.6548691,4.25113795 11.6548691,4.25113795" id="Fill-25" fill="#3F4867"></path>
                  <path d="M15.9575387,5.86371088 C16.3811785,5.86371088 16.7245743,6.00055866 16.7245743,6.16937089 C16.7245743,6.33818311 16.3811785,6.47503089 15.9575387,6.47503089 C15.5338988,6.47503089 15.190503,6.33818311 15.190503,6.16937089 C15.190503,6.00055866 15.5338988,5.86371088 15.9575387,5.86371088" id="Fill-27" fill="#FFDFBC"></path>
                  <path d="M9.94193007,6.500103 C9.54370636,6.63939251 9.26601525,6.88156757 9.32173105,7.04083485 C9.37744685,7.20010214 9.74548192,7.21630634 10.1437056,7.07701683 C10.5420403,6.93761633 10.8197314,6.69566325 10.7639046,6.53617399 C10.7081888,6.37668473 10.3401538,6.36081349 9.94193007,6.500103" id="Fill-29" fill="#FFDFBC"></path>
                  <path d="M10.351419,9.32546024 C10.3933724,9.6593111 10.5356585,9.91635851 10.6691767,9.89959938 C10.8026948,9.88284024 10.8769456,9.59860085 10.8349922,9.26474999 C10.7930389,8.93078814 10.6508637,8.67374073 10.5172346,8.69049986 C10.3837164,8.70736999 10.3094657,8.99160937 10.351419,9.32546024" id="Fill-31" fill="#181C2A"></path>
                  <path d="M16.1575606,8.59206491 C16.1995139,8.92591578 16.3418001,9.18296319 16.4753183,9.16620405 C16.6088364,9.14944491 16.6831981,8.86509454 16.6412448,8.53135466 C16.5992915,8.19739281 16.4570053,7.9403454 16.3234872,7.95710454 C16.189969,7.97386367 16.1156073,8.25821405 16.1575606,8.59206491" id="Fill-33" fill="#181C2A"></path>
                  <path d="M14.8333003,11.7917946 C14.8333003,11.7917946 14.3483952,13.0498397 13.43308,11.9917944 L13.9531682,11.4717062 L14.8333003,11.7917946 Z" id="Fill-35" fill="#DCB48A"></path>
                  <path d="M14.1531791,11.6317615 C14.1531791,11.6317615 15.3780388,12.5551788 15.8734877,11.3916952 C16.3688256,10.2283226 15.2334219,9.7914752 15.2334219,9.7914752 C15.2334219,9.7914752 14.5973516,9.36994409 13.5932463,9.55151989 C12.58903,9.7330957 11.9529598,10.3916964 11.9529598,10.3916964 C11.9529598,10.3916964 10.9953583,11.6151134 12.2730482,12.3120048 C12.2729372,12.3118939 13.1534023,12.9155557 14.1531791,11.6317615" id="Fill-37" fill="#FFE1C1"></path>
                  <path d="M15.0777617,10.5971568 C15.2772065,10.6952699 15.4949643,10.685059 15.5641096,10.5742933 C15.6332549,10.4635276 15.5275947,10.2941605 15.3280389,10.1959364 C15.1284831,10.0978233 14.9108363,10.1080342 14.841691,10.2187999 C14.7725457,10.3295656 14.8782059,10.4989327 15.0777617,10.5971568" id="Fill-39" fill="#181C2A"></path>
                  <path d="M12.776022,10.3455922 C12.5888968,10.4657918 12.4854564,10.6576895 12.5447238,10.7740045 C12.6038802,10.8904306 12.803547,10.8873229 12.9905612,10.7670123 C13.1775754,10.6468127 13.2811269,10.455026 13.2218594,10.3385999 C13.162592,10.2220629 12.9630362,10.2253925 12.776022,10.3455922" id="Fill-41" fill="#181C2A"></path>
                  <path d="M12.0201295,2.88123952 C12.0201295,2.88123952 11.737333,2.0875668 11.0014848,2.0704747 C11.0014848,2.0704747 11.5114731,3.27668854 11.4878327,3.7615936 C11.4643033,4.24627669 12.0201295,2.88123952 12.0201295,2.88123952" id="Fill-43" fill="#313954"></path>
                  <path d="M13.8199386,2.9830152 C13.8199386,2.9830152 14.8046211,3.72574459 14.0012924,4.90421151 C14.0012924,4.90421151 13.6536791,5.13007139 13.3525696,5.15437768 C13.0513491,5.17879497 14.2263754,3.82430163 13.8199386,2.9830152" id="Fill-45" fill="#394260"></path>
                  <path d="M13.2607717,5.12792932 C13.2607717,5.12792932 14.87653,3.46988475 12.9847454,2.2251582 C12.9847454,2.2251582 12.4284753,1.76977585 12.0547799,1.65856622 C11.6810844,1.54746758 11.5631045,1.61172943 11.4621058,1.50751202 C11.361107,1.40318362 11.3099417,0.9826514 11.3534489,0.919499425 C11.396956,0.856236461 10.9470121,1.66311671 11.8679876,1.82349387 C11.8679876,1.82349387 12.1022826,2.0399198 11.9113838,2.29319363 C11.9113838,2.29319363 11.2314734,2.88009635 11.2032826,3.16255993 C11.1750917,3.44491253 11.0132717,4.17165969 10.5961801,4.57787451 C10.1790885,4.98420031 13.2607717,5.12792932 13.2607717,5.12792932" id="Fill-47" fill="#3F4867"></path>
                  <path d="M13.7128577,2.96107294 C13.7128577,2.96107294 13.2485964,2.29092948 13.4005385,1.97627948 C13.5524806,1.66162948 13.7249554,1.03010972 13.1146343,0.899699227 C12.5044241,0.769288733 12.2128596,0.740320955 12.0166334,0.36429478 C12.0166334,0.36429478 11.8911064,0.754083424 12.6759001,1.1112417 C12.6759001,1.1112417 12.9623592,1.43654651 12.5247349,1.70380479 C12.0872215,1.97106306 12.4119714,2.12855454 12.4119714,2.12855454 C12.4119714,2.12855454 12.6541465,2.061518 12.9805612,2.25252775 C13.3614708,2.47539096 13.7128577,2.96107294 13.7128577,2.96107294" id="Fill-49" fill="#3F4867"></path>
                </g>
              </g>
            </g>
          </g>
        </g>
      </g>
    </g>
  </g>
</svg>