<?xml version="1.0" encoding="UTF-8"?>
<svg width="20px" height="20px" viewBox="0 0 20 20" version="1.1" xmlns="http://www.w3.org/2000/svg" xmlns:xlink="http://www.w3.org/1999/xlink">
    <title>切片</title>
    <defs>
        <filter id="filter-1">
            <feColorMatrix in="SourceGraphic" type="matrix" values="0 0 0 0 0.470885 0 0 0 0 0.489254 0 0 0 0 0.566404 0 0 0 1.000000 0"></feColorMatrix>
        </filter>
    </defs>
    <g id="页面-1" stroke="none" stroke-width="1" fill="none" fill-rule="evenodd">
        <g id="首页" transform="translate(-170.000000, -1112.000000)">
            <g id="语言" transform="translate(0.000000, 1094.000000)">
                <g id="月亮" transform="translate(170.000000, 18.000000)" filter="url(#filter-1)">
                    <g>
                        <rect id="矩形" fill="#000000" fill-rule="nonzero" opacity="0" x="0" y="0" width="20" height="20"></rect>
                        <path d="M16.5494329,14.3466255 L16.4798641,14.3466255 C15.5974392,14.3374717 14.7424757,14.161719 13.9369426,13.8211982 C13.1387325,13.4843389 12.4210757,13.0010191 11.8041106,12.3858847 C11.1871455,11.7707503 10.7038256,11.0549243 10.3669663,10.2567143 C10.0172917,9.43287358 9.84153906,8.55594096 9.84153906,7.65154698 C9.84153906,6.74715301 10.0191225,5.87022038 10.3669663,5.04637972 C10.603134,4.48982957 10.9107012,3.97355609 11.2841756,3.50305153 C11.4452822,3.2998375 11.6192041,3.1039465 11.8059414,2.91904003 C11.853541,2.87144035 11.9011407,2.82567143 11.9487404,2.7799025 C12.2325078,2.51261197 12.0585858,2.03478438 11.6686346,2.0128153 C11.5185125,2.00549227 11.3665597,2 11.2146068,2 C11.002239,2 10.7898712,2.00732303 10.5811649,2.02379984 C6.33930084,2.34784384 3,5.88303568 3,10.1962993 C3,14.7237614 6.67616014,18.3925985 11.2109453,18.3925985 C13.5634681,18.3925985 15.6853155,17.4058205 17.181044,15.8222157 C17.4318577,15.5585866 17.6643639,15.2766501 17.8767317,14.9818982 C18.1037456,14.667008 17.8419473,14.2331185 17.4556576,14.2843797 C17.1590749,14.3264872 16.8551693,14.3466255 16.5494329,14.3466255 Z M13.8234356,16.3659505 C12.9977642,16.7156251 12.1171701,16.8913778 11.2109453,16.8913778 C10.3047206,16.8913778 9.42595721,16.7137943 8.59845503,16.3659505 C7.80024496,16.0290912 7.0825882,15.5457713 6.46562308,14.930637 C5.84865795,14.3155026 5.3653381,13.5996766 5.0284788,12.8014665 C4.67880421,11.9776259 4.50305153,11.1006932 4.50305153,10.1962993 C4.50305153,9.29190529 4.68063496,8.41497267 5.0284788,7.591132 C5.3653381,6.79475269 5.85048871,6.07892669 6.46562308,5.46196156 C7.0825882,4.8468272 7.80024496,4.36350734 8.59845503,4.02664804 C8.83279193,3.92778716 9.07079035,3.84357234 9.31245028,3.77217282 C8.68999288,4.92738051 8.33665677,6.24735633 8.33665677,7.64971623 C8.33665677,11.6572434 11.2182684,14.9928827 15.0244122,15.7050472 C14.649107,15.9668455 14.2481713,16.1865363 13.8234356,16.3659505 Z" id="形状" fill="#000000" fill-rule="nonzero"></path>
                    </g>
                </g>
            </g>
        </g>
    </g>
</svg>