<?xml version="1.0" encoding="UTF-8"?>
<svg width="20px" height="20px" viewBox="0 0 20 20" version="1.1" xmlns="http://www.w3.org/2000/svg" xmlns:xlink="http://www.w3.org/1999/xlink">
    <title>切片</title>
    <defs>
        <polygon id="path-1" points="0 0.0197683284 5.04675627 0.0197683284 5.04675627 5.06626026 0 5.06626026"></polygon>
    </defs>
    <g id="页面-1" stroke="none" stroke-width="1" fill="none" fill-rule="evenodd">
        <g id="聚合流动性挖矿" transform="translate(-32.000000, -147.000000)">
            <g id="侧边/选项" transform="translate(0.000000, 129.000000)">
                <g id="侧边/选项/icon" transform="translate(32.000000, 18.000000)">
                    <g id="编组" transform="translate(0.909091, 0.909091)">
                        <path d="M10.428132,2.89459751 C10.3288541,3.13395235 10.1422815,3.32031965 9.90282405,3.41936657 C9.66380279,3.51825953 9.40012243,3.51792595 9.16043402,3.41849413 C8.9207456,3.31906232 8.73430132,3.1326437 8.63543402,2.89357111 C8.4310022,2.3992346 8.6668673,1.8307412 9.16122947,1.62625806 C9.2802654,1.57701686 9.4049978,1.55204985 9.53198827,1.55204985 C9.65933798,1.55204985 9.78440396,1.57714516 9.90372214,1.62664296 C10.143077,1.72594648 10.3294186,1.91251906 10.4284912,2.15202786 C10.5275638,2.391511 10.5274355,2.65521701 10.428132,2.89459751 M7.76833724,4.27542962 C8.24263343,4.73923094 8.86916935,4.99467449 9.53252713,4.99467449 C10.1959106,4.99467449 10.8224978,4.73923094 11.2968196,4.27542962 C11.7655733,3.81704252 12.0346679,3.20413196 12.0548109,2.5491393 C12.0559399,2.54059457 12.0565044,2.53194721 12.0565044,2.52340249 C12.0565044,1.13199853 10.9245213,1.53958944e-05 9.53314296,1.53958944e-05 C8.141739,1.53958944e-05 7.00975587,1.13199853 7.00975587,2.52340249 L7.00980718,2.52771334 C7.02463856,3.19091716 7.2940154,3.8116283 7.76833724,4.27542962" id="Fill-1" fill="#FFAB36"></path>
                        <path d="M12.4450839,3.70690543 C12.4523457,3.71160117 12.460018,3.7158607 12.4678442,3.71953006 C13.6753699,4.2857654 14.6924996,5.17954839 15.4092555,6.30424413 C16.1259857,7.42893988 16.5065722,8.72835337 16.5098823,10.0618944 C16.5098823,10.0688226 16.5102929,10.0757251 16.511037,10.0825506 C16.5614842,10.5425799 16.84754,10.7959194 17.3165759,10.7959194 C17.7906668,10.7959194 18.0626096,10.5281591 18.0626096,10.0611503 C18.0590685,8.43182845 17.5944205,6.84433211 16.7188559,5.47027419 C15.8432658,4.09619062 14.6006118,3.00441642 13.1252489,2.31296114 C13.1032841,2.30267155 13.0799337,2.29669282 13.0558647,2.29515323 C12.6453589,2.26895455 12.3413926,2.45524487 12.198724,2.81997361 C12.1138926,3.03690176 12.0330898,3.44060777 12.4450839,3.70690543" id="Fill-3" fill="#FFAB36"></path>
                        <path d="M14.0232401,15.4124707 C14.0127966,15.4182955 14.0028405,15.4250953 13.99368,15.4327419 C12.7388376,16.4774817 11.1485444,17.0530828 9.51575843,17.0534677 C7.89721371,17.0528262 6.31777456,16.4857185 5.06834641,15.4566312 C5.06326576,15.4524743 5.05797984,15.4485227 5.05248864,15.444879 C4.48525257,15.0682185 4.15788453,15.4235044 4.04341606,15.5938343 C3.81701943,15.9318768 3.8174813,16.2852639 4.04475037,16.6157625 C4.054886,16.6305169 4.06702309,16.6437573 4.0808794,16.6552016 C5.60620198,17.91261 7.53638526,18.6050403 9.51588673,18.6049633 C11.513504,18.6048864 13.4571074,17.9014223 14.9885883,16.6241532 C15.0028809,16.6122471 15.0153259,16.5983651 15.0255898,16.5829179 C15.2348457,16.2683284 15.2357438,15.9278482 15.0281815,15.5983504 C14.8074043,15.2477346 14.441136,15.1799927 14.0232401,15.4124707" id="Fill-5" fill="#FFAB36"></path>
                        <path d="M1.77773827,10.7959065 C2.29714443,10.7959065 2.46485704,10.3595356 2.51861437,10.0993963 C2.52120601,10.0867973 2.52254032,10.0738647 2.52259164,10.0609578 C2.52590176,8.72723717 2.90646261,7.42779802 3.62319282,6.30310227 C4.33545821,5.18543732 5.34506965,4.29522104 6.54299853,3.72844685 C6.57376466,3.71854216 6.60157991,3.7010165 6.62380132,3.67753776 C7.00495235,3.2746272 6.94036657,2.9046382 6.81902126,2.66507808 C6.63950513,2.31210154 6.32548021,2.18357148 5.9347324,2.30322324 C5.92608504,2.3058662 5.91759164,2.30915066 5.9095088,2.31294831 C4.4340176,3.00407001 3.19108138,4.09556195 2.3151063,5.46938893 C1.43910557,6.84324157 0.973918622,8.43066092 0.969863759,10.0599828 C0.969863759,10.0804337 0.972994868,10.1006793 0.979332845,10.1201294 C1.1613893,10.6786668 1.5140066,10.7959065 1.77773827,10.7959065" id="Fill-7" fill="#FFAB36"></path>
                        <path d="M16.5469736,12.402853 C17.081596,12.402853 17.5165301,12.8377357 17.5165301,13.3722812 C17.5165301,13.9069036 17.081596,14.3418376 16.5469736,14.3418376 C16.0124025,14.3418376 15.5775198,13.9069036 15.5775198,13.3722812 C15.5775198,12.8377357 16.0124025,12.402853 16.5469736,12.402853 M19.0703094,13.3679703 C19.0554523,12.7048178 18.7860755,12.084158 18.311805,11.6203567 C17.8375088,11.1565554 17.2109472,10.9011375 16.5475638,10.9011375 C15.884206,10.9011375 15.2576444,11.1565554 14.7833482,11.6203567 C14.3090777,12.084158 14.0397009,12.7048178 14.0248438,13.3679703 C14.0043416,14.2819989 14.4813321,15.1373948 15.2696532,15.6003237 C15.6564751,15.8275414 16.0982859,15.9476294 16.5474868,15.9476294 L16.5476151,15.9476294 C16.9969443,15.9476294 17.4388578,15.8275158 17.825577,15.6003493 C18.6138724,15.1374461 19.0908116,14.2820502 19.0703094,13.3679703" id="Fill-9" fill="#FFAB36"></path>
                        <g transform="translate(0.000000, 10.881356)">
                            <mask id="mask-2" fill="white">
                                <use xlink:href="#path-1"></use>
                            </mask>
                            <g id="Clip-12"></g>
                            <path d="M2.52396701,3.46049413 C1.98937023,3.46049413 1.55441056,3.02556012 1.55441056,2.49093768 C1.55441056,1.95639223 1.98937023,1.52150953 2.52396701,1.52150953 C3.05858944,1.52150953 3.49352346,1.95639223 3.49352346,2.49093768 C3.49352346,3.02556012 3.05858944,3.46049413 2.52396701,3.46049413 M5.04612243,2.48662683 C5.0312654,1.82342302 4.76188856,1.20278886 4.28761804,0.738987537 C3.81332185,0.275186217 3.18676026,0.0197683284 2.52337683,0.0197683284 C1.8599934,0.0197683284 1.23345748,0.275186217 0.75916129,0.738987537 C0.284865103,1.20278886 0.0154882698,1.82344868 0.000631231672,2.48662683 C-0.0198453079,3.40062977 0.457145161,4.25602566 1.24544062,4.71898021 C1.6322368,4.94617229 2.07415029,5.06626026 2.52342815,5.06626026 C2.97270601,5.06626026 3.4146195,4.94617229 3.80139003,4.71900587 C4.58965982,4.25610264 5.06659897,3.40070674 5.04612243,2.48662683" id="Fill-11" fill="#FFAB36" mask="url(#mask-2)"></path>
                        </g>
                    </g>
                </g>
            </g>
        </g>
    </g>
</svg>