<?xml version="1.0" encoding="UTF-8"?>
<svg width="20px" height="20px" viewBox="0 0 20 20" version="1.1" xmlns="http://www.w3.org/2000/svg" xmlns:xlink="http://www.w3.org/1999/xlink">
    <title>切片</title>
    <defs>
        <linearGradient x1="50%" y1="0%" x2="50%" y2="100%" id="linearGradient-1">
            <stop stop-color="#B18CFF" offset="0%"></stop>
            <stop stop-color="#8D6AFF" offset="100%"></stop>
        </linearGradient>
    </defs>
    <g id="页面-1" stroke="none" stroke-width="1" fill="none" fill-rule="evenodd">
        <g id="首页" transform="translate(-32.000000, -1050.000000)">
            <g id="币价" transform="translate(32.000000, 1049.000000)">
                <g id="icon/44/USDT" transform="translate(0.000000, 1.000000)">
                    <path d="M10,20 L10,20 C4.47715,20 0,15.52285 0,10 C0,4.47715 4.47715,0 10,0 C15.52285,0 20,4.47715 20,10 C20,15.52285 15.52285,20 10,20" id="Fill-1" fill="url(#linearGradient-1)"></path>
                    <g id="编组-2" transform="translate(4.090909, 3.181818)">
                        <path d="M5.13999476,12.4003614 C5.25082333,12.5380614 5.55849476,12.82034 6.2180019,12.82034 C6.62261618,12.82034 6.89589476,12.5678257 7.02684476,12.4107114 L6.72322333,11.9250329 L7.15503047,11.6339471 C7.15599476,11.6353614 7.2926019,11.8203114 7.50648047,11.9910543 C7.6859019,12.1341543 7.96046618,12.2985329 8.24994476,12.2673543 C8.57400904,12.23264 9.30480904,12.0617686 9.4899519,11.23544 L9.01218047,11.1001829 L9.1034019,10.5898186 C9.10963761,10.5902686 9.79762333,10.6349471 10.051359,10.2347043 C10.222809,9.96438286 10.2792519,9.52357572 10.1856519,9.18659001 C10.1495876,9.05679715 10.0767519,8.88843286 9.93249476,8.80094001 L9.3243519,8.68959715 L9.36729476,8.17286858 C9.48172333,8.17029715 9.75307333,8.12613286 9.8562519,8.00591858 C9.8666019,7.99383286 9.87727333,7.97898286 9.8855019,7.95892572 L9.08784476,7.57372572 L2.92593047,7.35971858 L1.97977333,8.01659001 C1.99687333,8.17511858 2.08860904,8.50689715 2.52073761,8.88406143 L2.19885904,9.29285429 L1.74930904,8.97431858 C1.63706618,9.11381858 1.4939019,9.34595429 1.48766618,9.62739715 C1.47808761,10.0561186 1.62414476,10.2957114 2.01615904,10.4651043 L2.43633047,10.02314 L2.84467333,10.3428971 C2.84113761,10.3484257 2.4636519,10.9544471 2.61318047,11.4777329 C2.70009476,11.7819329 3.14520904,12.27359 3.6449019,12.3516329 C4.06815904,12.4177829 4.46107333,12.1835257 4.81297333,11.6556757 L5.68436618,10.3485543 L5.13999476,12.4003614 Z M6.2180019,13.34144 C5.15175904,13.34144 4.7303019,12.7428114 4.64261618,12.5952114 C4.2434019,12.88154 3.85788047,12.9122686 3.56454476,12.8664329 C2.81568047,12.7495614 2.23993761,12.06794 2.11213761,11.6208971 C2.0559519,11.42399 2.0478519,11.2256043 2.06700904,11.03924 L2.00143761,11.0168686 C1.2797019,10.7712329 0.950944755,10.32599 0.966759041,9.61589001 C0.982380469,8.91131858 1.52610904,8.45051858 1.5492519,8.43123286 L1.55143761,8.42936858 C1.53723047,8.39227572 1.52443761,8.35492572 1.51312333,8.31738286 C1.43295904,8.05124001 1.45777333,7.86937572 1.46355904,7.83562572 L1.48194476,7.72788286 L2.77093761,6.83296143 L9.21558047,7.05686858 L10.3945805,7.62618286 L10.4128376,7.76581143 C10.4420876,7.98907572 10.3857733,8.19009715 10.2499376,8.34714715 C10.2428662,8.35537572 10.2356019,8.36347572 10.2281448,8.37131858 C10.4456233,8.51255429 10.603509,8.74404715 10.687659,9.04709001 C10.8213733,9.52839715 10.7424948,10.1177686 10.4913948,10.5137043 C10.3770305,10.69409 10.2228733,10.8206686 10.0580448,10.9093186 L10.0421662,11.0727971 C9.94824476,12.03869 9.29902333,12.6789114 8.30548761,12.7853686 C8.01581618,12.8164186 7.7489019,12.7392114 7.5207519,12.62054 C7.38600904,12.8141686 6.9515019,13.34144 6.2180019,13.34144 L6.2180019,13.34144 Z" id="Fill-3" fill="#231815"></path>
                        <path d="M5.99815118,10.2818257 C8.46254404,10.2158043 9.26675833,8.16933286 9.26675833,8.16933286 L9.92170118,8.28562572 C10.0720655,8.19337572 10.1864298,8.04352572 10.154544,7.79962572 L9.1516869,7.31529715 L2.84847261,7.09634001 L1.72032261,7.87959715 C1.72032261,7.87959715 1.69351547,8.03722572 1.77432261,8.27900429 L2.52055118,8.16933286 C2.52055118,8.16933286 3.53375833,10.3477829 5.99815118,10.2818257" id="Fill-5" fill="#4BB994"></path>
                        <path d="M9.91464904,8.28982072 C9.91696333,8.2884685 9.91940618,8.28724506 9.92172047,8.28582845 L9.38236333,8.18982072 C9.37554904,8.19007829 9.3712419,8.19020707 9.3712419,8.19020707 L9.91464904,8.28982072 Z" id="Fill-7" fill="#63DFD2"></path>
                        <path d="M10.0205598,8.55219929 L9.37127404,8.43333501 C9.37127404,8.43333501 9.68312404,8.42806358 9.91468118,8.28965643 L9.37127404,8.19020643 C9.37127404,8.19020643 9.37558118,8.19007786 9.38233118,8.18982072 L9.26674547,8.16931358 C9.26674547,8.16931358 8.46253118,10.215785 5.99813833,10.2818064 C3.53374547,10.3478279 2.52053833,8.16931358 2.52053833,8.16931358 L1.8744669,8.26426358 L1.77430976,8.27898501 C1.79655261,8.34552072 1.82708833,8.41854929 1.86848833,8.49633501 C1.96202404,8.67209215 2.11142404,8.87253501 2.34947404,9.08030643 L1.71593833,8.63139929 C1.71593833,8.63139929 1.27905261,8.99557786 1.2314169,9.54927072 C1.26799547,10.0398993 1.52693833,10.3370921 2.08538833,10.527185 L2.62513118,9.95947786 C2.62513118,9.95947786 2.50285976,10.1510493 2.41253833,10.4261921 L2.62513118,10.2026064 C2.62513118,10.2026064 2.3645169,10.6107564 2.3235669,11.0918064 C2.33005976,11.1632279 2.34233833,11.2349707 2.36265261,11.3061993 C2.54747404,11.9531064 3.9206169,13.2206279 5.02973833,11.5570421 L4.92668833,11.9453921 C4.96127404,11.8996207 4.99560261,11.8513421 5.02973833,11.8001707 L4.90354547,12.2756921 C5.02240976,12.4414207 5.39288833,12.8377421 6.21799547,12.8377421 C6.76159547,12.8377421 7.11220976,12.4811493 7.25993833,12.2922136 L6.9441669,11.7869279 C6.9441669,11.7869279 7.09305261,11.9921279 7.33450976,12.1870421 C7.33823833,12.1810636 7.34029547,12.1775921 7.34029547,12.1775921 L6.9441669,11.5437993 C6.9441669,11.5437993 7.53835976,12.3624779 8.27770976,12.2832136 C8.95380261,12.2107636 9.5744169,11.8289707 9.74638118,11.0372279 L9.08308118,10.8495136 C9.08308118,10.8495136 9.37975976,10.8727207 9.69289547,10.7789921 L9.08308118,10.606385 C9.08308118,10.606385 9.9281169,10.6724064 10.2714026,10.1311207 C10.3956026,9.93517786 10.4694026,9.67867786 10.4870812,9.41806358 C10.4608526,9.04385643 10.3118383,8.69787072 10.0205598,8.55219929" id="Fill-9" fill="#63DFD2"></path>
                        <path d="M5.02971904,11.557055 C3.9206619,13.2206407 2.54751904,11.9531193 2.36269761,11.3062121 C2.34231904,11.2349836 2.33004047,11.1632407 2.32354761,11.0918193 C2.31088333,11.240705 2.31898333,11.396405 2.36269761,11.5493407 C2.54179761,12.1763836 3.83728333,13.3863693 4.92666904,11.945405 L5.02971904,11.557055 Z" id="Fill-11" fill="#A0EBEE"></path>
                        <path d="M6.2180019,12.8377421 C5.39289476,12.8377421 5.02241618,12.4414207 4.9035519,12.2756921 L4.8581019,12.4471421 C4.8581019,12.4471421 5.17496618,13.0808707 6.2180019,13.0808707 C6.9573519,13.0808707 7.3403019,12.4207207 7.3403019,12.4207207 L7.25994476,12.2922136 C7.11221618,12.4811493 6.7616019,12.8377421 6.2180019,12.8377421" id="Fill-13" fill="#A0EBEE"></path>
                        <path d="M8.27771618,12.28322 C7.53836618,12.36242 6.94417333,11.5438057 6.94417333,11.5438057 L7.34023761,12.1775343 C7.34023761,12.1775343 7.33824476,12.18107 7.33451618,12.1870486 C7.57539476,12.3815129 7.90845904,12.5658843 8.27771618,12.5263486 C9.01706618,12.4471486 9.69045904,11.9981771 9.7829019,11.0475843 L9.74638761,11.0372343 C9.57442333,11.8289771 8.95380904,12.21077 8.27771618,12.28322" id="Fill-15" fill="#A0EBEE"></path>
                        <path d="M2.6251569,9.95945215 L2.08541404,10.5271593 C1.52696404,10.3370664 1.26802118,10.0398736 1.23137833,9.54924501 C1.22932118,9.57309501 1.22771404,9.59713786 1.22719976,9.62163072 C1.2139569,10.2157593 1.46486404,10.559045 2.08541404,10.7702879 L2.41256404,10.4262307 C2.50288547,10.1510236 2.6251569,9.95945215 2.6251569,9.95945215" id="Fill-17" fill="#A0EBEE"></path>
                        <path d="M10.4871005,9.41804429 C10.4694219,9.67872286 10.3956219,9.93515858 10.2714219,10.1311014 C9.92813618,10.6724514 9.08310047,10.6063657 9.08310047,10.6063657 L9.69291476,10.7789729 C9.9082719,10.7145586 10.1314719,10.5948586 10.2714219,10.37423 C10.4343862,10.1172157 10.5108219,9.75618715 10.4871005,9.41804429" id="Fill-19" fill="#A0EBEE"></path>
                        <path d="M2.90283261,7.03351358 C2.36913261,7.68042072 1.29736118,8.04755643 0.654375469,7.80365643 C0.346704041,7.68704215 0.196854041,7.45149929 0.209068326,7.10345643 C0.267568326,5.42926358 1.96271833,4.66696358 2.20578261,4.56622786 L2.7867969,4.70913501 C2.92211833,4.91960643 3.64391833,6.13518501 2.90283261,7.03351358 M3.34402547,5.43350643 C3.19893261,4.93413501 2.9469969,4.57284929 2.93638976,4.55761358 L2.91388976,4.52572786 L2.19183261,4.34823501 L2.16181118,4.35935643 C2.14040404,4.36732786 1.6325469,4.55915643 1.10996833,4.98999929 C0.412404041,5.56522786 0.0288111836,6.29352072 0.000782612147,7.09619215 C-0.0143888164,7.53063501 0.191454041,7.85109929 0.580511184,7.99863501 C0.740775469,8.05932072 0.921804041,8.08792786 1.11318261,8.08792786 C1.79216833,8.08792786 2.60030404,7.72773501 3.06361118,7.16613501 C3.44283261,6.70649215 3.53977547,6.10734929 3.34402547,5.43350643" id="Fill-21" fill="#231815"></path>
                        <path d="M2.20579547,4.56623429 C1.96273118,4.66690572 0.267581184,5.42927001 0.209016898,7.10346286 C0.196866898,7.45150572 0.346716898,7.68704858 0.654388326,7.80366286 C1.29737404,8.04756286 2.36914547,7.68042715 2.90284547,7.03352001 C3.64393118,6.13519143 2.92213118,4.91961286 2.78680976,4.70914143 L2.20579547,4.56623429 Z" id="Fill-23" fill="#FFD254"></path>
                        <path d="M2.77406833,5.12069858 C2.53126118,5.25235572 0.835082612,6.20905572 0.699439755,7.29972715 C0.671218326,7.52652715 0.806925469,7.63639143 1.10283261,7.62649143 C1.72132547,7.60566286 2.78840404,7.07453429 3.34145404,6.51216286 C4.10941118,5.73122001 3.45922547,5.15001286 3.33656833,5.05223429 L2.77406833,5.12069858 Z" id="Fill-25" fill="#FFA154"></path>
                        <path d="M2.49994761,5.55719858 C2.31332618,5.66185572 1.01166904,6.42074858 0.966733326,7.25087001 C0.957347612,7.42341286 1.07241904,7.50415572 1.30866904,7.49078429 C1.80238333,7.46301286 2.62536904,7.03917715 3.03519047,6.60171286 C3.60424761,5.99434143 3.04997618,5.56607001 2.94609047,5.49426286 L2.49994761,5.55719858 Z" id="Fill-27" fill="#231815"></path>
                        <path d="M9.29891404,4.70911572 L9.87992833,4.56620858 C10.1229926,4.66694429 11.8181426,5.42924429 11.8766426,7.10343715 C11.8888569,7.45148001 11.7390069,7.68702286 11.4313355,7.80370143 C10.7882855,8.04760143 9.71657833,7.68046572 9.18287833,7.03349429 C8.44179261,6.13523001 9.16359261,4.91958715 9.29891404,4.70911572 M9.02209976,7.16618001 C9.48534261,7.72771572 10.2935426,8.08797286 10.9725283,8.08797286 C11.1639069,8.08797286 11.3449355,8.05930143 11.5051998,7.99861572 C11.8942569,7.85108001 12.1000998,7.53068001 12.0849283,7.09617286 C12.0568355,6.29350143 11.6733069,5.56520858 10.9756783,4.98998001 C10.453164,4.55913715 9.9453069,4.36737286 9.92389976,4.35940143 L9.89381404,4.34821572 L9.1717569,4.52570858 L9.14932118,4.55765858 C9.13864976,4.57283001 8.88677833,4.93411572 8.74168547,5.43355143 C8.54593547,6.10733001 8.64287833,6.70647286 9.02209976,7.16618001" id="Fill-29" fill="#231815"></path>
                        <path d="M9.87990261,4.56623429 C10.1229669,4.66690572 11.8181169,5.42927001 11.8766812,7.10346286 C11.8888312,7.45150572 11.7389812,7.68704858 11.4313098,7.80366286 C10.788324,8.04756286 9.71655261,7.68042715 9.18285261,7.03352001 C8.4417669,6.13519143 9.1635669,4.91961286 9.29888833,4.70914143 L9.87990261,4.56623429 Z" id="Fill-31" fill="#FFD254"></path>
                        <path d="M9.31162976,5.12069858 C9.5544369,5.25235572 11.2506155,6.20905572 11.3862583,7.29972715 C11.4144798,7.52652715 11.2787726,7.63639143 10.9828655,7.62649143 C10.3643726,7.60566286 9.29729404,7.07453429 8.74424404,6.51216286 C7.9762869,5.73122001 8.62647261,5.15001286 8.74912976,5.05223429 L9.31162976,5.12069858 Z" id="Fill-33" fill="#FFA154"></path>
                        <path d="M9.58575047,5.55719858 C9.7723719,5.66185572 11.074029,6.42074858 11.1189648,7.25087001 C11.1283505,7.42341286 11.013279,7.50415572 10.777029,7.49078429 C10.2833148,7.46301286 9.46032904,7.03917715 9.05050761,6.60171286 C8.48145047,5.99434143 9.0357219,5.56607001 9.13960761,5.49426286 L9.58575047,5.55719858 Z" id="Fill-35" fill="#231815"></path>
                        <path d="M7.72058404,9.13365715 C6.68461976,9.83540001 5.31173404,9.83540001 4.27576976,9.13365715 C2.9413269,8.22973572 2.65049833,6.54950001 2.62684118,5.37538572 C2.6038269,6.54230001 2.81146976,8.46887858 4.27576976,9.46074286 C5.31173404,10.1624214 6.68461976,10.1624214 7.72058404,9.46074286 C9.18494833,8.46887858 9.39259118,6.54223572 9.3695769,5.37532143 C9.34591976,6.54943572 9.0550269,8.22973572 7.72058404,9.13365715" id="Fill-37" fill="#FFD6A8"></path>
                        <path d="M4.27577618,9.13365715 C5.31174047,9.83540001 6.68462618,9.83540001 7.72059047,9.13365715 C9.05503333,8.22973572 9.34592618,6.54943572 9.36958333,5.37532143 C9.35826904,4.79790715 9.29044761,4.40634286 9.29044761,4.40634286 L9.14522618,3.90465715 L2.85114047,3.90465715 L2.70598333,4.40634286 C2.70598333,4.40634286 2.6381619,4.79797143 2.62684761,5.37538572 C2.65050476,6.54950001 2.94133333,8.22973572 4.27577618,9.13365715" id="Fill-39" fill="#FFECC8"></path>
                        <path d="M2.80775404,4.42949858 C2.79541118,4.50509858 2.6621469,5.36189858 2.7741969,6.37124858 C2.88071833,7.33142001 3.23782547,8.63185572 4.33421833,9.37448429 C5.32948976,10.0485843 6.66688976,10.0485843 7.66216118,9.37448429 C8.75848976,8.63185572 9.11566118,7.33142001 9.2222469,6.37124858 C9.33423261,5.36189858 9.20103261,4.50509858 9.18868976,4.42949858 L9.06686833,4.00881286 L2.92951118,4.00881286 L2.80775404,4.42949858 Z M5.99818976,10.08812 C5.37397547,10.08812 4.75001833,9.90779858 4.2173469,9.54696286 C3.29626118,8.92307001 2.72540404,7.83104858 2.56648976,6.38892715 C2.44736833,5.30847715 2.59683261,4.42557715 2.60326118,4.38854858 L2.60583261,4.37736286 L2.7728469,3.80046286 L9.22353261,3.80046286 L9.39311833,4.38854858 C9.3995469,4.42557715 9.54907547,5.30847715 9.42995404,6.38892715 C9.27103976,7.83111286 8.70011833,8.92313429 7.77903261,9.54702715 C7.24648976,9.90773429 6.62227547,10.08812 5.99818976,10.08812 L5.99818976,10.08812 Z" id="Fill-41" fill="#231815"></path>
                        <path d="M6.38151261,5.29830072 C6.39094984,5.30363643 6.40177235,5.30955072 6.41354724,5.31572215 L6.48151261,5.14105786 C6.4646295,5.17815072 6.43389356,5.23472215 6.38151261,5.29830072" id="Fill-43" fill="#ED4C77"></path>
                        <path d="M4.56945904,5.27042643 C4.58148047,5.26521929 4.59343761,5.25994786 4.60558761,5.25435501 C4.54413047,5.16114072 4.50928761,5.07744072 4.49218761,5.02935501 L4.56945904,5.27042643 Z" id="Fill-45" fill="#ED4C77"></path>
                        <path d="M8.76394118,5.10657858 C8.78444833,5.08725208 8.8043769,5.06668107 8.82353404,5.04406028 C8.69329118,5.03220083 8.60779118,5.00657858 8.60779118,5.00657858 L8.76394118,5.10657858 Z" id="Fill-47" fill="#ED4C77"></path>
                        <path d="M7.5560519,5.39104929 C7.5703519,5.38284929 7.5845519,5.37494929 7.5989519,5.36624929 L7.5227519,5.30634929 L7.5560519,5.39104929 Z" id="Fill-49" fill="#ED4C77"></path>
                        <path d="M9.52871618,2.59032286 L9.2316519,2.65968715 L9.55841618,2.68938715 C9.93198047,2.86405143 10.1126233,3.20753001 10.1477233,3.57755858 C10.1902805,3.11052286 10.0241662,2.63043715 9.55841618,2.41263715 L9.53013047,2.41006572 C9.5399019,2.51645858 9.52871618,2.59032286 9.52871618,2.59032286" id="Fill-51" fill="#ED4C77"></path>
                        <path d="M4.51383547,4.78238501 L4.49253547,4.71608501 C4.49253547,4.71608501 4.49903547,4.74088501 4.51383547,4.78238501" id="Fill-53" fill="#ED4C77"></path>
                        <path d="M4.51383547,5.05905143 L4.49253547,4.99275143 C4.49253547,4.99275143 4.49903547,5.01755143 4.51383547,5.05905143" id="Fill-55" fill="#ED4C77"></path>
                        <path d="M10.3904212,3.06236001 C10.307364,2.70499572 10.104414,2.41609572 9.81229976,2.23468143 C9.81461404,2.06927429 9.7837569,1.76867429 9.56659976,1.50908858 C9.36191404,1.26435286 9.05276404,1.12678143 8.64679976,1.09939572 L8.64371404,1.06031001 L8.62738547,1.02026001 C8.6128569,0.98464572 8.26147118,0.147131434 7.45352833,0.134531434 C6.88318547,0.125660006 6.57949976,0.282902863 6.45574976,0.37084572 C6.16993547,0.111838577 5.7490569,-0.0699614228 5.16919976,0.0260171486 C4.66969976,0.108688577 4.33927118,0.378367149 4.13066404,0.680574291 C4.09511404,0.676974291 3.38392118,0.610888577 2.8951569,1.09553858 C2.66353547,1.32529572 2.5248069,1.63129572 2.4802569,2.00929572 L2.40632833,2.04889572 C2.37881404,2.06361715 1.73081404,2.41918143 1.59047833,3.22661001 C1.50401404,3.72373143 1.62943547,4.22689572 1.92598547,4.57249572 C2.11331404,4.79081001 2.45492833,5.04692429 3.03054261,5.05721001 C3.12587833,5.20924572 3.33242833,5.47031001 3.68252833,5.59470286 C4.0057569,5.70951715 4.36119261,5.67711715 4.7397069,5.49853143 C4.93687118,5.62941715 5.19324261,5.72070286 5.5182069,5.72070286 C5.82054261,5.72070286 6.05692118,5.64722429 6.2382069,5.53961001 C6.40869261,5.66406715 6.67978547,5.78672429 7.00192118,5.78672429 C7.2408069,5.78672429 7.50772118,5.71922429 7.78234976,5.53491715 L7.79134976,5.52887429 C7.88302118,5.54764572 8.0539569,5.57387429 8.25112118,5.56172429 C8.66017118,5.53639572 8.97517118,5.36025286 9.16224261,5.05232429 L9.17452118,5.03194572 C9.46406404,4.99491715 9.7977069,4.87418858 10.0522783,4.55732429 C10.375314,4.15541001 10.508064,3.56854572 10.3904212,3.06236001" id="Fill-57" fill="#231815"></path>
                        <path d="M4.10215976,0.957002863 C4.10215976,0.957002863 2.65765976,0.806252863 2.74669547,2.43146001 C2.8275669,1.10061715 4.10215976,1.23375286 4.10215976,1.23375286 L4.10215976,0.957002863 Z" id="Fill-59" fill="#FF8C93"></path>
                        <path d="M8.54839118,1.37291215 L8.41711976,1.71889786 L8.3701269,1.12534786 C8.3701269,1.12534786 8.08296261,0.422319291 7.44916976,0.412419291 C6.81544118,0.402455006 6.5876769,0.620319291 6.5876769,0.620319291 L6.61506261,0.875533577 C6.69188404,0.820762149 6.93880547,0.681069291 7.44916976,0.68904072 C8.08296261,0.699005006 8.3701269,1.40203358 8.3701269,1.40203358 L8.41711976,1.99564786 L8.54839118,1.64966215 C9.26176976,1.66856215 9.46375547,2.04553358 9.51666261,2.31649786 L9.52874833,2.59029072 C9.52874833,2.59029072 9.72424118,1.40904072 8.54839118,1.37291215" id="Fill-61" fill="#FF8C93"></path>
                        <path d="M5.21454047,0.300144291 C4.19625476,0.468637149 4.10214047,1.52144429 4.10214047,1.52144429 L4.10214047,1.79819429 C4.10214047,1.79819429 4.19625476,0.745387149 5.21454047,0.576894291 C6.34969761,0.389051434 6.64708333,1.45156572 6.64708333,1.45156572 L6.6053619,1.06212286 C6.49125476,0.794051434 6.11884761,0.150551434 5.21454047,0.300144291" id="Fill-63" fill="#FF8C93"></path>
                        <path d="M2.53758047,2.29381786 C2.53758047,2.29381786 1.9830519,2.59088215 1.86418761,3.27417501 C1.84168761,3.40377501 1.83596618,3.53896786 1.84830904,3.67293929 C1.85197333,3.63186072 1.85724476,3.59110358 1.86418761,3.55092501 C1.9830519,2.86763215 2.53758047,2.57056786 2.53758047,2.57056786 L2.75544476,2.82803215 C2.74548047,2.72414643 2.74155904,2.62720358 2.74278047,2.53630358 L2.53758047,2.29381786 Z" id="Fill-65" fill="#FF8C93"></path>
                        <path d="M8.60777833,4.72983501 C8.60777833,4.72983501 9.39007118,4.93779929 9.83569976,4.38320643 C10.0091426,4.16746358 10.120614,3.87515643 10.1477426,3.57757786 C10.1126426,3.20748501 9.93199976,2.86407072 9.55843547,2.68940643 L9.23167118,2.65970643 L9.52873547,2.59034215 C9.52873547,2.59034215 9.65126404,1.57977072 8.54837833,1.64964929 L8.4171069,1.99563501 L8.37011404,1.40202072 C8.37011404,1.40202072 8.08294976,0.698992149 7.44922118,0.689092149 C6.9388569,0.68112072 6.69187118,0.820749291 6.61504976,0.87552072 L6.64706404,1.17483501 C6.64706404,1.17483501 6.63452833,1.13054215 6.6054069,1.06207786 L6.64706404,1.45158501 C6.64706404,1.45158501 6.34974261,0.38907072 5.21452118,0.576849291 C4.19623547,0.745406434 4.10218547,1.79814929 4.10218547,1.79814929 L4.10218547,1.52146358 L4.10218547,1.23372072 C4.10218547,1.23372072 2.82759261,1.10064929 2.7466569,2.43142786 C2.74877833,2.47044929 2.75147833,2.51017786 2.75539976,2.55132072 L2.74279976,2.53634215 C2.74157833,2.62717786 2.74549976,2.72418501 2.75539976,2.82800643 L2.53759976,2.57054215 C2.53759976,2.57054215 1.98307118,2.86760643 1.8642069,3.55089929 C1.85726404,3.59107786 1.85199261,3.63189929 1.84832833,3.67297786 C1.90072118,4.24569929 2.28347833,4.79540643 3.10202833,4.77939929 L3.17132833,4.26447072 L3.22089261,4.82883501 C3.22089261,4.82883501 3.61554261,5.68357786 4.56947833,5.27041358 L4.49214261,5.02934215 C4.48269261,5.00266358 4.47851404,4.98672072 4.47851404,4.98672072 L4.49214261,5.02934215 C4.5093069,5.07742786 4.54414976,5.16112786 4.6056069,5.25434215 C4.61923547,5.24810643 4.63292833,5.24167786 4.64681404,5.23486358 L4.49214261,4.75265643 C4.48269261,4.72597786 4.47851404,4.71003501 4.47851404,4.71003501 L4.49214261,4.75265643 C4.54774976,4.90874215 4.79094261,5.44282786 5.5182069,5.44282786 C6.20484261,5.44282786 6.40759976,5.00767786 6.45574976,4.86438501 L6.46886404,4.81899929 C6.46886404,4.81899929 6.46526404,4.83609929 6.45574976,4.86438501 L6.34016404,5.26456358 C6.34016404,5.26456358 6.35449976,5.27787072 6.38149976,5.29831358 C6.42039261,5.23473501 6.44327833,5.17816358 6.45574976,5.14100643 L6.46886404,5.09562072 C6.46886404,5.09562072 6.46526404,5.11278501 6.45574976,5.14100643 L6.40528547,5.31567072 C6.56464976,5.42855643 7.00179261,5.66557786 7.53992833,5.35803501 L7.51852118,5.30364929 L7.5675069,5.34209215 C7.58737118,5.33013501 7.60729976,5.31772786 7.62742118,5.30422786 L7.51852118,5.02689929 L7.79578547,5.24476358 C7.79578547,5.24476358 8.38586404,5.40663501 8.76392833,5.09439929 L8.60777833,5.00658501 C8.60777833,5.00658501 8.69334261,5.02908501 8.82352118,5.03949929 C8.86029261,5.00144215 8.89436404,4.95798501 8.92464261,4.90803501 L8.60777833,4.72983501 Z" id="Fill-67" fill="#ED4C77"></path>
                        <path d="M6.46996404,5.17150286 C6.48476404,5.12760286 6.49036404,5.10090286 6.49036404,5.10090286 L6.46996404,5.17150286 Z" id="Fill-69" fill="#ED4C77"></path>
                        <path d="M6.46996404,4.89483643 C6.48476404,4.85093643 6.49036404,4.82423643 6.49036404,4.82423643 L6.46996404,4.89483643 Z" id="Fill-71" fill="#ED4C77"></path>
                        <path d="M4.88268176,6.51286418 C4.86858233,6.59770201 4.80022146,6.6609364 4.72989522,6.65397602 C4.65973988,6.64708131 4.61419446,6.57268404 4.62829389,6.48784621 C4.64247877,6.40300838 4.71083963,6.33983965 4.78116587,6.34680003 C4.85132121,6.35362908 4.89686663,6.42802634 4.88268176,6.51286418 M4.71289046,6.15913244 C4.44389045,6.12308292 4.17540315,6.31580664 4.11336567,6.58955968 C4.05124273,6.86331272 4.2189832,7.1144117 4.48798321,7.15046121 C4.75698321,7.18651073 5.02547051,6.99378701 5.087508,6.72003397 C5.14963093,6.44628093 4.98189046,6.19518195 4.71289046,6.15913244" id="Fill-73" fill="#231815"></path>
                        <path d="M7.93264033,6.51286418 C7.9185409,6.59770201 7.85009458,6.6609364 7.77985379,6.65397602 C7.709613,6.64708131 7.66415303,6.57268404 7.67825246,6.48784621 C7.69235189,6.40300838 7.7607982,6.33983965 7.83103899,6.34680003 C7.90127978,6.35362908 7.94682521,6.42802634 7.93264033,6.51286418 M7.76284903,6.15913244 C7.49384902,6.12308292 7.22536172,6.31580664 7.16332424,6.58955968 C7.1012013,6.86331272 7.26894178,7.1144117 7.53794178,7.15046121 C7.80694179,7.18651073 8.07534363,6.99378701 8.13746657,6.72003397 C8.19958951,6.44628093 8.03184903,6.19518195 7.76284903,6.15913244" id="Fill-75" fill="#231815"></path>
                        <path d="M6.72016976,8.47227929 C6.47723404,9.02873643 5.61503404,9.05535072 5.32896261,8.52261501 C5.24963404,8.37482215 5.02463404,8.50622215 5.1040269,8.65407929 C5.47540547,9.34572929 6.62361261,9.34013643 6.94516976,8.60374358 C7.0115769,8.45164358 6.78715547,8.31876501 6.72016976,8.47227929" id="Fill-77" fill="#231815"></path>
                        <polygon id="Fill-79" fill="#231815" points="5.89177761 9.98682501 6.13490618 9.98682501 6.13490618 9.03886786 5.89177761 9.03886786"></polygon>
                    </g>
                </g>
            </g>
        </g>
    </g>
</svg>