<?xml version="1.0" encoding="UTF-8"?>
<svg width="20px" height="20px" viewBox="0 0 20 20" version="1.1" xmlns="http://www.w3.org/2000/svg" xmlns:xlink="http://www.w3.org/1999/xlink">
    <title>切片</title>
    <defs>
        <filter id="filter-1">
            <feColorMatrix in="SourceGraphic" type="matrix" values="0 0 0 0 0.470885 0 0 0 0 0.489254 0 0 0 0 0.566404 0 0 0 1.000000 0"></feColorMatrix>
        </filter>
    </defs>
    <g id="页面-1" stroke="none" stroke-width="1" fill="none" fill-rule="evenodd">
        <g id="首页" transform="translate(-48.000000, -162.000000)">
            <g id="侧边/选项" transform="translate(24.000000, 148.000000)">
                <g id="编组" transform="translate(24.000000, 14.000000)" filter="url(#filter-1)">
                    <g transform="translate(2.272727, 0.454545)">
                        <path d="M0.752453528,9.489914 C0.752453528,9.32045885 0.750055409,9.1510037 0.75565102,8.98154855 C0.764444124,8.7054643 0.79242218,8.41936794 0.835055409,8.17056673 C0.88088613,7.90074006 0.944569515,7.63416733 1.02503973,7.37210006 C1.06500839,7.24244309 1.1089739,7.11403764 1.15720274,6.987134 C1.1801181,6.92580976 1.20436575,6.86473582 1.22967923,6.80416248 C1.24220274,6.77362552 1.25499271,6.74358915 1.26804914,6.71355279 C1.27444412,6.69853461 1.28083911,6.68351642 1.28750055,6.66874855 C1.29949115,6.64146552 1.29176387,6.65873642 1.29922469,6.64246673 C1.74740651,5.66052794 2.4186134,4.8227637 3.29339397,4.14469279 C3.49510243,3.9885037 3.71119961,3.84107521 3.94781403,3.69865279 C4.18949115,3.55347703 4.44022782,3.42206794 4.69869177,3.30492612 C5.19003973,3.08240673 5.73654444,2.91044855 6.29370745,2.80206733 C6.76373879,2.71095703 7.222046,2.67090855 7.71739083,2.67065824 L8.50557265,2.67065824 L10.401952,2.67065824 L10.401952,3.43583461 L10.401952,3.86134976 C10.401952,4.14344127 10.8687858,4.14394188 10.8687858,3.86134976 L10.8687858,2.70069461 L10.8687858,0.878738848 C11.2543501,1.16733824 11.6396479,1.45568733 12.0254786,1.74428673 C12.8498987,2.361534 13.6748516,2.97853097 14.4995382,3.59577824 C14.6221087,3.68713885 14.7444128,3.77900006 14.8667169,3.87061097 C14.4134723,4.253074 13.9596949,4.63578733 13.5061839,5.01850067 C12.6817639,5.71459339 11.8568109,6.41043582 11.0318579,7.10652855 L10.8687858,7.24419521 L10.8687858,5.94286976 L10.8687858,5.68856188 C10.8687858,5.57016855 10.7616698,5.46954673 10.6353689,5.46954673 L8.69395823,5.46954673 C8.42350368,5.46954673 8.15278268,5.46929642 7.88232814,5.46954673 C7.22684224,5.47004733 6.58014945,5.61397158 5.99474193,5.89105703 C5.51405227,6.11858248 5.11836262,6.45173582 4.71148174,6.77637885 C4.61555698,6.85322188 4.62754757,7.00740855 4.71148174,7.086254 C4.80687359,7.17586248 4.94543158,7.16334733 5.04188926,7.086254 C5.35257892,6.838454 5.65340964,6.57939036 6.00646607,6.38465461 C6.57162281,6.07227642 7.21565102,5.90982976 7.87087046,5.90782733 C8.52902093,5.90632552 9.18690494,5.90782733 9.84505541,5.90782733 L10.401952,5.90782733 L10.401952,7.48148248 L10.401952,7.73554006 C10.401952,7.93302915 10.6529551,8.01462794 10.8003062,7.89047764 C11.3188328,7.45294794 11.8373595,7.01566855 12.3556197,6.57813885 C13.1805727,5.88229642 14.0049927,5.186454 14.8299457,4.49011097 C15.0172654,4.33242006 15.2043187,4.17447885 15.3916385,4.01628733 C15.4782372,3.94344915 15.4867639,3.77749824 15.3916385,3.70616188 C14.8733783,3.31819218 14.3551181,2.93047279 13.8365915,2.54250309 C13.0119049,1.92525582 12.1872184,1.30800855 11.3622654,0.691011576 C11.1749457,0.550841879 10.9876259,0.410672182 10.8003062,0.270502485 C10.7254316,0.214184303 10.6390993,0.186400667 10.5453062,0.224947333 C10.4611056,0.259989758 10.401952,0.336582485 10.401952,0.425440061 L10.401952,1.58609521 L10.401952,2.23212733 L8.76003973,2.23212733 C8.01156011,2.23212733 7.26467923,2.21160248 6.52232814,2.31948309 C5.36243785,2.48768673 4.24411497,2.92897097 3.30192061,3.58576612 C2.35919334,4.24306188 1.58007108,5.10160127 1.05834694,6.09104915 C0.537155722,7.07949582 0.285353215,8.15955339 0.285353215,9.26038612 L0.285353215,9.489914 C0.285353215,9.77225582 0.752453528,9.77275642 0.752453528,9.489914" id="Fill-3" stroke="#7A3CEF" stroke-width="1.3" fill="#7A3CEF" stroke-linecap="round" stroke-linejoin="round"></path>
                        <path d="M14.9931244,9.489914 C14.9931244,9.65936915 14.995256,9.8288243 14.9899269,9.99852976 C14.9808673,10.2743637 14.9531557,10.5604601 14.9105225,10.8095116 C14.8646918,11.0790879 14.8010084,11.3456607 14.7205382,11.6079782 C14.6805695,11.7373849 14.636604,11.8657904 14.5883752,11.9929443 C14.5654598,12.0540182 14.5412121,12.1150922 14.5158987,12.1756655 C14.5033752,12.2062025 14.4905852,12.2362388 14.4775288,12.2662752 C14.4711338,12.2812934 14.4647388,12.2963116 14.4578109,12.3110795 C14.4458203,12.3383625 14.453814,12.3210916 14.4463532,12.3373613 C13.9981714,13.3193001 13.3269645,14.1570643 12.4521839,14.8351352 C12.2504755,14.9915746 12.0343783,15.1387528 11.7977639,15.2811752 C11.5560868,15.426351 11.3050836,15.5580104 11.0468861,15.6749019 C10.5555382,15.8974213 10.0090335,16.0696298 9.45187046,16.1777607 C8.98183911,16.268871 8.5235319,16.3089195 8.02818707,16.3091698 L7.24000525,16.3091698 L5.34362594,16.3091698 L5.34362594,15.5439934 L5.34362594,15.1184782 C5.34362594,14.8363867 4.87679209,14.8358861 4.87679209,15.1184782 L4.87679209,16.2791334 L4.87679209,18.1010892 C4.49122782,17.8124898 4.10593002,17.5241407 3.7200993,17.2355413 C2.89567923,16.6185443 2.07072626,16.001297 1.24603973,15.3843001 C1.1234692,15.2926892 1.00116513,15.2008279 0.878861052,15.109217 C1.33210557,14.726754 1.785883,14.3440407 2.23939397,13.9613273 C3.06381403,13.2654849 3.88876701,12.5693922 4.71371999,11.8732995 C4.76807735,11.827494 4.82243472,11.7814382 4.87679209,11.7358831 L4.87679209,13.0369582 L4.87679209,13.2912661 C4.87679209,13.4096595 4.98390807,13.5102813 5.11020901,13.5102813 L7.05135321,13.5102813 C7.32207422,13.5102813 7.59279522,13.5107819 7.86324977,13.5102813 C8.51873566,13.5097807 9.16542845,13.3658564 9.75083597,13.088771 C10.2315256,12.8614958 10.6272153,12.5280922 11.0340962,12.2034492 C11.1300209,12.1266061 11.1180303,11.9724195 11.0340962,11.893574 C10.9387043,11.8039655 10.8001463,11.8164807 10.7036886,11.893574 C10.392999,12.141374 10.0921683,12.4004376 9.73911184,12.5954237 C9.17368864,12.9075516 8.52992688,13.0699982 7.87470745,13.0720007 C7.21655698,13.0737528 6.55867296,13.0720007 5.90052249,13.0720007 L5.34362594,13.0720007 L5.34362594,11.4983455 L5.34362594,11.2442879 C5.34362594,11.0467988 5.09235635,10.9652001 4.94527171,11.0893504 C4.42674506,11.5268801 3.90821842,11.9641595 3.38995823,12.4016892 C2.56500525,13.0975316 1.74058519,13.7936243 0.915632211,14.489717 C0.728312462,14.6474079 0.541259171,14.8055995 0.353939421,14.9635407 C0.267340675,15.0363788 0.258547572,15.2025801 0.353939421,15.2736661 C0.87219961,15.6616358 1.3904598,16.0496055 1.90898644,16.4375752 C2.73367296,17.0545722 3.55835948,17.6718195 4.38331246,18.2888164 C4.57063221,18.4292364 4.75795196,18.5691558 4.94527171,18.7095758 C5.02014632,18.7656437 5.10647861,18.7934273 5.20027171,18.7548807 C5.28447234,18.7198382 5.34362594,18.6432455 5.34362594,18.5543879 L5.34362594,17.3939831 L5.34362594,16.7477007 L6.98527171,16.7477007 C7.73375133,16.7477007 8.48089867,16.7682255 9.22324977,16.6603449 C10.38314,16.4921413 11.5014629,16.050857 12.4436573,15.3940619 C13.3863846,14.7367661 14.1655068,13.878477 14.687231,12.8887788 C15.2084222,11.9005825 15.4602247,10.8202746 15.4602247,9.71944188 L15.4602247,9.489914 C15.4602247,9.20782248 14.9931244,9.20732188 14.9931244,9.489914" id="Fill-5" stroke="#7A3CEF" stroke-width="1.3" fill="#7A3CEF" stroke-linecap="round" stroke-linejoin="round"></path>
                        <path d="M0.363185503,11.1551553 C0.363185503,11.3888528 0.56459757,11.5780538 0.813378057,11.5780538 C1.06138833,11.5780538 1.2631855,11.3888528 1.2631855,11.1551553 C1.2631855,10.9218195 1.06138833,10.7326185 0.813378057,10.7326185 C0.56459757,10.7326185 0.363185503,10.9218195 0.363185503,11.1551553" id="Fill-7" stroke="#7A3CEF" stroke-width="0.8" fill="#7A3CEF"></path>
                        <path d="M15.3650995,6.44301091 C15.1167042,6.44301091 14.9152921,6.63221188 14.9152921,6.86590944 C14.9152921,7.09888348 15.1167042,7.2884462 15.3650995,7.2884462 C15.61388,7.2884462 15.8152921,7.09888348 15.8152921,6.86590944 C15.8152921,6.63221188 15.61388,6.44301091 15.3650995,6.44301091" id="Fill-9" stroke="#7A3CEF" stroke-width="0.8" fill="#7A3CEF"></path>
                    </g>
                </g>
            </g>
        </g>
    </g>
</svg>