<?xml version="1.0" encoding="UTF-8"?>
<svg width="20px" height="20px" viewBox="0 0 20 20" version="1.1" xmlns="http://www.w3.org/2000/svg" xmlns:xlink="http://www.w3.org/1999/xlink">
    <title>切片</title>
    <defs>
        <filter id="filter-1">
            <feColorMatrix in="SourceGraphic" type="matrix" values="0 0 0 0 0.470885 0 0 0 0 0.489254 0 0 0 0 0.566404 0 0 0 1.000000 0"></feColorMatrix>
        </filter>
    </defs>
    <g id="页面-1" stroke="none" stroke-width="1" fill="none" fill-rule="evenodd">
        <g id="首页" transform="translate(-48.000000, -330.000000)">
            <g id="侧边/选项" transform="translate(24.000000, 316.000000)">
                <g id="编组" transform="translate(24.000000, 14.000000)" filter="url(#filter-1)">
                    <g transform="translate(0.909091, 2.272727)">
                        <path d="M12.8764071,2.70773034 C12.9237879,2.70773034 12.9559391,2.75511111 12.9407096,2.79910754 L10.9033366,8.38665381 C10.8999522,8.39511466 10.8965679,8.40357551 10.8914914,8.41203636 C10.6664327,8.82323374 10.6579719,9.31903964 10.9050287,9.71839182 C11.5175944,10.7066193 12.6818075,11.3733344 14.0169299,11.3733344 C15.3926643,11.3733344 16.5856444,10.6660072 17.1812883,9.6287068 C17.4012704,9.24627631 17.3725035,8.78092949 17.1474449,8.40188334 C17.1457527,8.39511466 17.1440606,8.39173032 17.1423684,8.38665381 L15.1083797,2.79910754 C15.0931502,2.75511111 15.1253014,2.70773034 15.1726822,2.70773034 L16.4705768,2.70773034 C16.5148365,2.70773034 16.8230642,2.61007784 16.8230642,2.23741256 C16.8230642,1.86474729 16.5092599,1.760512 16.3959719,1.75967373 C16.1672838,1.75798156 15.8021695,1.75798156 15.5229614,1.75798156 L1.83330384,1.75967373 C1.27319547,1.75967373 1.22168491,1.75798156 0.935654292,1.75967373 C0.924845756,1.75973767 0.465249092,1.77544011 0.465249092,2.23741256 C0.465249092,2.69938502 0.964421187,2.70773034 0.98303506,2.70773034 L2.13281798,2.70773034 C2.18019874,2.70773034 2.21234998,2.75511111 2.19712045,2.79910754 L0.163131768,8.38665381 C0.158055257,8.40019117 0.152978746,8.41372853 0.146210065,8.4272659 C-0.06361905,8.85876932 -0.051773858,9.36472823 0.208820365,9.76746476 C0.410188629,10.0805163 0.669090682,10.3597244 0.970296993,10.594936 C1.59470783,11.0805889 2.40356522,11.3733344 3.28857028,11.3733344 C4.66599689,11.3733344 5.86066911,10.664315 6.45631305,9.62363029 C6.67460301,9.24289197 6.64752829,8.78092949 6.42246964,8.40357551 C6.4190853,8.398499 6.41739313,8.39342249 6.41570096,8.38834598 L4.38002011,2.79910754 C4.36479058,2.75511111 4.39694181,2.70773034 4.44432258,2.70773034 L12.8764071,2.70773034 Z M3.28687811,10.2886532 C2.68108115,10.2886532 2.09897457,9.93240321 1.64378076,9.28865321 L4.92997545,9.28865321 C4.47647382,9.93240321 3.89267507,10.2886532 3.28687811,10.2886532 Z M5.36147888,8.66416974 L1.21566168,8.66416974 L3.22595998,3.14092593 C3.24795819,3.08169998 3.33087454,3.08169998 3.35287275,3.14092593 L5.36147888,8.66416974 Z M14.018622,10.2886532 C13.4128251,10.2886532 12.8307185,9.93240321 12.3755247,9.28865321 L15.6600272,9.28865321 C15.2065256,9.93240321 14.6227268,10.2886532 14.018622,10.2886532 Z M11.9558665,8.66416974 L13.9593961,3.15784764 C13.9813943,3.09862168 14.0643106,3.09862168 14.0863089,3.15784764 L16.0898385,8.66416974 L11.9558665,8.66416974 Z" id="形状" stroke="#979797" stroke-width="0.5" fill="#888d9b" fill-rule="nonzero"></path>
                        <rect id="矩形" stroke="#979797" stroke-width="0.5" fill="#888d9b" fill-rule="nonzero" x="3.94934956" y="14.0245866" width="9.42912448" height="1.04545455" rx="0.522727273"></rect>
                        <rect id="矩形" stroke="#979797" stroke-width="0.5" fill="#888d9b" fill-rule="nonzero" transform="translate(8.663912, 2.105479) rotate(-270.000000) translate(-8.663912, -2.105479) " x="6.84572998" y="1.5827516" width="3.63636364" height="1.04545455" rx="0.522727273"></rect>
                        <rect id="矩形备份-2" stroke="#979797" stroke-width="0.5" fill="#888d9b" fill-rule="nonzero" transform="translate(8.663912, 5.514570) rotate(-270.000000) translate(-8.663912, -5.514570) " x="7.52754816" y="4.99184251" width="2.27272727" height="1.04545455" rx="0.522727273"></rect>
                        <rect id="矩形备份" stroke="#979797" stroke-width="0.5" fill="#888d9b" fill-rule="nonzero" transform="translate(8.663912, 10.969115) rotate(-270.000000) translate(-8.663912, -10.969115) " x="4.80027544" y="10.446388" width="7.72727273" height="1.04545455" rx="0.522727273"></rect>
                    </g>
                </g>
            </g>
        </g>
    </g>
</svg>