<?xml version="1.0" encoding="UTF-8"?>
<svg width="20px" height="20px" viewBox="0 0 20 20" version="1.1" xmlns="http://www.w3.org/2000/svg" xmlns:xlink="http://www.w3.org/1999/xlink">
    <title>切片</title>
    <g id="页面-1" stroke="none" stroke-width="1" fill="none" fill-rule="evenodd">
        <g id="聚合流动性挖矿" transform="translate(-32.000000, -267.000000)" fill-rule="nonzero" stroke="#FFFFFF">
            <g id="侧边/选项" transform="translate(0.000000, 249.000000)">
                <g id="侧边/选项/icon" transform="translate(32.000000, 18.000000)">
                    <g id="编组-2" transform="translate(2.727273, 1.818182)">
                        <path d="M15.4545455,8.02305809 L15.4545455,13.9204545 C15.4545455,15.3011664 14.3352573,16.4204545 12.9545455,16.4204545 L2.5,16.4204545 C1.11928813,16.4204545 6.13177648e-16,15.3011664 0,13.9204545 L0,7.8921439 L0,7.8921439" id="路径" stroke-width="1.5" stroke-linecap="round"></path>
                        <path d="M9.28181222,0.305650301 C9.43979828,0.0209660322 9.79865348,-0.0817431606 10.0833378,0.0762428975 C10.0892294,0.079512456 10.0950645,0.0828827829 10.1008405,0.0863523924 L14.1822687,2.53801714 C14.473963,2.71323441 14.5743324,3.08809154 14.4092178,3.38562112 C14.2512317,3.67030539 13.8923765,3.77301458 13.6076923,3.61502852 C13.6018007,3.61175896 13.5959655,3.60838864 13.5901895,3.60491903 L12.062216,2.68708374 L12.062216,2.68708374 L10.2859785,5.88778941 L12.1473471,7.00589113 C12.5390704,7.24119463 12.6738589,7.74459932 12.4521226,8.14415896 L10.4813646,11.6953824 L10.4813646,11.6953824 C9.49375606,13.4480593 7.33157317,14.0427955 5.64042717,13.0269444 C3.94928118,12.0110934 3.36330495,9.7655711 4.32847792,7.99941741 L6.27092362,4.4992115 C6.4981498,4.08975942 7.01427952,3.94203614 7.42373161,4.16926233 C7.43225572,4.1739928 7.44069762,4.17886993 7.44905353,4.18389155 L9.25931321,5.27179525 L9.25931321,5.27179525 L11.0355507,2.07108957 L9.50868126,1.15338762 C9.21701071,0.978083419 9.11668581,0.603201195 9.28181222,0.305650301 Z M5.35395903,8.61541157 C4.73380844,9.73207232 5.04621259,11.1573369 6.07037482,11.8838766 L6.22076293,11.9824357 C7.29436594,12.6273917 8.6643689,12.3018147 9.36233499,11.2358507 L9.45706765,11.0793882 L11.1537664,8.02200807 C11.1981245,7.94207662 11.1711417,7.84137044 11.0927619,7.79432486 L9.69389932,6.9546913 L9.69389932,6.9546913 L8.79997956,8.56549733 C8.6450893,8.84460309 8.29326601,8.94529966 8.01416024,8.7904094 C8.00838408,8.78720391 8.00266331,8.78389963 7.99700043,8.780498 C7.71098787,8.6086937 7.61250188,8.24118287 7.77427646,7.94938004 L8.66723405,6.33869714 L8.66723405,6.33869714 L7.2806565,5.50515502 C7.20038854,5.45690188 7.09620161,5.48285501 7.04794847,5.56312296 C7.04693996,5.5648006 7.04596057,5.56649557 7.04501074,5.56820712 L5.35395903,8.61541157 L5.35395903,8.61541157 Z" id="形状" stroke-width="0.2" fill="#FFFFFF"></path>
                    </g>
                </g>
            </g>
        </g>
    </g>
</svg>