<?xml version="1.0" encoding="UTF-8"?>
<svg width="20px" height="20px" viewBox="0 0 20 20" version="1.1" xmlns="http://www.w3.org/2000/svg" xmlns:xlink="http://www.w3.org/1999/xlink">
    <title>切片</title>
    <g id="页面-1" stroke="none" stroke-width="1" fill="none" fill-rule="evenodd">
        <g id="侧边栏点击图标" transform="translate(-17.000000, -207.000000)" fill="#FFAB36" fill-rule="nonzero">
            <g id="icon-dan-pressed" transform="translate(17.000000, 207.000000)">
                <g id="钱币" transform="translate(0.909091, 0.909091)">
                    <path d="M9.07670455,0.253314394 C4.18797348,0.253314394 0.227272727,4.21638258 0.227272727,9.10274621 C0.227272727,13.9891098 4.19034091,17.9545455 9.07670455,17.9545455 C13.9654356,17.9545455 17.9261364,13.9914773 17.9261364,9.10511364 C17.9261364,4.21875 13.9654356,0.253314394 9.07670455,0.253314394 Z M9.07670455,16.4393939 C5.03314394,16.4393939 1.74242424,13.1486742 1.74242424,9.10511364 C1.74242424,5.06155303 5.03314394,1.77083333 9.07670455,1.77083333 C13.1202652,1.77083333 16.4109848,5.06155303 16.4109848,9.10511364 C16.4109848,13.1486742 13.1226326,16.4393939 9.07670455,16.4393939 Z" id="形状"></path>
                    <path d="M5.74972042,9.81222042 L8.36959776,12.4320978 C8.76012206,12.8226221 9.39328703,12.8226221 9.78381133,12.4320978 L12.4036887,9.81222042 C12.7939245,9.42156967 12.7940174,8.78856466 12.4038961,8.39779946 L9.78360387,5.77596948 C9.393609,5.38491604 8.76044405,5.38473031 8.36980522,5.77514003 C8.3696669,5.77527827 8.36952861,5.77541655 8.36980522,5.77596948 L5.74951296,8.39779946 C5.35939174,8.78856466 5.35948458,9.42156967 5.74972042,9.81222042 Z M9.07670455,10.9966856 L7.18513258,9.10511364 L9.07670455,7.21354167 L10.9682765,9.10511364 L9.07670455,10.9966856 Z" id="形状"></path>
                </g>
            </g>
        </g>
    </g>
</svg>