<?xml version="1.0" encoding="UTF-8"?>
<svg width="16px" height="16px" viewBox="0 0 16 16" version="1.1" xmlns="http://www.w3.org/2000/svg" xmlns:xlink="http://www.w3.org/1999/xlink">
    <title>切片</title>
    <g id="页面-1" stroke="none" stroke-width="1" fill="none" fill-rule="evenodd">
        <g id="单币挖矿" transform="translate(-1224.000000, -430.000000)">
            <g id="列表" transform="translate(410.000000, 420.000000)">
                <g id="已质押" transform="translate(814.000000, 7.000000)">
                    <g id="勾" transform="translate(0.000000, 3.000000)">
                        <rect id="矩形" stroke="#FFAB36" stroke-width="1.5" x="0.75" y="0.75" width="14.5" height="14.5" rx="4"></rect>
                        <path d="M6.88152778,11.9136528 C6.72368056,11.9136528 6.57136111,11.8528333 6.45668056,11.743 L3.18591667,8.61056944 C2.94091667,8.37593056 2.93251389,7.98708333 3.16716667,7.742125 C3.40180556,7.497125 3.79065278,7.48872222 4.03566667,7.72336111 L6.82809722,10.3976944 L11.8932639,4.24254167 C12.1088056,3.98059722 12.4959028,3.943 12.7578889,4.15852778 C13.0198472,4.37406944 13.0574444,4.76116667 12.8418889,5.023125 L7.35588889,11.6896944 C7.24726389,11.8216944 7.08855556,11.9024583 6.91791667,11.9125694 C6.90577778,11.9132917 6.89363889,11.9136528 6.88151389,11.9136528 L6.88152778,11.9136528 Z" id="路径" fill="#FFAB36" fill-rule="nonzero"></path>
                    </g>
                </g>
            </g>
        </g>
    </g>
</svg>