<?xml version="1.0" encoding="UTF-8"?>
<svg width="22px" height="22px" viewBox="0 0 22 22" version="1.1" xmlns="http://www.w3.org/2000/svg" xmlns:xlink="http://www.w3.org/1999/xlink">
    <title>切片</title>
    <defs>
        <circle id="path-1" cx="11" cy="11" r="11"></circle>
        <path d="M0.258579038,2.27593505 C1.16104186,4.37252515 3.41829769,4.83071548 3.41829769,4.83071548 L3.41829769,4.83071548 C4.25935104,4.97673084 3.95608837,3.75488995 3.95608837,3.75488995 L3.95608837,3.75488995 C4.12554432,3.97342464 4.26850752,4.03458994 4.36434536,4.04447894 L4.36434536,4.04447894 C4.43198123,4.05155995 4.49851833,4.02189295 4.54185901,3.96963996 L4.54185901,3.96963996 C5.46922746,2.85120626 3.61998445,0.864127684 3.61998445,0.864127684 L3.61998445,0.864127684 L1.46869964,0.0573806176 C-0.623861608,0.357591125 0.258579038,2.27593505 0.258579038,2.27593505" id="path-3"></path>
        <path d="M0.992318425,1.31010938 C0.807357498,1.46259532 0.648400979,1.64425991 0.521675274,1.84802215 L0.521675274,1.84802215 C-0.67904467,4.11187064 0.65621451,3.59593343 0.65621451,3.59593343 L0.65621451,3.59593343 C0.15859026,4.50352388 0.925170894,4.53685347 0.925170894,4.53685347 L0.925170894,4.53685347 C4.149107,4.31294697 4.95890622,2.38556866 4.95890622,2.38556866 L4.95890622,2.38556866 C5.73830593,0.659755016 3.95035031,0.0998666919 3.95035031,0.0998666919 L3.95035031,0.0998666919 C3.95035031,0.0998666919 1.28093072,1.08083108 0.992318425,1.31010938" id="path-5"></path>
        <polygon id="path-7" points="0.0266514656 0.017798862 8.79022227 0.017798862 8.79022227 6.52080664 0.0266514656 6.52080664"></polygon>
    </defs>
    <g id="页面-1" stroke="none" stroke-width="1" fill="none" fill-rule="evenodd">
        <g id="聚合流动性挖矿" transform="translate(-1016.000000, -631.000000)">
            <g id="列表" transform="translate(530.000000, 420.000000)">
                <g id="juhe/ka" transform="translate(0.000000, 157.000000)">
                    <g id="赚取" transform="translate(450.000000, 25.000000)">
                        <g id="icon/44/USDT备份" transform="translate(36.000000, 29.000000)">
                            <mask id="mask-2" fill="white">
                                <use xlink:href="#path-1"></use>
                            </mask>
                            <use id="椭圆形" fill="#FCCAA5" xlink:href="#path-1"></use>
                            <g id="编组" mask="url(#mask-2)">
                                <g transform="translate(-2.500000, 1.000000)">
                                    <g id="编组" stroke-width="1" fill="none" transform="translate(8.419637, 9.291611)">
                                        <path d="M5.26837545,0.196936821 C7.57629714,0.196936821 9.44727154,2.06791121 9.44727154,4.37583291 C9.44727154,6.68387668 7.57629714,8.55472899 5.26837545,8.55472899 C2.96045376,8.55472899 1.08947937,6.68387668 1.08947937,4.37583291 C1.08947937,2.06791121 2.96045376,0.196936821 5.26837545,0.196936821" id="Fill-3" fill="#313A56"></path>
                                        <path d="M3.99058235,6.12462321 C3.99058235,6.12462321 5.8386045,8.11035884 4.9134336,9.22903671 C4.86948249,9.28202221 4.8019687,9.31229965 4.73347822,9.30485237 C4.63764038,9.29447503 4.4954097,9.23282139 4.32668627,9.01550756 C4.32668627,9.01550756 4.62994893,10.2373485 3.78889558,10.091211 C3.78889558,10.091211 1.53163976,9.63302067 0.629054851,7.53643057 C0.629054851,7.53643057 -0.253263709,5.61820874 1.83929754,5.31787614 L3.99058235,6.12462321 Z" id="Fill-5" fill="#394260"></path>
                                        <path d="M3.99058235,6.12462321 C3.99058235,6.12462321 5.80490864,8.05200153 4.89914949,9.17238861 C4.84506521,9.23929197 4.78682998,9.25565155 4.70295661,9.23611772 C4.60931633,9.21438634 4.42411123,9.13710563 4.27650875,8.94689499 C4.27650875,8.94689499 4.62726303,10.2026759 3.78889558,10.091211 C3.78889558,10.091211 1.53163976,9.63302067 0.629054851,7.53643057 C0.629054851,7.53643057 -0.253263709,5.61820874 1.83929754,5.31787614 L3.99058235,6.12462321 Z" id="Fill-7" fill="#394260"></path>
                                        <path d="M9.57067649,5.11621379 C9.57067649,5.11621379 11.3586321,5.67610212 10.5792324,7.40203784 C10.5792324,7.40203784 9.76943318,9.32941616 6.54549708,9.55332266 C6.54549708,9.55332266 5.88012609,9.46249036 6.37787242,8.55477782 C6.37787242,8.55477782 4.94128152,9.12833983 6.14212355,6.86424716 C6.26872716,6.66060701 6.42768368,6.4790645 6.61264461,6.32645648 C6.90125691,6.09717818 9.57067649,5.11621379 9.57067649,5.11621379" id="Fill-9" fill="#394260"></path>
                                        <path d="M3.99058235,6.12462321 L1.83929754,5.31787614 C1.43641235,5.37562302 1.14413746,5.49368059 0.934148816,5.64616653 C0.459598899,6.31397925 0.898011235,7.26747419 0.898011235,7.26747419 C1.80059614,9.36406429 4.05785197,9.82225462 4.05785197,9.82225462 C4.16602054,9.84105593 4.08568767,9.68356445 4.15906161,9.66256559 C4.27663083,9.32548498 4.2813922,8.83408714 4.27956091,8.88585178 C4.40286819,9.0448083 4.58966042,9.12489699 4.67695221,9.15822658 C4.6923351,8.88865977 4.59564265,8.74655117 4.59564265,8.74655117 C4.78866128,8.9953633 4.84201305,8.91966972 4.93577542,8.9171059 C5.53595226,7.7780396 3.99058235,6.12462321 3.99058235,6.12462321" id="Fill-11" fill="#3F4867"></path>
                                    </g>
                                    <g id="编组" stroke-width="1" fill="none" transform="translate(8.790222, 14.552143)">
                                        <mask id="mask-4" fill="white">
                                            <use xlink:href="#path-3"></use>
                                        </mask>
                                        <g id="Clip-14"></g>
                                        <path d="M4.32646194,0.93311872 C6.05349644,0.93311872 7.45333934,2.33210701 7.45333934,4.05792065 C7.45333934,5.78373429 6.05349644,7.18272258 4.32646194,7.18272258 C2.59942744,7.18272258 1.19958454,5.78373429 1.19958454,4.05792065 C1.19958454,2.33210701 2.59942744,0.93311872 4.32646194,0.93311872" id="Fill-13" fill="#FFE1C1" mask="url(#mask-4)"></path>
                                    </g>
                                    <path d="M17.9903131,14.407825 C17.9903131,14.407825 15.3208935,15.3887894 15.0322812,15.6180677 C14.8473203,15.7706757 14.6883637,15.9522182 14.5617601,16.1558584 C14.136411,16.957844 14.0294633,17.4107847 14.0684089,17.6615502 C14.253614,17.7279652 14.4944905,17.6349353 14.4944905,17.6349353 C14.4285638,17.7550684 14.4117159,17.7791194 14.3854673,17.8705621 C14.5504061,17.8899739 14.797509,17.846389 14.797509,17.846389 C14.6464881,18.1216939 14.6085192,18.3120266 14.6335469,18.4499843 C14.7456223,18.5090741 14.7633248,18.5760995 14.7633248,18.5760995 C17.987383,18.352071 18.7971822,16.4246926 18.7971822,16.4246926 C19.0925093,15.7705536 19.0190132,15.2840392 18.8139081,14.9318199 C18.4608341,14.5553054 17.9903131,14.407825 17.9903131,14.407825" id="Fill-15" fill="#3F4867"></path>
                                    <g id="编组" stroke-width="1" fill="none" transform="translate(14.039938, 14.307970)">
                                        <mask id="mask-6" fill="white">
                                            <use xlink:href="#path-5"></use>
                                        </mask>
                                        <g id="Clip-18"></g>
                                        <path d="M0.0849721486,2.0511007 C1.81225082,2.0511007 3.21245998,3.45033316 3.21245998,5.17651306 C3.21245998,6.90257087 1.81225082,8.30192542 0.0849721486,8.30192542 C-1.64230653,8.30192542 -3.04251568,6.90257087 -3.04251568,5.17651306 C-3.04251568,3.45033316 -1.64230653,2.0511007 0.0849721486,2.0511007" id="Fill-17" fill="#FFDFBC" mask="url(#mask-6)"></path>
                                    </g>
                                    <g id="编组" stroke-width="1" fill="none" transform="translate(0.000000, 0.023859)">
                                        <path d="M10.5779093,6.96108689 C10.5779093,6.96108689 10.1372994,7.17339518 9.99677795,6.92543766 C9.85637856,6.67772431 10.1657456,5.63107743 8.7789659,4.83202181 C8.7789659,4.83202181 7.87589265,4.29044645 7.84183054,4.08827133 C7.8080126,3.88609622 7.64807939,3.24465417 7.46714731,3.54034748 C7.46714731,3.54034748 5.38679471,0.284302647 4.14603042,0.111428276 C2.90526613,-0.0615681818 1.89170467,0.164902128 0.0718844843,1.58501137 C0.0718844843,1.58501137 -0.263731085,2.32656429 0.51542445,1.96201424 C1.2944579,1.59758627 1.06469126,0.341805351 3.87731821,0.323736561 C3.87731821,0.323736561 5.05752764,0.502959426 5.45552937,2.39444434 L5.57199981,3.20460982 C5.57199981,3.20460982 5.23907014,3.07519822 5.6467167,3.81491984 C6.05448534,4.55464146 5.78150011,6.48873453 7.01628216,7.38924397 C8.25094213,8.28963132 8.5568907,7.97770052 8.42357233,9.39109501 C8.29037605,10.8044895 10.5779093,6.96108689 10.5779093,6.96108689" id="Fill-19" fill="#394260"></path>
                                        <g transform="translate(16.359580, 2.563815)">
                                            <mask id="mask-8" fill="white">
                                                <use xlink:href="#path-7"></use>
                                            </mask>
                                            <g id="Clip-22"></g>
                                            <path d="M8.52557554,2.13973544 C8.52557554,2.13973544 9.074354,2.0933426 8.5915022,0.956840111 C8.10852832,-0.179662376 7.94004906,0.0282507977 7.81063746,0.039971094 C7.68122585,0.0518134768 7.02464508,0.743188876 6.85970633,0.720847061 C6.69464549,0.698627332 5.82136132,1.41735009 5.42799888,1.4316342 C5.03463643,1.44579623 4.07076414,2.29539562 4.07076414,2.29539562 C4.07076414,2.29539562 3.93195188,1.79532965 3.37084269,2.5338304 C3.37084269,2.5338304 1.54235438,2.40490714 0.701056852,3.93379539 L0.59471958,4.01473868 L0.0266514656,3.98507168 C0.0576614164,4.12144222 0.146051985,4.23791266 0.269237183,4.30420559 C0.474220283,4.41066495 1.07403087,4.74798972 0.696905914,5.36354946 C0.319903047,5.97923127 1.4926652,6.52080664 1.4926652,6.52080664 L1.79898003,6.37198329 L1.85001215,5.99754424 C1.85001215,5.99754424 3.60170811,6.26247177 4.49220647,4.4505872 C4.49220647,4.4505872 5.90901937,2.72477357 5.43019643,2.81462917 C5.43019643,2.81462917 6.27930749,1.70107893 6.88314692,1.24874874 C6.88314692,1.24874874 7.39688658,0.814121086 7.54046021,0.623300011 C7.68391175,0.432478936 8.18825076,0.147407144 8.41069222,0.884809123 C8.63313367,1.6222111 8.25197987,1.82756046 8.52557554,2.13973544" id="Fill-21" fill="#3F4867" mask="url(#mask-8)"></path>
                                        </g>
                                        <path d="M12.8203561,4.67625174 C12.8203561,4.67625174 16.1674774,3.91772881 17.9584851,6.94498369 C19.749615,9.97236066 20.8846525,11.7583629 18.6925908,13.9516454 C16.5006512,16.144928 11.0024893,15.9904887 9.48373418,14.6857511 C7.96485703,13.3810135 6.09180716,10.6977982 9.08329072,6.27778141 C9.08329072,6.27778141 9.91848392,4.98549665 12.8203561,4.67625174" id="Fill-23" fill="#394260"></path>
                                        <path d="M12.8203561,4.67625174 C12.5046406,4.70982551 12.2133424,4.75511957 11.9449964,4.80920386 C10.8078835,5.28668385 10.4278285,5.87428579 10.4278285,5.87428579 C7.43634491,10.2944246 9.30951686,12.97764 10.8282719,14.2823776 C11.8428101,15.1539525 14.632851,15.5119099 17.0272099,15.0001236 C17.6764655,14.7391029 18.2516146,14.3929879 18.6925908,13.9516454 C20.8846525,11.7583629 19.749615,9.97236066 17.9584851,6.94498369 C16.1674774,3.91772881 12.8203561,4.67625174 12.8203561,4.67625174" id="Fill-25" fill="#3F4867"></path>
                                        <path d="M17.5532925,6.45008197 C18.0192964,6.45008197 18.3970318,6.60061453 18.3970318,6.78630797 C18.3970318,6.97200142 18.0192964,7.12253398 17.5532925,7.12253398 C17.0872887,7.12253398 16.7095533,6.97200142 16.7095533,6.78630797 C16.7095533,6.60061453 17.0872887,6.45008197 17.5532925,6.45008197" id="Fill-27" fill="#FFDFBC"></path>
                                        <path d="M10.9361231,7.1501133 C10.498077,7.30333176 10.1926168,7.56972433 10.2539042,7.74491834 C10.3151915,7.92011235 10.7200301,7.93793697 11.1580762,7.78471851 C11.5962443,7.63137797 11.9017046,7.36522957 11.8402951,7.18979138 C11.7790077,7.0143532 11.3741691,6.99689484 10.9361231,7.1501133" id="Fill-29" fill="#FFDFBC"></path>
                                        <path d="M11.3865609,10.2580063 C11.4327096,10.6252422 11.5892244,10.9079944 11.7360943,10.8895593 C11.8829643,10.8711243 11.9646401,10.5584609 11.9184915,10.191225 C11.8723428,9.82386695 11.7159501,9.5411148 11.568958,9.55954985 C11.4220881,9.57810698 11.3404123,9.89077031 11.3865609,10.2580063" id="Fill-31" fill="#181C2A"></path>
                                        <path d="M17.7733167,9.4512714 C17.8194653,9.81850735 17.9759801,10.1012595 18.1228501,10.0828245 C18.2697201,10.0643894 18.351518,9.751604 18.3053693,9.38449013 C18.2592206,9.01713209 18.1027058,8.73437994 17.9558359,8.75281499 C17.8089659,8.77125004 17.727168,9.08403545 17.7733167,9.4512714" id="Fill-33" fill="#181C2A"></path>
                                        <path d="M16.3166303,12.9709741 C16.3166303,12.9709741 15.7832348,14.3548236 14.7763881,13.1909738 L15.348485,12.6188768 L16.3166303,12.9709741 Z" id="Fill-35" fill="#DCB48A"></path>
                                        <path d="M15.568497,12.7949377 C15.568497,12.7949377 16.9158427,13.8106967 17.4608365,12.5308647 C18.0057082,11.2511549 16.7567641,10.7706227 16.7567641,10.7706227 C16.7567641,10.7706227 16.0570868,10.3069385 14.952571,10.5066719 C13.847933,10.7064053 13.1482558,11.4308661 13.1482558,11.4308661 C13.1482558,11.4308661 12.0948941,12.7766247 13.500353,13.5432053 C13.5002309,13.5430832 14.4687425,14.2071113 15.568497,12.7949377" id="Fill-37" fill="#FFE1C1"></path>
                                        <path d="M16.5855379,11.6568725 C16.8049272,11.7647969 17.0444607,11.7535649 17.1205206,11.6317227 C17.1965804,11.5098804 17.0803541,11.3235765 16.8608428,11.2155301 C16.6413314,11.1076057 16.4019199,11.1188376 16.3258601,11.2406799 C16.2498002,11.3625221 16.3660265,11.548826 16.5855379,11.6568725" id="Fill-39" fill="#181C2A"></path>
                                        <path d="M14.0536242,11.3801514 C13.8477865,11.512371 13.734002,11.7234584 13.7991961,11.851405 C13.8642682,11.9794736 14.0839017,11.9760552 14.2896173,11.8437135 C14.4953329,11.7114939 14.6092395,11.5005286 14.5440454,11.3724599 C14.4788512,11.2442692 14.2593399,11.2479318 14.0536242,11.3801514" id="Fill-41" fill="#181C2A"></path>
                                        <path d="M13.2221425,3.16936347 C13.2221425,3.16936347 12.9110663,2.29632348 12.1016333,2.27752217 C12.1016333,2.27752217 12.6626204,3.60435739 12.636616,4.13775296 C12.6107337,4.67090436 13.2221425,3.16936347 13.2221425,3.16936347" id="Fill-43" fill="#313954"></path>
                                        <path d="M15.2019325,3.28131672 C15.2019325,3.28131672 16.2850832,4.09831905 15.4014217,5.39463266 C15.4014217,5.39463266 15.019047,5.64307852 14.6878266,5.66981545 C14.356484,5.69667446 15.649013,4.20673179 15.2019325,3.28131672" id="Fill-45" fill="#394260"></path>
                                        <path d="M14.5868489,5.64072226 C14.5868489,5.64072226 16.364183,3.81687322 14.28322,2.44767402 C14.28322,2.44767402 13.6713228,1.94675343 13.2602578,1.82442284 C12.8491929,1.70221433 12.719415,1.77290237 12.6083164,1.65826322 C12.4972177,1.54350199 12.4409359,1.08091654 12.4887938,1.01144937 C12.5366516,0.941860108 12.0417133,1.82942838 13.0547864,2.00584326 C13.0547864,2.00584326 13.3125108,2.24391178 13.1025222,2.52251299 C13.1025222,2.52251299 12.3546208,3.16810598 12.3236108,3.47881592 C12.2926009,3.78940378 12.1145989,4.58882566 11.6557981,5.03566196 C11.1969973,5.48262034 14.5868489,5.64072226 14.5868489,5.64072226" id="Fill-47" fill="#3F4867"></path>
                                        <path d="M15.0841435,3.25718024 C15.0841435,3.25718024 14.573456,2.52002243 14.7405923,2.17390743 C14.9077286,1.82779243 15.0974509,1.13312069 14.4260977,0.98966915 C13.7548666,0.846217606 13.4341455,0.81435305 13.2182967,0.400724258 C13.2182967,0.400724258 13.080217,0.829491766 13.9434901,1.22236587 C13.9434901,1.22236587 14.2585951,1.58020117 13.7772084,1.87418527 C13.2959437,2.16816937 13.6531686,2.34141 13.6531686,2.34141 C13.6531686,2.34141 13.9195611,2.2676698 14.2786173,2.47778053 C14.6976179,2.72293006 15.0841435,3.25718024 15.0841435,3.25718024" id="Fill-49" fill="#3F4867"></path>
                                    </g>
                                </g>
                            </g>
                        </g>
                    </g>
                </g>
            </g>
        </g>
    </g>
</svg>