<?xml version="1.0" encoding="UTF-8"?>
<svg width="300px" height="203px" viewBox="0 0 300 203" version="1.1" xmlns="http://www.w3.org/2000/svg" xmlns:xlink="http://www.w3.org/1999/xlink">
    <title>img2</title>
    <defs>
        <path d="M0,32.2080789 C0,49.9929716 66.7317218,64.4107902 149.050145,64.4107902 L149.050145,64.4107902 C231.248016,64.4107902 297.905263,50.0359121 298.100826,32.2864453 L298.100826,32.2864453 L298.100826,32.1297124 C297.905263,14.3807824 231.248016,0.00590432243 149.050145,0.00590432243 L149.050145,0.00590432243 C66.7317218,0.00590432243 0,14.4237229 0,32.2080789" id="path-1"></path>
        <linearGradient x1="50%" y1="96.482152%" x2="50%" y2="-0.000100425872%" id="linearGradient-3">
            <stop stop-color="#0C1626" stop-opacity="0" offset="0%"></stop>
            <stop stop-color="#354254" offset="100%"></stop>
        </linearGradient>
        <path d="M98.4941171,12.2412928 C145.808488,47.4611234 156.169596,60.2367138 121.978154,92.3485352 C87.7877817,124.460891 51.5249738,142.070272 16.6430769,134.474163 C16.6430769,134.474163 3.9588965,132.114704 6.28250368,123.079197 C7.91672418,116.72533 9.3906222,117.90025 6.28250368,96.8371695 C3.17438515,75.774623 -5.80527709,78.1917854 7.66394907,53.3309171" id="path-4"></path>
        <path d="M2.96242274,1.75933811 C-6.62815447,7.44335354 11.8427644,13.4816875 7.93566984,30.5310698 L7.93566984,30.5310698 C4.02857524,47.5809848 23.9199652,48.2917531 23.9199652,48.2917531 L23.9199652,48.2917531 C17.526247,41.898035 21.0779575,31.2418381 22.1435772,20.230257 L22.1435772,20.230257 C23.032304,11.0504762 15.7738355,0.389483997 7.77795812,0.389483997 L7.77795812,0.389483997 C6.18272544,0.390016807 4.55765542,0.814133444 2.96242274,1.75933811" id="path-6"></path>
        <linearGradient x1="49.9999214%" y1="99.3593456%" x2="49.9999214%" y2="0.000331213978%" id="linearGradient-8">
            <stop stop-color="#202B39" offset="0%"></stop>
            <stop stop-color="#7988A0" offset="100%"></stop>
        </linearGradient>
        <path d="M0.121943428,4.29704797 C0.121943428,10.4072669 8.32210413,7.89104067 11.5311417,15.0801044 L11.5311417,15.0801044 C14.7407141,22.2680898 24.9026665,19.033712 24.9026665,19.033712 L24.9026665,19.033712 C17.2362757,15.9777938 17.2362757,10.4072669 13.8491365,5.19527657 L13.8491365,5.19527657 C11.9579437,2.28600796 7.90172021,0.440487854 4.68572971,0.441026888 L4.68572971,0.441026888 C2.14042807,0.441026888 0.121943428,1.5975098 0.121943428,4.29704797" id="path-9"></path>
        <linearGradient x1="49.9999214%" y1="99.3593456%" x2="49.9999214%" y2="0.000331213978%" id="linearGradient-11">
            <stop stop-color="#202B39" offset="0%"></stop>
            <stop stop-color="#7988A0" offset="100%"></stop>
        </linearGradient>
        <path d="M0.567298035,1.37951235 C-0.795473259,4.74661516 4.12861088,5.2853079 4.2317084,9.99914257 L4.2317084,9.99914257 C4.3358526,14.7135236 10.4636134,15.3166846 10.4636134,15.3166846 L10.4636134,15.3166846 C7.06662856,11.8337574 8.31007887,8.76441073 7.67003689,5.09791276 L7.67003689,5.09791276 C7.21525646,2.48749296 4.49913395,0.00273170762 2.48009722,0.00273170762 L2.48009722,0.00273170762 C1.66316712,0.00273170762 0.960324625,0.409756143 0.567298035,1.37951235" id="path-12"></path>
        <linearGradient x1="49.9999214%" y1="99.3593456%" x2="49.9999214%" y2="0.000331213978%" id="linearGradient-14">
            <stop stop-color="#202B39" offset="0%"></stop>
            <stop stop-color="#7988A0" offset="100%"></stop>
        </linearGradient>
        <path d="M2.03266956,20.230257 C3.09775644,31.2418381 6.64999968,41.898035 0.256281536,48.2917531 L0.256281536,48.2917531 C0.256281536,48.2917531 20.1482043,47.5809848 16.2405769,30.5310698 L16.2405769,30.5310698 C12.3329495,13.4816875 30.8044012,7.44335354 21.213824,1.75933811 L21.213824,1.75933811 C19.6185913,0.814133444 17.9935213,0.390016807 16.3982886,0.389483997 L16.3982886,0.389483997 C8.40241126,0.389483997 1.14394274,11.0504762 2.03266956,20.230257" id="path-15"></path>
        <linearGradient x1="49.9999214%" y1="99.3593456%" x2="49.9999214%" y2="0.000331213978%" id="linearGradient-17">
            <stop stop-color="#202B39" offset="0%"></stop>
            <stop stop-color="#7988A0" offset="100%"></stop>
        </linearGradient>
        <path d="M11.5300682,5.19527657 C8.13025199,10.4072669 8.13025199,15.9777938 0.437456617,19.033712 L0.437456617,19.033712 C0.437456617,19.033712 10.6358317,22.2680898 13.8558345,15.0801044 L13.8558345,15.0801044 C17.0769107,7.89104067 25.3069995,10.4072669 25.3069995,4.29704797 L25.3069995,4.29704797 C25.3069995,1.5975098 23.2807434,0.441026888 20.7268555,0.441026888 L20.7268555,0.441026888 C17.4993382,0.440487854 13.4280395,2.28600796 11.5300682,5.19527657" id="path-18"></path>
        <linearGradient x1="49.9999214%" y1="99.3593456%" x2="49.9999214%" y2="0.000331213978%" id="linearGradient-20">
            <stop stop-color="#202B39" offset="0%"></stop>
            <stop stop-color="#7988A0" offset="100%"></stop>
        </linearGradient>
        <path d="M2.9924448,5.09791276 C2.35292617,8.76441073 3.59585313,11.8337574 0.199391652,15.3166846 L0.199391652,15.3166846 C0.199391652,15.3166846 6.32715243,14.7135236 6.43077329,9.99914257 L6.43077329,9.99914257 C6.53387081,5.2853079 11.4584783,4.74661516 10.0951837,1.37951235 L10.0951837,1.37951235 C9.70268041,0.409756143 8.99983791,0.00273170762 8.18290781,0.00273170762 L8.18290781,0.00273170762 C6.16387108,0.00273170762 3.44774857,2.48749296 2.9924448,5.09791276" id="path-21"></path>
        <linearGradient x1="49.9999214%" y1="99.3593456%" x2="49.9999214%" y2="0.000331213978%" id="linearGradient-23">
            <stop stop-color="#202B39" offset="0%"></stop>
            <stop stop-color="#7988A0" offset="100%"></stop>
        </linearGradient>
        <path d="M4.83358698,8.10397405 C2.84124047,10.6306122 -2.41244576,12.9764282 1.93473911,18.3902662 L1.93473911,18.3902662 C6.28246745,23.8046455 15.5442157,18.3902662 15.5442157,18.3902662 L15.5442157,18.3902662 C24.0820673,12.7961474 22.7679664,4.13400667 15.5442157,0.885703892 L15.5442157,0.885703892 C14.3485904,0.348109781 13.3111138,0.1169389 12.4013516,0.1169389 L12.4013516,0.1169389 C7.81395475,0.118021668 6.49659307,5.99582555 4.83358698,8.10397405" id="path-24"></path>
        <linearGradient x1="49.9999214%" y1="99.3593456%" x2="49.9999214%" y2="0.000331213978%" id="linearGradient-26">
            <stop stop-color="#202B39" offset="0%"></stop>
            <stop stop-color="#7988A0" offset="100%"></stop>
        </linearGradient>
        <linearGradient x1="49.9999214%" y1="99.3593456%" x2="49.9999214%" y2="0.000331213978%" id="linearGradient-27">
            <stop stop-color="#202B39" offset="0%"></stop>
            <stop stop-color="#7988A0" offset="100%"></stop>
        </linearGradient>
        <linearGradient x1="50%" y1="187.346496%" x2="49.9999214%" y2="0.000331213978%" id="linearGradient-28">
            <stop stop-color="#202B39" offset="0%"></stop>
            <stop stop-color="#7988A0" offset="100%"></stop>
        </linearGradient>
        <path d="M1.35370011,0.952664003 C0.253349108,2.04492419 0.253349108,3.81598411 1.35370011,4.90824429 L1.35370011,4.90824429 L7.46735761,10.9769484 C8.56770861,12.0697414 10.3518875,12.0697414 11.4527753,10.9769484 L11.4527753,10.9769484 C12.5531262,9.88468825 12.5531262,8.11362832 11.4527753,7.02136814 L11.4527753,7.02136814 L5.33911775,0.952664003 C4.78894225,0.406533912 4.0675414,0.133202461 3.34614055,0.133202461 L3.34614055,0.133202461 C2.62527646,0.133202461 1.90387561,0.406533912 1.35370011,0.952664003" id="path-29"></path>
        <linearGradient x1="49.9999214%" y1="99.3593456%" x2="49.9999214%" y2="0.000331213978%" id="linearGradient-31">
            <stop stop-color="#202B39" offset="0%"></stop>
            <stop stop-color="#7988A0" offset="100%"></stop>
        </linearGradient>
        <path d="M5.41621215,5.02725807 C-1.27178448,11.7157846 -1.27178448,22.5598669 5.41621215,29.2483935 L5.41621215,29.2483935 C12.1047387,35.93692 22.9493509,35.93692 29.6373476,29.2483935 L29.6373476,29.2483935 C36.3258741,22.5598669 36.3258741,11.7157846 29.6373476,5.02725807 L29.6373476,5.02725807 C26.2930843,1.68299479 21.910197,0.010598204 17.5267799,0.010598204 L17.5267799,0.010598204 C13.1438926,0.010598204 8.76047542,1.68299479 5.41621215,5.02725807" id="path-32"></path>
        <linearGradient x1="49.9999214%" y1="99.3593456%" x2="49.9999214%" y2="0.000331213978%" id="linearGradient-34">
            <stop stop-color="#202B39" offset="0%"></stop>
            <stop stop-color="#7988A0" offset="100%"></stop>
        </linearGradient>
    </defs>
    <g id="页面-1" stroke="none" stroke-width="1" fill="none" fill-rule="evenodd">
        <g id="聚合流动性挖矿-已下架-无" transform="translate(-930.000000, -607.000000)">
            <g id="img2" transform="translate(930.000000, 607.000000)">
                <g id="编组" opacity="0.5" transform="translate(0.274573, 137.114754)">
                    <mask id="mask-2" fill="white">
                        <use xlink:href="#path-1"></use>
                    </mask>
                    <g id="Clip-2"></g>
                    <path d="M0,32.2080789 C0,49.9929716 66.7317218,64.4107902 149.050145,64.4107902 L149.050145,64.4107902 C231.248016,64.4107902 297.905263,50.0359121 298.100826,32.2864453 L298.100826,32.2864453 L298.100826,32.1297124 C297.905263,14.3807824 231.248016,0.00590432243 149.050145,0.00590432243 L149.050145,0.00590432243 C66.7317218,0.00590432243 0,14.4237229 0,32.2080789" id="Fill-1" fill="url(#linearGradient-3)" opacity="0.200000003" mask="url(#mask-2)"></path>
                </g>
                <g id="编组" opacity="0.200000003" transform="translate(93.028671, 0.000000)">
                    <mask id="mask-5" fill="white">
                        <use xlink:href="#path-4"></use>
                    </mask>
                    <g id="Clip-4" opacity="0.5"></g>
                </g>
                <g id="编组" opacity="0.5" transform="translate(68.831950, 100.819672)">
                    <mask id="mask-7" fill="white">
                        <use xlink:href="#path-6"></use>
                    </mask>
                    <g id="Clip-6"></g>
                    <path d="M2.96242274,1.75933811 C-6.62815447,7.44335354 11.8427644,13.4816875 7.93566984,30.5310698 L7.93566984,30.5310698 C4.02857524,47.5809848 23.9199652,48.2917531 23.9199652,48.2917531 L23.9199652,48.2917531 C17.526247,41.898035 21.0779575,31.2418381 22.1435772,20.230257 L22.1435772,20.230257 C23.032304,11.0504762 15.7738355,0.389483997 7.77795812,0.389483997 L7.77795812,0.389483997 C6.18272544,0.390016807 4.55765542,0.814133444 2.96242274,1.75933811" id="Fill-5" fill="url(#linearGradient-8)" mask="url(#mask-7)"></path>
                </g>
                <g id="编组" opacity="0.5" transform="translate(58.346704, 132.275410)">
                    <mask id="mask-10" fill="white">
                        <use xlink:href="#path-9"></use>
                    </mask>
                    <g id="Clip-8"></g>
                    <path d="M0.121943428,4.29704797 C0.121943428,10.4072669 8.32210413,7.89104067 11.5311417,15.0801044 L11.5311417,15.0801044 C14.7407141,22.2680898 24.9026665,19.033712 24.9026665,19.033712 L24.9026665,19.033712 C17.2362757,15.9777938 17.2362757,10.4072669 13.8491365,5.19527657 L13.8491365,5.19527657 C11.9579437,2.28600796 7.90172021,0.440487854 4.68572971,0.441026888 L4.68572971,0.441026888 C2.14042807,0.441026888 0.121943428,1.5975098 0.121943428,4.29704797" id="Fill-7" fill="url(#linearGradient-11)" mask="url(#mask-10)"></path>
                </g>
                <g id="编组" opacity="0.5" transform="translate(63.186048, 115.337705)">
                    <mask id="mask-13" fill="white">
                        <use xlink:href="#path-12"></use>
                    </mask>
                    <g id="Clip-10"></g>
                    <path d="M0.567298035,1.37951235 C-0.795473259,4.74661516 4.12861088,5.2853079 4.2317084,9.99914257 L4.2317084,9.99914257 C4.3358526,14.7135236 10.4636134,15.3166846 10.4636134,15.3166846 L10.4636134,15.3166846 C7.06662856,11.8337574 8.31007887,8.76441073 7.67003689,5.09791276 L7.67003689,5.09791276 C7.21525646,2.48749296 4.49913395,0.00273170762 2.48009722,0.00273170762 L2.48009722,0.00273170762 C1.66316712,0.00273170762 0.960324625,0.409756143 0.567298035,1.37951235" id="Fill-9" fill="url(#linearGradient-14)" mask="url(#mask-13)"></path>
                </g>
                <g id="编组" opacity="0.5" transform="translate(205.140146, 100.819672)">
                    <mask id="mask-16" fill="white">
                        <use xlink:href="#path-15"></use>
                    </mask>
                    <g id="Clip-12"></g>
                    <path d="M2.03266956,20.230257 C3.09775644,31.2418381 6.64999968,41.898035 0.256281536,48.2917531 L0.256281536,48.2917531 C0.256281536,48.2917531 20.1482043,47.5809848 16.2405769,30.5310698 L16.2405769,30.5310698 C12.3329495,13.4816875 30.8044012,7.44335354 21.213824,1.75933811 L21.213824,1.75933811 C19.6185913,0.814133444 17.9935213,0.390016807 16.3982886,0.389483997 L16.3982886,0.389483997 C8.40241126,0.389483997 1.14394274,11.0504762 2.03266956,20.230257" id="Fill-11" fill="url(#linearGradient-17)" mask="url(#mask-16)"></path>
                </g>
                <g id="编组" opacity="0.5" transform="translate(214.012278, 132.275410)">
                    <mask id="mask-19" fill="white">
                        <use xlink:href="#path-18"></use>
                    </mask>
                    <g id="Clip-14"></g>
                    <path d="M11.5300682,5.19527657 C8.13025199,10.4072669 8.13025199,15.9777938 0.437456617,19.033712 L0.437456617,19.033712 C0.437456617,19.033712 10.6358317,22.2680898 13.8558345,15.0801044 L13.8558345,15.0801044 C17.0769107,7.89104067 25.3069995,10.4072669 25.3069995,4.29704797 L25.3069995,4.29704797 C25.3069995,1.5975098 23.2807434,0.441026888 20.7268555,0.441026888 L20.7268555,0.441026888 C17.4993382,0.440487854 13.4280395,2.28600796 11.5300682,5.19527657" id="Fill-13" fill="url(#linearGradient-20)" mask="url(#mask-19)"></path>
                </g>
                <g id="编组" opacity="0.5" transform="translate(223.690966, 115.337705)">
                    <mask id="mask-22" fill="white">
                        <use xlink:href="#path-21"></use>
                    </mask>
                    <g id="Clip-16"></g>
                    <path d="M2.9924448,5.09791276 C2.35292617,8.76441073 3.59585313,11.8337574 0.199391652,15.3166846 L0.199391652,15.3166846 C0.199391652,15.3166846 6.32715243,14.7135236 6.43077329,9.99914257 L6.43077329,9.99914257 C6.53387081,5.2853079 11.4584783,4.74661516 10.0951837,1.37951235 L10.0951837,1.37951235 C9.70268041,0.409756143 8.99983791,0.00273170762 8.18290781,0.00273170762 L8.18290781,0.00273170762 C6.16387108,0.00273170762 3.44774857,2.48749296 2.9924448,5.09791276" id="Fill-15" fill="url(#linearGradient-23)" mask="url(#mask-22)"></path>
                </g>
                <g id="编组" opacity="0.5" transform="translate(64.799163, 74.203279)">
                    <mask id="mask-25" fill="white">
                        <use xlink:href="#path-24"></use>
                    </mask>
                    <g id="Clip-18"></g>
                    <path d="M4.83358698,8.10397405 C2.84124047,10.6306122 -2.41244576,12.9764282 1.93473911,18.3902662 L1.93473911,18.3902662 C6.28246745,23.8046455 15.5442157,18.3902662 15.5442157,18.3902662 L15.5442157,18.3902662 C24.0820673,12.7961474 22.7679664,4.13400667 15.5442157,0.885703892 L15.5442157,0.885703892 C14.3485904,0.348109781 13.3111138,0.1169389 12.4013516,0.1169389 L12.4013516,0.1169389 C7.81395475,0.118021668 6.49659307,5.99582555 4.83358698,8.10397405" id="Fill-17" fill="url(#linearGradient-26)" mask="url(#mask-25)"></path>
                </g>
                <g id="编组" opacity="0.5" transform="translate(108.353261, 61.557377)">
                    <path d="M12.7950136,7.16119591 C5.99267586,7.16119591 0.478728641,12.6578697 0.478728641,19.4382394 L0.478728641,19.4382394 L0.478728641,73.8813573 C0.478728641,80.661727 5.99267586,86.1584008 12.7950136,86.1584008 L12.7950136,86.1584008 L62.8633893,86.1584008 C69.6651915,86.1584008 75.1796742,80.661727 75.1796742,73.8813573 L75.1796742,73.8813573 L75.1796742,19.4382394 C75.1796742,12.6578697 69.6651915,7.16119591 62.8633893,7.16119591 L62.8633893,7.16119591 L12.7950136,7.16119591 Z" id="Fill-19" fill="url(#linearGradient-27)"></path>
                    <path d="M24.3575718,0.709641472 C20.9695225,0.709641472 18.2224554,3.462666 18.2224554,6.85926166 L18.2224554,6.85926166 C18.2224554,10.2553206 20.9695225,13.0088819 24.3575718,13.0088819 L24.3575718,13.0088819 L49.3044747,13.0088819 C52.6930595,13.0088819 55.4395911,10.2553206 55.4395911,6.85926166 L55.4395911,6.85926166 C55.4395911,3.462666 52.6930595,0.709641472 49.3044747,0.709641472 L49.3044747,0.709641472 L24.3575718,0.709641472 Z" id="Fill-21" fill="url(#linearGradient-28)"></path>
                </g>
                <g id="编组" opacity="0.5" transform="translate(122.064737, 87.108197)">
                    <path d="M43.3636954,9.93455925 L4.11473102,9.93455925 C1.96752643,9.93455925 0.227110223,8.19917939 0.227110223,6.05818829 C0.227110223,3.91719719 1.96752643,2.18181733 4.11473102,2.18181733 L43.3636954,2.18181733 C45.5109,2.18181733 47.2518479,3.91719719 47.2518479,6.05818829 C47.2518479,8.19917939 45.5109,9.93455925 43.3636954,9.93455925" id="Fill-23" fill="#8795A8"></path>
                    <path d="M43.3636954,8.17250979 L4.11473102,8.17250979 C1.96752643,8.17250979 0.227110223,6.43712993 0.227110223,4.29613883 C0.227110223,2.15514773 1.96752643,0.419767869 4.11473102,0.419767869 L43.3636954,0.419767869 C45.5109,0.419767869 47.2518479,2.15514773 47.2518479,4.29613883 C47.2518479,6.43712993 45.5109,8.17250979 43.3636954,8.17250979" id="Fill-25" fill="#FFFFFF"></path>
                    <path d="M43.3636954,28.4603357 L4.11473102,28.4603357 C1.96752643,28.4603357 0.227110223,26.7249559 0.227110223,24.5839648 C0.227110223,22.4429737 1.96752643,20.7075938 4.11473102,20.7075938 L43.3636954,20.7075938 C45.5109,20.7075938 47.2518479,22.4429737 47.2518479,24.5839648 C47.2518479,26.7249559 45.5109,28.4603357 43.3636954,28.4603357" id="Fill-27" fill="#8795A8"></path>
                    <path d="M43.3636954,26.6982863 L4.11473102,26.6982863 C1.96752643,26.6982863 0.227110223,24.9629064 0.227110223,22.8219153 C0.227110223,20.6814544 1.96752643,18.9455444 4.11473102,18.9455444 L43.3636954,18.9455444 C45.5109,18.9455444 47.2518479,20.6814544 47.2518479,22.8219153 C47.2518479,24.9629064 45.5109,26.6982863 43.3636954,26.6982863" id="Fill-29" fill="#FFFFFF"></path>
                </g>
                <g id="编组" opacity="0.5" transform="translate(177.717196, 146.793443)">
                    <mask id="mask-30" fill="white">
                        <use xlink:href="#path-29"></use>
                    </mask>
                    <g id="Clip-32"></g>
                    <path d="M1.35370011,0.952664003 C0.253349108,2.04492419 0.253349108,3.81598411 1.35370011,4.90824429 L1.35370011,4.90824429 L7.46735761,10.9769484 C8.56770861,12.0697414 10.3518875,12.0697414 11.4527753,10.9769484 L11.4527753,10.9769484 C12.5531262,9.88468825 12.5531262,8.11362832 11.4527753,7.02136814 L11.4527753,7.02136814 L5.33911775,0.952664003 C4.78894225,0.406533912 4.0675414,0.133202461 3.34614055,0.133202461 L3.34614055,0.133202461 C2.62527646,0.133202461 1.90387561,0.406533912 1.35370011,0.952664003" id="Fill-31" fill="url(#linearGradient-31)" mask="url(#mask-30)"></path>
                </g>
                <g id="编组" opacity="0.5" transform="translate(154.327032, 123.403279)">
                    <mask id="mask-33" fill="white">
                        <use xlink:href="#path-32"></use>
                    </mask>
                    <g id="Clip-34"></g>
                    <path d="M5.41621215,5.02725807 C-1.27178448,11.7157846 -1.27178448,22.5598669 5.41621215,29.2483935 L5.41621215,29.2483935 C12.1047387,35.93692 22.9493509,35.93692 29.6373476,29.2483935 L29.6373476,29.2483935 C36.3258741,22.5598669 36.3258741,11.7157846 29.6373476,5.02725807 L29.6373476,5.02725807 C26.2930843,1.68299479 21.910197,0.010598204 17.5267799,0.010598204 L17.5267799,0.010598204 C13.1438926,0.010598204 8.76047542,1.68299479 5.41621215,5.02725807" id="Fill-33" fill="url(#linearGradient-34)" mask="url(#mask-33)"></path>
                </g>
                <g id="编组" opacity="0.5" transform="translate(159.166376, 127.436066)">
                    <path d="M20.9847525,3.84057618 C25.7581959,8.61401958 25.7581959,16.3531486 20.9847525,21.126592 C16.2113091,25.9005702 8.47164528,25.9005702 3.69873672,21.126592 C-1.07470669,16.3531486 -1.07470669,8.61401958 3.69873672,3.84057618 C8.47164528,-0.932867225 16.2113091,-0.932867225 20.9847525,3.84057618" id="Fill-35" fill="#FBFFFE"></path>
                    <path d="M20.9847525,13.5533167 C20.3942896,13.5533167 19.9150733,13.0741005 19.9150733,12.4836376 C19.9150733,10.4608742 19.1272546,8.55898459 17.6970935,7.12828867 C16.2663976,5.69812758 14.364508,4.91030886 12.3417446,4.91030886 C11.7507469,4.91030886 11.2720654,4.43109258 11.2720654,3.84062966 C11.2720654,3.24963191 11.7507469,2.77095047 12.3417446,2.77095047 C14.9357167,2.77095047 17.3751201,3.78126247 19.2096199,5.61576228 C21.0441197,7.4502621 22.0544317,9.88913067 22.0544317,12.4836376 C22.0544317,13.0741005 21.5752154,13.5533167 20.9847525,13.5533167" id="Fill-37" fill="#748295"></path>
                </g>
            </g>
        </g>
    </g>
</svg>