<?xml version="1.0" encoding="UTF-8"?>
<svg width="16px" height="16px" viewBox="0 0 16 16" version="1.1" xmlns="http://www.w3.org/2000/svg" xmlns:xlink="http://www.w3.org/1999/xlink">
    <title>切片</title>
    <defs>
        <filter id="filter-1">
            <feColorMatrix in="SourceGraphic" type="matrix" values="0 0 0 0 0.513725 0 0 0 0 0.568627 0 0 0 0 0.658824 0 0 0 1.000000 0"></feColorMatrix>
        </filter>
    </defs>
    <g id="页面-1" stroke="none" stroke-width="1" fill="none" fill-rule="evenodd">
        <g id="我的" transform="translate(-851.000000, -445.000000)">
            <g id="聚合流动性挖矿" transform="translate(530.000000, 260.000000)">
                <g id="wo/ju/ka" transform="translate(24.000000, 76.000000)">
                    <g id="APY" transform="translate(24.000000, 106.000000)">
                        <g id="帮-助" transform="translate(273.000000, 3.000000)" filter="url(#filter-1)">
                            <g>
                                <rect id="矩形" fill="#000000" fill-rule="nonzero" opacity="0" x="0" y="0" width="16" height="16"></rect>
                                <path d="M8.10829024,10.0439923 C7.88977443,10.0323896 7.71960282,9.96664152 7.58810658,9.84094659 C7.46047788,9.71911919 7.43147136,9.62823208 7.39279599,9.43872279 C7.35605439,9.25501481 7.36378947,9.1157835 7.37345831,8.9572145 L7.37925961,8.85472478 C7.38892845,8.66328173 7.4469415,8.47570621 7.54943122,8.31133591 C7.65965601,8.13729676 7.79115225,7.97872777 7.95165501,7.82596008 C8.11795908,7.67125862 8.29393199,7.52235846 8.47377244,7.38312715 C8.65554665,7.24389584 8.8353871,7.09692945 9.00942624,6.94416176 C9.18346538,6.79139407 9.3226967,6.63862638 9.43678902,6.47425608 C9.55668265,6.30021693 9.61662947,6.11070765 9.61662947,5.90572821 C9.63983469,5.51317326 9.49093453,5.17669759 9.17573031,4.9137051 C8.86632739,4.65651393 8.45250099,4.52695146 7.94778748,4.52695146 C7.68286123,4.52695146 7.43920643,4.59076581 7.22455815,4.72032828 C7.01377742,4.84602322 6.83393697,5.00072468 6.68890435,5.18056512 C6.54387173,5.3584718 6.42784564,5.54798109 6.34275984,5.74522545 C6.25574026,5.95020488 6.21319736,6.12037649 6.21319736,6.26347534 C6.21319736,6.44138202 6.14938301,6.57287826 6.01788677,6.66569913 C5.88445676,6.75852001 5.73555661,6.80686421 5.57698761,6.80686421 L5.55184862,6.80686421 C5.37780948,6.80106291 5.22310802,6.74304986 5.07614164,6.62895754 C4.93497655,6.52066651 4.86149336,6.34662737 4.85182452,6.09717127 C4.84022191,5.87478792 4.88856612,5.59245776 4.99105583,5.25598208 C5.09547932,4.91950641 5.27725353,4.59076581 5.53444471,4.27942912 C5.79356965,3.9642249 6.1377804,3.69156357 6.55547434,3.471114 C6.97316828,3.25066442 7.50688832,3.13850586 8.13923053,3.13850586 C8.64974535,3.13850586 9.09837958,3.21392282 9.47546439,3.36475674 C9.85061543,3.5136569 10.1600183,3.71670256 10.3940043,3.96615867 L10.4249446,3.99903273 C10.6531292,4.24268752 10.8174995,4.41866043 10.9934725,4.85762583 C11.2177896,5.41648485 11.13077,5.86511908 11.0998297,5.98888025 C10.9876712,6.42591187 10.8561749,6.71791087 10.6608643,6.96349944 C10.4346134,7.2458296 10.179356,7.50882209 9.90282717,7.74474181 C9.63209962,7.9709927 9.14479002,8.38868664 9.14479002,8.38868664 C8.88759884,8.60913622 8.76963898,8.81604942 8.78510913,9.02489639 L8.78510913,9.40004743 C8.79477797,9.56828526 8.73869869,9.71138411 8.61493752,9.84094659 C8.49504389,9.96470775 8.32873982,10.0343234 8.10829024,10.0439923 L8.10829024,10.0439923 Z M8.07734995,12.8634263 C7.82596008,12.8634263 7.62098064,12.7822081 7.45467657,12.6139702 C7.28643874,12.4457324 7.2032867,12.2465543 7.2032867,12.006767 C7.2032867,11.7573109 7.28450497,11.5523315 7.45274281,11.3840936 C7.62098064,11.2158558 7.82402631,11.1346375 8.07541618,11.1346375 C8.32680605,11.1346375 8.52985172,11.2158558 8.69808955,11.3840936 C8.86632739,11.5523315 8.94754566,11.7553771 8.94754566,12.006767 C8.94754566,12.2465543 8.86632739,12.4457324 8.69808955,12.6139702 C8.53178549,12.7802743 8.32680605,12.8634263 8.07734995,12.8634263 Z M8,16 C3.58907386,16 0,12.4109246 0,8 C0,3.58907386 3.58907386,0 8,0 C12.4109246,0 16,3.58907386 16,8 C16.0019322,12.4109246 12.4128583,16 8,16 Z M7.99999922,1.54701459 C4.44186565,1.54701459 1.54701459,4.44186565 1.54701459,7.99999922 C1.54701459,11.5581328 4.44186565,14.4529838 7.99999922,14.4529838 C11.5581328,14.4529838 14.4529838,11.5581328 14.4529838,7.99999922 C14.4529838,4.44186565 11.5581328,1.54701459 7.99999922,1.54701459 Z" id="形状" fill="#000000" fill-rule="nonzero"></path>
                            </g>
                        </g>
                    </g>
                </g>
            </g>
        </g>
    </g>
</svg>