<?xml version="1.0" encoding="UTF-8"?>
<svg width="16px" height="16px" viewBox="0 0 16 16" version="1.1" xmlns="http://www.w3.org/2000/svg" xmlns:xlink="http://www.w3.org/1999/xlink">
    <title>icon-ti</title>
    <g id="页面-1" stroke="none" stroke-width="1" fill="none" fill-rule="evenodd">
        <g id="我的-无仓位" transform="translate(-1033.000000, -340.000000)" fill-rule="nonzero">
            <g id="聚合流动性挖矿" transform="translate(530.000000, 260.000000)">
                <g id="编组-7" transform="translate(503.000000, 76.000000)">
                    <g id="icon-ti" transform="translate(0.000000, 4.000000)">
                        <rect id="矩形" fill="#000000" opacity="0" x="0" y="0" width="16" height="16"></rect>
                        <path d="M9.2921875,2.1515625 L6.7140625,2.1515625 L6.7140625,1.19375 C6.7140625,0.534375 7.2484375,0 7.9078125,0 L8.1,0 C8.759375,0 9.29375,0.534375 9.29375,1.19375 L9.29375,2.1515625 L9.2921875,2.1515625 Z" id="路径" fill="#516BFF"></path>
                        <path d="M14.0046875,11.5046875 L14.0046875,6.915625 C14.0046875,3.86875 11.534375,1.3984375 8.4875,1.3984375 L7.5359375,1.3984375 C4.4890625,1.3984375 2.01875,3.86875 2.01875,6.915625 L2.01875,11.515625 L0.971875,14.0171875 L15.0375,14.0171875 L14.0046875,11.5046875 Z M11.1,16 L4.90625,16 C4.646875,16 4.4375,15.790625 4.4375,15.53125 C4.4375,15.271875 4.646875,15.0625 4.90625,15.0625 L11.1015625,15.0625 C11.3609375,15.0625 11.5703125,15.271875 11.5703125,15.53125 C11.56875,15.790625 11.359375,16 11.1,16 Z" id="形状" fill="#516BFF"></path>
                        <path d="M11.0171875,5.99375 C10.9484375,6.0296875 10.875,6.046875 10.803125,6.046875 C10.6328125,6.046875 10.4609375,5.959375 10.3859375,5.79375 C9.990625,4.9140625 9.08125,4.6078125 8.89375,4.5375 C8.696875,4.48125 8.553125,4.3 8.553125,4.0859375 C8.553125,3.8265625 8.7640625,3.6171875 9.0234375,3.6171875 C9.065625,3.6171875 9.1046875,3.621875 9.14375,3.6328125 L9.14375,3.63125 C9.146875,3.6328125 9.153125,3.634375 9.1625,3.6375 C9.1734375,3.640625 9.184375,3.6453125 9.1953125,3.6484375 C9.45625,3.7421875 10.6609375,4.109375 11.21875,5.3625 C11.3234375,5.6 11.246875,5.875 11.0171875,5.99375 L11.0171875,5.99375 Z" id="路径" fill="#FFFFFF"></path>
                    </g>
                </g>
            </g>
        </g>
    </g>
</svg>