<?xml version="1.0" encoding="UTF-8"?>
<svg width="329px" height="263px" viewBox="0 0 329 263" version="1.1" xmlns="http://www.w3.org/2000/svg" xmlns:xlink="http://www.w3.org/1999/xlink">
    <title>img</title>
    <defs>
        <path d="M9.14357895,26.0873925 C-5.56201543,49.3277364 -1.65628838,77.7883288 17.866435,89.657296 L17.866435,89.657296 C37.3901437,101.525274 65.1371617,92.3074846 79.8427561,69.0671407 L79.8427561,69.0671407 C94.5463799,45.8267967 90.6416381,17.3662043 71.1179294,5.49723711 L71.1179294,5.49723711 C65.3381628,1.98343718 58.8351864,0.317547798 52.1647091,0.317547798 L52.1647091,0.317547798 C36.3063143,0.316558552 19.4941497,9.72824001 9.14357895,26.0873925" id="path-1"></path>
        <path d="M8.92184598,3.53572126 C7.64084598,5.51826509 7.68403678,8.10555029 8.79325517,10.5819662 L8.79325517,10.5819662 L5.72768966,12.42038 L1.26529425,19.3194713 C0.675347126,20.2326307 0.808845977,21.3897026 1.56370345,21.9037328 L1.56370345,21.9037328 C2.31954253,22.4197787 3.40912874,22.0962421 3.99907586,21.1850984 L3.99907586,21.1850984 L7.54857471,15.6970704 L10.8458,13.7195661 C11.5937862,14.5601566 12.4752713,15.340273 13.4765126,16.0226228 L13.4765126,16.0226228 C18.3168276,19.322495 24.1259908,19.0816063 26.451423,15.4864188 L26.451423,15.4864188 C28.7768552,11.8902234 26.7370713,6.30039727 21.8967563,3.00052514 L21.8967563,3.00052514 C19.6135333,1.44331609 17.1133747,0.674286638 14.8654897,0.674286638 L14.8654897,0.674286638 C12.3496253,0.674286638 10.1508207,1.63683333 8.92184598,3.53572126" id="path-3"></path>
        <path d="M3.28757895,9.06193633 C-1.99982577,17.1348979 -0.595519419,27.0212089 6.42388675,31.1441133 L6.42388675,31.1441133 C13.4436472,35.2666741 23.4201031,32.0647052 28.7075078,23.9917436 L28.7075078,23.9917436 C33.994204,15.918782 32.5902519,6.03247098 25.5704915,1.90956658 L25.5704915,1.90956658 C23.4923731,0.688983441 21.1542243,0.110306077 18.7558505,0.110306077 L18.7558505,0.110306077 C13.0539557,0.109962445 7.00913249,3.37928337 3.28757895,9.06193633" id="path-5"></path>
        <path d="M2.86773621,1.07608908 C2.45598621,1.67947198 2.46986897,2.46690661 2.82640345,3.22059842 L2.82640345,3.22059842 L1.8410431,3.78011566 L0.406701724,5.87983908 C0.217075862,6.15775718 0.259986207,6.50990948 0.502618966,6.66635345 L0.502618966,6.66635345 C0.745567241,6.82341092 1.09579138,6.72494325 1.28541724,6.44763865 L1.28541724,6.44763865 L2.42632759,4.77736925 L3.48615,4.17552011 C3.72657414,4.43135201 4.00990862,4.66877874 4.33173621,4.87645043 L4.33173621,4.87645043 C5.88755172,5.88075934 7.75478276,5.8074454 8.5022431,4.7132579 L8.5022431,4.7132579 C9.24970345,3.61876365 8.59405862,1.91751221 7.0382431,0.913203305 L7.0382431,0.913203305 C6.30435,0.439270115 5.50072759,0.205217672 4.7781931,0.205217672 L4.7781931,0.205217672 C3.96952241,0.205217672 3.26276379,0.498166667 2.86773621,1.07608908" id="path-7"></path>
        <polygon id="path-9" points="0.151690981 0.289292124 22.2378979 0.289292124 22.2378979 27.611326 0.151690981 27.611326"></polygon>
    </defs>
    <g id="页面-1" stroke="none" stroke-width="1" fill="none" fill-rule="evenodd">
        <g id="流动性挖矿" transform="translate(-391.000000, -322.000000)">
            <g id="banner" transform="translate(0.000000, 264.000000)">
                <g id="img" transform="translate(392.000000, 59.000000)">
                    <g id="编组" transform="translate(23.000000, 48.000000)">
                        <path d="M70.6826847,87.3218441 C69.3102102,88.5446237 67.8222102,89.6600136 66.2227525,90.6525559 C48.0950237,101.895132 22.3312271,93.1623864 8.67807458,71.1482847 C-4.97589153,49.1333695 -1.34904407,22.1728271 16.7778712,10.9302508 C18.0877017,10.1183186 20.0190915,9.0631322 21.4005153,8.45703051" id="Stroke-1" stroke="#457EE4" stroke-width="0.813559322" stroke-linecap="round" stroke-linejoin="round"></path>
                        <path d="M83.1919729,24.8184407 C96.845939,46.8333559 93.2190915,73.7938983 75.0921763,85.0364746 C56.965261,96.2790508 31.2014644,87.5463051 17.5474983,65.5313898 C3.8935322,43.5172881 7.52037966,16.5567458 25.6481085,5.31335593 C43.7750237,-5.92840678 69.5388203,2.80352542 83.1919729,24.8184407 Z" id="Stroke-3" stroke="#457EE4" stroke-width="0.813559322"></path>
                        <path d="M79.4395932,27.9522712 C91.5819661,47.5289492 88.3570169,71.5045424 72.236339,81.5023729 C56.1164746,91.5002034 33.2058305,83.7347797 21.0634576,64.1572881 C8.92108475,44.5806102 12.1468475,20.6050169 28.2667119,10.6071864 C44.3865763,0.609355932 67.2972203,8.37559322 79.4395932,27.9522712" id="Fill-5" fill="#457EE4"></path>
                        <path d="M34.4849085,5.82288814 L34.4849085,5.82288814 C34.2644339,5.86275254 34.0520949,5.71549831 34.0122305,5.49502373 L33.4370441,2.29204068 C33.3971797,2.07075254 33.5444339,1.85922712 33.7649085,1.81936271 C33.9870102,1.77949831 34.197722,1.92675254 34.2375864,2.14804068 L34.8127729,5.35021017 C34.8526373,5.57149831 34.7053831,5.78302373 34.4849085,5.82288814" id="Fill-7" fill="#457EE4"></path>
                        <path d="M79.6795119,26.1877424 L79.6795119,26.1877424 C79.5452746,26.0071322 79.5826983,25.7524881 79.7633085,25.6182508 L82.3748339,23.6762847 C82.5546305,23.542861 82.8100881,23.5794712 82.9435119,23.7600814 C83.0777492,23.939878 83.0403254,24.1953356 82.8597153,24.3287593 L80.2481898,26.271539 C80.0683932,26.4057763 79.8137492,26.367539 79.6795119,26.1877424" id="Fill-9" fill="#457EE4"></path>
                        <path d="M77.6202305,80.1237966 L77.6202305,80.1237966 C77.8431458,80.0936949 78.0440949,80.2197966 78.0685017,80.4044746 L78.6843661,82.7377627 C78.7079593,82.9224407 78.5476881,83.0957288 78.3247729,83.1258305 C78.1026712,83.1551186 77.901722,83.0298305 77.8765017,82.8451525 L77.2622644,80.5110508 C77.2370441,80.3271864 77.3981288,80.1530847 77.6202305,80.1237966" id="Fill-11" fill="#457EE4"></path>
                        <path d="M78.5346712,78.7330169 L78.5346712,78.7330169 C78.7535186,78.6809492 78.9723661,78.8168136 79.0252475,79.0348475 L79.6492475,81.6024407 C79.7013153,81.8212881 79.5662644,82.0401356 79.3474169,82.0922034 C79.1285695,82.1434576 78.909722,82.0084068 78.8576542,81.7903729 L78.2328407,79.2227797 C78.1807729,79.0039322 78.3158237,78.7842712 78.5346712,78.7330169" id="Fill-13" fill="#457EE4"></path>
                        <path d="M11.5995661,24.4990373 L11.5995661,24.4990373 C11.5385492,24.7154441 11.3140068,24.8415458 11.0976,24.7805288 L7.28607458,23.6781559 C7.07048136,23.6179525 6.9435661,23.3934102 7.00539661,23.1770034 C7.0656,22.9605966 7.28932881,22.8344949 7.50654915,22.8946983 L11.317261,23.9970712 C11.5336678,24.0580881 11.6597695,24.2826305 11.5995661,24.4990373" id="Fill-15" fill="#457EE4"></path>
                        <path d="M12.5489898,21.8343051 L12.5489898,21.8343051 C12.4879729,22.0507119 12.2634305,22.1768136 12.0470237,22.1157966 L8.91319322,21.2379661 C8.6976,21.1769492 8.57068475,20.9532203 8.63251525,20.736 C8.69271864,20.5204068 8.91644746,20.3934915 9.1336678,20.4545085 L12.2666847,21.332339 C12.4830915,21.3933559 12.6091932,21.6178983 12.5489898,21.8343051" id="Fill-17" fill="#457EE4"></path>
                        <path d="M15.6943729,62.368922 L10.196339,65.4710237 C10.0002712,65.5808542 9.75213559,65.5100746 9.64311864,65.3140068 C9.53410169,65.117939 9.6040678,64.8698034 9.80013559,64.7607864 L15.2989831,61.6586847 C15.4950508,61.5488542 15.7423729,61.6196339 15.8513898,61.8157017 C15.9612203,62.0117695 15.8904407,62.2599051 15.6943729,62.368922" id="Fill-19" fill="#457EE4"></path>
                        <path d="M17.1546305,65.4097627 L13.7799864,67.3484746 C13.5831051,67.4583051 13.3365966,67.3875254 13.2267661,67.1914576 C13.1169356,66.9953898 13.1877153,66.7480678 13.3837831,66.6382373 L16.7584271,64.6987119 C16.9544949,64.5896949 17.2026305,64.6604746 17.3116475,64.8565424 C17.421478,65.0526102 17.3506983,65.3007458 17.1546305,65.4097627" id="Fill-21" fill="#457EE4"></path>
                        <path d="M18.7944407,68.162278 L14.9552542,70.3393627 C14.7591864,70.4483797 14.5110508,70.3784136 14.4028475,70.1815322 C14.2930169,69.9854644 14.3629831,69.7381424 14.5590508,69.6283119 L18.3982373,67.4520407 C18.5943051,67.3422102 18.8424407,67.4129898 18.9514576,67.6090576 C19.0604746,67.8051254 18.9905085,68.053261 18.7944407,68.162278" id="Fill-23" fill="#457EE4"></path>
                        <path d="M45.1565288,35.0232407 L54.6353085,38.3946305 C57.8553763,39.3863593 59.7257492,42.3281898 60.2456136,47.2193085 C60.5710373,50.2839864 58.6673085,52.8540203 56.1599186,54.1695458 C54.0349017,55.2849356 50.556122,55.4753085 48.1292746,53.5642576 C43.801139,50.1538169 42.6068339,46.1934102 44.5463593,41.6822237 L49.2283932,43.4386983 C48.073139,45.7150373 48.3391729,47.5422915 50.0256814,48.9188339 C52.3866305,50.8445288 54.9591051,49.2247322 55.1803932,47.7106983 C55.5351051,45.2911729 54.9363254,43.7421559 53.3856814,43.0660881 L43.6327322,39.937139 C41.6622915,38.8559186 40.0864271,38.7168 38.9035119,39.5173424 C37.7214102,40.3186983 37.273139,41.5186983 37.5562576,43.1181559 L48.3652068,63.7614102 C46.0368,64.9809356 42.9477153,63.6759864 41.4662237,60.8464271 L33.3395797,45.3269695 C31.8149695,41.9466305 32.2559186,38.8990373 34.6624271,36.1850034 C37.068122,33.4709695 40.5656136,33.0837153 45.1565288,35.0232407 L45.1565288,35.0232407 Z M46.7795797,34.1738847 C47.8005966,29.2957831 50.1111051,26.641139 53.7127322,26.209139 C57.3135458,25.7779525 60.0690712,27.1512407 61.980122,30.3290034 L70.1059525,45.8492746 C71.5874441,48.6788339 70.9016136,51.9607322 68.5715797,53.1802576 L57.7626305,32.5378169 C56.6090034,31.393139 55.3675119,31.0782915 54.0357153,31.5940881 C52.7031051,32.1090712 51.920461,33.4839864 51.6861559,35.7196475 L46.7795797,34.1738847 Z" id="Fill-25" fill="#FFFFFF"></path>
                    </g>
                    <g id="编组" opacity="0.200000003" transform="translate(0.000000, 177.000000)">
                        <path d="M35,43.933486 C34.3164582,44.5371402 33.5753805,45.0877788 32.778793,45.5777709 C23.7505305,51.1279354 10.9192309,46.8168083 4.11946871,35.9490248 C-2.68069867,25.0808396 -0.874397878,11.7711284 8.15345944,6.22096389 C8.80580226,5.8201343 9.76770402,5.29921648 10.4557028,5" id="Stroke-1" stroke="#457EE4" stroke-width="0.813559322" stroke-linecap="round" stroke-linejoin="round"></path>
                        <path d="M41.8737103,12.2689029 C48.6851373,23.3334295 46.8758457,36.8835901 37.8330401,42.5340223 C28.7902346,48.1844544 15.9376891,43.7954437 9.12626203,32.7309171 C2.31483499,21.6667994 4.12412664,8.11663878 13.1673381,2.46579778 C22.2101436,-3.18422544 35.0626891,1.20437633 41.8737103,12.2689029 Z" id="Stroke-3" stroke="#457EE4" stroke-width="0.813559322"></path>
                        <path d="M39.3768165,13.905714 C45.3576642,23.7405481 43.7691831,35.7852874 35.8287813,40.8079477 C27.8887803,45.8306081 16.6039125,41.9294532 10.6230648,32.0942103 C4.64221717,22.2593762 6.23109898,10.214637 14.1711,5.19197659 C22.1111011,0.16931623 33.3959688,4.07087989 39.3768165,13.905714" id="Fill-5" fill="#457EE4"></path>
                        <path d="M17.7592245,2.99675619 L17.7592245,2.99675619 C17.6004678,3.01660625 17.4475693,2.94328256 17.4188642,2.83349959 L17.0046909,1.23860824 C16.9759858,1.12842016 17.0820188,1.02309333 17.2407755,1.00324327 C17.4007038,0.983393212 17.5524307,1.05671689 17.5811358,1.16690497 L17.9953091,2.76139122 C18.0240142,2.8715793 17.9179812,2.97690613 17.7592245,2.99675619" id="Fill-7" fill="#457EE4"></path>
                        <path d="M39.0470184,13.880917 L39.0470184,13.880917 C38.9686325,13.7498361 38.9904855,13.5650239 39.0959501,13.467599 L40.6209108,12.0581846 C40.7259003,11.9613501 40.8750709,11.9879205 40.9529816,12.1190014 C41.0313675,12.2494918 41.0095145,12.4348944 40.9040499,12.5317289 L39.3790892,13.9417338 C39.2740997,14.0391587 39.1254042,14.0114074 39.0470184,13.880917" id="Fill-9" fill="#457EE4"></path>
                        <path d="M39.2526737,40.0029509 L39.2526737,40.0029509 C39.4088855,39.9829546 39.5497042,40.066723 39.5668077,40.1894031 L39.9983857,41.7393885 C40.014919,41.8620687 39.9026061,41.9771826 39.7463943,41.997179 C39.5907526,42.0166348 39.4499339,41.9334069 39.4322603,41.8107267 L39.0018226,40.2602009 C38.984149,40.1380612 39.097032,40.0224068 39.2526737,40.0029509" id="Fill-11" fill="#457EE4"></path>
                        <path d="M39.2175476,39.0065766 L39.2175476,39.0065766 C39.3696591,38.9757779 39.5217706,39.0561433 39.5585262,39.185113 L39.9922418,40.7038751 C40.0284319,40.833326 39.9345638,40.9627769 39.7824524,40.9935756 C39.6303409,41.0238931 39.4782294,40.9440089 39.4420393,40.8150392 L39.0077582,39.2962771 C38.9715681,39.1668262 39.0654362,39.0368941 39.2175476,39.0065766" id="Fill-13" fill="#457EE4"></path>
                        <path d="M4.99350323,11.8450794 L4.99350323,11.8450794 C4.96711669,11.9580133 4.87001424,12.0238206 4.77643,11.9919784 L3.12815114,11.4166948 C3.03491871,11.3852771 2.98003472,11.2680975 3.00677308,11.1551636 C3.03280779,11.0422297 3.12955842,10.9764224 3.22349448,11.0078401 L4.87142153,11.5831237 C4.96500577,11.6149659 5.01953794,11.7321455 4.99350323,11.8450794" id="Fill-15" fill="#457EE4"></path>
                        <path d="M6.99238778,10.8245463 L6.99238778,10.8245463 C6.9614709,10.9524484 6.84769676,11.0269778 6.73804487,10.9909152 L5.15015363,10.4720942 C5.04091397,10.4360316 4.97660685,10.303802 5.00793596,10.175419 C5.03844062,10.0479978 5.15180253,9.9729875 5.26186665,10.0090501 L6.84934566,10.5278711 C6.95899755,10.5639337 7.02289244,10.6966442 6.99238778,10.8245463" id="Fill-17" fill="#457EE4"></path>
                        <path d="M7.90075949,31.3891873 L5.28739506,32.9735606 C5.19419873,33.0296556 5.07625316,32.9935055 5.02443445,32.8933655 C4.97261575,32.7932254 5.00587253,32.6664922 5.09906886,32.6108127 L7.71281999,31.0264394 C7.80601633,30.9703444 7.92357519,31.0064945 7.9753939,31.1066345 C8.02759931,31.2067746 7.99395582,31.3335078 7.90075949,31.3891873" id="Fill-19" fill="#457EE4"></path>
                        <path d="M8.90030422,32.5538198 L7.28888592,33.962389 C7.19487357,34.0421862 7.07716389,33.9907613 7.02471898,33.8483085 C6.97227408,33.7058556 7.00607191,33.526164 7.09969578,33.4463668 L8.71111408,32.0372065 C8.80473795,31.9580004 8.92322459,32.0094252 8.97528102,32.1518781 C9.02772592,32.294331 8.99392809,32.4746136 8.90030422,32.5538198" id="Fill-21" fill="#457EE4"></path>
                        <path d="M8.91039405,33.5096219 L7.25983363,34.9656381 C7.17553928,35.0385478 7.0688597,34.991755 7.02234041,34.8600824 C6.97512158,34.7289539 7.00520172,34.563547 7.08949608,34.4900932 L8.7400565,33.0346211 C8.82435085,32.9611674 8.93103043,33.0085042 8.97789949,33.1396328 C9.02476855,33.2707613 8.99468841,33.4367123 8.91039405,33.5096219" id="Fill-23" fill="#457EE4"></path>
                        <path d="M23.2800334,17.4355796 L27.9657691,19.1174415 C29.557576,19.6121784 30.4821753,21.079749 30.7391648,23.5197475 C30.9000346,25.0486021 29.9589462,26.3306971 28.7194442,26.9869642 C27.6689643,27.543391 25.9492659,27.638361 24.7495792,26.6850083 C22.6100106,24.9836654 22.0196183,23.0079647 22.9784025,20.7575004 L25.292917,21.6337407 C24.7218291,22.7693221 24.8533402,23.6808718 25.6870481,24.3675779 C26.8541586,25.328236 28.1258346,24.5201793 28.235226,23.7648837 C28.4105741,22.5578718 28.1145737,21.7851245 27.348029,21.4478592 L22.5267604,19.886942 C21.5526937,19.3475611 20.7736816,19.27816 20.1889198,19.677521 C19.6045601,20.0772879 19.382962,20.6759236 19.5229187,21.4738339 L24.8662098,31.7719911 C23.7151862,32.3803673 22.1881295,31.7293764 21.4557696,30.3178137 L17.438448,22.5757294 C16.6847729,20.8894031 16.9027515,19.3690714 18.0923838,18.0151401 C19.281614,16.6612089 21.0105624,16.468022 23.2800334,17.4355796 L23.2800334,17.4355796 Z M24.0823716,17.0118673 C24.5871007,14.5783625 25.7292764,13.2540586 27.5097031,13.0385498 C29.2897277,12.8234468 30.6518929,13.5085295 31.5966009,15.093798 L35.6135204,22.8362881 C36.3458802,24.2478508 36.0068471,25.8850687 34.8550192,26.4934449 L29.5117281,16.1956935 C28.9414445,15.624656 28.3277262,15.4675902 27.6693664,15.7249021 C27.0106045,15.9818081 26.6237126,16.6677025 26.5078863,17.7829913 L24.0823716,17.0118673 Z" id="Fill-25" fill="#FFFFFF"></path>
                    </g>
                    <g id="编组" transform="translate(216.000000, 78.000000)">
                        <g transform="translate(0.000000, 0.000000)" stroke="#24C7D6" stroke-width="1.05172414">
                            <path d="M25.7793671,103.660973 C27.4492576,105.115586 29.2587181,106.441384 31.2047789,107.621523 C53.261785,120.989493 84.6076187,110.606055 101.220406,84.4289718 C117.832203,58.2518883 113.420406,26.1939285 91.3653793,12.8259584 C89.7707181,11.8598498 87.421785,10.6063859 85.7410061,9.88502479" id="Stroke-1" stroke-linecap="round" stroke-linejoin="round"></path>
                            <path d="M10.5583205,29.3401725 C-6.05347667,55.517256 -1.64167951,87.5752158 20.4143367,100.943186 C42.4693631,114.312147 73.8161866,103.928709 90.4279838,77.7516256 C107.041761,51.5745421 102.628974,19.5165823 80.5729574,6.14762137 C58.517931,-7.2203487 27.1711075,3.16308903 10.5583205,29.3401725 Z" id="Stroke-3"></path>
                        </g>
                        <g transform="translate(6.000000, 7.000000)">
                            <mask id="mask-2" fill="white">
                                <use xlink:href="#path-1"></use>
                            </mask>
                            <g id="Clip-6"></g>
                            <path d="M9.14357895,26.0873925 C-5.56201543,49.3277364 -1.65628838,77.7883288 17.866435,89.657296 L17.866435,89.657296 C37.3901437,101.525274 65.1371617,92.3074846 79.8427561,69.0671407 L79.8427561,69.0671407 C94.5463799,45.8267967 90.6416381,17.3662043 71.1179294,5.49723711 L71.1179294,5.49723711 C65.3381628,1.98343718 58.8351864,0.317547798 52.1647091,0.317547798 L52.1647091,0.317547798 C36.3063143,0.316558552 19.4941497,9.72824001 9.14357895,26.0873925" id="Fill-5" fill="#24C7D6" mask="url(#mask-2)"></path>
                        </g>
                        <g transform="translate(10.000000, 2.000000)">
                            <path d="M59.8478341,4.76975174 L59.8478341,4.76975174 C60.1157503,4.81729376 60.3727917,4.64198257 60.4212341,4.37951103 L61.1211776,0.572187965 C61.16962,0.309716421 60.9906796,0.058139923 60.7217748,0.0105979076 C60.45287,-0.0359536491 60.1968172,0.138367074 60.1483748,0.401829076 L59.4484313,4.20816168 C59.3999889,4.47162369 59.5799179,4.72220973 59.8478341,4.76975174" id="Fill-7" fill="#24C7D6"></path>
                            <path d="M4.92817528,28.9740851 L4.92817528,28.9740851 C5.09129769,28.760146 5.04483252,28.4570657 4.82535872,28.2976018 L1.65287493,25.9898332 C1.43438976,25.8303693 1.12396286,25.87494 0.960840448,26.088879 C0.798706655,26.3028181 0.844183207,26.6058985 1.063657,26.7653623 L4.23614079,29.0741214 C4.45462597,29.2325948 4.76505286,29.1880242 4.92817528,28.9740851" id="Fill-9" fill="#24C7D6"></path>
                            <path d="M7.42968221,93.0806301 L7.42968221,93.0806301 C7.15978876,93.0449736 6.91559945,93.1945328 6.88594083,93.4134242 L6.13755497,96.1876989 C6.10789634,96.4075807 6.30364324,96.6135961 6.57452531,96.6492526 C6.84441876,96.6839187 7.08761945,96.5343594 7.11826669,96.315468 L7.86566393,93.5411934 C7.89631117,93.322302 7.70056428,93.1152961 7.42968221,93.0806301" id="Fill-11" fill="#24C7D6"></path>
                            <path d="M6.31837369,91.4276536 L6.31837369,91.4276536 C6.05243472,91.3662452 5.78649576,91.5266995 5.72322403,91.7861997 L4.96495197,94.8387932 C4.90069162,95.0982934 5.06579128,95.358784 5.33173024,95.4201925 C5.59766921,95.4816009 5.86360817,95.3211466 5.9268799,95.0616464 L6.68614059,92.0090529 C6.74941231,91.7495527 6.58530128,91.4890621 6.31837369,91.4276536" id="Fill-13" fill="#24C7D6"></path>
                            <path d="M87.6575364,26.9671187 L87.6575364,26.9671187 C87.7306943,27.224638 88.0045422,27.3741972 88.2665267,27.3018938 L92.8982147,25.9925074 C93.1611878,25.9202039 93.3154126,25.6527801 93.2402774,25.3962513 C93.1671195,25.1387321 92.8942602,24.9891728 92.6312871,25.0614763 L88.0005878,26.3708626 C87.7376147,26.4431661 87.5843784,26.7105899 87.6575364,26.9671187" id="Fill-15" fill="#24C7D6"></path>
                            <path d="M86.503816,23.79983 L86.503816,23.79983 C86.5779626,24.0573493 86.8508219,24.2069086 87.1128064,24.1346051 L90.9209733,23.0916521 C91.1839464,23.0193486 91.3381712,22.7519248 91.263036,22.495396 C91.1898781,22.2378767 90.9170188,22.087327 90.6540457,22.1596305 L86.8468674,23.2035739 C86.5838943,23.2758774 86.4306581,23.5433013 86.503816,23.79983" id="Fill-17" fill="#24C7D6"></path>
                            <path d="M82.680721,71.9783142 L89.3628082,75.6648013 C89.6010658,75.7955418 89.9025951,75.7123433 90.0340817,75.4785951 C90.1675454,75.2448468 90.0825241,74.9506806 89.8442665,74.8209305 L83.1621792,71.1334529 C82.9239217,71.0037029 82.6223923,71.0869014 82.4909058,71.3206496 C82.357442,71.5534074 82.4424634,71.8485641 82.680721,71.9783142" id="Fill-19" fill="#24C7D6"></path>
                            <path d="M80.2381358,76.4919333 L84.3389344,78.7967306 C84.5781807,78.9264807 84.8787213,78.8432822 85.0121851,78.6105244 C85.1456489,78.3767761 85.0596389,78.0826099 84.8213813,77.9528598 L80.7195941,75.6470721 C80.4813365,75.517322 80.1798072,75.601511 80.0483207,75.8342688 C79.9148569,76.068017 79.9998782,76.3621832 80.2381358,76.4919333" id="Fill-21" fill="#24C7D6"></path>
                            <path d="M77.7984177,80.2786548 L82.4627301,82.8657328 C82.7009877,82.9954829 83.002517,82.9122844 83.1349922,82.6785362 C83.268456,82.4457784 83.182446,82.1516122 82.9441884,82.0208716 L78.2788873,79.4337936 C78.0406298,79.3040435 77.7400891,79.3882325 77.6076139,79.6209903 C77.4741501,79.8537481 77.5601601,80.1489048 77.7984177,80.2786548" id="Fill-23" fill="#24C7D6"></path>
                            <path d="M17.1729346,43.0456302 C20.3730997,38.5321102 25.5969714,36.4273855 31.0502032,36.2401888 C36.7021477,36.0460589 42.979889,37.864541 48.6308449,41.6233316 C54.2818008,45.3821222 58.3905083,50.4730797 60.4053173,55.7680717 C62.3499342,60.8748765 62.4408873,66.5155385 59.5313766,71.222198 L59.5373083,71.2261599 L57.7686659,73.893465 C54.5971708,78.6793612 49.2309377,80.9019505 43.6215039,81.0950899 C37.9685708,81.2892198 31.691818,79.4697473 26.0408621,75.7109567 C20.3889177,71.9521661 16.2802101,66.8612086 14.2654011,61.5672071 C12.2654214,56.3128239 12.2268652,50.4948698 15.3983604,45.7079831 L17.1660142,43.0416684 L17.1729346,43.0456302 Z M18.7804318,44.1153256 C18.6875014,44.2440852 18.5965483,44.3758162 18.5085611,44.5095281 C18.1734187,45.0146621 17.880787,45.5376242 17.6277001,46.0774242 L17.5179632,46.0041302 L17.004869,46.7776785 C16.754748,47.1540527 16.5283539,47.5423125 16.324698,47.9394865 C12.3385794,55.6868541 17.0098121,66.9751113 27.2954218,73.8171997 C37.5820201,80.6592881 49.7776449,80.5909465 55.3584087,73.9053505 C55.6441201,73.5626518 55.9130249,73.2021249 56.1621573,72.8247601 L56.6752514,72.0522024 L56.5655146,71.9789085 C56.9639287,71.5361734 57.3316956,71.0627342 57.6658494,70.5576003 C57.7548252,70.4238884 57.8408352,70.2881955 57.9228908,70.1525027 C62.634657,62.4001828 58.0019804,50.585992 47.3762852,43.518079 C36.7496014,36.4491756 24.0833932,36.7552273 18.7804318,44.1153256 L18.7804318,44.1153256 Z" id="Fill-25" fill="#606063"></path>
                            <path d="M56.1626516,72.8251563 C51.0336875,80.5655907 38.1084606,81.0103066 27.2949275,73.8166054 C16.4813944,66.6238947 11.874422,54.518509 17.0053633,46.7780746 L18.4754423,44.5584568 L57.6327306,70.6065289 L56.1626516,72.8251563 Z" id="Fill-27" fill="#BEBEBE"></path>
                            <path d="M57.6658494,70.5574022 C52.5358966,78.2978366 39.6106697,78.7415621 28.7981252,71.5488513 C17.9845921,64.3561406 13.3776197,52.2507549 18.5085611,44.50933 C23.6375252,36.7688957 36.5617635,36.3241797 47.3752966,43.5178809 C58.1888297,50.7105917 62.7958021,62.8169678 57.6658494,70.5574022" id="Fill-29" fill="#FAF9FA"></path>
                            <path d="M22.5379813,41.4854598 L22.5379813,41.4854598 L20.7386917,44.2003069 C18.2028796,48.0264487 18.2562651,52.6112818 19.7807182,56.6523531 C21.319012,60.7320523 24.4539282,64.6196026 28.7484965,67.4760853 C33.0430648,70.3325681 37.8368865,71.7192102 42.1868175,71.556775 C46.4952265,71.3953302 50.734432,69.6659894 53.2692554,65.8398476 L55.0121937,63.2101799 C55.0250458,63.1903707 55.0388865,63.171552 55.0517386,63.1517428 C57.5875506,59.3246106 57.5331765,54.7397775 56.009712,50.6987062 C54.4724068,46.6199974 51.3355134,42.7314568 47.0409451,39.8759645 C42.7463768,37.0184912 37.9535437,35.6318491 33.6036127,35.7942843 C29.3050899,35.9557291 25.0757706,37.6771463 22.5379813,41.4854598 M24.1444899,42.5541647 C24.1385582,42.5620883 24.1326265,42.5719929 24.1266948,42.5799166 C23.7045537,43.217772 23.3694113,43.8942552 23.117313,44.6004522 L22.8889417,44.4479216 L22.3452003,45.2690118 C22.1049654,45.6315197 21.8934006,46.0059131 21.7085286,46.3921919 C18.9235841,52.2170793 22.4114379,60.5309892 30.0040448,65.5823284 C37.5966517,70.6326771 46.5990317,70.6267343 50.8767934,65.7942865 C51.1605275,65.4743684 51.4235006,65.1326601 51.6627468,64.7711427 L52.2074768,63.9500525 L51.9781168,63.7985123 C52.5149379,63.3052639 52.9963961,62.7506071 53.4106282,62.1345418 L53.4452299,62.0820475 L53.4620365,62.0562956 C57.3008506,56.2215036 53.8693482,47.1469214 45.7863854,41.7697214 C37.7024341,36.3915309 28.0218603,36.7461151 24.1444899,42.5541647" id="Fill-31" fill="#633001"></path>
                            <path d="M51.6627468,64.7708456 C47.7972399,70.6046471 38.0998596,70.9671549 30.0040448,65.5820312 C21.9082299,60.1969075 18.4796934,51.1025162 22.3452003,45.2687147 L23.9872992,42.7905871 L53.3048458,62.292718 L51.6627468,64.7708456 Z" id="Fill-33" fill="#FEDC90"></path>
                            <path d="M53.4449333,62.0824437 C49.5794264,67.9162451 39.8820461,68.278753 31.7862313,62.8936293 C23.6894278,57.5075151 20.2608913,48.4131238 24.1273868,42.5803128 C27.9928937,36.7465113 37.6892854,36.3840034 45.7860889,41.7691271 C53.8809151,47.1542508 57.3104402,56.2486422 53.4449333,62.0824437" id="Fill-35" fill="#D1884F"></path>
                            <path d="M59.8468455,62.0277704 C55.9813386,67.8605814 46.2829696,68.2240797 38.1881434,62.838956 C30.09134,57.4528418 26.6628034,48.3584505 30.5292989,42.5256395 L32.1713979,40.0475119 L61.4889444,59.5496428 L59.8468455,62.0277704 Z" id="Fill-37" fill="#FEDC90"></path>
                            <path d="M61.6280434,59.3387742 C57.7625365,65.1725756 48.0651561,65.5350835 39.9693413,60.1499598 C31.8735265,54.7648361 28.4449899,45.6704447 32.3104968,39.8366433 C36.1760037,34.0028418 45.8723954,33.6403339 53.9691989,39.0254576 C62.0650137,44.4105813 65.4945389,53.5059631 61.6280434,59.3387742" id="Fill-39" fill="#D1884F"></path>
                            <path d="M30.0694914,30.1207391 L30.0694914,30.1207391 L28.2702018,32.8355863 C25.7343897,36.661728 25.7877752,41.2465611 27.3122283,45.2876325 C28.8505221,49.3673317 31.9854383,53.2548819 36.2800066,56.1113646 C40.5745749,58.9678474 45.3693852,60.35548 49.7183277,60.1920543 C54.0267366,60.0306095 58.2659421,58.3012687 60.8017542,54.4751269 L62.5446925,51.8454592 C62.5565559,51.8266405 62.5703966,51.8068313 62.5832487,51.7870221 C65.1190608,47.9608804 65.0646866,43.3760473 63.5412221,39.3349759 C62.003917,35.2552767 58.8670235,31.3667361 54.5724552,28.5112438 C50.277887,25.6537706 45.4850539,24.2671284 41.1351228,24.4295637 C36.8366001,24.5910084 32.6072808,26.3124256 30.0694914,30.1207391 M31.6760001,31.189444 L31.6582049,31.2151959 C31.2370525,31.8530513 30.9009214,32.5295345 30.6498118,33.2357316 L30.4204518,33.0832009 L29.8767104,33.9042911 C29.6374642,34.266799 29.4249108,34.6411924 29.2400387,35.0274713 C26.4550942,40.8523586 29.942948,49.1662685 37.5365435,54.2176077 C45.1281618,59.2679564 54.1305418,59.2630041 58.4083035,54.4295658 C58.6920377,54.1096477 58.9550108,53.7689299 59.1952456,53.406422 L59.738987,52.5853318 L59.5106156,52.4337916 C60.0474366,51.9415337 60.5279063,51.3868768 60.9421383,50.7698211 C60.9530132,50.7529833 60.9648766,50.7351551 60.9767401,50.7183173 C60.9826718,50.7094031 60.9876149,50.700489 60.9935466,50.6915749 C64.8323608,44.8567829 61.4008583,35.7822008 53.3178956,30.4050007 C45.2339442,25.0268102 35.554359,25.3813944 31.6760001,31.189444" id="Fill-41" fill="#633001"></path>
                            <path d="M59.1941581,53.4067192 C55.3286512,59.2395302 45.6312709,59.6030285 37.535456,54.2179048 C29.4396412,48.8317907 26.0111047,39.7373993 29.8766116,33.9045883 L31.5187105,31.4264607 L60.8372457,50.9285916 L59.1941581,53.4067192 Z" id="Fill-43" fill="#FEDC90"></path>
                            <path d="M60.9764435,50.717723 C57.1109366,56.5515245 47.4135562,56.9140323 39.3177414,51.5289086 C31.220938,46.1437849 27.7924014,37.0493936 31.6588969,31.2155921 C35.5244038,25.3817906 45.2207956,25.0192827 53.317599,30.4044064 C61.4124252,35.7905206 64.8419504,44.884912 60.9764435,50.717723" id="Fill-45" fill="#D1884F"></path>
                        </g>
                        <g transform="translate(36.000000, 33.000000)">
                            <mask id="mask-4" fill="white">
                                <use xlink:href="#path-3"></use>
                            </mask>
                            <g id="Clip-48"></g>
                            <path d="M8.92184598,3.53572126 C7.64084598,5.51826509 7.68403678,8.10555029 8.79325517,10.5819662 L8.79325517,10.5819662 L5.72768966,12.42038 L1.26529425,19.3194713 C0.675347126,20.2326307 0.808845977,21.3897026 1.56370345,21.9037328 L1.56370345,21.9037328 C2.31954253,22.4197787 3.40912874,22.0962421 3.99907586,21.1850984 L3.99907586,21.1850984 L7.54857471,15.6970704 L10.8458,13.7195661 C11.5937862,14.5601566 12.4752713,15.340273 13.4765126,16.0226228 L13.4765126,16.0226228 C18.3168276,19.322495 24.1259908,19.0816063 26.451423,15.4864188 L26.451423,15.4864188 C28.7768552,11.8902234 26.7370713,6.30039727 21.8967563,3.00052514 L21.8967563,3.00052514 C19.6135333,1.44331609 17.1133747,0.674286638 14.8654897,0.674286638 L14.8654897,0.674286638 C12.3496253,0.674286638 10.1508207,1.63683333 8.92184598,3.53572126" id="Fill-47" mask="url(#mask-4)"></path>
                        </g>
                        <g transform="translate(35.000000, 30.000000)">
                            <path d="M5.32829263,14.1077007 L0.856680303,20.7828487 C-0.3427314,22.5737898 -0.0710359979,24.845514 1.465278,25.8570187 C3.00060402,26.8665651 5.21862649,26.2340074 6.41902618,24.4430663 L9.69616672,19.5510259 L11.4172336,18.554209 C12.0366991,19.1240984 12.7174196,19.6567785 13.4544551,20.1424575 C16.1071902,21.8883558 19.0908997,22.7451483 21.8315654,22.6354789 C24.5376516,22.5277678 27.3217885,21.4359694 29.0161798,18.9076971 C30.7095831,16.3784456 30.6443762,13.4124747 29.6949243,10.8979111 C28.7326286,8.35201338 26.7783976,5.95984869 24.1246746,4.21395036 C21.4729274,2.46805202 18.4882299,1.61125951 15.7485523,1.72092895 C13.0414781,1.82864001 10.2573412,2.92043847 8.5629499,5.44871076 C7.07702304,7.66853775 6.94265731,10.2124771 7.57891855,12.5184729 L6.10781144,13.3713487 C5.96949378,13.4477256 5.83809201,13.5427072 5.71558208,13.6533558 C5.56540862,13.7875051 5.43598281,13.9422173 5.32829263,14.1077007 L5.32829263,14.1077007 Z M9.83744833,13.2176156 C9.71395042,12.9512756 9.60428427,12.6839563 9.50647393,12.4156578 C8.72893109,10.2624159 8.82180152,8.08567331 9.96786212,6.37306748 C12.3083945,2.87931243 18.1552796,2.64626486 23.0270251,5.85213763 C27.8997587,9.0580104 29.9517999,14.4895853 27.6112676,17.9833404 C25.2707352,21.4761162 19.4238501,21.710143 14.5521045,18.5042702 C13.5443616,17.8413576 12.6571526,17.0824842 11.9043094,16.2658386 L8.58567351,18.1879914 L5.01411395,23.5187096 C4.41934801,24.4048778 3.32268657,24.7182191 2.56193945,24.2178523 C1.80316829,23.7174854 1.66781458,22.5943529 2.26159253,21.7072054 L6.75197654,15.00464 L9.83744833,13.2176156 Z" id="Fill-49" fill="#633001"></path>
                            <path d="M14.5096213,5.52117093 C13.2963778,7.3316959 14.290289,10.0988909 16.7296197,11.7037857 C19.1679624,13.3086804 22.1269724,13.1422179 23.3402158,11.3316929 C24.5514833,9.52214715 23.5575722,6.75397295 21.1192294,5.15005737 C18.6818747,3.5451626 15.7228647,3.71162515 14.5096213,5.52117093" id="Fill-51" fill="#9E7200"></path>
                            <polygon id="Fill-53" fill="#9E7200" points="15.4502801 4.11691249 24.2808747 9.92743448 23.3393266 11.3325742 14.5097201 5.5220522"></polygon>
                            <path d="M15.4502801,4.11691249 C14.2380247,5.92645826 15.2309479,8.69463246 17.6702786,10.298548 C20.1086213,11.9034428 23.0676312,11.7369803 24.2808747,9.92743448 C25.4931302,8.1178887 24.499219,5.34971451 22.0598883,3.74579893 C19.6225335,2.14090416 16.6635236,2.30736671 15.4502801,4.11691249" id="Fill-55" fill="#F0B90B"></path>
                            <path d="M18.4547373,5.52498977 L20.3180738,5.42021629 C20.7112911,5.39769489 21.0472054,5.61899215 21.1795952,5.98716813 L21.8059766,7.73012889 C21.9304625,8.07676266 21.6469113,8.49879417 21.2754296,8.52033639 L19.4130811,8.62510987 C19.0188758,8.64665208 18.6829614,8.42535482 18.5515597,8.05717883 L17.9261662,6.31519727 C17.8006924,5.9675843 18.0832556,5.54555279 18.4547373,5.52498977" id="Fill-57" fill="#9E7200"></path>
                            <path d="M22.0602835,3.74540725 C19.6219408,2.14051249 16.6629308,2.30697503 15.4506753,4.11652081 L14.5091273,5.52166052 C13.2968718,7.3312063 14.290783,10.0993805 16.7291257,11.7032961 C19.1674684,13.3081908 22.1264784,13.1417283 23.3397218,11.3321825 L24.2802819,9.92704281 C25.4935254,8.11749703 24.4996142,5.35030202 22.0602835,3.74540725 M18.4669883,0.771602854 C20.0497375,0.683475624 21.7125134,1.1554459 23.1579329,2.10721998 C24.6033525,3.05801486 25.6881581,4.39363199 26.2196931,5.87319025 C26.7423363,7.33022711 26.7966753,9.19264923 25.6851941,10.8523787 L24.7446341,12.2565392 C23.6331529,13.9152895 21.8794825,14.5889732 20.3224209,14.6771005 C18.7406597,14.7652277 17.0768958,14.2922782 15.6314763,13.3424625 C14.1860567,12.3916677 13.1022391,11.0550713 12.5707041,9.57551308 C12.0470729,8.11847622 11.9937218,6.2560541 13.105203,4.5973038 L14.0457631,3.19314328 C15.1572443,1.53341379 16.9099266,0.859730083 18.4669883,0.771602854" id="Fill-59" fill="#633001"></path>
                        </g>
                    </g>
                    <g id="编组" opacity="0.200000003" transform="translate(278.000000, 18.000000)">
                        <g transform="translate(0.000000, 0.000000)" stroke="#24C7D6" stroke-width="1.05172414">
                            <path d="M8.97674391,36.3722713 C9.55822363,36.8826617 10.1883036,37.3478541 10.8659498,37.7619379 C18.5465144,42.4524537 29.4615815,38.8091422 35.2463913,29.6242006 C41.0308563,20.439259 39.4946055,9.19085209 31.8147303,4.50033628 C31.2594465,4.16135081 30.4415144,3.7215389 29.8562432,3.46842975" id="Stroke-1" stroke-linecap="round" stroke-linejoin="round"></path>
                            <path d="M3.67655803,10.2947974 C-2.10790706,19.479739 -0.571656259,30.7281459 7.10856368,35.4186617 C14.7884389,40.1095252 25.7038507,36.4662137 31.4883158,27.2812722 C37.2734702,18.0963306 35.7368747,6.84792362 28.0566548,2.15706013 C20.3767796,-2.53345569 9.46136779,1.1098558 3.67655803,10.2947974 Z" id="Stroke-3"></path>
                        </g>
                        <g transform="translate(1.000000, 2.000000)">
                            <mask id="mask-6" fill="white">
                                <use xlink:href="#path-5"></use>
                            </mask>
                            <g id="Clip-6"></g>
                            <path d="M3.28757895,9.06193633 C-1.99982577,17.1348979 -0.595519419,27.0212089 6.42388675,31.1441133 L6.42388675,31.1441133 C13.4436472,35.2666741 23.4201031,32.0647052 28.7075078,23.9917436 L28.7075078,23.9917436 C33.994204,15.918782 32.5902519,6.03247098 25.5704915,1.90956658 L25.5704915,1.90956658 C23.4923731,0.688983441 21.1542243,0.110306077 18.7558505,0.110306077 L18.7558505,0.110306077 C13.0539557,0.109962445 7.00913249,3.37928337 3.28757895,9.06193633" id="Fill-5" fill="#24C7D6" mask="url(#mask-6)"></path>
                        </g>
                        <g transform="translate(4.000000, 1.000000)">
                            <path d="M20.3737308,1.67187174 L20.3737308,1.67187174 C20.4649363,1.68853596 20.5524397,1.62708668 20.5689308,1.53508634 L20.8072094,0.20056073 C20.8237004,0.108560395 20.7627846,0.0203789421 20.6712425,0.0037147305 C20.5797004,-0.01260231 20.4925335,0.0484997991 20.4760425,0.140847305 L20.2377639,1.47502574 C20.2212728,1.56737325 20.2825252,1.65520753 20.3737308,1.67187174" id="Fill-7" fill="#24C7D6"></path>
                            <path d="M1.67767669,10.1558649 L1.67767669,10.1558649 C1.73320772,10.0808759 1.71738979,9.97464158 1.64267531,9.91874704 L0.562680828,9.10983843 C0.488302897,9.05394389 0.382625655,9.06956659 0.327094621,9.14455554 C0.271900138,9.21954449 0.287381517,9.32577884 0.362096,9.38167338 L1.44209048,10.1909292 C1.51646841,10.2464765 1.62214566,10.2308538 1.67767669,10.1558649" id="Fill-9" fill="#24C7D6"></path>
                            <path d="M2.52925352,32.6262002 L2.52925352,32.6262002 C2.4373749,32.6137021 2.35424662,32.6661249 2.34415007,32.7428497 L2.08938041,33.7152759 C2.07928386,33.7923479 2.1459211,33.8645595 2.23813628,33.8770576 C2.3300149,33.8892086 2.41280662,33.8367858 2.42323972,33.760061 L2.67767283,32.7876348 C2.68810593,32.71091 2.62146869,32.6383512 2.52925352,32.6262002" id="Fill-11" fill="#24C7D6"></path>
                            <path d="M2.15093572,32.0468064 L2.15093572,32.0468064 C2.06040331,32.0252818 1.9698709,32.0815235 1.94833159,32.1724824 L1.69019641,33.2424636 C1.66832055,33.3334224 1.72452469,33.4247284 1.8150571,33.446253 C1.90558952,33.4677776 1.99612193,33.4115359 2.01766124,33.3205771 L2.27613297,32.2505958 C2.29767228,32.159637 2.24180469,32.068331 2.15093572,32.0468064" id="Fill-13" fill="#24C7D6"></path>
                            <path d="M29.8408634,9.45239213 L29.8408634,9.45239213 C29.8657683,9.54265661 29.9589931,9.59507944 30.0481793,9.56973596 L31.6249241,9.1107758 C31.7144469,9.08543231 31.766949,8.99169612 31.741371,8.90177881 C31.7164662,8.81151433 31.6235779,8.7590915 31.5340552,8.78443498 L29.9576469,9.24339515 C29.8681241,9.26873863 29.8159586,9.36247482 29.8408634,9.45239213" id="Fill-15" fill="#24C7D6"></path>
                            <path d="M29.4481076,8.34220847 L29.4481076,8.34220847 C29.473349,8.43247295 29.5662372,8.48489578 29.6554234,8.45955229 L30.9518207,8.09398115 C31.0413434,8.06863766 31.0938455,7.97490147 31.0682676,7.88498416 C31.0433628,7.79471969 30.9504745,7.74194968 30.8609517,7.76729317 L29.564891,8.13321148 C29.4753683,8.15855497 29.4232028,8.25229116 29.4481076,8.34220847" id="Fill-17" fill="#24C7D6"></path>
                            <path d="M28.1466284,25.2295122 L30.4213815,26.5216829 C30.5024905,26.5675095 30.6051388,26.5383471 30.6499001,26.4564148 C30.6953346,26.3744824 30.6663912,26.2713726 30.5852822,26.2258932 L28.3105291,24.9333753 C28.2294201,24.8878958 28.1267719,24.9170582 28.0820105,24.9989906 C28.036576,25.0805758 28.0655194,25.1840328 28.1466284,25.2295122" id="Fill-19" fill="#24C7D6"></path>
                            <path d="M27.3151101,26.8116055 L28.7111266,27.6194726 C28.7925721,27.664952 28.8948839,27.6357896 28.9403183,27.5542044 C28.9857528,27.472272 28.9564728,27.3691622 28.8753639,27.3236828 L27.4790108,26.5154686 C27.3979018,26.4699892 27.2952535,26.4994987 27.2504921,26.5810839 C27.2050577,26.6630163 27.2340011,26.7661261 27.3151101,26.8116055" id="Fill-21" fill="#24C7D6"></path>
                            <path d="M26.4845677,28.1389099 L28.0724188,29.0457208 C28.1535277,29.0912002 28.256176,29.0620378 28.3012739,28.9801055 C28.3467084,28.8985203 28.3174284,28.7954104 28.2363194,28.7495839 L26.6481319,27.842773 C26.5670229,27.7972936 26.4647112,27.8268031 26.4196132,27.9083883 C26.3741788,27.9899736 26.4034588,28.0934305 26.4845677,28.1389099" id="Fill-23" fill="#24C7D6"></path>
                            <path d="M5.84610538,15.0881591 C6.93552331,13.5061005 8.71386262,12.7683619 10.5702819,12.7027466 C12.4943481,12.6347011 14.6314516,13.2721072 16.5551812,14.5896214 C18.4789109,15.9071356 19.8776199,17.6915949 20.5635123,19.5475715 C21.2255095,21.3375856 21.2564723,23.3147248 20.2660006,24.9644818 L20.2680199,24.9658705 L19.6659288,25.9008022 C18.5862709,27.5783328 16.7594681,28.3573847 14.8498737,28.4250831 C12.9254709,28.4931286 10.788704,27.8553753 8.86497434,26.5378611 C6.94090814,25.2203469 5.54219917,23.4358875 4.85630676,21.5802582 C4.17546262,19.7385156 4.1623371,17.6992327 5.24199503,16.0213549 L5.84374952,15.0867704 L5.84610538,15.0881591 Z M6.39333848,15.4631038 C6.36170262,15.5082361 6.33073986,15.5544098 6.30078676,15.6012779 C6.18669572,15.7783352 6.08707641,15.9616415 6.00091917,16.1508497 L5.96356193,16.1251591 L5.78889159,16.3962997 C5.703744,16.5282247 5.62667366,16.6643157 5.557344,16.8035313 C4.20036745,19.5191035 5.79057434,23.4758122 9.29205848,25.87407 C12.7938792,28.2723278 16.9455812,28.248373 18.8454157,25.9049682 C18.9426792,25.784847 19.0342212,25.6584768 19.1190323,25.5262046 L19.2937026,25.2554111 L19.2563454,25.2297205 C19.3919757,25.074535 19.517173,24.9085872 19.6309274,24.73153 C19.6612171,24.6846619 19.6904971,24.6370995 19.7184309,24.589537 C21.3224364,21.872229 19.745355,17.7311724 16.1280971,15.2537597 C12.5105026,12.7759997 8.19860193,12.8832756 6.39333848,15.4631038 L6.39333848,15.4631038 Z" id="Fill-25" fill="#606063"></path>
                            <path d="M19.1192006,25.5263435 C17.3731702,28.2394854 12.973093,28.3953652 9.29189021,25.8738617 C5.61068745,23.3527054 4.04235641,19.1095805 5.78905986,16.3964385 L6.28951228,15.6184282 L19.619653,24.7486802 L19.1192006,25.5263435 Z" id="Fill-27" fill="#BEBEBE"></path>
                            <path d="M19.6309274,24.7314606 C17.8845606,27.4446025 13.4844833,27.6001352 9.8036171,25.0789788 C6.12241434,22.5578225 4.55408331,18.3146976 6.30078676,15.6012085 C8.0468171,12.8880665 12.4465578,12.7321867 16.1277606,15.2536902 C19.8089633,17.7748466 21.3772943,22.0183186 19.6309274,24.7314606" id="Fill-29" fill="#FAF9FA"></path>
                            <path d="M7.67250428,14.5412952 L7.67250428,14.5412952 L7.05998014,15.4928911 C6.19672497,16.834013 6.21489876,18.4410679 6.73386152,19.8575258 C7.257536,21.2875235 8.32474152,22.65017 9.78672221,23.6514113 C11.2487029,24.6526527 12.8806422,25.1386922 14.3614698,25.0817562 C15.8281622,25.0251673 17.271296,24.4190066 18.1342146,23.0778847 L18.7275553,22.1561455 C18.7319305,22.1492021 18.7366422,22.1426059 18.7410174,22.1356624 C19.6042726,20.7941934 19.5857622,19.1871385 19.067136,17.7706805 C18.5437981,16.34103 17.4759194,14.9780364 16.0139388,13.9771422 C14.5519581,12.9755536 12.9203553,12.4895141 11.4395277,12.5464502 C9.97620083,12.6030391 8.53643255,13.2064224 7.67250428,14.5412952 M8.21940083,14.9158928 C8.21738152,14.9186701 8.21536221,14.9221418 8.2133429,14.9249192 C8.06963531,15.1484974 7.95554428,15.3856152 7.86972359,15.6331482 L7.79198014,15.5796839 L7.60687669,15.8674887 C7.52509462,15.9945533 7.45307255,16.125784 7.39013738,16.2611807 C6.44207117,18.3028938 7.62942566,21.2170478 10.2141429,22.9876203 C12.7988601,24.7578456 15.8635001,24.7557625 17.3197594,23.0619149 C17.4163498,22.9497786 17.5058726,22.8300046 17.5873181,22.7032871 L17.7727581,22.4154823 L17.6946781,22.3623651 C17.8774257,22.189474 18.0413263,21.9950582 18.1823415,21.7791177 L18.1941208,21.7607177 L18.1998422,21.7516912 C19.5066726,19.7065064 18.3385015,16.525725 15.5868546,14.6409333 C12.8348712,12.7557943 9.53935669,12.8800816 8.21940083,14.9158928" id="Fill-31" fill="#633001"></path>
                            <path d="M17.5873181,22.703183 C16.2714008,24.7480206 12.970165,24.8750852 10.2141429,22.9875161 C7.45812083,21.099947 6.29095945,17.9122222 7.60687669,15.8673845 L8.1658891,14.9987625 L18.1463305,21.834561 L17.5873181,22.703183 Z" id="Fill-33" fill="#FEDC90"></path>
                            <path d="M18.1940199,21.7608565 C16.8781026,23.8056942 13.5768668,23.9327588 10.8208447,22.0451897 C8.06448607,20.1572734 6.89732469,16.9695485 8.21357848,14.9250581 C9.52949572,12.8802205 12.830395,12.7531558 15.5867537,14.640725 C18.3424392,16.5282941 19.5099371,19.7160189 18.1940199,21.7608565" id="Fill-35" fill="#D1884F"></path>
                            <path d="M20.3733942,21.7416927 C19.057477,23.7861832 15.7559046,23.9135949 13.000219,22.0260258 C10.2438604,20.1381095 9.07669903,16.9503847 10.3929528,14.9058942 L10.9519652,14.0372722 L20.9324066,20.8730707 L20.3733942,21.7416927 Z" id="Fill-37" fill="#FEDC90"></path>
                            <path d="M20.9797594,20.799158 C19.6638422,22.8439956 16.3626063,22.9710602 13.6065843,21.0834911 C10.8505622,19.1959219 9.68340083,16.0081971 10.9993181,13.9633595 C12.3152353,11.9185219 15.6161346,11.7914572 18.3724932,13.6790264 C21.1285153,15.5665955 22.2960132,18.7546675 20.9797594,20.799158" id="Fill-39" fill="#D1884F"></path>
                            <path d="M10.2364226,10.5577848 L10.2364226,10.5577848 L9.62389848,11.5093807 C8.76064331,12.8505026 8.7788171,14.4575575 9.29777986,15.8740155 C9.82145434,17.3040132 10.8886599,18.6666596 12.3506406,19.667901 C13.8126212,20.6691424 15.4448971,21.1555291 16.9253881,21.0982458 C18.3920806,21.0416569 19.8352143,20.4354963 20.6984695,19.0943744 L21.2918102,18.1726352 C21.2958488,18.1660389 21.3005606,18.1590955 21.3049357,18.1521521 C22.1681909,16.8110302 22.1496806,15.2039753 21.6310543,13.7875173 C21.1077164,12.3575197 20.0398378,10.994526 18.5778571,9.99363184 C17.1158764,8.99204329 15.4842737,8.50600378 14.0034461,8.56293984 C12.5401192,8.61952872 11.1003509,9.22291205 10.2364226,10.5577848 M10.7833192,10.9323824 L10.7772612,10.9414089 C10.6338902,11.164987 10.5194626,11.4021049 10.4339785,11.6496379 L10.3558985,11.5961735 L10.170795,11.8839783 C10.0893495,12.011043 10.0169909,12.1422736 9.95405572,12.2776703 C9.00598952,14.3193834 10.193344,17.2335374 12.7783978,19.0041099 C15.3627785,20.7743352 18.4274185,20.7725994 19.8836778,19.0784045 C19.9802681,18.9662683 20.0697909,18.8468414 20.151573,18.7197768 L20.3366764,18.431972 L20.258933,18.3788548 C20.4416806,18.2063108 20.6052447,18.011895 20.7462599,17.7956074 C20.7499619,17.7897055 20.7540006,17.7834564 20.7580392,17.7775545 C20.7600585,17.77443 20.7617412,17.7713054 20.7637606,17.7681809 C22.0705909,15.7229961 20.9024199,12.5422147 18.150773,10.6574229 C15.3987895,8.772284 12.1036116,8.89657124 10.7833192,10.9323824" id="Fill-41" fill="#633001"></path>
                            <path d="M20.1512028,18.719881 C18.8352855,20.7643714 15.5340497,20.8917832 12.7780276,19.0042141 C10.0220055,17.1162978 8.85484414,13.9285729 10.1707614,11.8840825 L10.7297738,11.0154605 L20.7105517,17.8512589 L20.1512028,18.719881 Z" id="Fill-43" fill="#FEDC90"></path>
                            <path d="M20.7579382,17.7773462 C19.442021,19.8221838 16.1407851,19.9492484 13.384763,18.0616793 C10.6284044,16.1741102 9.46124303,12.9863854 10.7774968,10.9415477 C12.0934141,8.89671011 15.3943134,8.7696455 18.150672,10.6572146 C20.9063575,12.5451309 22.0738554,15.7328557 20.7579382,17.7773462" id="Fill-45" fill="#D1884F"></path>
                        </g>
                        <g transform="translate(13.000000, 12.000000)">
                            <mask id="mask-8" fill="white">
                                <use xlink:href="#path-7"></use>
                            </mask>
                            <g id="Clip-48"></g>
                            <path d="M2.86773621,1.07608908 C2.45598621,1.67947198 2.46986897,2.46690661 2.82640345,3.22059842 L2.82640345,3.22059842 L1.8410431,3.78011566 L0.406701724,5.87983908 C0.217075862,6.15775718 0.259986207,6.50990948 0.502618966,6.66635345 L0.502618966,6.66635345 C0.745567241,6.82341092 1.09579138,6.72494325 1.28541724,6.44763865 L1.28541724,6.44763865 L2.42632759,4.77736925 L3.48615,4.17552011 C3.72657414,4.43135201 4.00990862,4.66877874 4.33173621,4.87645043 L4.33173621,4.87645043 C5.88755172,5.88075934 7.75478276,5.8074454 8.5022431,4.7132579 L8.5022431,4.7132579 C9.24970345,3.61876365 8.59405862,1.91751221 7.0382431,0.913203305 L7.0382431,0.913203305 C6.30435,0.439270115 5.50072759,0.205217672 4.7781931,0.205217672 L4.7781931,0.205217672 C3.96952241,0.205217672 3.26276379,0.498166667 2.86773621,1.07608908" id="Fill-47" mask="url(#mask-8)"></path>
                        </g>
                        <g transform="translate(13.000000, 11.000000)">
                            <path d="M1.89068448,4.70256688 L0.303983333,6.92761623 C-0.121614368,7.52459661 -0.0252063218,8.28183799 0.519937356,8.61900624 C1.06473046,8.9555217 1.85177069,8.74466914 2.27771897,8.14768876 L3.44057529,6.51700862 L4.05127644,6.18473633 C4.27108678,6.37469946 4.51263276,6.55225951 4.77416149,6.7141525 C5.7154546,7.29611861 6.77419023,7.58171611 7.74668448,7.54515963 C8.70690862,7.50925595 9.69482816,7.14532313 10.2960638,6.3025657 C10.8969489,5.45948187 10.8738109,4.47082491 10.5369086,3.63263704 C10.1954489,2.78400446 9.50201207,1.98661623 8.56036839,1.40465012 C7.61942586,0.822684007 6.56033966,0.537086504 5.58819598,0.573642985 C4.62762126,0.609546671 3.63970172,0.973479489 3.03846609,1.81623692 C2.51120172,2.55617925 2.46352356,3.40415904 2.68929368,4.17282432 L2.16728793,4.45711623 C2.11820747,4.48257521 2.07158103,4.51423573 2.02810977,4.55111861 C1.97482241,4.59583502 1.92889713,4.64740577 1.89068448,4.70256688 L1.89068448,4.70256688 Z M3.49070747,4.40587188 C3.44688563,4.31709185 3.40797184,4.22798543 3.37326494,4.13855262 C3.09736264,3.42080529 3.13031667,2.69522444 3.53698333,2.12435583 C4.36749483,0.959770809 6.44219598,0.882088288 8.17087989,1.95071254 C9.89991437,3.0193368 10.628058,4.82986177 9.79754655,5.99444679 C8.96703506,7.15870541 6.89233391,7.23671433 5.16365,6.16809007 C4.80606379,5.9471192 4.4912477,5.69416141 4.22410977,5.4219462 L3.04652931,6.06266379 L1.77920172,7.83956986 C1.56815575,8.13495927 1.17901782,8.23940636 0.909075287,8.07261742 C0.639833908,7.90582848 0.591805172,7.53145095 0.802500575,7.23573514 L2.39586264,5.00154667 L3.49070747,4.40587188 Z" id="Fill-49" fill="#633001"></path>
                            <path d="M5.14857529,1.84039031 C4.71806954,2.44389863 5.0707477,3.36629697 5.93631667,3.90126189 C6.80153506,4.43622681 7.85150632,4.3807393 8.28201207,3.77723098 C8.71181667,3.17404905 8.35913851,2.25132432 7.49392011,1.71668579 C6.6290523,1.18172087 5.57908103,1.23720838 5.14857529,1.84039031" id="Fill-51" fill="#9E7200"></path>
                            <polygon id="Fill-53" fill="#9E7200" points="5.48235747 1.37230416 8.61579425 3.30914483 8.28169655 3.77752473 5.14861034 1.84068407"></polygon>
                            <path d="M5.48235747,1.37230416 C5.0522023,1.97548609 5.40452989,2.89821082 6.27009885,3.43284935 C7.13531724,3.96781427 8.18528851,3.91232675 8.61579425,3.30914483 C9.04594943,2.7059629 8.69327126,1.78323817 7.8277023,1.24859964 C6.96283448,0.713634721 5.91286322,0.769122235 5.48235747,1.37230416" id="Fill-55" fill="#F0B90B"></path>
                            <path d="M6.54845517,1.84166326 L7.20963908,1.80673876 C7.34916782,1.79923163 7.46836322,1.87299738 7.51534023,1.99572271 L7.7376046,2.57670963 C7.78177701,2.69225422 7.68116207,2.83293139 7.54934598,2.84011213 L6.88851264,2.87503662 C6.74863333,2.88221736 6.62943793,2.80845161 6.58281149,2.68572628 L6.3608977,2.10506576 C6.31637471,1.98919477 6.41663908,1.8485176 6.54845517,1.84166326" id="Fill-57" fill="#9E7200"></path>
                            <path d="M7.82784253,1.24846908 C6.96262414,0.713504162 5.91265287,0.768991677 5.4824977,1.3721736 L5.1484,1.84055351 C4.71824483,2.44373543 5.07092299,3.36646017 5.93614138,3.90109869 C6.80135977,4.43606361 7.85133103,4.3805761 8.28183678,3.77739417 L8.61558391,3.30901427 C9.04608966,2.70583234 8.69341149,1.78343401 7.82784253,1.24846908 M6.5528023,0.257200951 C7.11442299,0.227825208 7.70444023,0.385148633 8.21733103,0.702406659 C8.73022184,1.01933829 9.11515287,1.464544 9.30376207,1.95773008 C9.48921609,2.44340904 9.5084977,3.06421641 9.11410115,3.61745957 L8.78035402,4.08551308 C8.38595747,4.63842985 7.76368736,4.86299108 7.21118161,4.89236683 C6.64991149,4.92174257 6.05954368,4.76409275 5.54665287,4.44748751 C5.03376207,4.13055589 4.64918161,3.68502378 4.46057241,3.19183769 C4.27476782,2.70615874 4.25583678,2.08535137 4.65023333,1.5324346 L4.98398046,1.06438109 C5.37837701,0.511137931 6.00029655,0.286576694 6.5528023,0.257200951" id="Fill-59" fill="#633001"></path>
                        </g>
                    </g>
                    <g id="编组" transform="translate(151.000000, 0.000000)">
                        <path d="M14,54.7041586 C14.8988875,55.4899191 15.8715515,56.2074267 16.9188402,56.8455905 C28.7850026,64.073563 45.6484704,58.4589163 54.5856165,44.3058432 C63.5227626,30.1519169 61.1500389,12.8182629 49.2838765,5.59029045 C48.4273894,5.06815646 47.1621629,4.38989417 46.2581874,4" id="Stroke-1" stroke="#F6931B" stroke-width="0.808219178" stroke-linecap="round" stroke-linejoin="round"></path>
                        <path d="M5.43425115,15.5404278 C-3.53661689,29.5555709 -1.15323797,46.7192637 10.756847,53.8763639 C22.666932,61.0334642 39.5940296,55.4747154 48.5657489,41.4595722 C57.5366169,27.4444291 55.153238,10.2807363 43.243153,3.12363607 C31.333068,-4.03346416 14.4051192,1.5252846 5.43425115,15.5404278 Z" id="Stroke-3" stroke="#F6931B" stroke-width="0.808219178"></path>
                        <path d="M7.83061135,16.9049217 C-0.143410385,29.444747 1.9743169,44.8014219 12.5621025,51.2052071 C23.1481864,57.6089924 38.195196,52.6348815 46.1692178,40.0959062 C54.1440903,27.5560809 52.0246614,12.198556 41.4385775,5.79477078 C30.8516427,-0.609014476 15.8046331,4.3650964 7.83061135,16.9049217" id="Fill-5" fill="#F6931B"></path>
                        <path d="M38.2407287,2.99514717 L38.2407287,2.99514717 C38.4002085,3.02488162 38.5522273,2.91486416 38.5802062,2.75033355 L38.9952268,0.357701614 C39.0241384,0.192179853 38.9187511,0.0345872771 38.7592713,0.00485282888 C38.5997915,-0.0248816193 38.4477727,0.0851358391 38.4179285,0.249666453 L38.0047732,2.64229839 C37.9758616,2.80782015 38.0812489,2.96541272 38.2407287,2.99514717" id="Fill-7" fill="#F6931B"></path>
                        <path d="M7.95298989,15.8809089 L7.95298989,15.8809089 C8.03165575,15.7499044 8.00896368,15.5649569 7.90458013,15.4676668 L6.37967271,14.0584052 C6.27377636,13.9611151 6.12552147,13.9880867 6.04685562,14.1190911 C5.96894616,14.2500956 5.99012543,14.4350431 6.09602178,14.5323332 L7.6209292,15.9415948 C7.72531274,16.0388849 7.87432403,16.0119133 7.95298989,15.8809089" id="Fill-9" fill="#F6931B"></path>
                        <path d="M9.74662887,50.002792 L9.74662887,50.002792 C9.59038517,49.9833968 9.45049255,50.0671489 9.43232467,50.1888097 L9.00174609,51.7395451 C8.98448661,51.8620876 9.09712742,51.9775773 9.25337113,51.9969725 C9.40961483,52.0172493 9.54950745,51.9334972 9.56676693,51.8109547 L9.99825391,50.2602194 C10.0155134,50.1376769 9.90287258,50.0221872 9.74662887,50.002792" id="Fill-11" fill="#F6931B"></path>
                        <path d="M8.78311732,50.0065233 L8.78311732,50.0065233 C8.630752,49.9759071 8.4774851,50.0559801 8.44232387,50.1855099 L8.00776716,51.7045415 C7.97170436,51.8332863 8.06456606,51.9636012 8.21693139,51.9934323 C8.36929671,52.0240484 8.52166203,51.9447605 8.55772483,51.8152307 L8.99228155,50.2961991 C9.02834435,50.1666692 8.93458107,50.0371394 8.78311732,50.0065233" id="Fill-13" fill="#F6931B"></path>
                        <path d="M53.0098909,14.8450693 L53.0098909,14.8450693 C53.0493807,14.9580137 53.1955769,15.0238402 53.3358916,14.9919663 L55.8069437,14.4168508 C55.9472585,14.3849769 56.0295989,14.267875 55.9901091,14.1549307 C55.9506193,14.0419863 55.8044231,13.9761598 55.6641084,14.0080337 L53.1930563,14.5831492 C53.0527415,14.6150231 52.9704011,14.732125 53.0098909,14.8450693" id="Fill-15" fill="#F6931B"></path>
                        <path d="M52.0115918,12.8245999 L52.0115918,12.8245999 C52.0578726,12.9524665 52.2282253,13.02699 52.3926697,12.9909049 L54.774653,12.471594 C54.9390975,12.4362934 55.0346132,12.3029356 54.9883324,12.175069 C54.9430363,12.0479869 54.7716989,11.9734634 54.6072544,12.008764 L52.2262559,12.5280749 C52.0618114,12.5633755 51.965311,12.6967333 52.0115918,12.8245999" id="Fill-17" fill="#F6931B"></path>
                        <path d="M50.1322099,38.5838183 L53.6165621,40.9607978 C53.7413551,41.044165 53.8981674,40.9902813 53.9671319,40.8398139 C54.0369175,40.6893464 53.9917621,40.5002454 53.8677901,40.4158616 L50.3834379,38.0398987 C50.2586449,37.9555149 50.1018326,38.0093986 50.0328681,38.159866 C49.9630825,38.3103335 50.0082379,38.4994345 50.1322099,38.5838183" id="Fill-19" fill="#F6931B"></path>
                        <path d="M49.1490241,41.5540188 L51.5664084,42.9627879 C51.7074612,43.0418564 51.8847051,42.9907512 51.9626553,42.8490064 C52.0415335,42.7062974 51.9914227,42.5259827 51.8503699,42.44595 L49.4339135,41.0371808 C49.2928608,40.9581123 49.1156168,41.0092175 49.0367387,41.1519265 C48.9587884,41.2936713 49.0088993,41.473986 49.1490241,41.5540188" id="Fill-21" fill="#F6931B"></path>
                        <path d="M47.1345168,43.5096492 L49.6096073,44.9651701 C49.7357425,45.0388336 49.8961263,44.9917954 49.9671296,44.8604436 C50.0372975,44.7290917 49.9913542,44.5631268 49.865219,44.4903508 L47.3901286,43.0348299 C47.263158,42.9611664 47.1036095,43.0082046 47.0334416,43.1395564 C46.9624383,43.2709083 47.0083816,43.4359857 47.1345168,43.5096492" id="Fill-23" fill="#F6931B"></path>
                        <g transform="translate(26.112717, 28.463155) rotate(12.000000) translate(-26.112717, -28.463155) translate(14.612717, 14.463155)">
                            <mask id="mask-10" fill="white">
                                <use xlink:href="#path-9"></use>
                            </mask>
                            <g id="Clip-2"></g>
                            <path d="M18.6517488,13.5284488 C18.0546385,14.2635025 17.0756463,14.5673316 16.1686572,14.2991857 L10.1638698,12.5038601 L11.5022527,8.00490382 L17.5070401,9.77925767 C18.108003,9.9608561 18.6102546,10.3777865 18.9002453,10.9355195 C19.3466854,11.7710497 19.2486508,12.7933951 18.6517488,13.5284488 M16.8735378,20.1522267 C16.503318,21.3952969 15.1980992,22.1028578 13.9571261,21.733192 L7.95239075,19.9419356 L9.29098192,15.4387015 L15.2957173,17.2340792 C16.5342434,17.6052057 17.2397488,18.9099912 16.8735378,20.1522267 M18.3798238,6.8780128 L17.5826356,6.64262869 L18.6946487,2.90037599 L15.8411811,2.05936816 L14.7291159,5.80162086 L12.2953801,5.07413161 L13.4074452,1.33203541 L12.723546,1.13009128 L9.95400392,0.289292124 L8.87978854,3.89684585 L5.52271581,2.88775122 L4.57032779,6.09590317 L7.92719227,7.10092866 L4.46109967,18.7689276 L1.10428725,17.759833 L0.151690981,20.967985 L3.50855546,21.9728018 L2.6147383,24.9918952 L3.2988458,25.1979085 L6.06838785,26.0387076 L7.01244579,22.860083 L9.45466792,23.5916936 L8.51045379,26.770266 L11.3513221,27.611326 L12.28705,24.4493953 L13.0842383,24.6891094 C13.5868022,24.8388329 14.1084211,24.9154684 14.6327994,24.9160423 C16.5521531,24.9148424 18.3265634,23.8918709 19.2924357,22.2297836 C20.2583601,20.5678007 20.2703867,18.5164844 19.32409,16.8431809 C20.6220721,16.1683296 21.5921094,14.9958955 22.0136634,13.5928768 L22.0136634,13.6055016 C22.8605197,10.7425484 21.2349574,7.73326263 18.3798238,6.8780128" id="Fill-1" fill="#FFFFFF" mask="url(#mask-10)"></path>
                        </g>
                    </g>
                    <g id="编组" transform="translate(115.000000, 187.000000)">
                        <path d="M55.1679969,68.1748602 C54.0951708,69.1312267 52.9324379,70.0023447 51.6821273,70.7784317 C37.5117857,79.5664752 17.3717236,72.7405435 6.69843168,55.5310714 C-3.97439441,38.3225311 -1.13976708,17.2470652 13.0305745,8.4585559 C14.0540217,7.82361801 15.5638043,6.99908385 16.6440839,6.52532609" id="Stroke-1" stroke="#F3BA2F" stroke-width="0.5" stroke-linecap="round" stroke-linejoin="round"></path>
                        <path d="M64.946972,19.3150621 C75.620264,36.5240683 72.7851708,57.5995342 58.615295,66.3880435 C44.4449534,75.1765528 24.3053571,68.3506211 13.6320652,51.1411491 C2.95877329,33.9321429 5.79386646,12.8571429 19.9642081,4.06863354 C34.1340839,-4.72034161 54.2736801,2.1060559 64.946972,19.3150621 Z" id="Stroke-3" stroke="#F3BA2F" stroke-width="0.5"></path>
                        <path d="M62.0136335,21.7648137 C71.5050932,37.0685404 68.9839752,55.8101553 56.3825776,63.625528 C43.781646,71.4413665 25.8720186,65.370559 16.380559,50.0672981 C6.88909938,34.7631056 9.40975155,16.0219565 22.0111491,8.20658385 C34.6125466,0.390745342 52.5221739,6.46108696 62.0136335,21.7648137" id="Fill-5" fill="#F3BA2F"></path>
                        <path d="M26.9556522,4.45145963 L26.7884161,4.48127329 C26.6617081,4.50409938 26.5405901,4.42024845 26.5182298,4.29354037 L26.0379503,1.62242236 C26.0151242,1.49571429 26.099441,1.37459627 26.2261491,1.35177019 L26.3933851,1.32149068 C26.5196273,1.2986646 26.6407453,1.38298137 26.6635714,1.51015528 L27.1438509,4.18080745 C27.166677,4.30751553 27.0823602,4.42863354 26.9556522,4.45145963" id="Fill-7" fill="#F3BA2F"></path>
                        <path d="M62.2520031,20.4537112 L62.1499845,20.3172205 C62.073587,20.2138043 62.0950155,20.0679969 62.1984317,19.9915994 L64.3762267,18.371413 C64.479177,18.2950155 64.6254503,18.3164441 64.7018478,18.4198602 L64.8034006,18.5563509 C64.880264,18.6593012 64.8588354,18.8051087 64.7554193,18.881972 L62.5776242,20.5016925 C62.4746739,20.5785559 62.3284006,20.5571273 62.2520031,20.4537112" id="Fill-9" fill="#F3BA2F"></path>
                        <path d="M60.5915683,62.5479503 L60.5915683,62.5479503 C60.7657919,62.5246584 60.9223137,62.6229503 60.941413,62.7673602 L61.4226242,64.5915839 C61.4417236,64.735528 61.316413,64.871087 61.1421894,64.8943789 C60.9684317,64.9176708 60.8114441,64.8193789 60.7923447,64.6749689 L60.3106677,62.8507453 C60.2915683,62.7068012 60.4173447,62.5707764 60.5915683,62.5479503" id="Fill-11" fill="#F3BA2F"></path>
                        <path d="M61.3062112,61.4606832 L61.3062112,61.4606832 C61.4771739,61.4201553 61.6486025,61.5259006 61.6891304,61.6968634 L62.1773292,63.7036957 C62.2178571,63.8751242 62.1121118,64.046087 61.9411491,64.0866149 C61.7706522,64.1271429 61.5992236,64.0213975 61.5586957,63.8504348 L61.0700311,61.8431366 C61.0295031,61.6721739 61.1357143,61.5012112 61.3062112,61.4606832" id="Fill-13" fill="#F3BA2F"></path>
                        <path d="M8.98220497,19.0652795 L8.98220497,19.0652795 C8.93468944,19.2343789 8.75906832,19.3331366 8.58996894,19.286087 L5.61093168,18.4242857 C5.4418323,18.3767702 5.34307453,18.2016149 5.39059006,18.0320497 C5.43810559,17.8629503 5.61372671,17.7641925 5.78282609,17.8121739 L8.76186335,18.6735093 C8.93096273,18.7210248 9.0297205,18.896646 8.98220497,19.0652795" id="Fill-15" fill="#F3BA2F"></path>
                        <path d="M9.74734472,16.9008075 L9.70122671,17.0647826 C9.66628882,17.1882298 9.53818323,17.2604348 9.41427019,17.2254969 L6.80091615,16.4931988 C6.67700311,16.4587267 6.60479814,16.3296894 6.63927019,16.2062422 L6.6853882,16.0422671 C6.72032609,15.9188199 6.84843168,15.8461491 6.97234472,15.881087 L9.58569876,16.6133851 C9.7096118,16.648323 9.78181677,16.7764286 9.74734472,16.9008075" id="Fill-17" fill="#F3BA2F"></path>
                        <path d="M12.1834472,48.6688043 L7.88515528,51.0939596 C7.73189441,51.1796739 7.53857143,51.1242391 7.45332298,50.9709783 C7.36714286,50.8177174 7.4221118,50.6239286 7.57537267,50.5386801 L11.8736646,48.1135248 C12.0273913,48.0278106 12.2207143,48.0827795 12.3064286,48.2360404 C12.391677,48.3893012 12.3371739,48.5830901 12.1834472,48.6688043" id="Fill-19" fill="#F3BA2F"></path>
                        <path d="M13.7547671,51.6375932 L11.1167236,53.1534317 C10.9634627,53.239146 10.7696739,53.1837112 10.6839596,53.0304503 C10.5987112,52.8771894 10.6536801,52.6834006 10.806941,52.5981522 L13.4449845,51.0823137 C13.5982453,50.9965994 13.7920342,51.0515683 13.8777484,51.2048292 C13.9629969,51.3580901 13.908028,51.5518789 13.7547671,51.6375932" id="Fill-21" fill="#F3BA2F"></path>
                        <path d="M15.3246894,54.1278261 L12.3242236,55.8295342 C12.1704969,55.9152484 11.9767081,55.8602795 11.8914596,55.7070186 C11.8057453,55.5537578 11.8607143,55.3599689 12.014441,55.2742547 L15.0149068,53.5730124 C15.1681677,53.4868323 15.3619565,53.5418012 15.4476708,53.6950621 C15.5329193,53.8487888 15.4779503,54.0421118 15.3246894,54.1278261" id="Fill-23" fill="#F3BA2F"></path>
                        <path d="M39.9038666,19.1341496 L30.4052556,28.6359642 L33.8990705,32.1310686 L39.9038666,26.1243583 L45.9113803,32.1341496 L49.4052556,28.6389848 L39.9038666,19.1341496 Z M36.7305596,34.1869854 L36.4330562,34.4845002 L35.8214254,35.0979456 L35.8153478,35.1026538 L35.8214254,35.1086733 L39.3162118,38.602624 L42.8153478,35.1026538 L42.8153478,35.0993759 L42.8120707,35.0993759 L39.3162118,31.602624 L36.7305596,34.1869854 Z M48.814587,34.9621351 L52.3144055,38.4619839 L55.814587,34.9621351 L52.3144055,31.4619839 L48.814587,34.9621351 Z M25.0450829,35.0654448 L28.5450224,38.5652935 L32.0450829,35.0654448 L28.5450224,31.5652935 L25.0450829,35.0654448 Z M40.0280757,43.5281729 L34.0246915,37.5216022 L30.5272305,41.012155 L40.0280757,50.5185212 L49.5272305,41.012155 L46.0341768,37.5185212 L40.0280757,43.5281729 Z" id="Fill-1" fill="#FFFFFF" transform="translate(40.429835, 34.826335) rotate(-25.000000) translate(-40.429835, -34.826335) "></path>
                    </g>
                </g>
            </g>
        </g>
    </g>
</svg>