<?xml version="1.0" encoding="UTF-8"?>
<svg width="16px" height="16px" viewBox="0 0 16 16" version="1.1" xmlns="http://www.w3.org/2000/svg" xmlns:xlink="http://www.w3.org/1999/xlink">
    <title>切片</title>
    <defs>
        <filter id="filter-1">
            <feColorMatrix in="SourceGraphic" type="matrix" values="0 0 0 0 0.513725 0 0 0 0 0.568627 0 0 0 0 0.658824 0 0 0 1.000000 0"></feColorMatrix>
        </filter>
    </defs>
    <g id="页面-1" stroke="none" stroke-width="1" fill="none" fill-rule="evenodd">
        <g id="聚合流动性挖矿" transform="translate(-1462.000000, -429.000000)">
            <g id="列表" transform="translate(530.000000, 420.000000)">
                <g id="搜索" transform="translate(910.000000, 0.000000)">
                    <g id="搜索" transform="translate(22.000000, 9.000000)" filter="url(#filter-1)">
                        <g>
                            <rect id="矩形" fill="#000000" fill-rule="nonzero" opacity="0" x="0" y="0" width="16" height="16"></rect>
                            <path d="M11.3535023,7.21961709 C11.3535023,4.76411392 9.42268342,2.77731697 7.03713283,2.77731697 C4.65158223,2.77731697 2.72076333,4.76411394 2.72076333,7.21961709 C2.72076333,9.668133 4.65158223,11.654914 7.03713283,11.654914 C9.42268342,11.654914 11.3535023,9.668133 11.3535023,7.21961709 Z M13.5081855,14.7470415 L10.8777929,12.0466803 L10.8567991,12.0186993 C9.81443381,12.8931624 8.48523902,13.4178467 7.03711684,13.4178467 C3.70014731,13.4178467 0.999786156,10.6405297 0.999786156,7.21961709 C0.999786156,3.79170122 3.70014731,1.01440023 7.03711684,1.01440023 C10.3670831,1.01440023 13.0744475,3.79171722 13.0744475,7.21961709 C13.0744475,8.51382762 12.6826812,9.71709181 12.025079,10.7104983 L12.1090221,10.7804509 L14.7394147,13.480812 C15.075203,13.8305909 15.075203,14.3972467 14.7394147,14.7470415 C14.3966551,15.0898331 13.850977,15.0898331 13.5081855,14.7470415 Z" id="形状" fill="#000000" fill-rule="nonzero"></path>
                        </g>
                    </g>
                </g>
            </g>
        </g>
    </g>
</svg>