<?xml version="1.0" encoding="UTF-8"?>
<svg width="50px" height="50px" viewBox="0 0 50 50" version="1.1" xmlns="http://www.w3.org/2000/svg" xmlns:xlink="http://www.w3.org/1999/xlink">
    <title>切片</title>
    <g id="页面-1" stroke="none" stroke-width="1" fill="none" fill-rule="evenodd">
        <g id="我的" transform="translate(-564.000000, -150.000000)" fill-rule="nonzero">
            <g id="编组" transform="translate(530.000000, 120.000000)">
                <g id="my/icon-1" transform="translate(34.000000, 30.000000)">
                    <g transform="translate(1.000000, 2.000000)">
                        <path d="M5.33304636,14.6042881 L5.5432947,14.6574834 L5.33304636,14.7106788 C4.09847353,15.0199242 3.13451026,15.9838874 2.8252649,17.2184603 L2.77291391,17.4287086 L2.71971854,17.2184603 C2.41047319,15.9838874 1.44650992,15.0199242 0.211937086,14.7106788 L0.00168874172,14.6574834 L0.211937086,14.6042881 C1.4462885,14.2951867 2.41020152,13.3315982 2.71971854,12.097351 L2.77291391,11.8862583 L2.8252649,12.097351 C3.13478193,13.3315982 4.09869495,14.2951867 5.33304636,14.6042881 L5.33304636,14.6042881 Z" id="路径" fill="#00D188"></path>
                        <path d="M12.7353311,4.93344371 L13.0925,5.02294702 L12.7353311,5.11245033 C10.6468775,5.63650705 9.01643738,7.26759623 8.49321192,9.35625828 L8.40370861,9.71173841 L8.3142053,9.35625828 C7.7910043,7.26727943 6.16011642,5.636067 4.07124172,5.11245033 L3.71491722,5.02294702 L4.07124172,4.93344371 C6.15999047,4.41013957 7.79090115,2.77922889 8.3142053,0.690480132 L8.40370861,0.334155629 L8.49321192,0.690480132 C9.01637207,2.77900747 10.646908,4.4098679 12.7353311,4.93344371 L12.7353311,4.93344371 Z" id="路径" fill="#FFBE1B"></path>
                        <circle id="椭圆形" fill="#FFBE1B" cx="25.5613245" cy="13.9552318" r="10.3401656"></circle>
                        <circle id="椭圆形" fill="#FFE37B" cx="25.5613245" cy="13.9552318" r="6.99476821"></circle>
                        <path d="M26.2628355,14.0937743 L25.8580283,13.9904669 L25.8580283,11.6389105 C26.4636453,11.7299611 26.8381716,12.1466926 26.9019208,12.6579767 C26.9098894,12.7280156 26.9640762,12.7787938 27.0278254,12.7787938 L27.7434096,12.7787938 C27.8183149,12.7787938 27.8772829,12.7070039 27.870908,12.6247082 C27.7736905,11.5338521 26.9561076,10.833463 25.8644032,10.7126459 L25.8644032,10.1400778 C25.8644032,10.063035 25.807029,10 25.7369049,10 L25.2890671,10 C25.218943,10 25.1615688,10.063035 25.1615688,10.1400778 L25.1615688,10.7178988 C24.0332087,10.838716 23.1502829,11.5233463 23.1502829,12.8015564 C23.1502829,13.985214 23.9439599,14.5560311 24.7774801,14.7749027 L25.1711312,14.885214 L25.1711312,17.3838521 C24.466703,17.2805447 24.0714582,16.8673152 23.990178,16.3105058 C23.9806156,16.2439689 23.9264289,16.1949416 23.8642734,16.1949416 L23.1279707,16.1949416 C23.0530654,16.1949416 22.9940974,16.2649805 23.0004724,16.3472763 C23.0721902,17.3103113 23.7367751,18.1963035 25.1551939,18.3101167 L25.1551939,18.8599222 C25.1551939,18.936965 25.2125681,19 25.2826922,19 L25.7353112,19 C25.8054353,19 25.8628095,18.936965 25.8628095,18.8581712 L25.8596221,18.3031128 C27.1075118,18.1822957 28,17.4486381 28,16.1319066 C27.9984063,14.9167315 27.2955718,14.37393 26.2628355,14.0937743 Z M25.1695374,13.8101167 C25.0802886,13.7821012 25.0053833,13.7558366 24.9304781,13.7225681 C24.3917977,13.5089494 24.1415823,13.1640078 24.1415823,12.7192607 C24.1415823,12.0836576 24.5798577,11.7212062 25.1695374,11.6389105 L25.1695374,13.8101167 Z M25.8580283,17.3891051 L25.8580283,15.0480545 C25.9074339,15.0638132 25.9520583,15.07607 25.9982765,15.0865759 C26.7521103,15.338716 27.0055131,15.6889105 27.0055131,16.2264591 C27.0055131,16.9110895 26.5369568,17.3225681 25.8580283,17.3891051 Z" id="形状" fill="#3F4867"></path>
                        <path d="M47.2960596,9.51087748 L47.5696358,9.57927152 L47.2960596,9.64766556 C45.6966811,10.0480825 44.4477532,11.2966859 44.0469205,12.8959603 L43.9793709,13.1686921 L43.9109768,12.8959603 C43.5106503,11.2963991 42.2615029,10.0475763 40.6618377,9.64766556 L40.389106,9.57927152 L40.6618377,9.51087748 C42.2608959,9.10882597 43.5093408,7.86005657 43.9109768,6.26089404 L43.9793709,5.98816225 L44.0469205,6.26089404 C44.4485565,7.86005657 45.6970015,9.10882597 47.2960596,9.51087748 Z" id="路径" fill="#5D8EF9"></path>
                        <path d="M39.9646026,46.9864902 L12.4642881,46.9864902 C11.6281698,46.986714 10.82622,46.6547243 10.2349159,46.0635786 C9.64361176,45.4724328 9.31140728,44.670572 9.31140728,43.8344536 L9.31140728,25.181457 L43.1208609,25.181457 L43.1208609,43.8344536 C43.1208609,45.5752753 41.7096462,46.9864902 39.9688245,46.9864902 L39.9646026,46.9864902 Z" id="路径" fill="#516BFF"></path>
                        <path d="M42.9148344,17.9587085 L9.51490066,17.9587085 C8.77328547,17.9584846 8.06196827,18.2529331 7.53748794,18.7772551 C7.01300762,19.3015771 6.71834437,20.0128053 6.71834437,20.7544205 L6.71834437,23.2875331 C6.71834437,24.8320285 7.97040527,26.0840894 9.51490066,26.0840894 L42.9148344,26.0840894 C44.4593298,26.0840894 45.7113907,24.8320285 45.7113907,23.2875331 L45.7113907,20.7544205 C45.7109245,19.2102549 44.4590001,17.9587085 42.9148344,17.9587085 L42.9148344,17.9587085 Z" id="路径" fill="#003BE3"></path>
                        <path d="M31.677103,31.1528477 C31.677103,31.7273701 31.2113602,32.1931129 30.6368377,32.1931129 L21.792053,32.1931129 C21.5160113,32.1933366 21.2511989,32.0838365 21.0559287,31.8887247 C20.8606585,31.6936129 20.7509434,31.4288894 20.7509434,31.1528477 L20.7509434,30.2105298 C20.7507194,29.9343418 20.8603354,29.6694012 21.0556299,29.4741067 C21.2509244,29.2788122 21.5158649,29.1691963 21.792053,29.1694202 L30.6368377,29.1694202 C30.9128795,29.1694202 31.177603,29.2791354 31.3727148,29.4744055 C31.5678266,29.6696757 31.6773267,29.9344881 31.677103,30.2105298 L31.677103,31.1528477 Z" id="路径" fill="#8AC9F9"></path>
                    </g>
                </g>
            </g>
        </g>
    </g>
</svg>