<?xml version="1.0" encoding="UTF-8"?>
<svg width="22px" height="22px" viewBox="0 0 22 22" version="1.1" xmlns="http://www.w3.org/2000/svg" xmlns:xlink="http://www.w3.org/1999/xlink">
  <title>切片</title>
  <g id="页面-1" stroke="none" stroke-width="1" fill="none" fill-rule="evenodd">
    <g id="聚合流动性挖矿" transform="translate(-1729.000000, -24.000000)">
      <g id="钱包" transform="translate(1708.000000, 17.000000)">
        <g id="head/qian" transform="translate(21.000000, 7.000000)">
          <g id="编组" transform="translate(1.000000, 2.000000)">
            <g transform="translate(0.000000, 0.007956)">
              <g id="Clip-2"></g>
              <path d="M15.0742737,17.5182445 L2.97558759,17.5182445 C1.33682847,17.5182445 0.0018649635,16.1853248 3.64963504e-06,14.5451058 L3.64963504e-06,3.00397445 C0.0018649635,1.36291606 1.33697445,0.0298138686 2.9764635,0.0298138686 L15.0534708,0.0298138686 C15.2845657,0.0216751825 16.3923029,0.0279525547 17.216865,0.813609489 C17.6020839,1.18058029 18.0592737,1.85762409 18.0504416,2.99970438 C18.0384708,4.55492336 18.0433248,5.0664562 18.0473029,5.47744161 C18.0488723,5.64897445 18.0504416,5.80134672 18.0504416,6.00094526 L16.2986168,6.00094526 C16.2986168,5.80791606 16.2971934,5.66021533 16.2956241,5.49426642 C16.2915,5.07656569 16.2865,4.55663869 16.2986168,2.98616423 C16.3019015,2.56685766 16.206938,2.27090876 16.0085073,2.08185766 C15.6860255,1.77463139 15.126719,1.77992336 15.1206241,1.78021533 L15.071427,1.7814927 L2.97901825,1.7814927 C2.30069708,1.78061679 1.75266788,2.3295219 1.75182847,3.00481387 L1.75182847,14.543938 C1.75255839,15.2178431 2.30182847,15.7662737 2.97660949,15.7662737 L15.0729964,15.7662737 C15.4007701,15.7662737 15.7078504,15.6392664 15.9390912,15.4086095 C16.1697482,15.1797774 16.2993467,14.8679891 16.2989088,14.5430985 L16.2989088,11.5174781 L18.0507336,11.5174781 L18.0507336,14.5440839 C18.0487263,16.1853248 16.7139088,17.5182445 15.0742737,17.5182445" id="Fill-1" fill="#FFFFFF"></path>
            </g>
            <g id="Clip-4"></g>
            <path d="M12.7229562,9.8330292 L18.2120803,9.8330292 L18.2120803,7.73094891 L12.7229562,7.73094891 L12.7229562,9.8330292 Z M18.5623723,11.584854 L12.3727007,11.584854 C11.6,11.584854 10.9711314,10.9561679 10.9711314,10.1834672 L10.9711314,7.38051095 C10.9711314,6.60781022 11.6,5.97912409 12.3727007,5.97912409 L18.5623723,5.97912409 C19.335219,5.97912409 19.9639416,6.60781022 19.9639416,7.38051095 L19.9639416,10.1834672 C19.9639416,10.9561679 19.335219,11.584854 18.5623723,11.584854 L18.5623723,11.584854 Z" id="Fill-3" fill="#FFFFFF"></path>
            <path d="M3.08791241,4.02285401 C3.08791241,4.58727007 3.54557664,5.04475182 4.10981022,5.04475182 C4.67422628,5.04475182 5.13170803,4.58727007 5.13170803,4.02285401 C5.13170803,3.45843796 4.67422628,3.0009562 4.10981022,3.0009562 C3.54557664,3.0009562 3.08791241,3.45843796 3.08791241,4.02285401" id="Fill-5" fill="#FFFFFF"></path>
          </g>
        </g>
      </g>
    </g>
  </g>
</svg>