<?xml version="1.0" encoding="UTF-8"?>
<svg width="491px" height="438px" viewBox="0 0 491 438" version="1.1" xmlns="http://www.w3.org/2000/svg" xmlns:xlink="http://www.w3.org/1999/xlink">
    <title>img1</title>
    <defs>
        <linearGradient x1="50%" y1="20.4465091%" x2="50%" y2="100%" id="linearGradient-1">
            <stop stop-color="#0C1626" stop-opacity="0" offset="0%"></stop>
            <stop stop-color="#FFAB36" offset="100%"></stop>
        </linearGradient>
        <linearGradient x1="48.3465699%" y1="40.4766862%" x2="50%" y2="61.1531527%" id="linearGradient-2">
            <stop stop-color="#0C1626" stop-opacity="0" offset="0%"></stop>
            <stop stop-color="#FFAB36" offset="65.3204711%"></stop>
            <stop stop-color="#FFB936" offset="100%"></stop>
        </linearGradient>
        <linearGradient x1="50%" y1="77.271504%" x2="50%" y2="100%" id="linearGradient-3">
            <stop stop-color="#0C1626" stop-opacity="0" offset="0%"></stop>
            <stop stop-color="#FFAB36" offset="100%"></stop>
        </linearGradient>
        <linearGradient x1="50%" y1="24.3417229%" x2="50%" y2="100%" id="linearGradient-4">
            <stop stop-color="#0C1626" stop-opacity="0" offset="0%"></stop>
            <stop stop-color="#FFAB36" offset="100%"></stop>
        </linearGradient>
        <linearGradient x1="50%" y1="0%" x2="50%" y2="119.062475%" id="linearGradient-5">
            <stop stop-color="#0C1626" offset="0%"></stop>
            <stop stop-color="#FFAB36" offset="100%"></stop>
        </linearGradient>
        <linearGradient x1="49.1705288%" y1="43.6018555%" x2="50%" y2="68.1808949%" id="linearGradient-6">
            <stop stop-color="#0C1626" stop-opacity="0" offset="0%"></stop>
            <stop stop-color="#FFAB36" offset="100%"></stop>
        </linearGradient>
        <linearGradient x1="50%" y1="12.7036692%" x2="50%" y2="100%" id="linearGradient-7">
            <stop stop-color="#0C1626" stop-opacity="0" offset="0%"></stop>
            <stop stop-color="#FFAB36" offset="100%"></stop>
        </linearGradient>
        <path d="M2.32452896,20.4598059 C10.4373326,39.3073676 30.7292192,43.4263276 30.7292192,43.4263276 L30.7292192,43.4263276 C38.2899747,44.7389511 35.5637566,33.7550579 35.5637566,33.7550579 L35.5637566,33.7550579 C37.0871023,35.7196032 38.372288,36.2694563 39.2338344,36.3583548 L39.2338344,36.3583548 C39.8418557,36.4220104 40.4399993,36.1553152 40.8296158,35.6855803 L40.8296158,35.6855803 C49.1663118,25.6312792 32.5423079,7.76818507 32.5423079,7.76818507 L32.5423079,7.76818507 L13.2030611,0.515830317 C-5.60828281,3.21461063 2.32452896,20.4598059 2.32452896,20.4598059" id="path-8"></path>
        <path d="M8.92057195,11.7773939 C7.25784231,13.1481855 5.82888258,14.7812824 4.68966584,16.6130287 L4.68966584,16.6130287 C-6.10435792,36.964181 5.8991233,32.3260982 5.8991233,32.3260982 L5.8991233,32.3260982 C1.42566719,40.4849973 8.31694072,40.7846179 8.31694072,40.7846179 L8.31694072,40.7846179 C37.2989219,38.7717821 44.5787145,21.445371 44.5787145,21.445371 L44.5787145,21.445371 C51.5852267,5.93095113 35.5121735,0.897764253 35.5121735,0.897764253 L35.5121735,0.897764253 C35.5121735,0.897764253 11.5150887,9.71626765 8.92057195,11.7773939" id="path-10"></path>
        <polygon id="path-12" points="0.239586719 0.160005121 79.0208145 0.160005121 79.0208145 58.6196157 0.239586719 58.6196157"></polygon>
        <path d="M7.95573848,22.6983847 C-4.83945514,42.9195803 -1.4411203,67.682863 15.5454101,78.0099351 L15.5454101,78.0099351 C32.5327978,88.3361465 56.6752064,80.3158383 69.4704,60.0946426 L69.4704,60.0946426 C82.2638791,39.8734469 78.8664015,15.1101643 61.8790138,4.78309217 L61.8790138,4.78309217 C56.8500955,1.72576926 51.1919194,0.276295229 45.3880024,0.276295229 L45.3880024,0.276295229 C31.5897685,0.275434496 16.9616687,8.46444635 7.95573848,22.6983847" id="path-14"></path>
        <path d="M7.7628108,3.07639644 C6.64822524,4.8013884 6.68580514,7.05255991 7.6509252,9.20726517 L7.6509252,9.20726517 L4.98360667,10.806851 L1.10092014,16.8096827 C0.58761292,17.6042138 0.703768962,18.6109707 1.36056305,19.0582233 L1.36056305,19.0582233 C2.01821123,19.5072299 2.96624952,19.2257238 3.47955674,18.4329466 L3.47955674,18.4329466 L6.56794092,13.6578672 L9.43682435,11.9372601 C10.0876398,12.6686497 10.8546113,13.3474213 11.7257817,13.9411272 L11.7257817,13.9411272 C15.9372923,16.8123136 20.9917883,16.6027188 23.0151241,13.4745813 L23.0151241,13.4745813 C25.0384598,10.3455669 23.2636638,5.48191395 19.0521532,2.61072754 L19.0521532,2.61072754 C17.0655432,1.25581519 14.8901797,0.586690199 12.9343169,0.586690199 L12.9343169,0.586690199 C10.745288,0.586690199 8.83212966,1.42419265 7.7628108,3.07639644" id="path-16"></path>
        <path d="M3.26095887,8.98856032 C-1.98363285,16.9961538 -0.5906974,26.8024137 6.37187147,30.8919343 L6.37187147,30.8919343 C13.3347917,34.981114 23.2304666,31.8050719 28.4750583,23.7974785 L28.4750583,23.7974785 C33.7189473,15.789885 32.3263632,5.98362506 25.363443,1.8941045 L25.363443,1.8941045 C23.3021515,0.683404628 20.9829351,0.109412911 18.6039812,0.109412911 L18.6039812,0.109412911 C12.9482557,0.10907206 6.95237838,3.35192075 3.26095887,8.98856032" id="path-18"></path>
        <path d="M2.84451567,1.06737581 C2.43609968,1.66587302 2.44987003,2.44693166 2.80351759,3.1945207 L2.80351759,3.1945207 L1.82613587,3.74950744 L0.403408593,5.83222905 C0.215318163,6.1078968 0.257881055,6.45719767 0.498549176,6.61237488 L0.498549176,6.61237488 C0.73953026,6.76816063 1.08691857,6.67049027 1.275009,6.39543105 L1.275009,6.39543105 L2.40668121,4.7386861 L3.45792206,4.14171024 C3.69639945,4.39547062 3.97743972,4.63097486 4.29666142,4.836965 L4.29666142,4.836965 C5.83987924,5.83314185 7.691991,5.76042155 8.43339903,4.67509387 L8.43339903,4.67509387 C9.17480706,3.58946192 8.5244711,1.9019858 6.98125328,0.905808946 L6.98125328,0.905808946 C6.25330263,0.435713272 5.45618728,0.203555991 4.73950328,0.203555991 L4.73950328,0.203555991 C3.93738053,0.203555991 3.23634465,0.494132928 2.84451567,1.06737581" id="path-20"></path>
        <polygon id="path-22" points="0.150462714 0.286949677 22.0578339 0.286949677 22.0578339 27.3877525 0.150462714 27.3877525"></polygon>
    </defs>
    <g id="页面-1" stroke="none" stroke-width="1" fill="none" fill-rule="evenodd">
        <g id="首页" transform="translate(-1119.000000, -115.000000)">
            <g id="组1" transform="translate(530.000000, 115.000000)">
                <g id="img1" transform="translate(590.000000, 0.000000)">
                    <g id="编组-10" transform="translate(39.180162, 74.417004)">
                        <ellipse id="椭圆形" stroke="url(#linearGradient-1)" stroke-width="2" opacity="0.900000036" cx="225.161943" cy="273.269231" rx="186.965587" ry="87.7753036"></ellipse>
                        <ellipse id="椭圆形" stroke="url(#linearGradient-2)" stroke-width="2" opacity="0.900000036" cx="225.161943" cy="231.609312" rx="186.965587" ry="87.7753036"></ellipse>
                        <ellipse id="椭圆形" stroke="url(#linearGradient-3)" stroke-width="1.98380567" opacity="0.713607788" cx="225.161943" cy="253.431174" rx="170.111336" ry="87.7834008"></ellipse>
                        <ellipse id="椭圆形" stroke="url(#linearGradient-4)" stroke-width="1.98380567" opacity="0.295791" cx="225.161943" cy="234.089069" rx="170.111336" ry="73.4008097"></ellipse>
                        <path d="M211.771255,327.327935 C212.319068,327.327935 212.763158,327.772025 212.763158,328.319838 L212.763158,335.263158 C212.763158,335.810971 212.319068,336.255061 211.771255,336.255061 C211.223442,336.255061 210.779352,335.810971 210.779352,335.263158 L210.779352,328.319838 C210.779352,327.772025 211.223442,327.327935 211.771255,327.327935 Z M233.593117,327.327935 C234.14093,327.327935 234.58502,327.772025 234.58502,328.319838 L234.58502,335.263158 C234.58502,335.810971 234.14093,336.255061 233.593117,336.255061 C233.045305,336.255061 232.601215,335.810971 232.601215,335.263158 L232.601215,328.319838 C232.601215,327.772025 233.045305,327.327935 233.593117,327.327935 Z M189.949393,325.34413 C190.497206,325.34413 190.941296,325.78822 190.941296,326.336032 L190.941296,333.279352 C190.941296,333.827165 190.497206,334.271255 189.949393,334.271255 C189.40158,334.271255 188.95749,333.827165 188.95749,333.279352 L188.95749,326.336032 C188.95749,325.78822 189.40158,325.34413 189.949393,325.34413 Z M256.406883,325.34413 C256.954695,325.34413 257.398785,325.78822 257.398785,326.336032 L257.398785,333.279352 C257.398785,333.827165 256.954695,334.271255 256.406883,334.271255 C255.85907,334.271255 255.41498,333.827165 255.41498,333.279352 L255.41498,326.336032 C255.41498,325.78822 255.85907,325.34413 256.406883,325.34413 Z M167.135628,322.368421 C167.68344,322.368421 168.12753,322.812511 168.12753,323.360324 L168.12753,330.303644 C168.12753,330.851457 167.68344,331.295547 167.135628,331.295547 C166.587815,331.295547 166.143725,330.851457 166.143725,330.303644 L166.143725,323.360324 C166.143725,322.812511 166.587815,322.368421 167.135628,322.368421 Z M278.228745,322.368421 C278.776558,322.368421 279.220648,322.812511 279.220648,323.360324 L279.220648,330.303644 C279.220648,330.851457 278.776558,331.295547 278.228745,331.295547 C277.680932,331.295547 277.236842,330.851457 277.236842,330.303644 L277.236842,323.360324 C277.236842,322.812511 277.680932,322.368421 278.228745,322.368421 Z M145.313765,317.408907 C145.861578,317.408907 146.305668,317.852997 146.305668,318.40081 L146.305668,325.34413 C146.305668,325.891942 145.861578,326.336032 145.313765,326.336032 C144.765952,326.336032 144.321862,325.891942 144.321862,325.34413 L144.321862,318.40081 C144.321862,317.852997 144.765952,317.408907 145.313765,317.408907 Z M300.050607,316.417004 C300.59842,316.417004 301.04251,316.861094 301.04251,317.408907 L301.04251,324.352227 C301.04251,324.90004 300.59842,325.34413 300.050607,325.34413 C299.502794,325.34413 299.058704,324.90004 299.058704,324.352227 L299.058704,317.408907 C299.058704,316.861094 299.502794,316.417004 300.050607,316.417004 Z M321.87247,311.45749 C322.420282,311.45749 322.864372,311.90158 322.864372,312.449393 L322.864372,319.392713 C322.864372,319.940525 322.420282,320.384615 321.87247,320.384615 C321.324657,320.384615 320.880567,319.940525 320.880567,319.392713 L320.880567,312.449393 C320.880567,311.90158 321.324657,311.45749 321.87247,311.45749 Z M122.5,310.465587 C123.047813,310.465587 123.491903,310.909677 123.491903,311.45749 L123.491903,318.40081 C123.491903,318.948623 123.047813,319.392713 122.5,319.392713 C121.952187,319.392713 121.508097,318.948623 121.508097,318.40081 L121.508097,311.45749 C121.508097,310.909677 121.952187,310.465587 122.5,310.465587 Z M344.686235,302.530364 C345.234048,302.530364 345.678138,302.974454 345.678138,303.522267 L345.678138,310.465587 C345.678138,311.0134 345.234048,311.45749 344.686235,311.45749 C344.138422,311.45749 343.694332,311.0134 343.694332,310.465587 L343.694332,303.522267 C343.694332,302.974454 344.138422,302.530364 344.686235,302.530364 Z M100.678138,301.538462 C101.22595,301.538462 101.67004,301.982552 101.67004,302.530364 L101.67004,309.473684 C101.67004,310.021497 101.22595,310.465587 100.678138,310.465587 C100.130325,310.465587 99.6862348,310.021497 99.6862348,309.473684 L99.6862348,302.530364 C99.6862348,301.982552 100.130325,301.538462 100.678138,301.538462 Z" id="形状结合" fill="url(#linearGradient-5)" opacity="0.702033"></path>
                        <path d="M449.37633,17.666482 L349.645749,232.105263 L349.15893,232.105731 C343.479025,263.788763 288.800362,288.643725 222.186235,288.643725 C155.572107,288.643725 100.893445,263.788763 95.2135399,232.105731 L94.7267206,232.105263 L0,17.666482 L449.37633,17.666482 Z" id="形状结合" fill="url(#linearGradient-6)" opacity="0.400000006"></path>
                        <path d="M349.645749,0 L349.645749,222.186235 L349.455394,222.186028 C349.58175,223.335389 349.645749,224.492949 349.645749,225.657895 C349.645749,260.444008 292.580181,288.643725 222.186235,288.643725 C151.792289,288.643725 94.7267206,260.444008 94.7267206,225.657895 C94.7267206,224.492949 94.7907198,223.335389 94.9170753,222.186028 L94.7267206,222.186235 L94.7267206,0 L349.645749,0 Z" id="形状结合" fill="url(#linearGradient-7)" opacity="0.600000024"></path>
                    </g>
                    <g id="编组" transform="translate(139.000000, 104.000000)">
                        <g transform="translate(79.020814, 84.717996)">
                            <path d="M44.0293003,0.575644683 C64.7766542,0.575644683 81.596015,17.3950055 81.596015,38.1423594 C81.596015,58.8908107 64.7766542,75.7090741 44.0293003,75.7090741 C23.2819465,75.7090741 6.46258561,58.8908107 6.46258561,38.1423594 C6.46258561,17.3950055 23.2819465,0.575644683 44.0293003,0.575644683" id="Fill-3" fill="#2D3651"></path>
                            <path d="M32.5424177,53.8633309 C32.5424177,53.8633309 49.1554464,71.7143524 40.8385057,81.7708486 C40.4434016,82.2471685 39.8364779,82.5193513 39.220774,82.4524031 C38.3592276,82.3591146 37.0806269,81.8048714 35.5638663,79.8513013 C35.5638663,79.8513013 38.2900844,90.8351945 30.729329,89.5214735 C30.729329,89.5214735 10.4374423,85.4025135 2.3235412,66.5549517 C2.3235412,66.5549517 -5.60817305,49.310854 13.2031708,46.6109762 L32.5424177,53.8633309 Z" id="Fill-5" fill="#394260"></path>
                            <path d="M32.5424177,53.8633309 C32.5424177,53.8633309 48.8525333,71.189742 40.7100969,81.2616033 C40.2238993,81.8630395 39.7003864,82.010106 38.9463962,81.8345042 C38.104605,81.6391472 36.4396803,80.9444226 35.1127892,79.2344999 C35.1127892,79.2344999 38.2659392,90.5235013 30.729329,89.5214735 C30.729329,89.5214735 10.4374423,85.4025135 2.3235412,66.5549517 C2.3235412,66.5549517 -5.60817305,49.310854 13.2031708,46.6109762 L32.5424177,53.8633309 Z" id="Fill-7" fill="#3F4867"></path>
                            <path d="M82.7053795,44.798107 C82.7053795,44.798107 98.7784326,49.8312939 91.7719204,65.3468113 C91.7719204,65.3468113 84.4921279,82.6732224 55.5101467,84.6860581 C55.5101467,84.6860581 49.52871,83.8695097 54.0032636,75.7095131 C54.0032636,75.7095131 41.088848,80.8656212 51.8839693,60.512274 C53.0220885,58.6816251 54.4510482,57.0496258 56.1137779,55.6777366 C58.7082946,53.6166104 82.7053795,44.798107 82.7053795,44.798107" id="Fill-9" fill="#3F4867"></path>
                            <path d="M32.5424177,53.8633309 L13.2031708,46.6109762 C9.58138351,47.130099 6.95394143,48.1913925 5.06622197,49.5621841 C0.800195498,55.565571 4.74135862,64.1371343 4.74135862,64.1371343 C12.8552598,82.9846961 33.1471464,87.103656 33.1471464,87.103656 C34.1195414,87.2726728 33.397379,85.8568832 34.0569833,85.6681112 C35.1138867,82.6378825 35.1566896,78.2203995 35.1402269,78.6857443 C36.2487134,80.114704 37.9279057,80.8346714 38.7126263,81.134292 C38.8509127,78.710987 37.9816837,77.4334839 37.9816837,77.4334839 C39.7168491,79.6702119 40.1964616,78.9897549 41.0393502,78.9667072 C46.4347159,68.7269266 32.5424177,53.8633309 32.5424177,53.8633309" id="Fill-11" fill="#4F597C"></path>
                        </g>
                        <g transform="translate(79.020814, 130.813471)">
                            <mask id="mask-9" fill="white">
                                <use xlink:href="#path-8"></use>
                            </mask>
                            <g id="Clip-14"></g>
                            <path d="M38.8932766,8.38838871 C54.4186717,8.38838871 67.0027364,20.9647708 67.0027364,36.4791907 C67.0027364,51.9936107 54.4186717,64.5699928 38.8932766,64.5699928 C23.3678816,64.5699928 10.7838169,51.9936107 10.7838169,36.4791907 C10.7838169,20.9647708 23.3678816,8.38838871 38.8932766,8.38838871" id="Fill-13" fill="#FFE1C1" mask="url(#mask-9)"></path>
                        </g>
                        <path d="M161.726194,129.516103 C161.726194,129.516103 137.729109,138.334606 135.134592,140.395732 C133.471863,141.767621 132.042903,143.399621 130.904784,145.23027 C127.081054,152.439821 126.119634,156.511588 126.469741,158.765877 C128.134665,159.362923 130.300055,158.526619 130.300055,158.526619 C129.707399,159.60657 129.555942,159.82278 129.319977,160.644816 C130.802715,160.81932 133.024078,160.427509 133.024078,160.427509 C131.666457,162.902397 131.325131,164.613417 131.55012,165.853605 C132.557636,166.3848 132.716775,166.987334 132.716775,166.987334 C161.699854,164.973401 168.979646,147.64699 168.979646,147.64699 C171.634526,141.766524 170.973824,137.392941 169.130005,134.226621 C165.956003,130.841896 161.726194,129.516103 161.726194,129.516103" id="Fill-15" fill="#4F597C"></path>
                        <g transform="translate(126.213801, 128.618448)">
                            <mask id="mask-11" fill="white">
                                <use xlink:href="#path-10"></use>
                            </mask>
                            <g id="Clip-18"></g>
                            <path d="M0.763867873,18.438629 C16.2914579,18.438629 28.8788152,31.0172062 28.8788152,46.5349186 C28.8788152,62.0515336 16.2914579,74.6312082 0.763867873,74.6312082 C-14.7637222,74.6312082 -27.3510794,62.0515336 -27.3510794,46.5349186 C-27.3510794,31.0172062 -14.7637222,18.438629 0.763867873,18.438629" id="Fill-17" fill="#FFDFBC" mask="url(#mask-11)"></path>
                        </g>
                        <g transform="translate(0.000000, 0.209625)">
                            <path d="M95.0914531,62.5775707 C95.0914531,62.5775707 91.1305348,64.4861429 89.8672993,62.2570974 C88.6051613,60.030247 91.3862549,50.6212825 78.9196239,43.438071 C78.9196239,43.438071 70.8013328,38.5695108 70.4951271,36.7520321 C70.1911165,34.9345533 68.7533767,29.1682289 67.1268649,31.8264013 C67.1268649,31.8264013 48.4252721,2.55577459 37.2712647,1.00169857 C26.1172572,-0.553474955 17.0057183,1.48240853 0.646214661,14.2486601 C0.646214661,14.2486601 -2.37084394,20.9149438 4.63347326,17.637775 C11.6366929,14.3617038 9.57117665,3.07270242 34.8556423,2.91027075 C34.8556423,2.91027075 45.4652841,4.52141735 49.043171,21.5251601 L50.0901968,28.8082452 C50.0901968,28.8082452 47.0972834,27.6448832 50.7618737,34.2947042 C54.4275615,40.9445253 51.9735262,58.3312995 63.0737556,66.4265429 C74.1728875,74.5206888 76.9232509,71.7165474 75.7247685,84.4224359 C74.5273837,97.1283244 95.0914531,62.5775707 95.0914531,62.5775707" id="Fill-19" fill="#4F597C"></path>
                            <g transform="translate(147.066516, 23.047738)">
                                <mask id="mask-13" fill="white">
                                    <use xlink:href="#path-12"></use>
                                </mask>
                                <g id="Clip-22"></g>
                                <path d="M76.6417392,19.2354223 C76.6417392,19.2354223 81.5750526,18.818368 77.2343953,8.60163516 C72.8926406,-1.61509765 71.378075,0.253964118 70.214713,0.359325204 C69.051351,0.465783801 63.1489351,6.68099036 61.6661974,6.48014579 C60.1823621,6.28039873 52.3318636,12.7414478 48.7956822,12.8698567 C45.2595007,12.997168 36.5946489,20.6347492 36.5946489,20.6347492 C36.5946489,20.6347492 35.3467786,16.1393429 30.3026166,22.7781888 C30.3026166,22.7781888 13.8651897,21.6192168 6.30223921,35.363351 L5.34630686,36.091001 L0.239586719,35.8243057 C0.518354593,37.0502259 1.31295278,38.0972517 2.4203417,38.6932003 C4.26306319,39.6502302 9.65513627,42.6826539 6.26492382,48.216306 C2.87580889,53.7510555 13.4185026,58.6196157 13.4185026,58.6196157 L16.1721584,57.2817494 L16.6309182,53.9156822 C16.6309182,53.9156822 32.3780105,56.2972818 40.383258,40.0091164 C40.383258,40.0091164 53.1198768,24.4946965 48.8154374,25.3024648 C48.8154374,25.3024648 56.4486286,15.2920641 61.8769195,11.2257847 C61.8769195,11.2257847 66.4952471,7.31864443 67.7859204,5.60323425 C69.0754962,3.88782407 73.6093155,1.32513516 75.6089811,7.95410348 C77.6086467,14.5830718 74.1822164,16.4290858 76.6417392,19.2354223" id="Fill-21" fill="#4F597C" mask="url(#mask-13)"></path>
                            </g>
                            <path d="M115.250212,42.0377563 C115.250212,42.0377563 145.339582,35.2189185 161.440073,62.432809 C177.541661,89.647797 187.745224,105.70329 168.039408,125.420081 C148.33469,145.136871 98.9082682,143.74852 85.2552275,132.019416 C71.6010893,120.290313 54.7630707,96.1692092 81.6553904,56.4349097 C81.6553904,56.4349097 89.1634653,44.8177524 115.250212,42.0377563" id="Fill-23" fill="#3F4867"></path>
                            <path d="M115.250212,42.0377563 C112.412047,42.3395719 109.793385,42.7467486 107.381056,43.2329461 C97.1588352,47.5253129 93.7422825,52.8076348 93.7422825,52.8076348 C66.8499628,92.5430319 83.6890788,116.664135 97.3421196,128.393239 C106.462439,136.228372 131.543865,139.446275 153.068256,134.845508 C158.904822,132.499029 164.075197,129.387584 168.039408,125.420081 C187.745224,105.70329 177.541661,89.647797 161.440073,62.432809 C145.339582,35.2189185 115.250212,42.0377563 115.250212,42.0377563" id="Fill-25" fill="#4F597C"></path>
                            <path d="M157.797542,57.9838274 C161.986743,57.9838274 165.382443,59.3370588 165.382443,61.0063736 C165.382443,62.6756883 161.986743,64.0289197 157.797542,64.0289197 C153.608342,64.0289197 150.212642,62.6756883 150.212642,61.0063736 C150.212642,59.3370588 153.608342,57.9838274 157.797542,57.9838274" id="Fill-27" fill="#FFDFBC"></path>
                            <path d="M98.3116611,64.2768475 C94.3737905,65.6542242 91.6278172,68.0489939 92.1787679,69.6239226 C92.7297185,71.1988514 96.369066,71.359088 100.306937,69.9817113 C104.245905,68.6032371 106.991878,66.2106624 106.43983,64.6335387 C105.888879,63.0564149 102.249532,62.8994708 98.3116611,64.2768475" id="Fill-29" fill="#FFDFBC"></path>
                            <path d="M102.360929,92.2156442 C102.775788,95.5169583 104.182798,98.0587945 105.503104,97.8930702 C106.82341,97.727346 107.557645,94.9166196 107.142786,91.6153055 C106.727927,88.312894 105.322015,85.7710578 104.000611,85.936782 C102.680305,86.1036037 101.94607,88.9143302 102.360929,92.2156442" id="Fill-31" fill="#181C2A"></path>
                            <path d="M159.775477,84.9633992 C160.190337,88.2647133 161.597346,90.8065495 162.917652,90.6408252 C164.237958,90.475101 164.973291,87.6632771 164.558432,84.3630605 C164.143572,81.060649 162.736563,78.5188128 161.416257,78.684537 C160.095951,78.8502612 159.360618,81.6620852 159.775477,84.9633992" id="Fill-33" fill="#181C2A"></path>
                            <path d="M146.680411,116.604211 C146.680411,116.604211 141.885384,129.044502 132.834209,118.581927 L137.977147,113.438989 L146.680411,116.604211 Z" id="Fill-35" fill="#DCB48A"></path>
                            <path d="M139.954972,115.02171 C139.954972,115.02171 152.067107,124.153004 156.966397,112.647793 C161.86459,101.143679 150.637049,96.8238747 150.637049,96.8238747 C150.637049,96.8238747 144.347212,92.6555268 134.418027,94.4510553 C124.487745,96.2465838 118.197908,102.759216 118.197908,102.759216 C118.197908,102.759216 108.72858,114.857083 121.36313,121.748357 C121.362033,121.747259 130.06859,127.716623 139.954972,115.02171" id="Fill-37" fill="#FFE1C1"></path>
                            <path d="M149.09779,104.790929 C151.070018,105.761129 153.223335,105.660158 153.907084,104.564842 C154.590834,103.469525 153.546003,101.794723 151.572678,100.823425 C149.599352,99.8532255 147.447133,99.9541965 146.763383,101.049513 C146.079634,102.144829 147.124464,103.819631 149.09779,104.790929" id="Fill-39" fill="#181C2A"></path>
                            <path d="M126.336832,102.30331 C124.486428,103.491914 123.463547,105.389512 124.049618,106.539703 C124.634592,107.690993 126.609015,107.660262 128.458321,106.47056 C130.307628,105.281955 131.331606,103.385456 130.745535,102.234166 C130.159464,101.08178 128.186138,101.114705 126.336832,102.30331" id="Fill-41" fill="#181C2A"></path>
                            <path d="M118.862121,28.4913937 C118.862121,28.4913937 116.065663,20.6430903 108.789163,20.4740735 C108.789163,20.4740735 113.832227,32.4018265 113.598457,37.1968534 C113.365785,41.9896853 118.862121,28.4913937 118.862121,28.4913937" id="Fill-43" fill="#313954"></path>
                            <path d="M136.659694,29.4978115 C136.659694,29.4978115 146.396814,36.8423572 138.453028,48.4957324 C138.453028,48.4957324 135.015622,50.7291679 132.038074,50.9695229 C129.059428,51.2109753 140.67878,37.8169473 136.659694,29.4978115" id="Fill-45" fill="#394260"></path>
                            <path d="M131.130322,50.7079859 C131.130322,50.7079859 147.107892,34.3122644 128.400812,22.003675 C128.400812,22.003675 122.900085,17.5005861 119.204764,16.4008798 C115.509444,15.302271 114.342789,15.93773 113.344054,14.9071669 C112.345319,13.8755063 111.839366,9.7170359 112.26959,9.09255197 C112.699815,8.46697052 108.250504,16.4458778 117.357653,18.0317816 C117.357653,18.0317816 119.674499,20.1719287 117.78678,22.6764495 C117.78678,22.6764495 111.063425,28.4800893 110.784658,31.2732556 C110.50589,34.0653244 108.905718,41.2518284 104.781271,45.2687198 C100.656823,49.2867088 131.130322,50.7079859 131.130322,50.7079859" id="Fill-47" fill="#4F597C"></path>
                            <path d="M135.600815,29.2808336 C135.600815,29.2808336 131.009925,22.6540602 132.512418,19.5426157 C134.014911,16.4311711 135.720444,10.1863317 129.685229,8.89675595 C123.651112,7.60718016 120.76795,7.32072971 118.82755,3.60236138 C118.82755,3.60236138 117.586264,7.45682111 125.346767,10.9886125 C125.346767,10.9886125 128.179444,14.2054182 123.851957,16.8482254 C119.525567,19.4910326 122.736885,21.0484012 122.736885,21.0484012 C122.736885,21.0484012 125.131655,20.3855044 128.359436,22.2743213 C132.126094,24.478124 135.600815,29.2808336 135.600815,29.2808336" id="Fill-49" fill="#4F597C"></path>
                        </g>
                    </g>
                    <g id="img">
                        <g id="编组" transform="translate(48.603239, 60.433198)">
                            <path d="M59.4413882,73.4342739 C58.2871905,74.462584 57.0358404,75.4005835 55.6907587,76.235273 C40.446044,85.6898423 18.7796933,78.3459428 7.29792313,59.8329397 C-4.1845312,41.3192524 -1.13449358,18.646485 14.109537,9.19191576 C15.2110535,8.50911236 16.8352772,7.62174161 17.9970008,7.11203367" id="Stroke-1" stroke="#457EE4" stroke-width="0.684171741" stroke-linecap="round" stroke-linejoin="round"></path>
                            <path d="M69.9612129,20.8713431 C81.4436672,39.3850304 78.3936296,62.0577978 63.149599,71.5123671 C47.9055685,80.9669364 26.2392178,73.6230369 14.7567634,55.1093496 C3.27430912,36.5963464 6.32434674,13.9235791 21.5690615,4.46832564 C36.813092,-4.98555948 58.4794427,2.35765582 69.9612129,20.8713431 Z" id="Stroke-3" stroke="#457EE4" stroke-width="0.684171741"></path>
                            <path d="M66.8056076,23.5067727 C77.0168708,39.9699973 74.304814,60.1325385 60.747951,68.540325 C47.1917721,76.9481115 27.9248117,70.4176923 17.7135485,53.9537835 C7.50228523,37.4905589 10.2150262,17.3280177 23.7712051,8.92023116 C37.3273839,0.512444634 56.5943443,7.04354807 66.8056076,23.5067727" id="Fill-5" fill="#457EE4"></path>
                            <path d="M29.0004665,4.8968224 L29.0004665,4.8968224 C28.815056,4.93034682 28.6364871,4.80651173 28.6029627,4.62110119 L28.1192533,1.92751705 C28.0857289,1.74142233 28.209564,1.56353768 28.3949745,1.53001326 C28.5817534,1.49648885 28.7589539,1.62032393 28.7924783,1.80641865 L29.2761877,4.49931862 C29.3097121,4.68541333 29.1858771,4.86329799 29.0004665,4.8968224" id="Fill-7" fill="#457EE4"></path>
                            <path d="M67.0073698,22.0228726 L67.0073698,22.0228726 C66.8944815,21.8709865 66.9259534,21.6568407 67.0778395,21.5439524 L69.2740308,19.9108344 C69.4252328,19.7986303 69.6400627,19.829418 69.7522668,19.9813041 C69.8651552,20.1325061 69.8336833,20.347336 69.6817972,20.4595402 L67.4856059,22.0933423 C67.3344039,22.2062306 67.1202582,22.1740745 67.0073698,22.0228726" id="Fill-9" fill="#457EE4"></path>
                            <path d="M65.2755943,67.380996 L65.2755943,67.380996 C65.4630574,67.3556817 65.6320478,67.4617283 65.6525729,67.6170353 L66.1704909,69.5792398 C66.1903319,69.7345468 66.0555501,69.8802754 65.868087,69.9055897 C65.6813081,69.9302199 65.5123177,69.8248575 65.4911084,69.6695505 L64.9745587,67.7066618 C64.9533494,67.5520389 65.0888154,67.4056262 65.2755943,67.380996" id="Fill-11" fill="#457EE4"></path>
                            <path d="M66.0446033,66.2114044 L66.0446033,66.2114044 C66.2286455,66.1676174 66.4126877,66.2818741 66.4571589,66.4652321 L66.9819186,68.6244781 C67.0257056,68.8085203 66.9121331,68.9925625 66.7280909,69.0363495 C66.5440487,69.0794524 66.3600065,68.9658798 66.3162195,68.7825218 L65.7907756,66.6232758 C65.7469886,66.4392336 65.8605611,66.2545072 66.0446033,66.2114044" id="Fill-13" fill="#457EE4"></path>
                            <path d="M9.75478385,20.6027373 L9.75478385,20.6027373 C9.70347097,20.784727 9.51463957,20.8907736 9.33264989,20.8394607 L6.12730528,19.912408 C5.94599977,19.8617793 5.83926898,19.6729479 5.89126603,19.4909582 C5.94189474,19.3089685 6.13004197,19.2029219 6.31271582,19.2535506 L9.51737626,20.1806033 C9.69936594,20.2319162 9.80541256,20.4207476 9.75478385,20.6027373" id="Fill-15" fill="#457EE4"></path>
                            <path d="M10.5532123,18.3618012 L10.5532123,18.3618012 C10.5018994,18.5437909 10.313068,18.6498375 10.1310783,18.5985246 L7.49564876,17.8603033 C7.31434325,17.8089904 7.20761246,17.6208432 7.25960951,17.4381693 C7.31023822,17.2568638 7.49838545,17.150133 7.6810593,17.2014459 L10.3158047,17.9396672 C10.4977944,17.9909801 10.603841,18.1798115 10.5532123,18.3618012" id="Fill-17" fill="#457EE4"></path>
                            <path d="M13.1983571,52.4498372 L8.57472443,55.058584 C8.40983904,55.1509472 8.20116666,55.0914243 8.10948765,54.9265389 C8.01780863,54.7616535 8.0766474,54.5529811 8.24153279,54.4613021 L12.8658496,51.8525552 C13.030735,51.7601921 13.2387232,51.819715 13.3304022,51.9846004 C13.4227654,52.1494858 13.3632424,52.3581582 13.1983571,52.4498372" id="Fill-19" fill="#457EE4"></path>
                            <path d="M14.4263769,55.0070659 L11.5884325,56.6374472 C11.422863,56.7298103 11.2155589,56.6702874 11.1231957,56.505402 C11.0308326,56.3405166 11.0903555,56.1325284 11.2552409,56.0401652 L14.0931853,54.4090998 C14.2580707,54.3174208 14.466743,54.3769437 14.5584221,54.5418291 C14.6507852,54.7067145 14.5912623,54.9153869 14.4263769,55.0070659" id="Fill-21" fill="#457EE4"></path>
                            <path d="M15.8053935,57.3218241 L12.576787,59.1526677 C12.4119016,59.2443467 12.2032293,59.185508 12.1122344,59.0199384 C12.0198712,58.855053 12.07871,58.6470648 12.2435954,58.5547016 L15.4722018,56.7245422 C15.6370872,56.632179 15.8457596,56.691702 15.9374386,56.8565874 C16.0291176,57.0214728 15.9702789,57.2301451 15.8053935,57.3218241" id="Fill-23" fill="#457EE4"></path>
                            <path d="M37.9748841,29.453183 L45.946169,32.2883906 C48.6541208,33.122396 50.2270316,35.596361 50.6642174,39.7096015 C50.937886,42.2868765 49.3369242,44.448175 47.2283069,45.5544807 C45.4412503,46.4924802 42.5157319,46.6525763 40.4748476,45.0454569 C36.835054,42.177409 35.8306898,38.846861 37.4617553,35.0531287 L41.3991636,36.5302554 C40.4276398,38.444568 40.6513639,39.9812177 42.0696519,41.1388363 C44.0551183,42.7582708 46.2184694,41.3960849 46.4045641,40.1228413 C46.702863,38.0881145 46.1993126,36.7854515 44.8952812,36.2169048 L36.6934304,33.5855803 C35.0363664,32.676316 33.7111258,32.5593227 32.7163401,33.2325476 C31.7222385,33.9064568 31.3452599,34.9156101 31.5833517,36.2606918 L40.6732574,53.6208655 C38.7151579,54.646439 36.1173578,53.5490275 34.8714811,51.1694782 L28.0372895,38.1182181 C26.7551517,35.2754845 27.1259728,32.7125771 29.1497528,30.4301802 C31.1728486,28.1477833 34.1141029,27.8221175 37.9748841,29.453183 L37.9748841,29.453183 Z M39.3398067,28.7389077 C40.1984422,24.6366139 42.14149,22.4041615 45.1703183,22.0408663 C48.1984624,21.6782553 50.5157521,22.8331372 52.1228715,25.505512 L58.9563789,38.5574563 C60.2022556,40.9370056 59.6254988,43.6969544 57.666031,44.7225279 L48.5761252,27.3630383 C47.6059697,26.4004086 46.5619236,26.1356342 45.4419345,26.5693991 C44.3212611,27.0024798 43.6630879,28.15873 43.4660465,30.038834 L39.3398067,28.7389077 Z" id="Fill-25" fill="#FFFFFF"></path>
                        </g>
                        <g id="编组" opacity="0.200000003" transform="translate(0.000000, 198.307692)">
                            <path d="M34.7165992,43.5777493 C34.0385921,44.1765156 33.3035151,44.7226956 32.5133776,45.2087201 C23.5582185,50.713944 10.8308161,46.4377248 4.08611269,35.6579396 C-2.65899261,24.8777559 -0.867317733,11.6758156 8.08743953,6.17059171 C8.73450021,5.7730077 9.6886133,5.25630784 10.3710413,4.95951417" id="Stroke-1" stroke="#457EE4" stroke-width="0.806971797" stroke-linecap="round" stroke-linejoin="round"></path>
                            <path d="M41.5346519,12.1695596 C48.2909257,23.1444949 46.4962842,36.5849376 37.5266997,42.1896172 C28.5571153,47.7942968 15.8086389,43.4408247 9.05236517,32.4658894 C2.29609139,21.4913597 4.0907329,8.05091701 13.0607199,2.44583181 C22.0303044,-3.15844224 34.7787807,1.19462429 41.5346519,12.1695596 Z" id="Stroke-3" stroke="#457EE4" stroke-width="0.806971797"></path>
                            <path d="M39.0579759,13.7931171 C44.9903956,23.5483169 43.4147767,35.495528 35.5386697,40.477519 C27.6629602,45.4595101 16.4694679,41.5899434 10.5370481,31.8343382 C4.60462837,22.0791384 6.18064474,10.1319273 14.0563543,5.1499363 C21.9320638,0.167945248 33.1255561,4.0379173 39.0579759,13.7931171" id="Fill-5" fill="#457EE4"></path>
                            <path d="M17.6154251,2.97249096 L17.6154251,2.97249096 C17.4579539,2.99218028 17.3062934,2.91945032 17.2778208,2.81055628 L16.8670011,1.22857902 C16.8385284,1.11928316 16.9437029,1.01480917 17.1011741,0.995119842 C17.2598075,0.975430514 17.4103058,1.04816048 17.4387784,1.15745634 L17.8495981,2.73903178 C17.8780708,2.84832764 17.7728963,2.95280163 17.6154251,2.97249096" id="Fill-7" fill="#457EE4"></path>
                            <path d="M38.7308482,13.7685209 L38.7308482,13.7685209 C38.653097,13.6385014 38.6747731,13.4551857 38.7793837,13.3585496 L40.2919965,11.9605475 C40.3961359,11.8644971 40.5440986,11.8908524 40.6213786,12.0208718 C40.6991297,12.1503056 40.6774536,12.334207 40.572843,12.4302574 L39.0602302,13.8288452 C38.9560908,13.9254813 38.8085993,13.8979547 38.7308482,13.7685209" id="Fill-9" fill="#457EE4"></path>
                            <path d="M38.9348383,39.6790404 L38.9348383,39.6790404 C39.0897852,39.659206 39.2294637,39.7422961 39.2464287,39.8639828 L39.6745121,41.4014177 C39.6909116,41.5231045 39.5795081,41.6372864 39.4245612,41.6571208 C39.2701797,41.6764192 39.1305012,41.5938651 39.1129707,41.4721783 L38.6860183,39.9342074 C38.6684878,39.8130567 38.7804568,39.6983387 38.9348383,39.6790404" id="Fill-11" fill="#457EE4"></path>
                            <path d="M38.8999967,38.6907339 L38.8999967,38.6907339 C39.0508765,38.6601845 39.2017563,38.7398992 39.2382142,38.8678246 L39.668418,40.3742891 C39.704315,40.5026918 39.611207,40.6310945 39.4603272,40.6616438 C39.3094474,40.6917158 39.1585676,40.6124785 39.1226706,40.4845531 L38.6919059,38.9780886 C38.6560089,38.8496859 38.7491168,38.7208059 38.8999967,38.6907339" id="Fill-13" fill="#457EE4"></path>
                            <path d="M4.95307,11.7491678 L4.95307,11.7491678 C4.92689712,11.8611873 4.83058093,11.9264618 4.73775446,11.8948773 L3.10282198,11.3242519 C3.01034447,11.2930886 2.95590489,11.1768579 2.98242674,11.0648384 C3.00825064,10.9528189 3.10421786,10.8875444 3.19739331,10.9187078 L4.83197682,11.4893332 C4.92480329,11.5209176 4.97889391,11.6371483 4.95307,11.7491678" id="Fill-15" fill="#457EE4"></path>
                            <path d="M6.93576926,10.7368981 L6.93576926,10.7368981 C6.90510271,10.8637646 6.79224982,10.9376905 6.68348581,10.9019199 L5.10845198,10.3872999 C5.00009685,10.3515293 4.93631044,10.2203704 4.96738587,10.093027 C4.99764353,9.96663745 5.11008753,9.89223457 5.21926044,9.92800519 L6.79388537,10.4426252 C6.90264939,10.4783958 6.96602692,10.6100317 6.93576926,10.7368981" id="Fill-17" fill="#457EE4"></path>
                            <path d="M7.83678573,31.1350239 L5.24458215,32.7065682 C5.15214044,32.762209 5.0351499,32.7263516 4.98375077,32.6270224 C4.93235165,32.5276932 4.96533915,32.4019862 5.05778086,32.3467575 L7.65036801,30.7752132 C7.74280972,30.7195724 7.85941668,30.7554298 7.91081581,30.854759 C7.96259851,30.9540881 7.92922743,31.0797952 7.83678573,31.1350239" id="Fill-19" fill="#457EE4"></path>
                            <path d="M8.82823698,32.2902261 L7.2298666,33.6873899 C7.13661548,33.766541 7.01985892,33.7155325 6.96783867,33.5742331 C6.91581842,33.4329337 6.94934258,33.2546971 7.04220836,33.175546 L8.64057874,31.7777959 C8.73344453,31.6992311 8.85097176,31.7502396 8.90260668,31.891539 C8.95462693,32.0328384 8.92110277,32.2116613 8.82823698,32.2902261" id="Fill-21" fill="#457EE4"></path>
                            <path d="M8.83824511,33.238289 L7.20104955,34.6825156 C7.11743774,34.7548348 7.01162197,34.708421 6.96547935,34.5778145 C6.91864286,34.4477478 6.94847944,34.2836802 7.03209125,34.2108212 L8.66928681,32.7671343 C8.75289862,32.6942753 8.85871439,32.7412289 8.90520395,32.8712956 C8.9516935,33.0013624 8.92185692,33.1659697 8.83824511,33.238289" id="Fill-23" fill="#457EE4"></path>
                            <path d="M23.0915311,17.2944008 L27.7393256,18.9626444 C29.3182434,19.4533753 30.235356,20.9090628 30.4902647,23.3293042 C30.6498319,24.8457794 29.7163636,26.1174931 28.4868981,26.7684463 C27.4449241,27.3203676 25.7391504,27.4145686 24.5491777,26.4689353 C22.4269336,24.7813685 21.8413218,22.8216654 22.7923425,20.5894234 L25.0881161,21.4585687 C24.5216524,22.5849551 24.6520986,23.4891238 25.4790558,24.1702696 C26.636716,25.1231491 27.898095,24.3216353 28.0066007,23.5724555 C28.180529,22.375217 27.8869253,21.6087267 27.1265874,21.2741923 L22.3443575,19.7259142 C21.3781779,19.1909007 20.6054736,19.1220615 20.0254467,19.5181888 C19.4458188,19.9147188 19.2260149,20.5085072 19.3648384,21.2999567 L24.664864,31.514728 C23.5231604,32.1181781 22.0084685,31.4724583 21.2820387,30.0723253 L17.297246,22.39293 C16.5496735,20.7202582 16.7658871,19.2122368 17.9458868,17.8692686 C19.1254875,16.5263003 20.8404364,16.3346777 23.0915311,17.2944008 L23.0915311,17.2944008 Z M23.8873726,16.8741194 C24.3880148,14.4603191 25.5209422,13.1467383 27.2869525,12.9329745 C29.0525639,12.7196132 30.4036994,13.3991487 31.340758,14.971581 L35.3251518,22.6513789 C36.0515816,24.0515119 35.7152937,25.675473 34.5727923,26.278923 L29.2727667,16.0645543 C28.7071009,15.4981405 28.0983519,15.3423465 27.445323,15.5975749 C26.7918952,15.8524007 26.408136,16.5327414 26.2932476,17.6389994 L23.8873726,16.8741194 Z" id="Fill-25" fill="#FFFFFF"></path>
                        </g>
                        <g id="编组" transform="translate(391.801619, 141.923077)">
                            <g stroke="#24C7D6" stroke-width="0.915094871">
                                <path d="M22.4303748,90.1943975 C23.8833302,91.4600417 25.457724,92.6136058 27.1509725,93.640433 C46.3425574,105.271773 73.6162603,96.2372453 88.0708836,73.4608214 C102.524646,50.6843974 98.6859841,22.7910806 79.4961216,11.1597408 C78.1086225,10.3191392 76.0648388,9.22851245 74.6024096,8.60086325" id="Stroke-1" stroke-linecap="round" stroke-linejoin="round"></path>
                                <path d="M9.18669124,25.5285967 C-5.26707076,48.3050207 -1.42840926,76.1983375 17.7623144,87.8296774 C36.9521768,99.4618793 64.226741,90.4273519 78.680503,67.6509279 C93.1359875,44.874504 89.2964647,16.9811871 70.105741,5.34898514 C50.9158786,-6.28235469 23.6413145,2.75217278 9.18669124,25.5285967 Z" id="Stroke-3"></path>
                            </g>
                            <g transform="translate(5.220541, 6.090631)">
                                <mask id="mask-15" fill="white">
                                    <use xlink:href="#path-14"></use>
                                </mask>
                                <g id="Clip-6"></g>
                                <path d="M7.95573848,22.6983847 C-4.83945514,42.9195803 -1.4411203,67.682863 15.5454101,78.0099351 L15.5454101,78.0099351 C32.5327978,88.3361465 56.6752064,80.3158383 69.4704,60.0946426 L69.4704,60.0946426 C82.2638791,39.8734469 78.8664015,15.1101643 61.8790138,4.78309217 L61.8790138,4.78309217 C56.8500955,1.72576926 51.1919194,0.276295229 45.3880024,0.276295229 L45.3880024,0.276295229 C31.5897685,0.275434496 16.9616687,8.46444635 7.95573848,22.6983847" id="Fill-5" fill="#24C7D6" mask="url(#mask-15)"></path>
                            </g>
                            <g transform="translate(8.700902, 1.740180)">
                                <path d="M52.0730143,4.15011427 L52.0730143,4.15011427 C52.3061255,4.19148011 52.5297747,4.03894357 52.571924,3.81056965 L53.1809379,0.497855143 C53.2230872,0.269481224 53.067393,0.0505869775 52.8334215,0.0092211356 C52.59945,-0.031282918 52.376661,0.120391836 52.3345118,0.349627543 L51.7254978,3.66148026 C51.6833486,3.89071597 51.839903,4.10874843 52.0730143,4.15011427" id="Fill-7" fill="#24C7D6"></path>
                                <path d="M4.28795704,25.2100677 L4.28795704,25.2100677 C4.42988825,25.0239214 4.38945936,24.7602141 4.19849736,24.6214662 L1.43815029,22.6134993 C1.24804848,22.4747514 0.977949077,22.5135318 0.836017863,22.6996781 C0.694946838,22.8858244 0.73451554,23.1495317 0.925477537,23.2882796 L3.68582461,25.2971083 C3.87592642,25.4349944 4.14602582,25.3962139 4.28795704,25.2100677" id="Fill-9" fill="#24C7D6"></path>
                                <path d="M6.46449372,80.9885445 L6.46449372,80.9885445 C6.22966207,80.9575202 6.01719534,81.0876502 5.99138967,81.2781054 L5.34022646,83.6919747 C5.31442078,83.8832917 5.48473824,84.0625437 5.72043008,84.093568 C5.95526172,84.1237306 6.16686826,83.9936006 6.19353413,83.8031454 L6.84383714,81.3892761 C6.87050301,81.1988209 6.70018555,81.0187071 6.46449372,80.9885445" id="Fill-11" fill="#24C7D6"></path>
                                <path d="M5.49755506,79.5503059 L5.49755506,79.5503059 C5.26616417,79.496875 5.03477328,79.6364848 4.97972117,79.8622733 L4.31995607,82.5183051 C4.26404378,82.7440936 4.40769537,82.970744 4.63908626,83.0241749 C4.87047715,83.0776057 5.10186804,82.937996 5.15692015,82.7122075 L5.81754544,80.0561757 C5.87259754,79.8303871 5.72980614,79.6037368 5.49755506,79.5503059" id="Fill-13" fill="#24C7D6"></path>
                                <path d="M76.2699638,23.4638259 L76.2699638,23.4638259 C76.3336178,23.6878908 76.5718902,23.8180209 76.7998404,23.7551103 L80.8298267,22.6158261 C81.058637,22.5529156 81.1928265,22.3202327 81.1274521,22.0970295 C81.0637981,21.8729645 80.8263859,21.7428345 80.5975756,21.805745 L76.5684495,22.9450293 C76.3396391,23.0079398 76.2063098,23.2406227 76.2699638,23.4638259" id="Fill-15" fill="#24C7D6"></path>
                                <path d="M75.2661231,20.707999 L75.2661231,20.707999 C75.3306372,20.932064 75.5680495,21.062194 75.7959996,20.9992835 L79.1094483,20.0918203 C79.3382586,20.0289098 79.4724481,19.7962269 79.4070738,19.5730237 C79.3434198,19.3489587 79.1060075,19.2179669 78.8771972,19.2808775 L75.5646087,20.1892024 C75.3357984,20.252113 75.2024691,20.4847958 75.2661231,20.707999" id="Fill-17" fill="#24C7D6"></path>
                                <path d="M71.9396855,62.6276262 L77.7537041,65.8352025 C77.9610097,65.9489586 78.2233674,65.8765683 78.3377726,65.6731863 C78.4538981,65.4698042 78.3799219,65.2138531 78.1726163,65.1009588 L72.3585976,61.8925207 C72.151292,61.7796264 71.8889343,61.8520166 71.7745292,62.0553987 C71.6584036,62.2579189 71.7323799,62.5147319 71.9396855,62.6276262" id="Fill-19" fill="#24C7D6"></path>
                                <path d="M69.8144161,66.554882 L73.3824808,68.5602635 C73.5906466,68.6731578 73.8521441,68.6007676 73.9682696,68.3982473 C74.0843952,68.1948652 74.0095587,67.9389141 73.8022531,67.8260198 L70.2333282,65.8197765 C70.0260226,65.7068822 69.7636649,65.7801342 69.6492598,65.9826545 C69.5331342,66.1860365 69.6071105,66.4419877 69.8144161,66.554882" id="Fill-21" fill="#24C7D6"></path>
                                <path d="M67.6916412,69.8496713 L71.7500138,72.1006625 C71.9573194,72.2135568 72.2196771,72.1411666 72.3349424,71.9377845 C72.4510679,71.7352642 72.3762315,71.4793131 72.1689259,71.365557 L68.1096932,69.1145658 C67.9023876,69.0016715 67.6408901,69.0749235 67.5256247,69.2774438 C67.4094992,69.4799641 67.4843356,69.736777 67.6916412,69.8496713" id="Fill-23" fill="#24C7D6"></path>
                                <path d="M14.9420021,37.4535813 C17.7264345,33.5264116 22.2716741,31.6951113 27.0164777,31.5322333 C31.9341792,31.3633228 37.3963805,32.9455663 42.3132218,36.2160532 C47.2300632,39.48654 50.8050094,43.9161323 52.5580749,48.5232529 C54.2500671,52.9666338 54.3292045,57.8745186 51.7976677,61.9697369 L51.8028288,61.9731841 L50.2639504,64.2939802 C47.5044635,68.4581416 42.8353567,70.3919947 37.9546432,70.5600434 C33.0360815,70.7289539 27.5747404,69.1458487 22.6578991,65.8753618 C17.7401975,62.6048749 14.1652513,58.1752827 12.4121858,53.5690238 C10.6720231,48.9972365 10.6384757,43.9350916 13.3979626,39.7700684 L14.9359808,37.4501341 L14.9420021,37.4535813 Z M16.3406698,38.3843127 C16.259812,38.4963452 16.1806746,38.610963 16.1041177,38.7273045 C15.8125136,39.1668165 15.5578976,39.6218408 15.3376892,40.0915155 L15.2422082,40.0277431 L14.79577,40.7007999 C14.5781421,41.0282794 14.3811588,41.3661005 14.2039598,41.7116776 C10.7356771,48.4525863 14.8000709,58.2743884 23.7494792,64.2276225 C32.6997476,70.1808565 43.3110413,70.1213931 48.1668092,64.3043216 C48.4154039,64.0061428 48.6493753,63.6924519 48.866143,63.3641105 L49.3125812,62.6919156 L49.2171002,62.6281432 C49.5637564,62.2429238 49.8837468,61.830989 50.1744907,61.3914769 C50.2519077,61.2751355 50.3267442,61.1570705 50.3981399,61.0390055 C54.4978015,54.2937879 50.466955,44.0143761 41.2216418,37.8646543 C31.9754683,31.7140707 20.9547245,31.9803633 16.3406698,38.3843127 L16.3406698,38.3843127 Z" id="Fill-25" fill="#606063"></path>
                                <path d="M48.8665731,63.3644552 C44.4039116,70.0993314 33.1577983,70.4862743 23.7490491,64.2271054 C14.3402998,57.9687982 10.3318182,47.4360207 14.7962001,40.7011446 L16.0753014,38.7698768 L50.1456744,61.4340493 L48.8665731,63.3644552 Z" id="Fill-27" fill="#BEBEBE"></path>
                                <path d="M50.1744907,61.3913046 C45.7109691,68.1261807 34.4648558,68.5122619 25.0569667,62.2539547 C15.6482175,55.9956475 11.6397359,45.46287 16.1041177,38.7271321 C20.5667792,31.992256 31.8120323,31.605313 41.2207816,37.864482 C50.6295308,44.1227891 54.6380124,54.6564284 50.1744907,61.3913046" id="Fill-29" fill="#FAF9FA"></path>
                                <path d="M19.6100768,36.0960922 L19.6100768,36.0960922 L18.0445325,38.4582541 C15.8381472,41.7873426 15.8845975,45.776561 17.2110092,49.2926576 C18.5494635,52.8423639 21.2771234,56.2248833 25.0137852,58.7102809 C28.750447,61.1956786 32.9215043,62.4021823 36.7063367,62.260849 C40.4550412,62.1203775 44.1435324,60.615695 46.3490574,57.2866065 L47.8655709,54.9985584 C47.8767534,54.9813226 47.888796,54.9649487 47.8999785,54.9477129 C50.1063637,51.6177626 50.0590533,47.6285442 48.7335018,44.1124477 C47.3959076,40.5636031 44.6665274,37.180222 40.9298656,34.6956861 C37.1932038,32.2094266 33.0230066,31.0029229 29.2381743,31.1442562 C25.4980717,31.2847277 21.8181824,32.7825159 19.6100768,36.0960922 M21.0078842,37.0259619 C21.0027231,37.0328562 20.9975619,37.0414741 20.9924008,37.0483684 C20.6251,37.6033601 20.3334959,38.1919615 20.1141476,38.8064166 L19.9154439,38.6737012 L19.4423399,39.3881238 C19.2333139,39.7035383 19.0492334,40.0292943 18.8883781,40.3653918 C16.4652251,45.4335692 19.4999726,52.6674209 26.1062255,57.0625416 C32.7124784,61.4568005 40.545361,61.4516297 44.2673996,57.2469643 C44.5142739,56.9686066 44.7430842,56.6712896 44.95125,56.3567369 L45.4252142,55.6423143 L45.2256503,55.5104607 C45.6927331,55.0812901 46.1116452,54.5986886 46.4720645,54.0626562 L46.5021711,54.0169814 L46.5167943,53.9945749 C49.8569089,48.9177796 46.8711922,41.0220746 39.8382855,36.3434255 C32.8045186,31.6639146 24.3815462,31.9724348 21.0078842,37.0259619" id="Fill-31" fill="#633001"></path>
                                <path d="M44.95125,56.3564783 C41.5879103,61.4324119 33.1503146,61.7478264 26.1062255,57.062283 C19.0621363,52.3767396 16.0790002,44.4637988 19.4423399,39.3878653 L20.8711141,37.2316708 L46.3800242,54.2002838 L44.95125,56.3564783 Z" id="Fill-33" fill="#FEDC90"></path>
                                <path d="M46.501913,54.0173262 C43.1385733,59.0932597 34.7009777,59.4086742 27.6568885,54.7231308 C20.6119391,50.0367257 17.628803,42.1237848 20.9930029,37.0487131 C24.3563426,31.9727796 32.7930781,31.657365 39.8380275,36.3429084 C46.8812565,41.0284518 49.8652527,48.9413926 46.501913,54.0173262" id="Fill-35" fill="#D1884F"></path>
                                <path d="M52.0721541,53.9697554 C48.7088144,59.0448272 40.2703585,59.3611035 33.2271295,54.6755601 C26.1821802,49.9891549 23.1990441,42.0762141 26.563244,37.0011424 L27.9920182,34.8449479 L53.5009283,51.8135609 L52.0721541,53.9697554 Z" id="Fill-37" fill="#FEDC90"></path>
                                <path d="M53.6219569,51.6300862 C50.2586172,56.7060197 41.8210216,57.0214343 34.7769324,52.3358909 C27.7328432,47.6503475 24.7497071,39.7374066 28.1130468,34.6614731 C31.4763865,29.5855396 39.913122,29.270125 46.9580713,33.9556684 C54.0021605,38.6412118 56.9861568,46.5550145 53.6219569,51.6300862" id="Fill-39" fill="#D1884F"></path>
                                <path d="M26.16317,26.2077601 L26.16317,26.2077601 L24.5976257,28.569922 C22.3912404,31.8990105 22.4376907,35.8882289 23.7641024,39.4043254 C25.1025567,42.9540317 27.8302166,46.3365511 31.5668784,48.8219488 C35.3035402,51.3073464 39.4754577,52.514712 43.2594299,52.3725169 C47.0081344,52.2320454 50.6966256,50.7273629 52.9030108,47.3982744 L54.4195243,45.1102262 C54.4298466,45.0938523 54.4418892,45.0766165 54.4530717,45.0593807 C56.6594569,41.7302922 56.6121465,37.7410739 55.286595,34.2249773 C53.9490008,30.675271 51.2196206,27.2918898 47.4829588,24.8073539 C43.746297,22.3210945 39.5760999,21.1145908 35.7912675,21.2559241 C32.0511649,21.3963956 28.3712756,22.8941838 26.16317,26.2077601 M27.5609774,27.1376297 L27.545494,27.1600362 C27.1790534,27.7150279 26.8865891,28.3036294 26.668101,28.9180845 L26.4685371,28.7853691 L25.9954331,29.4997916 C25.7872673,29.8152062 25.6023266,30.1409622 25.4414713,30.4770597 C23.0183183,35.5452371 26.0530658,42.7790887 32.6601789,47.1742094 C39.2655716,51.5684683 47.0984542,51.5641594 50.8204928,47.3586321 C51.0673671,47.0802745 51.2961774,46.7838193 51.5052034,46.4684047 L51.9783074,45.7539822 L51.7796037,45.6221285 C52.2466865,45.1938197 52.6647384,44.7112182 53.0251577,44.1743241 C53.0346197,44.1596737 53.044942,44.1441615 53.0552643,44.1295111 C53.0604254,44.121755 53.0647264,44.1139989 53.0698875,44.1062428 C56.4100021,39.0294475 53.4242854,31.1337424 46.3913787,26.4550933 C39.3576118,21.7755824 30.9354996,22.0841027 27.5609774,27.1376297" id="Fill-41" fill="#633001"></path>
                                <path d="M51.5042572,46.4686633 C48.1409175,51.543735 39.7033218,51.8600113 32.6592326,47.1744679 C25.6151435,42.4880628 22.6320074,34.5751219 25.9953471,29.5000502 L27.4241213,27.3438557 L52.9338916,44.3124687 L51.5042572,46.4686633 Z" id="Fill-43" fill="#FEDC90"></path>
                                <path d="M53.0550062,44.128994 C49.6916665,49.2049275 41.2540709,49.5203421 34.2099817,44.8347987 C27.1650323,40.1492553 24.1818963,32.2363144 27.5460961,27.1603809 C30.9094358,22.0844474 39.3461713,21.7690329 46.3911207,26.4545762 C53.4343497,31.1409814 56.4183459,39.0539223 53.0550062,44.128994" id="Fill-45" fill="#D1884F"></path>
                            </g>
                            <g transform="translate(31.323247, 28.712977)">
                                <mask id="mask-17" fill="white">
                                    <use xlink:href="#path-16"></use>
                                </mask>
                                <g id="Clip-48"></g>
                                <path d="M7.7628108,3.07639644 C6.64822524,4.8013884 6.68580514,7.05255991 7.6509252,9.20726517 L7.6509252,9.20726517 L4.98360667,10.806851 L1.10092014,16.8096827 C0.58761292,17.6042138 0.703768962,18.6109707 1.36056305,19.0582233 L1.36056305,19.0582233 C2.01821123,19.5072299 2.96624952,19.2257238 3.47955674,18.4329466 L3.47955674,18.4329466 L6.56794092,13.6578672 L9.43682435,11.9372601 C10.0876398,12.6686497 10.8546113,13.3474213 11.7257817,13.9411272 L11.7257817,13.9411272 C15.9372923,16.8123136 20.9917883,16.6027188 23.0151241,13.4745813 L23.0151241,13.4745813 C25.0384598,10.3455669 23.2636638,5.48191395 19.0521532,2.61072754 L19.0521532,2.61072754 C17.0655432,1.25581519 14.8901797,0.586690199 12.9343169,0.586690199 L12.9343169,0.586690199 C10.745288,0.586690199 8.83212966,1.42419265 7.7628108,3.07639644" id="Fill-47" mask="url(#mask-17)"></path>
                            </g>
                            <g transform="translate(30.453157, 26.102706)">
                                <path d="M4.63609523,12.2749722 L0.745389141,18.0829531 C-0.298207234,19.6412334 -0.061807726,21.6178384 1.27492404,22.4979387 C2.61079617,23.3763351 4.54067579,22.8259529 5.5851318,21.2676726 L8.43653969,17.0111561 L9.93402312,16.1438355 C10.473014,16.6396907 11.0653022,17.1031705 11.7065896,17.525755 C14.0147085,19.044844 16.6108049,19.7903308 18.9954312,19.6949085 C21.3499703,19.6011901 23.7724205,18.651227 25.2466938,16.451402 C26.7201075,14.2507251 26.6633716,11.6700629 25.8372628,9.48216572 C24.9999787,7.26700503 23.2996215,5.18560597 20.990643,3.66651693 C18.6833838,2.14742789 16.0864278,1.40194112 13.7026611,1.49736343 C11.3472624,1.59108176 8.92481213,2.5410449 7.45053883,4.74086986 C6.15764843,6.67231959 6.04073813,8.88577631 6.59434279,10.8922007 L5.31434691,11.6342795 C5.19399807,11.7007343 5.07966667,11.7833769 4.97307198,11.8796512 C4.84240753,11.9963731 4.7297954,12.1309867 4.63609523,12.2749722 L4.63609523,12.2749722 Z M8.55946744,11.5005179 C8.45201311,11.268778 8.35659368,11.0361861 8.27148985,10.8027423 C7.59495744,8.92922753 7.67576309,7.03526515 8.6729392,5.54514359 C10.7094135,2.50526154 15.7967309,2.30248914 20.035589,5.09188764 C24.2753068,7.88128613 26.0607678,12.6072463 24.0242935,15.6471283 C21.9878191,18.6861584 16.9005017,18.8897828 12.6616436,16.1003843 C11.7848164,15.5235905 11.0128645,14.8633022 10.357823,14.1527468 L7.47031043,15.8251932 L4.36273144,20.4633988 C3.84523142,21.2344452 2.89103704,21.5070803 2.22911842,21.071716 C1.56891906,20.6363518 1.45114913,19.6591251 1.96778951,18.8872268 L5.87482865,13.0553903 L8.55946744,11.5005179 Z" id="Fill-49" fill="#633001"></path>
                                <path d="M12.6246793,4.80391675 C11.5690481,6.37923679 12.4338405,8.78694606 14.5562782,10.1833493 C16.6778564,11.5797525 19.2524619,11.4349151 20.3080932,9.85959502 C21.3620052,8.28512697 20.4972128,5.87656571 18.3756347,4.48101448 C16.2549162,3.08461126 13.6803106,3.22944869 12.6246793,4.80391675" id="Fill-51" fill="#9E7200"></path>
                                <polygon id="Fill-53" fill="#9E7200" points="13.4431374 3.58208523 21.1265513 8.63776351 20.3073195 9.86036181 12.6247653 4.80468353"></polygon>
                                <path d="M13.4431374,3.58208523 C12.3883658,5.15655329 13.2522985,7.56511454 15.3747363,8.96066578 C17.4963144,10.357069 20.07092,10.2122316 21.1265513,8.63776351 C22.1813229,7.06329545 21.3165305,4.65473419 19.1940927,3.25918296 C17.0733742,1.86277974 14.4987687,2.00761717 13.4431374,3.58208523" id="Fill-55" fill="#F0B90B"></path>
                                <path d="M16.0572862,4.80723949 L17.678557,4.7160771 C18.0206915,4.69648145 18.3129673,4.88903004 18.4281583,5.20937635 L18.9731667,6.72590944 C19.0814806,7.02751208 18.8347655,7.39471757 18.5115429,7.41346123 L16.8911317,7.50462362 C16.5481375,7.52336728 16.2558618,7.3308187 16.1415304,7.01047239 L15.5973817,5.49479128 C15.4882081,5.19233665 15.7340636,4.82513117 16.0572862,4.80723949" id="Fill-57" fill="#9E7200"></path>
                                <path d="M19.1944366,3.25884217 C17.0728585,1.86243895 14.4982529,2.00727638 13.4434813,3.58174444 L12.6242495,4.80434274 C11.5694779,6.3788108 12.4342703,8.78737205 14.5558484,10.1829233 C16.6774266,11.5793265 19.2520321,11.4344891 20.3076634,9.86002102 L21.1260355,8.63742271 C22.1816667,7.06295465 21.3168744,4.65524538 19.1944366,3.25884217 M16.0679456,0.671364085 C17.4450802,0.594685446 18.8918452,1.00534216 20.1494906,1.83347146 C21.407136,2.66074878 22.3510148,3.82285616 22.8134982,5.11020531 C23.2682448,6.37795881 23.3155247,7.99843405 22.3484358,9.44254842 L21.5300637,10.6642947 C20.5629748,12.1075571 19.0371235,12.6937227 17.6823394,12.7704014 C16.3060644,12.84708 14.8584398,12.4355713 13.6007944,11.609146 C12.343149,10.7818687 11.4001299,9.61890929 10.9376465,8.33156014 C10.4820402,7.06380664 10.4356199,5.4433314 11.4027088,4.00006901 L12.2210809,2.77832269 C13.1881698,1.33420832 14.7131615,0.748042725 16.0679456,0.671364085" id="Fill-59" fill="#633001"></path>
                            </g>
                        </g>
                        <g id="编组" opacity="0.200000003" transform="translate(401.720648, 1.000000)">
                            <g stroke="#24C7D6" stroke-width="1.04320815">
                                <path d="M8.90405773,36.077759 C9.48082911,36.5840167 10.1058072,37.0454423 10.7779664,37.4561732 C18.3963402,42.1087091 29.2230262,38.4948981 34.9609954,29.3843286 C40.6986227,20.273759 39.1748112,9.11643224 31.5571211,4.46389631 C31.0063335,4.12765566 30.1950244,3.69140498 29.6144922,3.4403453" id="Stroke-1" stroke-linecap="round" stroke-linejoin="round"></path>
                                <path d="M3.64678833,10.2114387 C-2.09083898,19.3220083 -0.567027463,30.479335 7.05100446,35.1318709 C14.6686945,39.7847517 25.4957223,36.1709408 31.2333497,27.0603712 C36.9716608,17.9498016 35.4475073,6.79247485 27.8294754,2.13959406 C20.2117854,-2.51294187 9.38475753,1.10086911 3.64678833,10.2114387 Z" id="Stroke-3"></path>
                            </g>
                            <g transform="translate(0.991903, 1.983806)">
                                <mask id="mask-19" fill="white">
                                    <use xlink:href="#path-18"></use>
                                </mask>
                                <g id="Clip-6"></g>
                                <path d="M3.26095887,8.98856032 C-1.98363285,16.9961538 -0.5906974,26.8024137 6.37187147,30.8919343 L6.37187147,30.8919343 C13.3347917,34.981114 23.2304666,31.8050719 28.4750583,23.7974785 L28.4750583,23.7974785 C33.7189473,15.789885 32.3263632,5.98362506 25.363443,1.8941045 L25.363443,1.8941045 C23.3021515,0.683404628 20.9829351,0.109412911 18.6039812,0.109412911 L18.6039812,0.109412911 C12.9482557,0.10907206 6.95237838,3.35192075 3.26095887,8.98856032" id="Fill-5" fill="#24C7D6" mask="url(#mask-19)"></path>
                            </g>
                            <g transform="translate(3.967611, 0.991903)">
                                <path d="M20.2087613,1.65833432 L20.2087613,1.65833432 C20.2992283,1.6748636 20.3860232,1.61391188 20.4023807,1.52265649 L20.63873,0.198936756 C20.6550875,0.107681364 20.5946648,0.0202139304 20.503864,0.00368465171 C20.4130632,-0.012500267 20.3266021,0.0481070882 20.3102446,0.139706841 L20.0738953,1.46308222 C20.0575378,1.55468197 20.1182943,1.64180504 20.2087613,1.65833432" id="Fill-7" fill="#24C7D6"></path>
                                <path d="M1.66409226,10.0736312 L1.66409226,10.0736312 C1.71917365,9.9992494 1.7034838,9.89387525 1.6293743,9.8384333 L0.558124708,9.03607456 C0.484349027,8.9806326 0.379527472,8.9961288 0.324446081,9.07051056 C0.269698517,9.14489231 0.285054541,9.25026646 0.359164049,9.30570842 L1.43041364,10.1084115 C1.50418932,10.1635091 1.60901087,10.1480129 1.66409226,10.0736312" id="Fill-9" fill="#24C7D6"></path>
                                <path d="M2.50877373,32.3620205 L2.50877373,32.3620205 C2.41763907,32.3496235 2.3351839,32.4016219 2.3251691,32.4777254 L2.07246235,33.4422777 C2.06244756,33.5187256 2.12854522,33.5903525 2.22001371,33.6027495 C2.31114838,33.6148021 2.39326972,33.5628037 2.40361835,33.4867001 L2.65599127,32.5221479 C2.66633989,32.4460443 2.60024222,32.3740731 2.50877373,32.3620205" id="Fill-11" fill="#24C7D6"></path>
                                <path d="M2.13351924,31.7873181 L2.13351924,31.7873181 C2.04371988,31.7659678 1.95392052,31.8217541 1.93255562,31.9119764 L1.67651061,32.9732939 C1.65481188,33.0635162 1.71056093,33.1540828 1.80036028,33.1754332 C1.89015964,33.1967835 1.979959,33.1409972 2.0013239,33.0507749 L2.25770274,31.9894574 C2.27906764,31.8992351 2.22365242,31.8086684 2.13351924,31.7873181" id="Fill-13" fill="#24C7D6"></path>
                                <path d="M29.599237,9.37585454 L29.599237,9.37585454 C29.6239402,9.46538814 29.7164102,9.51738649 29.8048742,9.49224822 L31.3688519,9.03700433 C31.4576498,9.01186605 31.5097267,8.91888886 31.4843559,8.82969963 C31.4596527,8.74016603 31.3675166,8.68816768 31.2787187,8.71330596 L29.7150749,9.16854984 C29.626277,9.19368812 29.5745339,9.28666531 29.599237,9.37585454" id="Fill-15" fill="#24C7D6"></path>
                                <path d="M29.2096614,8.27466022 L29.2096614,8.27466022 C29.2346984,8.36419382 29.3268345,8.41619217 29.4152986,8.39105389 L30.7011987,8.02844284 C30.7899965,8.00330456 30.8420735,7.91032737 30.8167027,7.82113814 C30.7919995,7.73160455 30.6998634,7.67926183 30.6110655,7.70440011 L29.3254992,8.06735552 C29.2367013,8.0924938 29.1849582,8.18547099 29.2096614,8.27466022" id="Fill-17" fill="#24C7D6"></path>
                                <path d="M27.9187205,25.0252246 L30.1750545,26.3069325 C30.2555068,26.352388 30.3573239,26.3234617 30.4017228,26.2421928 C30.4467894,26.1609238 30.4180803,26.0586489 30.3376281,26.0135378 L28.081294,24.7314856 C28.0008418,24.6863744 27.8990247,24.7153007 27.8546258,24.7965696 C27.8095592,24.8774942 27.8382683,24.9801135 27.9187205,25.0252246" id="Fill-19" fill="#24C7D6"></path>
                                <path d="M27.0939351,26.5945075 L28.4786479,27.3958331 C28.5594339,27.4409443 28.6609172,27.412018 28.7059838,27.3310935 C28.7510504,27.2498245 28.7220075,27.1475496 28.6415552,27.1024384 L27.2565086,26.3007684 C27.1760564,26.2556573 27.0742393,26.2849279 27.0298404,26.3658524 C26.9847738,26.4471214 27.0134829,26.5493963 27.0939351,26.5945075" id="Fill-21" fill="#24C7D6"></path>
                                <path d="M26.2701178,27.9110645 L27.8451117,28.8105328 C27.9255639,28.8556439 28.0273811,28.8267177 28.0721138,28.7454487 C28.1171804,28.6645241 28.0881375,28.5622492 28.0076853,28.5167937 L26.4323575,27.6173255 C26.3519053,27.5722143 26.250422,27.6014849 26.2056892,27.6824095 C26.1606227,27.7633341 26.1896656,27.8659534 26.2701178,27.9110645" id="Fill-23" fill="#24C7D6"></path>
                                <path d="M5.79876849,14.9659877 C6.87936523,13.3967393 8.64330503,12.6649744 10.4846926,12.5998904 C12.3931793,12.5323958 14.5129783,13.1646407 16.4211312,14.4714868 C18.3292841,15.7783329 19.7166675,17.5483432 20.3970061,19.3892916 C21.053643,21.1648116 21.0843551,23.1259416 20.1019034,24.7623402 L20.1039063,24.7637177 L19.5066905,25.6910791 C18.4357748,27.3550265 16.6237639,28.1277702 14.7296318,28.1949204 C12.8208112,28.262415 10.7013461,27.6298257 8.79319318,26.3229796 C6.88470645,25.0161335 5.49732307,23.2461233 4.81698444,21.4055192 C4.14165321,19.5786896 4.12863397,17.5559191 5.19954973,15.8916273 L5.79643171,14.9646103 L5.79876849,14.9659877 Z M6.34157056,15.3378965 C6.31019086,15.3826633 6.27947881,15.4284632 6.24976824,15.4749518 C6.13660102,15.6505754 6.03778835,15.8323974 5.95232873,16.0200736 L5.91527398,15.994591 L5.74201797,16.2635361 C5.65755984,16.3943929 5.58111354,16.529382 5.51234526,16.6674704 C4.16635638,19.3610541 5.7436871,23.2857247 9.21681914,25.6645634 C12.690285,28.0434021 16.8083701,28.0196412 18.6928213,25.6952114 C18.7892972,25.5760629 18.880098,25.4507158 18.9642223,25.3195147 L19.1374783,25.0509139 L19.1004236,25.0254313 C19.2349557,24.8715023 19.3591392,24.7068983 19.4719726,24.5312747 C19.502017,24.4847861 19.5310599,24.4376088 19.5587675,24.3904315 C21.1497851,21.695126 19.5854736,17.5876002 15.9975052,15.1302474 C12.409203,12.6725503 8.13221649,12.7789575 6.34157056,15.3378965 L6.34157056,15.3378965 Z" id="Fill-25" fill="#606063"></path>
                                <path d="M18.9643892,25.3196524 C17.2324968,28.0108256 12.8680477,28.1654432 9.21665223,25.6643567 C5.56525678,23.1636146 4.00962478,18.954847 5.74218488,16.2636738 L6.23858505,15.4919632 L19.4607894,24.5482861 L18.9643892,25.3196524 Z" id="Fill-27" fill="#BEBEBE"></path>
                                <path d="M19.4719726,24.5312058 C17.7397463,27.222379 13.3752972,27.3766523 9.72423559,24.8759102 C6.07284014,22.375168 4.51720814,18.1664004 6.24976824,15.4748829 C7.98166069,12.7837097 12.3457759,12.6290921 15.9971714,15.1301786 C19.6485668,17.6309207 21.2041988,21.8400326 19.4719726,24.5312058" id="Fill-29" fill="#FAF9FA"></path>
                                <path d="M7.61037874,14.4235519 L7.61037874,14.4235519 L7.00281431,15.3674426 C6.14654905,16.6977052 6.16457569,18.2917475 6.67933632,19.6967362 C7.19877053,21.1151549 8.2573347,22.4667678 9.70747749,23.4599019 C11.1576203,24.4530361 12.7763455,24.9351401 14.2451826,24.878665 C15.699999,24.8225344 17.1314474,24.2212818 17.9873789,22.8910193 L18.5759152,21.9767435 C18.5802549,21.9698563 18.5849285,21.9633135 18.5892683,21.9564263 C19.4455335,20.6258194 19.427173,19.0317771 18.9127462,17.6267884 C18.3936459,16.208714 17.334414,14.8567567 15.8842712,13.8639669 C14.4341284,12.8704884 12.815737,12.3883845 11.3469,12.4448595 C9.89542187,12.5009902 8.46731164,13.0994878 7.61037874,14.4235519 M8.15284697,14.7951163 C8.15084402,14.7978712 8.14884106,14.8013148 8.1468381,14.8040697 C8.00429413,15.0258375 7.89112691,15.2610354 7.80600113,15.506564 L7.72888718,15.4535326 L7.54528255,15.739007 C7.46416268,15.8650427 7.39272379,15.9952108 7.33029821,16.1295112 C6.38990865,18.1546922 7.56764893,21.0452498 10.1314373,22.8014857 C12.6952256,24.5573772 15.7350507,24.555311 17.1795185,22.8751787 C17.2753267,22.7639504 17.3641246,22.6451462 17.4449106,22.5194549 L17.6288491,22.2339804 L17.5514013,22.1812934 C17.7326692,22.0098021 17.8952427,21.8169605 18.0351161,21.6027686 L18.0468,21.5845175 L18.0524751,21.5755642 C19.3487238,19.5469396 18.1900116,16.3919135 15.4606453,14.5223832 C12.7309451,12.6525086 9.46211494,12.7757894 8.15284697,14.7951163" id="Fill-31" fill="#633001"></path>
                                <path d="M17.4449106,22.5193516 C16.1396486,24.5476318 12.8651434,24.6736675 10.1314373,22.8013824 C7.39773119,20.9290972 6.24002051,17.7671839 7.54528255,15.7389037 L8.09976854,14.877315 L17.9993966,21.6577629 L17.4449106,22.5193516 Z" id="Fill-33" fill="#FEDC90"></path>
                                <path d="M18.0466999,21.5846553 C16.7414378,23.6129355 13.4669326,23.7389713 10.7332265,21.8666861 C7.99918659,19.9940566 6.84147591,16.8321433 8.14707177,14.8042074 C9.45233382,12.7759272 12.7265052,12.6498914 15.4605451,14.5221766 C18.1939174,16.3944618 19.3519619,19.556375 18.0466999,21.5846553" id="Fill-35" fill="#D1884F"></path>
                                <path d="M20.2084275,21.5656466 C18.9031654,23.5935825 15.6283264,23.7199626 12.8949541,21.8476774 C10.1609142,19.9750479 9.0032035,16.8131346 10.3087994,14.7851987 L10.8632854,13.9236101 L20.7629134,20.704058 L20.2084275,21.5656466 Z" id="Fill-37" fill="#FEDC90"></path>
                                <path d="M20.8098829,20.6307437 C19.5046208,22.659024 16.2301156,22.7850597 13.4964095,20.9127745 C10.7627034,19.0404894 9.60499272,15.8785761 10.9102548,13.8502959 C12.2155168,11.8220156 15.4896882,11.6959799 18.2237281,13.568265 C20.9574342,15.4405502 22.1154787,18.6028078 20.8098829,20.6307437" id="Fill-39" fill="#D1884F"></path>
                                <path d="M10.1535366,10.4722967 L10.1535366,10.4722967 L9.54597218,11.4161874 C8.68970693,12.74645 8.70773356,14.3404923 9.2224942,15.745481 C9.7419284,17.1638997 10.8004926,18.5155126 12.2506354,19.5086467 C13.7007782,20.5017809 15.3198372,20.9842292 16.7883405,20.9274098 C18.2431568,20.8712792 19.6746053,20.2700266 20.5308706,18.9397641 L21.1194069,18.0254883 C21.1234128,18.0189455 21.1280864,18.0120583 21.1324261,18.0051711 C21.9886914,16.6749085 21.9703309,15.0808662 21.4559041,13.6758775 C20.9368037,12.2574588 19.8775719,10.9055015 18.4274291,9.91271174 C16.9772863,8.91923322 15.3588949,8.43712926 13.8900578,8.49360429 C12.4385797,8.54973497 11.0104695,9.1482326 10.1535366,10.4722967 M10.6960048,10.8438611 L10.689996,10.8528145 C10.5477858,11.0745823 10.4342848,11.3097802 10.3494928,11.5553088 L10.2720451,11.5022774 L10.0884404,11.7877518 C10.0076544,11.9137875 9.93588166,12.0439556 9.87345608,12.178256 C8.93306653,14.203437 10.1108068,17.0939946 12.674929,18.8502305 C15.2383835,20.606122 18.2782086,20.6044002 19.7226764,18.9239235 C19.8184846,18.8126952 19.9072825,18.6942354 19.9884023,18.5681997 L20.172007,18.2827252 L20.094893,18.2300382 C20.2761609,18.0588913 20.4384006,17.8660497 20.578274,17.6515134 C20.581946,17.6456593 20.585952,17.6394608 20.5899579,17.6336067 C20.5919608,17.6305075 20.59363,17.6274082 20.5956329,17.624309 C21.8918817,15.5956844 20.7331695,12.4406583 18.0038031,10.571128 C15.274103,8.70125336 12.0056066,8.82453423 10.6960048,10.8438611" id="Fill-41" fill="#633001"></path>
                                <path d="M19.9880351,18.568303 C18.6827731,20.5962388 15.4082679,20.722619 12.6745618,18.8503338 C9.94085567,16.9777043 8.783145,13.815791 10.088407,11.7878551 L10.642893,10.9262665 L20.5428549,17.7067143 L19.9880351,18.568303 Z" id="Fill-43" fill="#FEDC90"></path>
                                <path d="M20.5898577,17.6334001 C19.2845957,19.6616803 16.0100905,19.7877161 13.2763844,17.9154309 C10.5423445,16.0431457 9.38463378,12.8812325 10.6902296,10.8529522 C11.9954917,8.82467197 15.2696631,8.69863622 18.003703,10.5709214 C20.7370753,12.4435509 21.8951198,15.6054642 20.5898577,17.6334001" id="Fill-45" fill="#D1884F"></path>
                            </g>
                            <g transform="translate(12.894737, 11.902834)">
                                <mask id="mask-21" fill="white">
                                    <use xlink:href="#path-20"></use>
                                </mask>
                                <g id="Clip-48"></g>
                                <path d="M2.84451567,1.06737581 C2.43609968,1.66587302 2.44987003,2.44693166 2.80351759,3.1945207 L2.80351759,3.1945207 L1.82613587,3.74950744 L0.403408593,5.83222905 C0.215318163,6.1078968 0.257881055,6.45719767 0.498549176,6.61237488 L0.498549176,6.61237488 C0.73953026,6.76816063 1.08691857,6.67049027 1.275009,6.39543105 L1.275009,6.39543105 L2.40668121,4.7386861 L3.45792206,4.14171024 C3.69639945,4.39547062 3.97743972,4.63097486 4.29666142,4.836965 L4.29666142,4.836965 C5.83987924,5.83314185 7.691991,5.76042155 8.43339903,4.67509387 L8.43339903,4.67509387 C9.17480706,3.58946192 8.5244711,1.9019858 6.98125328,0.905808946 L6.98125328,0.905808946 C6.25330263,0.435713272 5.45618728,0.203555991 4.73950328,0.203555991 L4.73950328,0.203555991 C3.93738053,0.203555991 3.23634465,0.494132928 2.84451567,1.06737581" id="Fill-47" mask="url(#mask-21)"></path>
                            </g>
                            <g transform="translate(12.894737, 10.910931)">
                                <path d="M1.8753753,4.66448942 L0.30152193,6.87152217 C-0.120629636,7.4636687 -0.0250022221,8.21477857 0.515727337,8.54921672 C1.05610916,8.88300735 1.8367766,8.67386211 2.2592759,8.08171558 L3.41271638,6.46423932 L4.01847258,6.13465749 C4.23650308,6.32308247 4.47609322,6.49920478 4.73550432,6.65978689 C5.66917561,7.23704073 6.71933849,7.5203257 7.68395829,7.48406522 C8.63640734,7.44845225 9.61632753,7.08746626 10.2126949,6.25153277 C10.8087144,5.41527554 10.7857639,4.4346239 10.4515895,3.60322297 C10.1128946,2.76146191 9.4250727,1.97053027 8.49105367,1.39327643 C7.55773011,0.816022598 6.5072195,0.532737626 5.54294743,0.568998102 C4.59015065,0.60461107 3.61023046,0.965597064 3.01386313,1.80153055 C2.49086811,2.53548144 2.443576,3.376595 2.66751802,4.13903627 L2.14973904,4.42102622 C2.10105599,4.44627905 2.0548071,4.47768322 2.01168783,4.51426745 C1.95883195,4.55862178 1.91327853,4.60977495 1.8753753,4.66448942 L1.8753753,4.66448942 Z M3.46244263,4.3701968 C3.41897563,4.28213565 3.38037693,4.19375073 3.34595106,4.10504207 C3.07228278,3.39310646 3.10496997,2.67340076 3.50834379,2.10715456 C4.3321305,0.951999385 6.39003245,0.874945872 8.10471891,1.9349173 C9.81975312,2.99488873 10.5420009,4.79075358 9.71821419,5.94590876 C8.89442749,7.10074018 6.83652554,7.17811745 5.12183907,6.11814602 C4.7671483,5.89896439 4.45488132,5.64805484 4.18990645,5.3780438 L3.02186106,6.0135734 L1.76479523,7.77609156 C1.55545813,8.06908916 1.16947111,8.17269052 0.901714354,8.0072521 C0.634653067,7.84181367 0.587013228,7.47046754 0.796002594,7.17714619 L2.37646295,4.96104832 L3.46244263,4.3701968 Z" id="Fill-49" fill="#633001"></path>
                                <path d="M5.10688642,1.82548836 C4.67986655,2.42410998 5.02968902,3.3390395 5.88824933,3.86967273 C6.7464619,4.40030595 7.78793137,4.34526773 8.21495124,3.74664611 C8.64127564,3.14834825 8.29145317,2.23309497 7.4332406,1.7027855 C6.57537576,1.17215228 5.53390629,1.2271905 5.10688642,1.82548836" id="Fill-51" fill="#9E7200"></path>
                                <polygon id="Fill-53" fill="#9E7200" points="5.43796591 1.36119239 8.54603074 3.28235013 8.21463828 3.74693749 5.10692119 1.82577974"></polygon>
                                <path d="M5.43796591,1.36119239 C5.01129378,1.95949025 5.36076851,2.87474353 6.21932882,3.405053 C7.07754139,3.93568622 8.11901087,3.88064799 8.54603074,3.28235013 C8.97270287,2.68405227 8.6228804,1.76879899 7.76432009,1.23848952 C6.90645526,0.707856302 5.86498578,0.762894525 5.43796591,1.36119239" id="Fill-55" fill="#F0B90B"></path>
                                <path d="M6.49543124,1.826751 L7.15126144,1.7921093 C7.28966038,1.78466295 7.40789064,1.85783141 7.45448727,1.97956301 L7.67495193,2.55584559 C7.71876667,2.67045459 7.61896642,2.80999268 7.48821767,2.81711527 L6.83273521,2.85175697 C6.69398853,2.85887957 6.57575827,2.78571111 6.52950938,2.66397951 L6.30939246,2.08802069 C6.26522998,1.97308793 6.36468249,1.83354984 6.49543124,1.826751" id="Fill-57" fill="#9E7200"></path>
                                <path d="M7.76445919,1.23836002 C6.90624661,0.7077268 5.86477714,0.762765023 5.43810501,1.36106289 L5.10671255,1.82565024 C4.68004042,2.4239481 5.02986288,3.33920138 5.88807546,3.86951085 C6.74628803,4.40014407 7.7877575,4.34510585 8.21477737,3.74680799 L8.5458221,3.28222063 C8.97284197,2.68392277 8.6230195,1.76899325 7.76445919,1.23836002 M6.49974317,0.255118352 C7.05681632,0.22598047 7.6420561,0.38203002 8.15079394,0.696719155 C8.65953178,1.01108454 9.04134597,1.45268534 9.22842796,1.94187802 C9.41238033,2.42362435 9.43150582,3.03940494 9.04030276,3.5881684 L8.70925804,4.052432 C8.31805498,4.60087171 7.70082349,4.82361464 7.15279147,4.85275252 C6.59606606,4.8818904 6.01047855,4.7255171 5.5017407,4.41147547 C4.99300286,4.09711009 4.61153641,3.65518553 4.42445442,3.16599285 C4.24015431,2.68424652 4.22137656,2.06846593 4.61257962,1.52002622 L4.94362434,1.05576262 C5.3348274,0.506999162 5.95171115,0.284256235 6.49974317,0.255118352" id="Fill-59" fill="#633001"></path>
                            </g>
                        </g>
                        <g id="编组" transform="translate(242.024291, 0.919028)">
                            <path d="M13.8866397,54.26121 C14.7782487,55.040608 15.7430369,55.7523059 16.7818455,56.3853023 C28.5519256,63.5547487 45.2788471,57.9855647 54.1436277,43.9470914 C63.0084082,29.9077718 60.6548969,12.7144713 48.8848168,5.54502494 C48.0352648,5.02711876 46.7802831,4.35434847 45.8836272,3.96761134" id="Stroke-1" stroke="#F6931B" stroke-width="0.801674893" stroke-linecap="round" stroke-linejoin="round"></path>
                            <path d="M5.39024911,15.4145943 C-3.50798032,29.3162545 -1.14390001,46.3409701 10.669747,53.4401181 C22.4833941,60.5392661 39.2734302,55.0255274 48.1725039,41.1238672 C57.0707334,27.222207 54.706653,10.1974915 42.893006,3.09834347 C31.079359,-4.00080453 14.2884785,1.51293412 5.39024911,15.4145943 Z" id="Stroke-3" stroke="#F6931B" stroke-width="0.801674893"></path>
                            <path d="M7.76720559,16.7680398 C-0.142249167,29.206328 1.95833053,44.4386573 12.4603851,50.7905901 C22.9607517,57.1425228 37.8859232,52.2086882 45.7953779,39.771243 C53.7056767,27.3329547 51.6034091,12.0997823 41.1030424,5.74784956 C30.6018319,-0.604083185 15.6766603,4.32975149 7.76720559,16.7680398" id="Fill-5" fill="#F6931B"></path>
                            <path d="M37.9310872,2.97089497 L37.9310872,2.97089497 C38.0892757,3.00038865 38.2400635,2.89126202 38.2678159,2.72806364 L38.679476,0.354805245 C38.7081534,0.19062374 38.6036195,0.0343072182 38.445431,0.00481353472 C38.2872425,-0.0246801487 38.1364547,0.08444648 38.1068522,0.247644862 L37.6970422,2.62090326 C37.6683648,2.78508476 37.7728987,2.94140128 37.9310872,2.97089497" id="Fill-7" fill="#F6931B"></path>
                            <path d="M7.88859321,15.7523185 L7.88859321,15.7523185 C7.9666221,15.6223748 7.94411377,15.4389248 7.84057544,15.3424225 L6.32801544,13.944572 C6.22297655,13.8480697 6.07592211,13.8748228 5.99789322,14.0047665 C5.92061461,14.1347102 5.94162239,14.3181602 6.04666128,14.4146625 L7.55922127,15.812513 C7.6627596,15.9090153 7.81056432,15.8822622 7.88859321,15.7523185" id="Fill-9" fill="#F6931B"></path>
                            <path d="M9.6677088,49.5979111 L9.6677088,49.5979111 C9.51273023,49.5786729 9.37397034,49.6617468 9.35594958,49.7824226 L8.92885746,51.3206014 C8.91173773,51.4421516 9.02346647,51.5567062 9.17844505,51.5759443 C9.33342362,51.596057 9.47218351,51.5129831 9.48930323,51.3914328 L9.91729639,49.853254 C9.93441611,49.7317038 9.82268737,49.6171493 9.6677088,49.5979111" id="Fill-11" fill="#F6931B"></path>
                            <path d="M8.71199896,49.6016121 L8.71199896,49.6016121 C8.56086736,49.5712439 8.4088415,49.6506685 8.37396498,49.7791495 L7.94292694,51.2858813 C7.90715614,51.4135836 7.99926593,51.5428433 8.15039753,51.5724328 C8.30152912,51.6028011 8.45266072,51.5241551 8.48843151,51.3956741 L8.91946955,49.8889424 C8.95524034,49.7604614 8.86223628,49.6319804 8.71199896,49.6016121" id="Fill-13" fill="#F6931B"></path>
                            <path d="M52.580661,14.7248663 L52.580661,14.7248663 C52.619831,14.8368962 52.7648435,14.9021897 52.9040221,14.8705739 L55.3550657,14.3001151 C55.4942443,14.2684993 55.5759179,14.1523457 55.5367479,14.0403158 C55.4975779,13.928286 55.3525654,13.8629925 55.2133868,13.8946083 L52.7623433,14.4650671 C52.6231646,14.4966828 52.541491,14.6128365 52.580661,14.7248663" id="Fill-15" fill="#F6931B"></path>
                            <path d="M51.5904453,12.720757 L51.5904453,12.720757 C51.6363514,12.8475882 51.8053247,12.9215083 51.9684376,12.8857154 L54.3311336,12.3706094 C54.4942465,12.3355947 54.5889888,12.2033167 54.5430827,12.0764855 C54.4981534,11.9504323 54.3282034,11.8765123 54.1650904,11.9115271 L51.8033712,12.426633 C51.6402583,12.4616478 51.5445393,12.5939258 51.5904453,12.720757" id="Fill-17" fill="#F6931B"></path>
                            <path d="M49.726281,38.2713988 L53.1824199,40.6291315 C53.3062024,40.7118235 53.461745,40.6583762 53.5301511,40.5091271 C53.5993716,40.359878 53.5545819,40.1723081 53.4316137,40.0886076 L49.9754748,37.7318834 C49.8516923,37.6481828 49.6961498,37.7016302 49.6277436,37.8508793 C49.5585231,38.0001284 49.6033129,38.1876982 49.726281,38.2713988" id="Fill-19" fill="#F6931B"></path>
                            <path d="M48.7510563,41.217549 L51.1488667,42.6149111 C51.2887773,42.6933394 51.4645861,42.6426479 51.5419051,42.5020509 C51.6201446,42.3604975 51.5704395,42.1816428 51.4305289,42.102258 L49.0336389,40.7048959 C48.8937283,40.6264677 48.7179195,40.6771591 48.63968,40.8187126 C48.562361,40.9593096 48.6120661,41.1381643 48.7510563,41.217549" id="Fill-21" fill="#F6931B"></path>
                            <path d="M46.7528608,43.1573444 L49.20791,44.6010796 C49.3330239,44.6741467 49.4921091,44.6274894 49.5625375,44.4972011 C49.6321372,44.3669128 49.5865659,44.2022918 49.4614521,44.130105 L47.0064028,42.6863698 C46.8804604,42.6133027 46.7222038,42.65996 46.652604,42.7902483 C46.5821756,42.9205366 46.6277469,43.0842773 46.7528608,43.1573444" id="Fill-23" fill="#F6931B"></path>
                            <g transform="translate(25.968792, 28.362928) rotate(12.000000) translate(-25.968792, -28.362928) translate(14.468792, 14.362928)">
                                <mask id="mask-23" fill="white">
                                    <use xlink:href="#path-22"></use>
                                </mask>
                                <g id="Clip-2"></g>
                                <path d="M18.5007225,13.4189067 C17.9084471,14.1480085 16.937382,14.4493775 16.0377369,14.1834028 L10.0815712,12.4026143 L11.409117,7.94008679 L17.3652827,9.7000734 C17.9613795,9.88020139 18.4595643,10.2937558 18.7472069,10.8469728 C19.190032,11.6757375 19.0927913,12.6898049 18.5007225,13.4189067 M16.73691,19.9890507 C16.3696879,21.2220556 15.0750377,21.9238872 13.844113,21.5572147 L7.88799893,19.7804624 L9.2157513,15.3136917 L15.1718653,17.094532 C16.4003629,17.4626534 17.1001557,18.7568738 16.73691,19.9890507 M18.2309994,6.82232039 L17.440266,6.58884222 L18.543275,2.87689116 L15.7129124,2.04269311 L14.6098518,5.75464417 L12.1958223,5.03304552 L13.2988829,1.3212497 L12.6205213,1.12094074 L9.8734047,0.286949677 L8.80788742,3.86529244 L5.47799746,2.86436862 L4.53332109,6.04654363 L7.86300448,7.04343126 L4.4249774,18.6169525 L1.09534565,17.6160287 L0.150462714,20.7982037 L3.48014611,21.7948843 L2.59356633,24.7895317 L3.2721345,24.9938768 L6.01925111,25.8278679 L6.95566485,22.6749811 L9.3781119,23.4006677 L8.44154323,26.5535027 L11.2594086,27.3877525 L12.1875597,24.2514245 L12.978293,24.4891976 C13.4767876,24.6377088 13.9941829,24.7137237 14.5143152,24.7142929 C16.4181275,24.7131028 18.1781702,23.6984145 19.1362217,22.0497854 C20.0943248,20.4012598 20.106254,18.3665534 19.1676197,16.7067989 C20.4550917,16.037412 21.4172745,14.8744713 21.8354151,13.4828131 L21.8354151,13.4953356 C22.6754143,10.6555642 21.0630145,7.67064511 18.2309994,6.82232039" id="Fill-1" fill="#FFFFFF" mask="url(#mask-23)"></path>
                            </g>
                        </g>
                        <g id="编组" transform="translate(143.000000, 250.000000)">
                            <path d="M45.9658857,56.8031832 C45.0720087,57.6000261 44.1032215,58.3258403 43.0614648,58.9724747 C31.2547591,66.2946582 14.474092,60.607303 5.58112243,46.2683988 C-3.31145899,31.9302708 -0.949652086,14.3702268 10.8570536,7.04765508 C11.7097882,6.51862586 12.9677366,5.83162533 13.8678237,5.43689113" id="Stroke-1" stroke="#F3BA2F" stroke-width="0.5" stroke-linecap="round" stroke-linejoin="round"></path>
                            <path d="M54.1137119,16.0932785 C63.0066815,30.4317946 60.6444864,47.9918386 48.8381689,55.3144103 C37.0314632,62.636982 20.2511842,56.9496268 11.3582147,42.6107226 C2.46524512,28.2722065 4.82744015,10.7125506 16.6341458,3.38997888 C28.4404634,-3.93298099 45.2207424,1.75476237 54.1137119,16.0932785 Z" id="Stroke-3" stroke="#F3BA2F" stroke-width="0.5"></path>
                            <path d="M51.669659,18.1344075 C59.5779278,30.8854478 57.4773364,46.500931 46.9778724,53.0126869 C36.4787965,59.5248308 21.556524,54.4666439 13.6482552,41.7159917 C5.73998645,28.9645633 7.84018976,13.3494682 18.3396538,6.83771237 C28.8391178,0.325568386 43.7613902,5.38336719 51.669659,18.1344075" id="Fill-5" fill="#F3BA2F"></path>
                            <path d="M22.4594057,3.70894895 L22.320065,3.73378965 C22.214492,3.75280831 22.1135767,3.68294385 22.0949461,3.57737089 L21.694778,1.35179968 C21.6757594,1.24622672 21.746012,1.14531139 21.8515849,1.12629273 L21.9909257,1.1010639 C22.0961105,1.08204524 22.1970259,1.15229783 22.2160445,1.25825893 L22.6162126,3.483442 C22.6352313,3.58901496 22.5649787,3.68993029 22.4594057,3.70894895" id="Fill-7" fill="#F3BA2F"></path>
                            <path d="M51.8682682,17.041999 L51.7832664,16.9282752 C51.7196121,16.842109 51.7374664,16.7206225 51.8236325,16.6569682 L53.6381678,15.3070316 C53.7239459,15.2433773 53.8458205,15.2612316 53.9094748,15.3473977 L53.9940885,15.4611215 C54.0581309,15.5468996 54.0402766,15.6683861 53.9541105,15.7324285 L52.1395752,17.081977 C52.0537971,17.1460195 51.9319225,17.1281652 51.8682682,17.041999" id="Fill-9" fill="#F3BA2F"></path>
                            <path d="M50.4847966,52.1148509 L50.4847966,52.1148509 C50.6299594,52.0954441 50.7603731,52.1773408 50.7762867,52.2976629 L51.177231,53.8176031 C51.1931446,53.9375371 51.088736,54.0504846 50.9435732,54.0698914 C50.7987985,54.0892982 50.6679967,54.0074015 50.6520832,53.8870794 L50.2507507,52.3671392 C50.2348371,52.2472052 50.3396338,52.1338696 50.4847966,52.1148509" id="Fill-11" fill="#F3BA2F"></path>
                            <path d="M51.0802359,51.2089417 L51.0802359,51.2089417 C51.2226817,51.1751739 51.3655158,51.2632808 51.3992836,51.4057266 L51.80605,53.0778161 C51.8398178,53.2206501 51.751711,53.3630959 51.6092651,53.3968638 C51.4672074,53.4306316 51.3243733,53.3425247 51.2906055,53.2000789 L50.883451,51.5276013 C50.8496832,51.3851554 50.9381781,51.2427096 51.0802359,51.2089417" id="Fill-13" fill="#F3BA2F"></path>
                            <path d="M7.48395863,15.88516 L7.48395863,15.88516 C7.44436877,16.0260533 7.29804154,16.1083381 7.15714821,16.0691364 L4.67501919,15.351085 C4.53412586,15.3114952 4.45184105,15.1655561 4.49143091,15.0242746 C4.53102077,14.8833813 4.677348,14.8010965 4.81824133,14.8410745 L7.30037036,15.5587377 C7.44126369,15.5983276 7.52354849,15.7446548 7.48395863,15.88516" id="Fill-15" fill="#F3BA2F"></path>
                            <path d="M8.12147184,14.0817254 L8.08304638,14.2183492 C8.05393619,14.3212052 7.94719882,14.3813663 7.84395467,14.3522561 L5.66651232,13.7421065 C5.56326817,13.7133844 5.50310711,13.6058708 5.53182917,13.5030148 L5.57025462,13.366391 C5.59936481,13.2635349 5.70610218,13.2029857 5.80934633,13.2320959 L7.98678868,13.8422456 C8.09003283,13.8713557 8.15019389,13.9780931 8.12147184,14.0817254" id="Fill-17" fill="#F3BA2F"></path>
                            <path d="M10.1512285,40.550769 L6.56989861,42.5714044 C6.4422019,42.6428214 6.28112551,42.5966333 6.21009664,42.4689365 C6.1382915,42.3412398 6.18409153,42.1797753 6.31178824,42.1087464 L9.89311811,40.088111 C10.021203,40.016694 10.1822794,40.062494 10.2536964,40.1901907 C10.3247252,40.3178874 10.2793133,40.479352 10.1512285,40.550769" id="Fill-19" fill="#F3BA2F"></path>
                            <path d="M11.4604497,43.024359 L9.2624361,44.2873532 C9.13473939,44.3587702 8.97327486,44.312582 8.90185786,44.1848853 C8.83082899,44.0571886 8.87662903,43.8957241 9.00432573,43.8246952 L11.2023393,42.561701 C11.330036,42.490284 11.4915005,42.5360841 11.5629175,42.6637808 C11.6339464,42.7914775 11.5881464,42.952942 11.4604497,43.024359" id="Fill-21" fill="#F3BA2F"></path>
                            <path d="M12.7685064,45.099217 L10.2685231,46.5170775 C10.1404383,46.5884945 9.97897377,46.5426944 9.9079449,46.4149977 C9.8365279,46.287301 9.88232794,46.1258365 10.0104128,46.0544195 L12.5103961,44.6369472 C12.6380928,44.5651421 12.7995573,44.6109421 12.8709743,44.7386388 C12.9420032,44.8667236 12.8962031,45.0278 12.7685064,45.099217" id="Fill-23" fill="#F3BA2F"></path>
                            <path d="M33.2478371,15.9425424 L25.3336097,23.859439 L28.2446506,26.7715543 L33.2478371,21.766773 L38.2532877,26.7741214 L41.1643789,23.8619558 L33.2478371,15.9425424 Z M30.6038428,28.4845409 L30.3559634,28.7324297 L29.8463536,29.2435514 L29.8412898,29.2474743 L29.8463536,29.2524897 L32.758204,32.1636438 L35.6736784,29.2474743 L35.6736784,29.2447432 L35.670948,29.2447432 L32.758204,26.3312552 L30.6038428,28.4845409 Z M40.6722349,29.1303944 L43.588278,32.0464627 L46.5046235,29.1303944 L43.588278,26.214074 L40.6722349,29.1303944 Z M20.8675225,29.2164718 L23.7836664,32.1325401 L26.6999112,29.2164718 L23.7836664,26.3001514 L20.8675225,29.2164718 Z M33.3513279,36.2676032 L28.3493179,31.2629382 L25.435239,34.1712611 L33.3513279,42.0919501 L41.2660082,34.1712611 L38.3556015,31.2603711 L33.3513279,36.2676032 Z" id="Fill-1" fill="#FFFFFF" transform="translate(33.686073, 29.017246) rotate(-25.000000) translate(-33.686073, -29.017246) "></path>
                        </g>
                    </g>
                </g>
            </g>
        </g>
    </g>
</svg>