<?xml version="1.0" encoding="UTF-8"?>
<svg width="12px" height="12px" viewBox="0 0 12 12" version="1.1" xmlns="http://www.w3.org/2000/svg" xmlns:xlink="http://www.w3.org/1999/xlink">
    <title>切片</title>
    <g id="页面-1" stroke="none" stroke-width="1" fill="none" fill-rule="evenodd">
        <g id="首页" transform="translate(-1588.000000, -1598.000000)" fill-rule="nonzero">
            <g id="组2" transform="translate(530.000000, 885.000000)">
                <g id="列表" transform="translate(0.000000, 446.000000)">
                    <g id="编组-7" transform="translate(1018.000000, 260.000000)">
                        <g id="下拉" transform="translate(46.000000, 13.000000) rotate(-90.000000) translate(-46.000000, -13.000000) translate(40.000000, 7.000000)">
                            <rect id="矩形" fill="#000000" opacity="0" x="0" y="0" width="11.9882927" height="11.9882927"></rect>
                            <path d="M11.7505171,2.74185366 C11.431961,2.41287805 10.9154341,2.41287805 10.596878,2.74185366 L5.99531707,7.46165854 L1.3937561,2.74185366 C1.0752,2.41287805 0.558673171,2.41287805 0.240117073,2.74185366 C-0.0784390244,3.07082927 -0.0784390244,3.60409756 0.240117073,3.9329561 L5.39800976,9.22723902 C5.40468293,9.23461463 5.41053659,9.24234146 5.4174439,9.24948293 C5.57701463,9.41420488 5.78622439,9.49639024 5.99531707,9.4961566 C6.20440976,9.49639024 6.41361951,9.41420488 6.57319024,9.24948293 C6.58009756,9.24234146 6.58606829,9.23461463 6.59262439,9.22723902 L11.7505171,3.9329561 C12.0690732,3.60409756 12.0690732,3.0707122 11.7505171,2.74185366 Z" id="路径" fill="#BDC8DA"></path>
                        </g>
                    </g>
                </g>
            </g>
        </g>
    </g>
</svg>